<?xml version="1.0" encoding="UTF-8"?>
<svg id="_レイヤー_2" data-name="レイヤー 2" xmlns="http://www.w3.org/2000/svg" xmlns:xlink="http://www.w3.org/1999/xlink" viewBox="0 0 187.6 190.66">
  <defs>
    <style>
      .cls-1 {
        fill: #fff;
      }

      .cls-2 {
        mask: url(#mask);
      }

      .cls-3 {
        fill: #f1ab3f;
      }

      .cls-4 {
        fill: none;
      }

      .cls-5 {
        fill: #231815;
      }

      .cls-6 {
        filter: url(#luminosity-noclip);
      }
    </style>
    <filter id="luminosity-noclip" x="0" y="0" width="187.6" height="190.66" color-interpolation-filters="sRGB" filterUnits="userSpaceOnUse">
      <feFlood flood-color="#fff" result="bg"/>
      <feBlend in="SourceGraphic" in2="bg"/>
    </filter>
    <mask id="mask" x="0" y="0" width="187.6" height="190.66" maskUnits="userSpaceOnUse">
      <g class="cls-6">
        <g>
          <g>
            <path class="cls-5" d="M108.14,140.26c0,.93-.73,1.75-1.82,1.75h-45.07c-.97,0-1.7-.81-1.82-1.75,0,0,0-3.49-.48-8.61-2.67.12-5.82.12-9.09.12-3.51,0-6.91,0-9.81-.12-.61,5.12-.97,8.72-.97,8.72,0,.93-.85,1.63-1.82,1.63h-19.87c-.48,0-.97-.23-1.33-.47-.36-.35-.48-.81-.48-1.28,0-.23.61-25.24,4.97-49.9,5.45-30.71,11.27-41.87,11.51-42.34.24-.47.85-.81,1.45-.93.12,0,18.05-1.74,35.86-.81,24.84,1.4,31.99,21.05,35.26,38.15,1.58,7.68,2.54,21.29,3.03,31.41.61,12.91.48,24.31.48,24.43ZM49.86,90.71c-1.7,4.65-4.48,12.79-6.66,22.33,2.18-.12,4.36-.12,6.66-.12s4.36,0,6.42.12c-2.06-9.19-4.73-17.45-6.42-22.33Z"/>
            <g>
              <path class="cls-4" d="M108.14,140.26c0,.93-.73,1.75-1.82,1.75h-45.07c-.97,0-1.7-.81-1.82-1.75,0,0,0-3.49-.48-8.61-2.67.12-5.82.12-9.09.12-3.51,0-6.91,0-9.81-.12-.61,5.12-.97,8.72-.97,8.72,0,.93-.85,1.63-1.82,1.63h-19.87c-.48,0-.97-.23-1.33-.47-.36-.35-.48-.81-.48-1.28,0-.23.61-25.24,4.97-49.9,5.45-30.71,11.27-41.87,11.51-42.34.24-.47.85-.81,1.45-.93.12,0,18.05-1.74,35.86-.81,24.84,1.4,31.99,21.05,35.26,38.15,1.58,7.68,2.54,21.29,3.03,31.41.61,12.91.48,24.31.48,24.43ZM49.86,90.71c-1.7,4.65-4.48,12.79-6.66,22.33,2.18-.12,4.36-.12,6.66-.12s4.36,0,6.42.12c-2.06-9.19-4.73-17.45-6.42-22.33Z"/>
              <g>
                <path class="cls-1" d="M49.64,90.78c-.36.03-.1.07-.02.16l.02-.16Z"/>
                <path class="cls-1" d="M49.62,90.94l-.02.11s.04-.08.02-.11Z"/>
                <path class="cls-1" d="M49.69,91.88c-.33-.11-.05-.47-.5-.45-.17.28.03.56.5.45Z"/>
                <polygon class="cls-1" points="49.85 91.49 49.62 91.54 50.02 91.6 49.85 91.49"/>
                <polygon class="cls-1" points="50.01 91.3 49.93 91.35 50.25 91.54 50.01 91.3"/>
                <path class="cls-1" d="M49.75,92.6l-.13-.18c.24-.29.45-.01.61-.21-.09-.25-.66.13-.67-.22-.28.12.17.5-.29.6-.05.31.27-.08.48,0Z"/>
                <path class="cls-1" d="M55.92,104.03s-.02.03-.03.04c.05-.02.08-.05.03-.04Z"/>
                <path class="cls-1" d="M57.15,107.34c-.04.06-.05.11-.06.16.04-.03.08-.05.11-.09l-.05-.08Z"/>
                <path class="cls-1" d="M54.47,102.16c.04-.06.06-.12.07-.16-.06.04-.09.1-.07.16Z"/>
                <path class="cls-1" d="M45.61,112.24s.07-.08.11-.14h0s-.12.12-.12.12v.02Z"/>
                <path class="cls-1" d="M59.35,113.42c.03.1.07.21.12.32-.03-.16-.07-.26-.12-.32Z"/>
                <path class="cls-1" d="M54.09,100.96s0,.04.01.05c.01-.02.02-.05.03-.08l-.04.02h0Z"/>
                <path class="cls-1" d="M57.47,106.07c-.02.05-.03.1-.02.14.03-.05.03-.1.02-.14Z"/>
                <path class="cls-1" d="M50.26,95.82c-.02.07.02.11.09.13.06-.06.05-.11-.09-.13Z"/>
                <path class="cls-1" d="M50.68,96.98h0c-.05.02-.04.02,0,0Z"/>
                <path class="cls-1" d="M50.88,97.75h-.02s-.04.02.02,0Z"/>
                <path class="cls-1" d="M50.35,95.95c-.15.15-.71.37-.04.29l.08-.05c-.12.12.16.15.21.24.06-.03.1-.05.14-.08,0-.05,0-.11,0-.21.1-.15-.22-.12-.39-.18Z"/>
                <path class="cls-1" d="M55.8,104.05c.11-.04.03-.11,0,0h0Z"/>
                <path class="cls-1" d="M55.04,103.14s0,.07,0,.11c.01-.04.03-.08,0-.11Z"/>
                <path class="cls-1" d="M54.07,99.19s-.01.02-.02.03c.07-.01.05-.03.02-.03Z"/>
                <path class="cls-1" d="M55.07,103.35s-.02-.06-.02-.1c-.01.04-.02.07.02.1Z"/>
                <path class="cls-1" d="M54.07,100.46s-.01.02-.01.02c0,0,.01-.01.01-.02Z"/>
                <path class="cls-1" d="M49.81,99.7c.03.09-.15.09-.22.14.36.29.11-.33.41.02.02-.07-.02-.15-.06-.22l-.42-.02c.11.19.16-.05.29.08Z"/>
                <path class="cls-1" d="M45.7,111.38l-.02.04c.18-.19.24-.25.29-.35-.36.29-.7.73-1.17,1.05.06-.03.09-.02.09.02.21-.26.55-.53.81-.76Z"/>
                <path class="cls-1" d="M44.89,112.14l-.02.02s-.06.07-.08.1c.02,0,.03.02.02.05.06-.07.09-.14.09-.17Z"/>
                <path class="cls-1" d="M48.85,102.19s-.04.05-.06.07c.09-.02.09-.04.06-.07Z"/>
                <path class="cls-1" d="M53.22,110.18c-.05-.03-.11-.07-.16-.1.03.03.09.06.16.1Z"/>
                <path class="cls-1" d="M46.51,111.78s.02.05.04.06c.02,0,.03-.02.05-.02l-.08-.04Z"/>
                <path class="cls-1" d="M41.23,109.44c.45.14-.02-.1.32-.31l-.19-.25c-.13.2-.1.4-.12.56Z"/>
                <path class="cls-1" d="M49.97,99.65h-.04s0,0,0,0h.03Z"/>
                <path class="cls-1" d="M42.24,105.15s.05-.03.08-.04c-.03,0-.06.02-.08.04Z"/>
                <path class="cls-1" d="M45.28,112.34l.37.02-.03-.11c-.22.23-.06-.19-.34.09Z"/>
                <path class="cls-1" d="M40.04,113.25l-.35.24c.24.29.06.79-.09,1.28-.15.49-.27.96.19.88-.25.3-.17.33-.14.38.04.04.11.06.19.04.16-.02.39-.14.6-.26.44-.24.83-.49.84-.05l.11-.14c1.46.07,3.01.22,4.7.28.42,0,.84.02,1.26.03h.41s.32,0,.32,0c.43-.02.84-.09,1.24-.22v.2c.65.06,1.29.13,1.93.15l1.22.02h1.91s3.73,0,3.73,0l1.87.02s.1.02.1-.01l-.03-.11-.05-.23-.1-.45-.18-.9c-.32-.59-.78-.63-1.13-1.13-.01-.14-.12-.49.16-.36.23.38.44.34.57.5-.15-.54,0-1.14-.44-1.73-.08.1-.17.19-.26.28-.19-.23-.15-.46-.17-.62.19.12.51-.03.63.14-.55-.62-.5-.77-.39-.94.11-.16.28-.31.02-.77-.73-.18-1.55-1.22-2.11-1.44l.12-.24c.06.27.47-.12.53.21.12-.32-.22-.51-.19-.79-.15.09-.37.13-.47.05.05-.18.37-.28.36-.47l.25.13c.21-.18-.14-.21-.2-.31.26-.11.24-.39.56-.42-.43-.15-.25-.29-.55-.49-.21.35-.38.02-.59.11l.19.28c.07-.48.09.13.54-.02-.16.26-.84-.08-.68.24-.34-.35-.16-.49-.65-.8.15.23-.31.03-.42.2-.1-.31.14-.12.41-.3-.06-.17.19-.3-.2-.37.06-.32.36-.05.51-.24.35.02-.18.89.82.54.05.14.49.22.52.44.09-.22.35-.58.06-.75l-.58.14c-.06-.17-.46-.1-.44-.24.18.02.39-.16.31-.29-.07.06-.04.11-.14.12-.11-.25-.51-.18-.7-.46-.08.29-.24.39-.42.7-.42.04-.1-.15-.19-.28.06,0,.08.03.15-.03l-.23-.1c.09-.36.59-.12.72-.43.29-.27-.26-.2-.1-.39-.03.02-.07.04-.09.05,0-.03,0-.06,0-.08h-.03c-.11-.14-.12-.33-.44-.3.13-.06-.08-.14-.19-.16-.15-.06-.56-.18-.12-.46,0,0,0,0,0,0,0-.22.1-.43.28-.43l.02-.37.4-.07c-.19-.28-.41-.18-.87-.28.17-.29-.13-.62-.31-.72,0-.03,0-.07-.04-.12l-.12.17c-.05-.24-.25-.15-.3-.31-.03.04-.05.05-.01-.05,0-.03,0-.06,0-.1.04,0,.05.03.04.07l.12-.07c.36-.31-.32-.22-.24-.47.02.02.06.04.06.06.07-.14.57-.47.22-.42.04-.04-.04-.06-.14-.07l.03-.1s-.02.07-.03.1c-.13-.02-.28-.03-.2-.06l-.02-.31c.04-.07-.03-.13-.1-.18l.15-.1c-.06-.1.04-.13.09-.13.45-.54-.46-.49-.1-1.03-.29,0-.36.21-.5.26-.23,0-.48-.17-.66-.24.32-.29.47-.94,1.03-1.01-.06-.34-.3.2-.53.1v-.04c-.02.13-.17.28-.36.41-.28.11-.45-.15-.4-.26l.43-.07c-.24-.26-.83,0-1.3-.06.09-.29.5-.27.85-.43l-.18-.22.31-.1c-.13-.14-.43-.09-.38-.35.34.07.18-.43.64-.33.06-.16-.54,0-.15-.2-.36.02-.13.17-.21.26-.45.2-.31-.2-.49-.32.24-.09.32,0,.42-.22-.2.02-.38-.04-.18-.22-.31.1-.13-.18-.14-.29-.02.13-.2.37-.48.38-.15-.05-.24-.1-.26-.32l-.1.18c-.51-.03.23-.39.01-.59.22.04.24.1.49.12-.18-.07-.47-.21-.67-.33l.38-.35c-.23.05-.05-.23-.36-.13.12-.32.43.08.67.03.1-.38-.59-.08-.22-.54h.32c-.01-.1-.24-.25-.1-.31-.1.03-.04.07-.02.13-.63.14-.58-.32-1.2-.07v.15c-.19-.17-.67-.18-.5-.41.16-.19.46-.06.64-.04-.03-.21-.75.07-.77-.19-.06.16-.29.21-.48.19,0,.15-.02.48.23.34l.04-.07c.17-.04.25.01.35.02.06.19-.26.18-.37.26,0,.34.64-.19.71.11l-.11.08c.21.08.3.29.7.2-.37.26.27.27.07.49-.89.32-.1-.51-.64-.51-.13.21-.46.06-.68.06l.54.34c-.11.08-.51.36-.16.34v-.04c.17.15.52-.02.45.19-.07.05-.23.05-.3.06-.03.18.24.06.36.13-.03.18-.39.05-.45.2.4.06,0,.3.08.44.49-.23.89.37,1.23-.1l.47.25c-.23.2-.8-.02-1.19.22l-.07-.29c-.62.25.61.47-.04.89.02.16.1.1-.13.49l.55-.23c-.08.19-.38.34-.48.38.06.08.08.16.08.25-.09,0-.18,0-.22-.05-.28.21-.15.21.03.2.16.02.17.12.2.21l-.24-.02c.07.04.15.09.25.07.01.04.04.07.09.1.09-.06.4-.22.51-.4-.11.42.09.66-.28,1.1-.17.04-.41-.02-.42.02-.04.18.3.25.54.16.03.03.04.05.05.08-.13.07-.27.15-.28.23-.05.03-.08.07-.09.13.47-.09.33.27.55.27.03-.08,0-.16-.04-.24.34.03.72.03.5.2-.36-.14-.4.38-.63.08-.5.41.45,0,.32.31l-.18.23c-.34.07-.24-.21-.36-.14l.08.1c-.28-.04-.25-.51-.7-.66l-.02.58c.59.54.39,1.5,1.27,1.85l-.02-.02s.1-.01.23-.04l-.08.05.28.04c-.27.22-.26.47-.45.75q.17-.19.41-.27c.34-.07.48-.09.42.13-.23.07-.26-.05-.41.14.09-.11.28-.09.33-.01-.12.15-.1.34-.34.41-.08-.03,0-.09.02-.14-.08-.03-.15.26-.39.17l.12.17c-.16.17-.33.01-.44.09.25.27.84.28,1.08.53-.13.02-.66.17-.5.13-.1.27.7.32.82.56-.17,0-.13-.11-.23-.16.02.83.18,1.47-.13,2.33l.59.05-.31.29c-.15.86.36,1.35.7,2.04.09.22-.34.23-.47.38,0,.06.02.12.05.17.02.03.04.03.07.04.06.02.14.03.23.05.18.03.39.09.48.22-.19-.05-.69-.08-.7-.02.17.02.44.05.35.09l-.19-.04c-.26.01,0,.07-.09.13.04.12.51.38,1.29.97-.02.19-.72-.4-.85-.42.22.01-.13-.13-.36-.25.19.12.33.27-.14.02.04.07.02.07.37.35-.17-.14.08,0,.31.17-.15-.05.07.26-.56-.23.08.12,0,.1-.07.11-.07,0-.15,0-.22,0-.16-.01-.32-.04-.45-.03.05.26.08.1.13.28.03.34-.13-.18-.12.09l-.05-.27c-.09-.04-.09.46-.26.71,0-.31-.11-.26-.01-.44-.05.03-.03-.31-.11-.62-.07-.31-.14-.58-.2-.44l.14,1.3c-.01.13-.22.04-.2.13-.12-.26-.28-.56-.37-.56-.04-.33.19-.25.31-.24.03-.55-.41-.36-.23-.86-.27.08.03.28-.13.48l-.23-.12.18.19c-.2.16-.27.57-.52.27l-.27.53c-.02-.43-.19-.08-.33-.19l.09-.27c-.18.01-.25-.06-.37-.23.1-.38.17.09.21-.26l-.2-.13c0,.24-.13.43.02.58-.19.45-.29.84-.75.81-.21-.41.22-.37.13-.79-.49-.17-.58,1.1-.86,1.05-.36-.16-.33.22-.69.25.11-.29-.26-.3-.32-.57.03-.1.09-.2.13-.3-.13.09-.17-.02-.15-.23.01.38-.19.36-.34.55l-.04.33c-.13.11-.38.32-.48.24-.25.11-.33.4-.72.77.05-.3.28-.65.5-1.01-.04.17.09.07.13.17.4-.29.68-.99.78-.83.16-.8-.1.09-.12-.19.01-.05.02-.06.03-.07,0,0,0,0,0-.02.07-.1.15-.23.21-.63-.03.08-.19.8-.18.46-.14.22.05-.4.08-.46-.15.3-.47.94-.54.82.11-.15.21-.3.3-.45-.08,0-.44.66-.57.64.02.05-.38.44-.26.45-.22.24-.44.29-.45.16-.09.07-.14.15-.27.31-.09.31.46-.31.26.14.15-.16.29-.33.43-.49,0,.17-.19.56-.41.76.06-.02.14-.09.12,0-.4.73-.04-.26-.5.36l.16-.05c-.23.47-.61.42-.77.39-.04-.22-.14-.3.17-.64l.35-.15c.13-.27-.42.17-.55.16.04-.05.06-.08.07-.11-.02.03-.05.06-.08.1-.01-.02,0-.06.07-.14-.09-.02-.49.2-.47.09l-.34.31.22-.17c.09.01.05.2-.29.43-.54.22.09-.38.37-.65.62-.48.21,0,.51-.16.46-.47-.17-.04.02-.36.69-.5.2,0,.78-.47,0-.04-.13.03-.24.09-.06.03-.12.06-.16.08-.02,0,0-.04.04-.1.15-.11.22-.13.31-.18.12-.07.24-.16.43-.31.04-.05.07-.09.15-.16.11,0,.78-.63.97-.75.25-.21-.54.42-.13.07-.28.21-.8.67-1.03.79l.2-.21c.31-.23.66-.44.93-.66l-.21.12c-.19.13-.29.22-.54.38.21-.17-.7.42-.95.49.03-.08.08-.15.3-.29-.49.13-.42-.12-.84-.16.31.03.58-.2.85-.32.04.1.58-.09.92-.21-.05,0-.58.11-.77.19.24-.16-.34.01.03-.16.19-.09.5-.07.7-.13.04-.07-.62.09-.47-.03.07,0,.08,0,.18-.01.12-.06-.1-.09-.34-.11.65-.06-.02-.19.58-.13-.13-.13-.33-.02-.54-.07-.24-.12,0-.18.11-.25-.01.1.15.13.05.16l.42.06c.07,0,.07-.08.02-.15-.05-.07-.16-.13-.26-.2-.2-.13-.4-.25-.17-.42.15.28.29.15.54.34-.08-.09.12-.4-.24-.28.08-.15.18-.25.28-.34-.12-.18-.19-.37-.43-.52.1-.22.43-.31.64-.37-.16-.55.45-.86.28-1.44l-.03.03c.18-.37-.58.02-.45-.37.48.19.4-.15.69-.21.39-.42-.12-.95.34-1.31.1.03.22.1.2.19.25-.3.23-.61.35-.91l.06.03c.54-.38.2-.97.24-1.52.05.06.23.13.28.18.19-.23.39-.62,0-.94.57-.16-.08-.25.5-.5.09,0,.07.06.08.1.22-.14.21-.3.33-.47-.17-.53-.77-.84-.42-1.28.67.19.06.36.59.54-.09-.14-.19-.27,0-.36.23.17.16.07.38.2.21-.05-.55-.65-.49-.62-.13-.05-.21-.03-.22.07-.37-.25.13-.5.04-.8-.04.08-.25.28-.53.09.24-.28-.35-.6-.54-.91.4-.2.48.4.96.5.18,0,.59,0,.73.19.19-.24-.14-.56-.16-.83l.13.05c.06-.35-.39-.9-.03-1.1l-.2.1c-.06-.08.04-.24-.2-.42.21.08.48-.07.63.08-.64-.38-.16-.91-.76-1.3.2-.03.46.14.61.22-.13.19-.29.22-.06.42.05-.18.27-.25.42-.17-.37-.32-.39-.8-.79-1.04.26-.05.42-.14.76.03-.03-.62-1.2-.12-.98-.73.44-.16.37.44.63.09l.03.09c1.02.05-.59-.43-.45-.73.52.14.28.35.72.26-.02-.33-.72-.72-.46-.95l.2.12c.03-.2.26-.52.28-.72.1.03.08.05.09.09.31-.27-.2-.23.24-.39l-.21-.17c-.22.08-.56.26-.34.54-.22-.28-.73.05-1.13-.19l.16.1c-.9.2-1.21.77-1.69,1.26.38.55-.43.56-.21,1.09.57.26.09.12.09.5-.01-.21-.44-.17-.56-.09.13.12.16.22.18.32-.22,0-.85.28-.5.57-.26.15-.17-.11-.28-.2-.33-.02.18.25-.05.25,0,0-.06-.02-.08-.06-.09.33-.3.47-.49.78.57.22.11.4.27.62-.17-.11-.28.12-.42.18l.37.32c.31.3-.34.16-.21.46l.12-.02c.12.22-.37.56-.74.62.65,1.92-1.4,2.22-1.58,3.98.14.16.32,0,.56.17.02.19-.02.22-.06.37.2-.09,0-.12.15-.06l-.1-.28s.06.03.15.03c-.03-.09-.12-.22-.06-.31.11.19.53.36.31.51-.05-.03-.07-.06-.09-.13-.08.15.12.22-.03.31-.14.12,0,.12-.19.09l-.37.4c.45.38-.13.53-.2.59-.37-.16-.03-.34-.38-.57l-.33.09.31.1-.15.22-.06-.03c.11.06.22.13.1.16-.05,0-.14,0-.15-.03l.12.22c-.29-.19-.14.12-.5,0-.34.51.3.86-.34,1.21.2-.03.54.32.43.45-.12.06-.2.06-.33-.03l.14.25c-.65.09-.34.44-.64.76l-.16-.06c.16.19.27.38.16.57l-.32-.12c-.3.19.64.37.36.6.35.09.58-.04.92.02-.38-.03-.51.25-.23.25.07.31-.06.19-.15.19l.17.22c-.07.19-.48-.06-.66-.18.16.15.18.22.11.36-.07.15-.19.3-.27.47l-.13-.17-.18.46c.21.33.14.71-.11,1.11-.15-.07-.29-.15-.44-.24-.33.31.14.14.21.21.14.41-.22.54-.58.85.18.32-.12.72-.4,1.16-.28.43-.53.9-.19,1.03ZM53.88,99.35l-.06.06c-.1-.06-.19-.08.06-.06ZM54.39,101.57c-.26-.21-.01-.19.11-.25-.05.3.14.4.05.67.08-.06.2-.11.28-.14,0,.1-.07.22-.3.32-.5.02.1-.79-.14-.6ZM50.65,97.38s.08,0,.11,0h0s-.11,0-.11,0ZM51.45,98.54c-.09.05-.14.1-.16.15.12-.06.21-.12.16-.15ZM51.65,101.27c-.18.12-.08.23,0,.32,0-.05.04-.15,0-.32ZM51.96,111.67c.11-.08.16-.28.1-.42-.06.17-.19-.13-.25.13,0,0,0-.02-.01-.02.08.17.15.3.17.32ZM43.62,113.37c.22-.2.5-.42.62-.57v.02c.05-.07.1-.12.16-.17-.02-.04-.02-.09-.13-.03-.72.66-.99.76-.65.75Z"/>
                <path class="cls-1" d="M47.18,110.66s-.02,0-.03.02c0,0,.01,0,.03-.02Z"/>
                <path class="cls-1" d="M44.27,112.62s-.05.11-.04.18c.06-.08.09-.15.04-.18Z"/>
                <path class="cls-1" d="M51.36,92.53l.09.05.13-.21c-.29-.18-.56-.11-.88-.06.36.13.26.31.44.57l.22-.35Z"/>
                <path class="cls-1" d="M49.37,93.34c-.07.05-.26.18-.26.23l.2-.03.07-.2Z"/>
                <path class="cls-1" d="M49.44,96.58l.09-.29c-.19-.02-.39.34-.09.29Z"/>
                <path class="cls-1" d="M52.33,94.48l-.25-.06c-.13.17-.06.31.18.26-.17-.11.11-.08.07-.2Z"/>
                <path class="cls-1" d="M49.6,97.23c.39-.04-.09.29.27.23-.12-.03.1-.33-.27-.23Z"/>
                <path class="cls-1" d="M53.05,95.95c.32-.19-.02-.22,0-.39.04.13-.27.42,0,.39Z"/>
                <path class="cls-1" d="M51.04,98.17c-.27.07-.28-.04-.25-.17.09.01.22,0,.28.04-.26-.12-.23-.15-.4-.26-.14.21-.19.47-.53.55.28.03.69.06.89-.16Z"/>
                <path class="cls-1" d="M53.21,96.3c.06-.16.28-.31.21-.46-.18.08-.43.22-.33.38l-.33.03c-.17.24.39-.19.44.04Z"/>
                <path class="cls-1" d="M50.54,99.08l.12-.12c-.3-.1-.25-.36-.67-.34.09.2.33.42.55.46Z"/>
                <path class="cls-1" d="M52.83,97.1l.44-.11c0-.2-.14.06-.26.03.05-.07.06-.16-.03-.17.13.18-.34.12-.14.25Z"/>
                <path class="cls-1" d="M53.49,97.53l.25.17.42-.32c-.25-.22-.27.07-.67.15Z"/>
                <path class="cls-1" d="M53.28,97.9l-.07.05.74.15c-.33-.12-.29-.15-.67-.2Z"/>
                <path class="cls-1" d="M51.7,102.84c.2-.02.37-.28.19-.14-.16,0-.33.34-.19.14Z"/>
                <path class="cls-1" d="M54.93,101.03c-.11.14.24.38.41.49-.14-.14-.17-.58-.41-.49Z"/>
                <path class="cls-1" d="M55.41,101.56s-.04-.02-.07-.04c.02.02.04.04.07.04Z"/>
                <path class="cls-1" d="M57.98,107.24s.03.03.06.03c-.02-.01-.04-.02-.06-.03Z"/>
                <path class="cls-1" d="M57.84,107.13c.04-.11-.13-.27-.34-.26.13.13.23.25.48.37-.04-.06.08-.18-.15-.11Z"/>
                <path class="cls-1" d="M58.16,108.82c-.15-.11-.14-.3-.31-.22-.07.08.2.32.31.22Z"/>
                <path class="cls-1" d="M50.83,110.1c-.14-.1-.22-.03-.18.25.15,0,.07-.17.18-.25Z"/>
                <polygon class="cls-1" points="50.47 110.41 50.45 110.27 50.36 110.06 50.47 110.41"/>
                <path class="cls-1" d="M49.52,110s.03-.09.06-.12c-.05.04-.1.08-.06.12Z"/>
                <path class="cls-1" d="M49.6,109.85s-.02.01-.03.02l.03-.02Z"/>
                <path class="cls-1" d="M49.67,109.94v-.15s-.03.04-.06.06c.03-.01.05,0,.06.09Z"/>
                <path class="cls-1" d="M49.24,109.95l.18.43c.19-.21-.21-.22-.03-.68l-.15.25Z"/>
                <path class="cls-1" d="M48.61,110.08c-.17-.14-.41.54-.52.04-.48.27.12.84-.43,1.05.53.25.25-.98.72-.71-.23-.31.15-.25.22-.38Z"/>
                <path class="cls-1" d="M48.7,110.93c.03-.25-.19-.27-.26-.1.06.03.18.38.26.1Z"/>
                <polygon class="cls-1" points="47.66 110.32 47.5 110.13 47.47 110.29 47.66 110.32"/>
                <path class="cls-1" d="M47.37,110.23c.02-.1.03-.2.04-.3,0,.12-.03.09-.04.3Z"/>
                <path class="cls-1" d="M47.35,109.86c.03-.1-.24.59-.13.43v-.03c.03-.11.1-.35.13-.41Z"/>
                <path class="cls-1" d="M46.33,110.95s.14-.07.24-.22l-.2.14-.04.08Z"/>
                <path class="cls-1" d="M44.95,112.63c-.26.42.24-.04.28.1-.12-.08-.05-.14-.28-.1Z"/>
                <path class="cls-1" d="M46.77,110.35c.17-.17.09-.06.08-.03.2-.24.13-.18-.08.03Z"/>
                <path class="cls-1" d="M46.54,110.5c.16-.17.25-.24.36-.35.18-.19.15-.16-.15.07-.21.18-.76.67-1.04.88.32-.15,1.16-.93.58-.33.27-.25.53-.49.77-.73.1-.12-.53.51-.53.47Z"/>
                <path class="cls-1" d="M45.46,111.89l.13-.24c-.2.24-.31.28-.45.36-.49.54.25-.08.32-.12Z"/>
                <path class="cls-1" d="M46.03,110.54s-.08-.01-.12-.03l-.04.06c.05,0,.11-.02.17-.03Z"/>
                <path class="cls-1" d="M46.25,110.35l.18-.11c-.11.05-.21.09-.32.12.04,0,.09,0,.13,0Z"/>
                <polygon class="cls-1" points="46.48 110.14 46.45 110.17 46.6 110.12 46.48 110.14"/>
                <path class="cls-1" d="M46.63,109.94l-.25.11c.06,0-.24.16.11,0-.11.03-.06-.03.14-.11Z"/>
                <path class="cls-1" d="M41.26,108.14c.12.14.26.11.4.08-.11-.09-.23-.13-.34-.2.01.03.04.08-.06.12Z"/>
                <path class="cls-1" d="M41.96,107.88l-.36-.34c-.13.25.19.38.19.63.16-.07-.11-.28.04-.38l.13.09Z"/>
                <path class="cls-1" d="M43.55,103.31c.26.1.24.03.36.26-.1-.28.02-.47.06-.75-.18,0-.41-.29-.37-.16l.07.35-.17-.1c-.27.15.26.22.05.41Z"/>
                <path class="cls-1" d="M50.19,92.3c.12.07.24.08.37.08-.08-.22-.36-.04-.37-.08Z"/>
              </g>
              <g>
                <path class="cls-1" d="M108.3,140.26c.29.27.24.22.24.03-.02-.19-.09-.53-.11-.86-.05.28,0,.56-.14.83Z"/>
                <path class="cls-1" d="M108.44,139.43l.06-.59c-.06.16-.07.36-.06.59Z"/>
                <path class="cls-1" d="M108.68,133.94c.29,1.26-.09,2.76.34,3.55.26-1.27.14-3.24-.34-3.55Z"/>
                <polygon class="cls-1" points="108.41 135.84 108.65 136 108.27 134.89 108.41 135.84"/>
                <polygon class="cls-1" points="108.2 136.63 108.28 136.47 108.04 134.74 108.2 136.63"/>
                <path class="cls-1" d="M108.79,129.68l.08,1.26c-.3,1.19-.44-.78-.64.02.02,1.58.67.54.59,2.51.3-.16-.04-3.16.44-2.85.12-1.66-.28-.08-.47-.94Z"/>
                <path class="cls-1" d="M91.41,57.89c-.03-.06-.06-.1-.09-.15,0,.08.03.15.09.15Z"/>
                <path class="cls-1" d="M74.38,49.08c-.25-.1-.51-.19-.77-.27.07.06.16.13.29.19l.48.07Z"/>
                <path class="cls-1" d="M98.82,68c.08.29.16.54.23.78,0-.17-.06-.4-.23-.78Z"/>
                <path class="cls-1" d="M18.01,101.77c-.03-.05-.06-.1-.12-.13,0,0,0,.02-.02.04l.1.25.04-.16Z"/>
                <path class="cls-1" d="M51.58,48.99c-.33.01-.64.03-.93.07.54,0,.8-.03.93-.07Z"/>
                <path class="cls-1" d="M101.41,74.93c-.03-.11-.06-.2-.09-.29.02.1.04.23.07.38l.03-.07s0,0,0-.01Z"/>
                <path class="cls-1" d="M80.29,51.38c-.23-.11-.45-.21-.64-.27.21.11.42.2.64.27Z"/>
                <path class="cls-1" d="M108.6,110.32c.02-.36-.02-.65-.1-.92-.06.23-.05.52.1.92Z"/>
                <path class="cls-1" d="M108.05,102.87v.04c.06-.05.05-.07,0-.04Z"/>
                <path class="cls-1" d="M107.69,98.1l.02.08c.04-.06.04-.09-.02-.08Z"/>
                <path class="cls-1" d="M108.5,109.4c.15-.63.73-.85.03-1.61l-.08.16c.12-.49-.19-1.18-.24-1.73-.06.06-.11.13-.15.21.01.28.02.65.01,1.22-.1.68.25,1.1.43,1.74Z"/>
                <path class="cls-1" d="M91.55,57.86c-.04.13.33.43,0,0h0Z"/>
                <path class="cls-1" d="M95.63,62.48c-.11-.17-.21-.34-.32-.52.09.18.18.35.32.52Z"/>
                <path class="cls-1" d="M103.27,84.79s0-.08,0-.12c-.07-.02-.05.07,0,.12Z"/>
                <path class="cls-1" d="M95,61.49l.31.47c-.08-.16-.16-.32-.31-.47Z"/>
                <path class="cls-1" d="M102.05,77.7s0-.07,0-.1c0,.02,0,.06,0,.1Z"/>
                <path class="cls-1" d="M56.57,140.1c-.04-.45-.02-.82.02-1.17.04-.23.09-.38.1-.61-.24-.49-.22.02-.2.48,0,.19.01.38.01.53,0,.18,0,.31,0,.38-.02.13-.07,0-.18-.72.03.88.06,1.59.27,2.14.04-.42.15-.86.28-1.28-.2-1.6-.11,1.12-.3.25Z"/>
                <path class="cls-1" d="M16.4,107.68l.06-.2c-.2.12-.25-.02-.44.77.21.71.75-.3.93.92,0-.23.04-.57.12-.89-.31.46-.52-.05-.67-.6Z"/>
                <path class="cls-1" d="M17.07,108.28s.02-.02.03-.03c.05-.05.08-.1.12-.16.02-.17.06-.33.1-.47-.09.12-.18.37-.25.66Z"/>
                <path class="cls-1" d="M50.62,134.43c-.2-.01-.38-.02-.55-.03.27.08.43.07.55.03Z"/>
                <path class="cls-1" d="M52.96,43.73c.24-.05.47-.1.65-.14-.36.03-.54.08-.65.14Z"/>
                <path class="cls-1" d="M18.34,96.29c.06-.18.11-.36.15-.56.01-.12.02-.22.04-.36l-.19.93Z"/>
                <path class="cls-1" d="M18.54,134.71c-.45-.43.02.31-.29,1.11l.22.76c.1-.69.06-1.33.07-1.88Z"/>
                <path class="cls-1" d="M56.58,141.23s.03-.01.04,0c-.01-.03-.02-.05-.03-.1v.1Z"/>
                <path class="cls-1" d="M31.37,139.15c.13.02.24.04.37.06-.07-.03-.19-.05-.37-.06Z"/>
                <path class="cls-1" d="M17.82,103.82l.42-2.87-.23.82c.17.43-.41,1.61-.19,2.05Z"/>
                <path class="cls-1" d="M19.6,122.49l.3-.23c-.38-2.9.79-6.09.18-8.44,1.36-3.36-.65-2.37.59-5.45l-.15.09c1.35-10.43,3.74-21.28,5.4-30.95l.19.06c1.86-7.66,3.8-15.21,6.32-22.41.31-.9.65-1.79.99-2.66l.53-1.29.44-1.02c.02-.07.08-.13.17-.13l2.55-.21c3.87-.3,7.77-.5,11.68-.6,1.45-.23.56-.65,1.81-.91.55,0,1.79-.05,1.8.19-1.06.16-.45.36-.81.47,1.76-.07,4.03.18,5.6-.12l-1.32-.31c.61-.14,1.57-.05,2.12-.04-.23.16.57.51.09.58,3.31-.78,2.58.35,5.35.08.56-.66,4.08-1.14,6.38-1.44l1.16.3c-1.55-.16,0,.48-1.93.27,1.59.35,3.08.21,4.57.5-.26-.22-.15-.43.46-.38.9.29.91.63,1.93.89h-1.06c.63.38,1.28.18,1.93.28.16.26,1.59.84,1.24,1.04.71.04,1.17.15,1.63.28.47.13.95.26,1.65.49-1.29-.94.51-.17.45-.46-.55-.23-1.1-.45-1.69-.58.58.23.82.36.84.41.03.05-.12-.04-.37-.09-.49-.11-1.26-.28-1.25-.02-1.05-.58,1.8-.23-.1-.79.58.13,1.05.25,1.46.37.41.11.72.29,1.06.43.67.29,1.36.55,2.55.92-1.38-.57.41-.16-.25-.63,1.68.91.33.37.69.93.88.53,1.04.96,2.04,1.16,1.27,1.07-.39.12.17.78-.66-.07-3.64-2.79-3.79-1.56-.77-.33-1.84-.44-2.92-.91.91.54,2.07,1.48,3.31,1.83l.34-.48c.83.51,1.22.27,1.8.7-.41-.06.03.51.72.89-.14-.19-.42-.34-.29-.38,1.23.8,1.59.67,3.07,1.68-1.06-1.03-1.17-1.38-2.13-2.45.55-.12.82.57,1.5,1.04-.13-.03-.27-.13-.14.08l.82.4c.68.65.52.74.35.78-.19.06-.37.06.09.67.49.99,1.15.88,1.58,1.59,0-.06-.02-.13-.03-.18.12.13.2.23.26.3,0-.01,0-.02.01-.03.69.69,1.31,1.56,1.74,1.58-.05.17.59.64.86.85.41.39,1.46,1.31,1.51,2.27l-.04-.05c.62,1.08.91,2.04.65,1.88.28.61.59,1.2.85,1.81h-.45c.86,1.59,1,1.32,1.91,2.3.17.64.46,1.51.81,2.29.35.78.71,1.5.9,1.9.03.14.1.36.23.7l-.09-.79c.44,1.39.58,1.15.89,2.07-.03-.2-.01-.23.09.29.04.16.07.33.12.54-.05-.03-.11-.24-.14-.46l-.08.21c-.1,1.24.71,1.66.9,2.9-.05-.11-.13-.3-.16-.42.09.7-.26,1.82.16,2.02,0,.17.12.39.26.61l.06.52c-.03-.21-.05-.37-.06-.51.19.29.4.55.32.61.12.58.2,1.18.31,1.78.01.35.15.79.28,1.15l-.1.33c.16.64.06.66,0,.59-.14,2.31.91,3.38.74,5.89.34.43.33-.6.47-.69.27.35.64,1.73.87,2.41-.24,1.14-.24,4.53-.85,4.05.16,2.02.28-.66.57.33v.23c0-.71.13-1.27.3-1.69.28-.19.55,1.6.52,2.16l-.46-.34c.32,1.86.93,1.41,1.46,2.54-.04,1.51-.5.68-.86,1.03l.23,1.56-.32.03c.17,1.01.49,1.23.46,2.65-.37-1-.15,2.14-.66.76-.05.79.58.98.18,1.4.38.52.12-.72.2-1.12.47-.35.36,1.71.54,2.64-.25.1-.34-.61-.44.51.21.22.4.91.2,1.56.32-.02.14,1.25.15,1.88.03-.71.2-1.75.51-1.3.16.54.25,1.02.28,2.27l.1-.87c.53,1.07-.24,1.83-.02,3.32-.22-.62-.24-1.01-.51-1.55.19.7.49,2.03.68,3.12l-.42,1.28c.24.15.03,1.42.35,1.41-.16,1.58-.43-1.25-.68-1.39-.14,1.97.6,1.56.17,3.46l-.32-.62c0,.63.21,1.88.06,1.96.11,0,.06-.32.05-.71.66.37.53,2.89,1.19,2.64l.02-.87c.16,1.33.64,2.27.42,3.3-.2.79-.46-.54-.64-1.01-.02,1.25.75,1,.71,2.51.09-.79.33-.64.51-.17.03-.87.12-2.68-.15-2.36l-.06.32c-.17-.08-.25-.55-.34-.78-.03-1.19.29-.56.41-.8.06-1.98-.67-.14-.7-1.95l.12-.24c-.19-.86-.27-2.2-.68-2.43.41-.8-.25-2.04-.02-2.91.94-.2.06,3.07.6,4.08.16-.95.47.53.7.92l-.51-2.98c.12-.24.56-1.14.19-1.67v.24c-.17-1.18-.54-.85-.46-1.88.08-.16.24.15.31.22.04-.95-.25-.78-.36-1.41.04-.95.41.45.48-.34-.42-1.08,0-1.74-.07-2.69-.51.43-.95-3.73-1.3-1.66l-.5-2.25c.23-.73.85,1.52,1.26.86l.09,1.82c.65-.34-.66-3.77,0-5.02-.04-.97-.11-.73.08-2.59l-.57.36c.07-.96.36-1.29.47-1.35-.08-.56-.11-1.06-.12-1.58.1.13.19.32.25.65.27-.74.13-.94-.07-1.18-.18-.37-.21-.96-.26-1.56l.27.52c-.08-.36-.18-.8-.29-.83-.03-.25-.06-.48-.12-.7-.09.17-.39.59-.48,1.46.04-2.23-.25-3.94.02-5.88.18.05.48.82.47.58-.02-.96-.43-1.95-.68-1.83-.04-.21-.07-.38-.09-.52.13-.2.26-.44.23-.89.04-.11.07-.29.04-.61-.51-.26-.52-2.1-.8-2.46.01.43.1.96.19,1.49-.42-.72-.88-1.34-.71-1.96.51,1.36.26-1.58.71.53.37-1.59-.55-.72-.6-2.33l.04-1.06c.37.09.48,1.63.56,1.37l-.17-.71c.39.67.67,3.4,1.25,5-.08-1.12-.18-2.24-.29-3.37-.54-2.1-1.02-4.42-1.53-6.66-.29-1.12-.55-2.23-.9-3.25-.35-1.02-.73-1.97-1.15-2.78l.05.15c-.05-.05-.12-.06-.26-.07l.03-.18-.47-.6c.03-.86-.31-2.35-.57-3.65.1.84.1.84-.12,1-.38-.04-.56-.1-.88-1.27.22-.1.49.6.35-.3.06.47-.25.15-.47-.33-.08-.7-.49-1.76-.29-1.86.19.26.23.53.27.74.2.26-.32-1.27.25-.49l-.59-1.11c-.12-.75.5.31.49,0-.52-.91-.99-1.56-1.51-2.15-.53-.59-1.05-1.14-1.57-1.92.15.01.64-.24.49-.18-.26-.69-.83-1.27-1.43-1.84-.61-.57-1.19-1.16-1.71-1.79.3.08.58.63.92,1-2.74-4.25-5.81-7.21-9.68-10.18l-1.35-.18c-.3-.31-.63-.58-.96-.88-.56-.31-1.1-.61-1.64-.89-.27-.14-.54-.27-.8-.41-.28-.1-.55-.2-.82-.3-1.09-.38-2.16-.73-3.22-1.03-2.17-.39-4.31-.81-6.68-.88-1.47-.12-.85-.48-1.54-.71-3.19-.28-3.96.37-6.96.41.42-.16,1.13-.63-.16-.68-.24.15-.41.41-1.22.3l.42-.17c-.74-.26-1.46-.03-3-.15-2.72,0-5.32.43-7.53,1.11-2.4,0,.23-.61-.22-.72,1.7.16,1.17-.13,1.54-.33-.89.18-1.97.3-2.45-.09-1.25.06-1.81.07-3.04.38.62-.16,1.16.04.58.24-1.03-.11-3.61.17-3.49-.34-2.95.2-6.08.41-9.26.62l-1.22.1-1.01.1c-.33.06-.65.15-.96.28-.62.25-1.2.62-1.65,1.12-.44.49-.72,1.14-1.02,1.74-.73,1.57-1.32,3.07-1.88,4.59-.14,1.11.38-.74.34-.11-.23,1.59-.59,1.11-.76,2.39l-.08-.58c-.67,1.76-.79,3.8-1.08,5.59-.21-.38-.68,1.34-.42-.14-.21.85-1.83,1.49-1.76,2.23l1.52-.59c.11.08-.31,1.24-.2,1.15-.47.66-1,1.49-1.14,2.01-.38.16.03-1.11.24-1.81-.51-.26-.99,2.29-1.2,1.13-.33,1.54.33-.14.28.82l-.47,1.29.46-.97c-.15,1.15.15,1.63-.51,3.03l.13,1.66c-.46.05-.36,1.1-.64,1.86l-.15-.56c-.23,1.05-.4,1.44-.71,2.06-.23-.68.31-.93.02-1.27l-.4,1.13c.24.05.25.83.59.04.19,1.17.41,1.84-.2,4.52-.67,1.12-.08-1.38-.59-.97-.79,2.76.32,3.64-.05,5.26-.58,2.05-.2,2-.57,4.12-.16-.73-.57,1.42-.91,1.76l-.14-.89c-.03.66-.26,1.26-.43,1.03.4-.05-.17,2.81-.21,4.31l.37-.2c-.08,1.17-.16,2.78-.42,3.98-.17,1.82.18,1.46.33,2.9-.41.73-.74.59-1.06.28.24-.46.27-1.29.49-2.08.05-2.33-.31-4.22.22-6.48-.62-1.13-.17,1.56-.63,2.62-.04-.04-.04-.12-.04-.21-.02.1-.04.19-.07.27.04-.84.14-2.19-.22-2.49-.15,1.39.62,1.13,0,2.78,0,1.3-.76,2.23-.94,2.99.17.89.79,1.02.36,3.07l-.31-.97c-.35,2.35.49,1.19.17,3.36.16-.76.33.8.54-.65.14.75-.04,2.33-.31,3.49.03.32.14.08.29.16.46-1.26-.03-2.1.56-3.11l-.35-.97c.34-1.19.74-1.26.82-.49.03-.34,0-.65.12-.89.74-.11-.45,1.42.1,1.92l.06-.86c.51-.3.14,2.05-.04,3.14-.39,1.22-.59,2.35-.94,2.39l.06-1.69c-.38.84-.1,2.16-.23,3.13-.05.06-.1.15-.14.26.04-.05.07-.07.1-.07-.04.21-.11.38-.21.53-.12.85-.04,2.14-.24,2.92l.31-.07-.16-.13c.1-.78.4-1.83.56-1.21.02,1.79-.6,2.08-.91,2.48-.42-.46.19-1.73.13-2.64-.51.49-.25,1.79-.74,3.59-.43-.78.24-2.12-.18-2.58-.25,1.47.06,1.89-.22,3.43-.21-.22-.09-1.74-.39-1.67l-.25.98c.23-2.46-.68.37-.59-1.56-.31.88.28,1.3-.17,2.56.25-.34.75-1.32.83-.07l-.28,1.38c-.3.56-.39-1.5-.69-.62l.03,1.47c.15-.04.3-.73.46-.27-.25.83.45,1.43.59,2.44-.08.79-.17,1.41-.37,1.67.28,2.02.07,4.54.37,6.4-.21-1.27-.52.01-.8.75.04-1.44-.43-1.49-.74-1.41-.01.88.43,1.49.62,1.06-.3,1.45.26,1.03-.14,2.3-.22.82-.44-.45-.64-.17-.12,1.58.54.47.33,2.18-.06-.1-.07-.26-.16-.12-.15.92.02,1.94.24,2.15-.66.96-.07,2.79-.66,2.57.07,2.26.34-.32.53.13.11.47.1,1.12.04,1.73-.09.76-.17,1.46-.21,1.8,0-.21-.02-.42-.02-.63,0-.2-.02-.45-.03-.55-.02-.27-.03-.53.03-.79l-.43.46c-.03.19-.04.31-.06.51-.02.25-.03.48-.03.69,0,.42.04.75.07,1.02.06.56.25.83.42,1.09.2.25.39.5.66.85.28.37.72.83,1.58,1.27-.98-.32-1.13-.45-1.23-.4-.09.03-.11.19-.58-.12.12.11.36.35.67.55.32.2.69.38,1,.49.64.19.95.22.11-.21.7.28,1.35.37,2,.39.32.02.63.04.92.05.27.02.38.04.57.06.9-.16,1.87-.28,2.39-.55,1.41.04,2.46.34,3.14.52,2.97-.3,5.72.21,8.85-.11l-.23-.03c2.43.08-1.08-.55,1.45-.54-.17.26.21.34.73.4.07,0,.13.01.2.02.11,0,.22.01.33.02.23.01.47.03.7.04.47.03.9.02,1.23.02.93-.14,1.77-.65,2.31-1.34.55-.7.75-1.48.8-2.37,0-.34.05-.69.08-1.02l.03-.62.07-1.19c.06-.79.17-1.6.37-2.45.1.03.21.23.16.78.05-.27.09-.53.14-.78l.03-.18v-.05s.04-.09.04-.09c.03-.12.04-.23.05-.35-.07-.33.28-.22.48-.23v.06c.1.05.16.09.24.12.39.03.78.05,1.16.06.77.02,1.53,0,2.3-.03,1.53-.09,3.08-.18,4.73-.28-.27.07-.34.26-.54.33.83.05,1.91.08,2.93.04.51-.02,1-.06,1.44-.12.22-.03.42-.07.61-.11.09-.03.18-.05.27-.07.11-.03.06-.05.1-.08.21.25.2.21.33.17.05-.02.12-.04.18-.03.02.02.08,0,.06.07-.02.08-.06.17-.11.27-.08.09-.08.02-.1.02-.07.16-.1.22-.11.28v.08s-.02-.02-.01.05v.21c.01.14.01.29.02.44.24,1.33.52,2.15.73,3.04l.04.17.04.29c.02.2.05.4.07.6.04.41.09.83.21,1.24.22.81.69,1.78,1.7,2.54-.09.36-.83-.05-1.36-.76-.56-.7-.78-1.6-1.05-1.55.41,1,.95,1.83,2.08,2.85-.91-.35-.27.03-.94-.22.37.52,1.58,1.11,2.68,1.06.56,0,1.11-.13,1.48-.19.37-.07.6-.12.59-.1.07-.14-.34-.19-1.42-.2.35-.08.85-.15,1.44-.17.2,0,.42-.01.65-.02.2,0,.42,0,.64,0,.89.02,1.87.08,2.65,0-.5-.01-2.09-.15-1.49-.47,2.08.15,2.77-.52,4.22-.8,1.91.31-1.41.58-1.05,1.07.32.18,1.09.56.29.75,1.72.1,2.96-.31,4.5-.42l-.04.14c2.14-.06,4.43-.66,6.23-.38l-.95-.16c.35-.08,1.43-.04,2.03-.32-.06.23,1.33.43.76.62.95-.73,4.88-.44,5.94-1.14.57.18.11.48-.06.65-1.35-.06-1.81-.21-2.52.08,1.13-.01,1.95.18,1.78.34,1.13-.45,3.81-.63,4.38-1.09.82.23,1.61.35,1.32.73,3.45-.24-1.71-1.17,2.19-1.16,1.78.37-1.74.5.72.62l-.45.06c1.77.98,1.24-.7,3.25-.66.27.53-1.4.38-.01.76,1.84-.13,2.64-.92,4.48-.75l-.29.23c1.18-.04,3.46.07,4.63.02.06.1-.11.09-.34.12.14.01.26.02.37.03.16,0,.31,0,.45-.02.27-.03.48-.1.64-.16.32-.13.44-.26.55-.35.1-.1.19-.18.39-.36.18-.18.52-.45.84-1.13,0-.3-.05-.58-.14-.83-.07.67-.55,1.62-1.41,2.05-.42.23-.88.32-1.31.34-.34.02-.65.06-.94.13,1.12-.3-1.76-.67-1.2-1.13l-.22.18c-2.94-.78-6.72-.88-10.45-1.17-2.35.54-4-.22-6.53.16-.39.62-.47.12-2.64.25,1.15-.08.14-.47-.59-.56-.42.16-.94.22-1.45.28-.44-.21-3.17-.71-4.17-.29-1.32-.2.31-.2.6-.33-.54-.32-1.07.25-1.51.04,0,0,.02-.07.16-.1-2.02.03-3.22-.14-5.32-.21-.17.61-2.06.23-3,.45.3-.2-1.18-.23-1.78-.34l-1.12.45c-1.11.38-1.55-.27-2.99-.06l.35.11c-.13.02-.29.04-.47.04-.18,0-.4,0-.48,0-.23-.02-.49-.05-.71-.11-.48-.17-.55-.8-.41-1.06-.06-.1-.08-.21-.12-.32l-.05-.18c-.02-.07-.03-.09-.05-.27-.07-.58-.13-1.15-.19-1.71-.05-.55-.11-1.09-.16-1.62-.06-.68-.11-1.35-.17-2.01-.06-.75-.12-1.5-.17-2.23l-.04-.56-.02-.28v-.14s-.01-.05-.02-.07h-.07s-1.07-.02-1.07-.02c-.72-.02-1.44-.04-2.16-.06l-1.11-.03-.45-.02-.36-.02c-1.89-.11-3.81-.23-5.87-.35-1.03-.07-2.11-.12-3.24-.15-.57,0-1.15-.02-1.74-.03-.74,0-1.49,0-2.27,0-1.09.17.85.32.03.58-1.6.05-1.95.02-3.4.01,1.39.18,1.04-.03.99.14l2.13-.15c.12.05-.12.06.11.15.36-.03.75-.06,1.17-.09.28-.03.58-.05.89-.03-.47.07-.69.22-1.12.33-.48.11-.96.17-1.86.07.11-.06.33-.08.79-.11-1.51-.05-1.43.16-2.59.03-.18-.01-.32-.02-.45-.03-.09.04-.05.18-.08.24-.02.16-.03.24-.04.3-.01.1-.02.05-.12.05l-.69,4.01c.37,1.5-.33,3.21-.43,3.67-.37-.36.09-1.92-.23-2.68l-.41,1.01.31.1-.25,1.47-.05-.09c.05.09.11.19.13.31.01.06.01.12,0,.2,0,.05-.02.05-.05.07-.05.01-.14.02-.15-.02.02.03.03.06.05.1.03.07.06.16.09.25-.29-.33-.14.2-.49-.13-.12.08-.22.1-.3.13-.04.02-.09.04-.13.06-.03,0,0,.01-.07.02l-.2.02-.4.03c-1.05.09-2.04.13-3.56-.13.49.18-.96.61-1.9.54-.54-.09-.68-.18-.33-.33l-1.23.2c-1.54-.6-3.03-.21-5.28-.42l.12-.17c-.83.2-1.73.36-2.98.3l.23-.34c-.77-.12-1.06.06-1.37.24-.13.09-.09.18-.18.24-.06.05-.15.07-.23.02-.19.36.15.55.25.9-.2-.36-.81-.44-.82-.19-.43-.04-.54-.18-.53-.24,0-.06.08-.08.11-.14-.15-.06-.26-.17-.35-.29.03-.6.48-.3.7-.33-.2-.06-.22-.3-.19-.51.07-.56.14-1.15.21-1.75l.14.51.14-1.63c-.23-1.08-.18-2.58.05-3.95l.43.98c.3-.95-.14-.51-.21-.77-.15-1.54.2-1.85.52-2.64-.35-2.48,1.11-4.81.56-6.96ZM103.38,84.18l.02-.24c.18.49.32.76-.02.24ZM100.04,71.23c.74,1.44.32,1.05.25,1.2-.39-1.54-.89-2.28-1.23-3.65,0,.25-.11.34-.16.43-.16-.53-.33-1.06-.18-1.34.18.11.37.41.54.8.15.4.29.88.4,1.32.23.88.37,1.6.38,1.23ZM108.02,100.65c-.04-.05-.08-.12-.12-.18h0s.12.18.12.18ZM106.8,92.62c.09-.13.12-.33.13-.58-.11.16-.2.32-.13.58ZM104.37,76.54c.09-.42-.2-1.24-.41-1.83.06.29.14.81.41,1.83ZM25.81,61.36c.06-.49.13-1.44-.25-.67.05.44-.46,1.11-.3,1.51-.02.04-.03.05-.05.07.3-.43.54-.78.59-.91ZM18.26,108.52c-.19-.11-.36-.49-.53-.28,0-.04.02-.09.03-.13-.08.11-.15.21-.18.11-.09.38-.17.78-.15,1.06.63.2.64,1.03.83-.76Z"/>
                <path class="cls-1" d="M17.86,92.33c-.02.18-.04.33-.06.44.02-.12.03-.26.06-.44Z"/>
                <path class="cls-1" d="M17.44,109.2s.15-.41.29-.96c-.09.1-.19.37-.29.96Z"/>
                <path class="cls-1" d="M107.2,127.04l-.08-.47-.17.95c.25,1.57.53,1.64.85,2.03-.33-1.41-.19-2.27-.32-4.09l-.28,1.58Z"/>
                <path class="cls-1" d="M109.32,126.19c.08-.16.29-.56.3-.8l-.2-.23-.1,1.03Z"/>
                <path class="cls-1" d="M109.43,107.41l-.08,1.51c.2.46.39-1.3.08-1.51Z"/>
                <path class="cls-1" d="M106.43,114.25l.25.77c.14-.71.07-1.66-.18-1.8.18.94-.12.24-.08,1.03Z"/>
                <path class="cls-1" d="M109.19,103.37c-.42-.44.05-1.52-.34-1.8.14.39-.06,1.75.34,1.8Z"/>
                <path class="cls-1" d="M105.6,104.69c-.33.5.05,1.26.03,2.21-.05-.78.26-1.91-.03-2.21Z"/>
                <path class="cls-1" d="M107.39,95.42c.28.05.33.68.33,1.4-.11-.23-.25-.37-.33-.68.33,1.16.29,1.25.51,2.18.11-.96.09-2.4.45-2.28-.33-.68-.8-1.51-.97-.61Z"/>
                <path class="cls-1" d="M105.39,102.43c-.04.79-.26,1.28-.17,2.22.18-.18.44-.51.31-1.6l.35.37c.16-1.04-.39.43-.49-.98Z"/>
                <path class="cls-1" d="M107.63,90.98l-.09.5c.4,1.08.42,2.52.9,3.1-.16-1.34-.54-2.99-.81-3.59Z"/>
                <path class="cls-1" d="M105.66,98.53l-.46-.11c.04,1.1.14-.09.29.29-.04.32-.03.79.07,1.01-.18-1.24.36-.11.11-1.19Z"/>
                <path class="cls-1" d="M104.81,95l-.35-1.37-.37,1.14c.35,1.61.29.05.72.23Z"/>
                <path class="cls-1" d="M104.92,93.25l.07-.17-.92-2.01c.43,1.21.4,1.29.85,2.17Z"/>
                <path class="cls-1" d="M101.73,67.47c-.26-.15-.02,1.13-.02.54.26.16-.2-1.51.02-.54Z"/>
                <path class="cls-1" d="M100.11,73.5c-.02-.3-.25-.89-.52-1.5-.3-.59-.65-1.2-.86-1.56.22.45.55,1.25.81,1.93.25.69.47,1.23.57,1.13Z"/>
                <path class="cls-1" d="M98.56,70.14c.03.06.1.17.17.3-.07-.14-.12-.23-.17-.3Z"/>
                <path class="cls-1" d="M73.64,49.78c-.08-.01-.17-.02-.25,0,.08,0,.16,0,.25,0Z"/>
                <path class="cls-1" d="M74.44,49.84c.52.18,1.59.29,1.83.12-.86-.08-1.62-.18-2.63-.18.37.06.79.3.8.06Z"/>
                <path class="cls-1" d="M66.57,48.95c.43-.1,1.02-.02.88-.21-.24-.09-1.16.07-.88.21Z"/>
                <path class="cls-1" d="M22.51,67.54c-.3.76-.34,1.25-.01,1.1.22-.88-.07-.44.01-1.1Z"/>
                <polygon class="cls-1" points="22.3 69.67 22.14 69.75 21.8 70.21 22.3 69.67"/>
                <path class="cls-1" d="M20.61,75.04c-.03-.05-.05-.2-.05-.36-.03.32-.05.59.05.36Z"/>
                <path class="cls-1" d="M20.58,74.52s-.01.11-.02.16c0-.05.01-.11.02-.16Z"/>
                <path class="cls-1" d="M20.75,74.18l-.13-.1c0,.09-.02.27-.04.44.02-.15.08-.3.17-.34Z"/>
                <path class="cls-1" d="M20.2,76.67l.65-.95c.03-1.13-.48,1.19-.7.02l.05.93Z"/>
                <path class="cls-1" d="M19.54,80.33c-.34.97.03,2.54-.58,3.01-.29,2.88.94-.49.52,2.78.82-3.01-.66-1.74.15-4.4-.57,1.25-.07-.93-.1-1.39Z"/>
                <path class="cls-1" d="M20.48,80.02c-.22-.21-.49,1.05-.41,1.48.1-.36.58-.93.41-1.48Z"/>
                <polygon class="cls-1" points="18.68 85.91 18.33 86.74 18.44 87 18.68 85.91"/>
                <path class="cls-1" d="M17.97,89.18l-.13-.9c.06.3-.2,1.56.13.9Z"/>
                <path class="cls-1" d="M16.82,93.72c-.23.78.32,1.61.45-.1l-.09.38c-.09-.12-.48.75-.36-.28Z"/>
                <path class="cls-1" d="M16.35,104.54c.08-.55.08-1.21-.07-1.11l-.05,1.53.13-.41Z"/>
                <path class="cls-1" d="M18.02,104.53c.47-.45.15-1.41.42-2.39-.23,1.12-.28.98-.42,2.39Z"/>
                <path class="cls-1" d="M15.56,106.2c-.12-.43.07-1.05.14-1.42-.26.16-.32,1.2-.14,1.42Z"/>
                <path class="cls-1" d="M15.41,108.62c-.22.48-.22-.13-.37.23-.3,1.04-.4,2.16-.24,2.79.21-.26.72-.59.88-.13.04-1.71-.63-2.66.05-3.42l-.54-1.5c-.28,1.34.37,1.1.22,2.03Z"/>
                <path class="cls-1" d="M17.18,105.37l-.35.87c.25-.15.21.54.23,1.03.55-.17.09-1.38.12-1.9Z"/>
                <polygon class="cls-1" points="14.77 118.05 14.73 119.98 14.81 119.36 14.77 118.05"/>
                <polygon class="cls-1" points="14.5 119.27 14.34 119.31 14.49 120.8 14.5 119.27"/>
                <polygon class="cls-1" points="14.15 121.27 14.19 121.05 14.15 119.9 14.15 121.27"/>
                <path class="cls-1" d="M13.74,125.29l.25-.34c-.03-.49.3-1.45,0-1.38.07.43-.04,1.44-.24,1.72Z"/>
                <path class="cls-1" d="M18.65,138.7c-.15-.06-.28-.04-.41.02.12.03.25.05.38.04-.02,0-.05-.04.03-.06Z"/>
                <path class="cls-1" d="M18.06,139.33c.19.02.42-.07.57-.19-.15-.13-.44.01-.51-.33-.13.2.13.28.12.48-.06.02-.12.03-.18.04Z"/>
                <path class="cls-1" d="M37.44,136.21c.26.16.26-.17.32.91,0-.73.04-1.41.11-2.11.1-.98.21-2,.32-3.17-.22.37-.27-1.88-.32-.78l-.18,3.11-.14-.49c-.06.27-.1.49-.12.68-.02.12-.03.21-.03.3,0,.16.03.28.06.39.06.23.13.48-.03,1.16Z"/>
                <path class="cls-1" d="M100.83,142.86c-.17.13.05.26.27.38,1.11-.15-.5-.35-.27-.38Z"/>
              </g>
            </g>
          </g>
          <g>
            <path class="cls-5" d="M155.8,140.63c0,.69-.63,1.21-1.35,1.21h-32.04c-.72,0-1.26-.52-1.35-1.21,0-.17-.27-10.8.27-24.19.54-13.39,1.17-23.76,1.17-23.85.09-.69.63-1.21,1.35-1.21h29.25c.72,0,1.35.52,1.35,1.21,0,.09.81,10.45,1.26,23.85.54,13.48.09,24.1.09,24.19ZM121.33,78.43c-.27-3.2-.27-5.79-.27-5.87.09-.78.63-1.3,1.35-1.3h32.04c.72,0,1.35.6,1.35,1.3,0,.09.09,2.51-.18,5.87-.27,3.2-.72,5.79-.72,5.96-.09.6-.63,1.04-1.35,1.04h-30.24c-.63,0-1.26-.43-1.26-1.12l-.72-5.88Z"/>
            <g>
              <path class="cls-4" d="M155.8,140.63c0,.69-.63,1.21-1.35,1.21h-32.04c-.72,0-1.26-.52-1.35-1.21,0-.17-.27-10.8.27-24.19.54-13.39,1.17-23.76,1.17-23.85.09-.69.63-1.21,1.35-1.21h29.25c.72,0,1.35.52,1.35,1.21,0,.09.81,10.45,1.26,23.85.54,13.48.09,24.1.09,24.19ZM121.33,78.43c-.27-3.2-.27-5.79-.27-5.87.09-.78.63-1.3,1.35-1.3h32.04c.72,0,1.35.6,1.35,1.3,0,.09.09,2.51-.18,5.87-.27,3.2-.72,5.79-.72,5.96-.09.6-.63,1.04-1.35,1.04h-30.24c-.63,0-1.26-.43-1.26-1.12l-.72-5.88Z"/>
              <g>
                <path class="cls-1" d="M121.1,78.46c-.37-.1-.11.06-.05.23l.05-.23Z"/>
                <path class="cls-1" d="M121.06,78.68l-.03.16c.05-.05.05-.1.03-.16Z"/>
                <path class="cls-1" d="M120.99,80.14c-.32-.29.02-.73-.43-.89-.21.36-.04.86.43.89Z"/>
                <polygon class="cls-1" points="121.21 79.61 120.97 79.6 121.37 79.84 121.21 79.61"/>
                <polygon class="cls-1" points="121.39 79.38 121.31 79.43 121.61 79.85 121.39 79.38"/>
                <path class="cls-1" d="M120.96,81.27l-.1-.32c.28-.35.45.15.64-.08-.05-.41-.68-.06-.64-.59-.29.08.1.82-.38.8-.1.45.28-.01.48.19Z"/>
                <path class="cls-1" d="M138.27,83.59s.03.03.05.04c-.02-.05-.04-.09-.05-.04Z"/>
                <path class="cls-1" d="M143.74,83.25c.08.05.15.08.22.1-.02-.05-.05-.09-.09-.13l-.14.03Z"/>
                <path class="cls-1" d="M134.84,84.48c-.08-.05-.15-.09-.22-.12.04.07.11.11.22.12Z"/>
                <path class="cls-1" d="M154.47,70.54s.06-.07.1-.13c0,0,0,0,0-.01l-.13.11.04.02Z"/>
                <path class="cls-1" d="M149.87,82.52c.09,0,.17-.02.25-.05-.14,0-.21.01-.25.05Z"/>
                <path class="cls-1" d="M132.87,84.51s.06,0,.08,0c-.03-.02-.06-.04-.1-.05l.02.05h0Z"/>
                <path class="cls-1" d="M141.95,82.62c.07.03.14.06.2.06-.07-.04-.13-.05-.2-.06Z"/>
                <path class="cls-1" d="M122.76,86.57c.1.06.21.05.32,0-.05-.08-.13-.1-.32,0Z"/>
                <path class="cls-1" d="M125.32,86.62h-.01c.01.06.02.05.01,0Z"/>
                <path class="cls-1" d="M126.57,86.66h-.02c.01.05.02.06.02,0Z"/>
                <path class="cls-1" d="M123.08,86.57c.12.2-.01.81.51.17l-.03-.09c.12.16.46-.1.65-.12,0-.06-.02-.11-.04-.16-.09,0-.21-.02-.39-.07-.17-.14-.42.16-.71.27Z"/>
                <path class="cls-1" d="M138.25,83.71c-.02-.12-.15-.06,0,0h0Z"/>
                <path class="cls-1" d="M136.56,84.2l.17.02c-.05-.02-.11-.05-.17-.02Z"/>
                <path class="cls-1" d="M130.2,84.03l.03.03c0-.07-.02-.06-.03-.03Z"/>
                <path class="cls-1" d="M136.88,84.23c-.05,0-.1,0-.15,0,.05.02.1.04.15,0Z"/>
                <path class="cls-1" d="M132.11,84.39s.02.02.03.02c0,0-.02-.02-.03-.02Z"/>
                <path class="cls-1" d="M127.98,68.4c.13-.06.2.12.32.17.27-.44-.56,0-.17-.4-.12,0-.22.06-.3.12l.17.41c.24-.16-.16-.14-.03-.3Z"/>
                <path class="cls-1" d="M152.54,69.65l.08.04c-.03-.19-.05-.25-.25-.35-.18.29.1.71-.21,1.03.06-.03.15-.02.24.02-.12-.26-.02-.52.15-.74Z"/>
                <path class="cls-1" d="M152.39,70.39v.02s.04.07.05.1c.04,0,.1.02.14.05-.04-.07-.12-.13-.19-.17Z"/>
                <path class="cls-1" d="M132.23,68.58c.05.01.1.03.14.04-.07-.08-.11-.08-.14-.04Z"/>
                <path class="cls-1" d="M149.47,87.75c-.06.04-.12.09-.17.13.09-.02.14-.07.17-.13Z"/>
                <path class="cls-1" d="M156.29,70.84c.02.07.05.13.08.19.03.03.06.05.09.08-.05-.09-.11-.19-.17-.27Z"/>
                <path class="cls-1" d="M145.48,74.01c.11-.47-.08.04-.3-.23l-.2.25c.18.07.35,0,.5-.02Z"/>
                <polygon class="cls-1" points="127.83 68.26 127.82 68.3 127.84 68.29 127.83 68.26"/>
                <path class="cls-1" d="M139.57,74.11s-.07-.04-.1-.06c.02.03.05.05.1.06Z"/>
                <path class="cls-1" d="M153.79,70.59c.3.01.59.04.87.08l-.2-.13c-.22.21-.44-.23-.67.05Z"/>
                <path class="cls-1" d="M148.73,74.28l.07.28c.76-.6,1.63.26,2.23-.59.92,1,.61-.89,1.45,0l-.03-.14c.23.04.3.1.4.17.08.08.09.24.03.34-.02.05-.04.1-.05.13,0,.02,0,.03,0,.06v.21c0,.65.04,1.29.12,1.92l-.2-.02c-.13.99-.25,1.97-.37,2.95l-.17,1.48-.09.74-.03.31v.04c.01.06.04.19-.05.21-.04,0-.08,0-.13,0l-1.29-.03c-.39.18-.15.62-.49.85-.15-.02-.47,0-.47-.24.28-.13.12-.35.22-.45-.47.03-1.07-.26-1.49.04l.35.32c-.16.13-.42.04-.56.03.06-.16-.15-.51-.02-.58-.88.79-.69-.34-1.43-.03-.15.67-1.07,1.22-1.68,1.7l-.32-.17c.43,0,0-.49.52-.46-.44-.19-.85.1-1.27-.01.08.17.06.39-.11.47-.26-.09-.28-.43-.57-.46l.29-.21c-.19-.25-.36.08-.54.12-.06-.28-.5-.33-.42-.64-.39.38-.53.17-.96.41.44.3-.11.37-.06.6l.5-.11c-.7-.19.23-.05.18-.53.33.22-.45.79.1.71-.66.24-.8.03-1.47.43.41-.09-.08.31.14.46-.52.02-.13-.17-.29-.48-.28.01-.38-.26-.64.1-.46-.14.07-.36-.16-.55.17-.33,1.27.41,1.14-.65.24-.01.53-.41.87-.39-.3-.14-.73-.48-1.1-.24l-.02.59c-.28.01-.34.42-.54.36.11-.17-.09-.42-.31-.37.06.08.15.06.13.17-.42.04-.48.45-.97.56.41.15.5.33.88.59-.1.42-.27.06-.5.11.03-.06.08-.07.01-.15l-.24.2c-.51-.18.06-.6-.36-.8-.29-.35-.4.2-.62,0,.02.04.03.08.04.11-.05,0-.09-.02-.11-.03,0,0,0,.02,0,.03-.27.06-.56.03-.64.34-.03-.14-.24.04-.33.14-.15.12-.51.49-.74,0,0,0,.01,0,.02,0-.34-.06-.6-.22-.53-.38l-.55-.12.06-.4c-.5.11-.45.35-.79.76-.36-.24-.98-.05-1.22.1-.04-.02-.1-.02-.2,0l.21.16c-.39-.02-.34.2-.6.2.05.04.06.06-.08,0-.04,0-.09-.01-.15-.03.01-.04.07-.04.13-.02l-.05-.14c-.31-.43-.48.24-.81.09.03-.02.08-.04.12-.04-.19-.11-.45-.68-.53-.33-.04-.04-.11.03-.17.11l-.14-.06c.06.02.1.04.14.06-.09.12-.17.26-.18.17l-.48-.07c-.09-.06-.21,0-.31.05l-.08-.17c-.17.03-.18-.07-.15-.12-.6-.58-.93.3-1.58-.21-.12.28.15.41.17.56-.1.22-.47.41-.66.56-.29-.39-1.18-.73-1.04-1.29-.54-.04.17.34-.1.54l-.06-.02c.19.07.33.26.43.47.04.3-.43.39-.58.3l.1-.43c-.5.15-.39.8-.7,1.22-.39-.17-.17-.56-.25-.94l-.41.11v-.32c-.26.09-.36.39-.65.26.22-.3-.38-.3-.05-.71-.1-.11-.28.52-.25.09-.19.34.08.17.14.28-.02.49-.4.24-.65.37.09-.26.23-.3.09-.47-.12.19-.35.34-.34.11-.18.33-.29.05-.38-.02.07.12.16.37-.11.63-.2.11-.38.16-.63-.04.02.09.05.17.09.24-.28.14-.34,0-.36-.18,0-.2.05-.44-.1-.54.24-.02.3.05.58-.07-.24.05-.63-.04-.77-.23.14-.21.27-.41.4-.59-.23.1-.02-.32-.32-.17.16-.45.4.11.63-.02.16-.46-.55-.09-.12-.65.1.01.2.02.3.02,0-.11-.19-.29-.04-.34-.11.02-.06.07-.05.14-.32.05-.45-.08-.58-.21-.13-.15-.27-.29-.6-.22l-.02.23c-.17-.33-.65-.52-.45-.82.19-.23.47.09.65.19,0-.33-.76-.18-.74-.58-.08.22-.32.21-.51.11-.02.23-.08.72.18.6l.05-.09c.17,0,.25.12.35.17.04.31-.28.18-.4.26-.04.53.66-.06.7.45l-.12.09c.2.22.27.59.67.48-.39.39.22.42,0,.77-.42.31-.44.08-.41-.21.03-.3.12-.62-.15-.68-.15.34-.45-.02-.68-.12.18.3.34.59.51.83-.12.12-.5.66-.14.64v-.08c.19.3.48-.03.44.33-.06.1-.2.11-.26.12.02.33.25.09.4.19.09.3-.37.14-.31.42.47.01.33.46.63.6.1-.24.48-.25.78-.38.31-.13.5-.27.38-.52.26-.11.5-.24.71-.36.08.29-.71.75-.76,1.17-.18-.02-.35-.04-.53-.09-.14.3.21.27.59.2.38-.07.75-.16.87.21.33.03.23-.06.86.27l-.09-.6c.3.14.34.46.37.57.15-.04.28-.02.41,0-.04.09-.09.17-.18.2.19.33.24.21.31.03.1-.15.26-.13.41-.12l-.14.22c.1-.05.21-.11.22-.22.07,0,.13-.02.19-.05-.04-.1-.15-.45-.37-.61.58.23,1.03.11,1.53.6-.02.17-.23.39-.16.41.25.09.52-.21.5-.47.06-.02.1-.02.14-.02.05.15.11.31.22.33.03.05.07.1.16.12.08-.47.56-.24.66-.45-.11-.05-.25-.04-.39-.03.2-.32.38-.68.53-.42-.37.3.4.49-.16.62.39.6.21-.43.62-.22l.27.24c-.04.34-.44.17-.37.3l.19-.04c-.19.26-.89.09-1.32.47l.87.19c1.1-.41,2.46.06,3.4-.69h-.04s.02-.09.04-.22l.04.09.18-.26c.21.32.6.39.93.64q-.21-.21-.23-.47c.04-.34.07-.49.39-.36,0,.24-.19.24.04.43-.12-.12-.01-.29.12-.32.18.16.47.19.47.44-.08.07-.15-.02-.2-.05-.08.07.33.22.09.42l.32-.07c.18.2-.12.32-.05.45.53-.17.8-.73,1.27-.9-.02.13-.03.68-.02.52.37.16.79-.59,1.2-.64-.06.16-.22.1-.34.18,1.28.21,2.32.22,3.52.74l.31-.56.31.37c1.26.36,2.22,0,3.42-.17.37-.04.22.39.4.55.82.06,1.02-.57,1.8-.7-.11.17-.29.65.05.68.06-.16.1-.42.32-.32l-.11.17c.19.25.38.01.78.12.71-.01,1.38-.41,1.97-1.03.63.06-.07.6.05.72-.44-.21-.31.1-.4.29.23-.16.52-.26.64.14.33-.02.47,0,.79-.28-.16.14-.3-.08-.15-.26.27.14.94-.01.91.49.13-.01.52-.02.85-.03.34,0,.68-.01,1.03-.02.69-.04,1.3-.17,1.88-.47.58-.29,1.1-.8,1.4-1.35.29-.53.48-1.23.54-1.95-.18-.55-.15.32-.28,0-.23-.75.25-.48.06-1.05l.24.26c.09-.46,0-.64-.12-.93-.12-.27-.27-.54-.37-.79.3.12.3-.36.44.06-.02-.24,1.39-.36,1.13-.57l-1.32.11c-.12-.03,0-.34-.1-.32.28-.17.6-.39.62-.53.33-.03.22.31.2.51.54.09.42-.62.89-.28-.04-.43-.28.03-.46-.24l.15-.35-.21.26c-.13-.32-.53-.47-.19-.85l-.49-.47c.43,0,.11-.3.22-.51l.26.16c0-.29.09-.4.26-.58.37.19-.11.26.24.36l.15-.32c-.24-.02-.42-.23-.58-.01-.44-.33-.8-.51-.72-1.24.43-.31.35.38.77.26.22-.77-1.04-.99-.97-1.43.09-.28.04-.42-.03-.55-.08-.14-.18-.25-.18-.64.28.23.31-.55.58-.78.1.09.2.19.29.3-.09-.26.02-.54.23-.51-.38.13-.36-1.1-.69-1.5l-.28.25c-.16-.33-.49-.7-.7-1.07-.49-.36-.61-.06-1.19.02-.02-.33.19-.61.48-.87.05.2.36.27.5.53.77.33,1.62.58,1.62,1.56.41.04.38-.12.24-.34-.14-.23-.37-.47-.32-.74.05-.02.07,0,.09.03-.01-.04-.02-.07-.02-.11.21.22.46.69.87.62-.25-.57-.82-.03-.77-.83-.4-.32-.21-1.06-.43-1.36-.5-.03-.9.39-1.54-.06.19-.08.39-.15.59-.2-.43-.25-.63-.12-.8-.01-.18.12-.33.23-.74.15.25.1-.46.37.04.47-.36.17-.91.17-1.32.05-.13.07-.06.15-.12.3.34.3.84-.28.99.19.17-.14.35-.28.53-.4.31.25.1.59-.21.7.11,0,.24-.04.26.06-.35.62-.28-.33-.72.23.09-.01.18-.03.26-.03-.16.41-.74.38-1.01.34-.25-.22-.57-.3-.54-.64l.56-.15c-.22-.27-.73.16-1.01.15-.02-.05-.05-.08-.08-.11.02.03.02.06.02.09-.06-.02-.12-.06-.16-.14-.23-.02-.56.19-.77.08l.03.3.03-.17c.21.01.49.2.33.43-.47.21-.56-.37-.67-.64.11-.47.46,0,.69-.15-.14-.46-.47-.05-.96-.35.19-.51.56,0,.67-.46-.39-.09-.49.27-.9.14.05-.23.45-.26.42-.56l-.26-.14c.64-.03-.11-.63.39-.75-.24-.21-.33.41-.67.09.09.22.36.62.04.82l-.37-.15c-.15-.24.38-.54.14-.74l-.38.17c.01.15.2.23.08.43-.22-.16-.36.58-.62.8-.21-.01-.37-.04-.44-.22-.52.45-1.18.43-1.66.85.33-.3-.01-.52-.21-.74.38-.06.38-.54.35-.84-.23.05-.38.54-.26.7-.38-.19-.26.33-.6,0-.22-.16.11-.47.03-.64-.41-.02-.11.57-.56.46.02-.06.07-.08.03-.17-.24-.1-.5.12-.56.36-.26-.62-.73.07-.68-.53-.59.16.09.33-.03.54-.24.27-.69.05-.82-.05.14-.01.28-.18.42-.08l-.12-.42c-.73-.3-.46.94-1.17.58.36-.22.12-.32.3-.61-.11.1-.66-.01-.33.31-.27-.04-.45-.11-.63-.19-.24.16-.49.28-.63.55-.37-.04-.65-.34-.82-.52-.78.3-1.5-.21-2.33.11l.06.03c-.64-.08.28.55-.38.54.09-.51-.4-.34-.61-.61-.81-.26-1.41.37-2.16.03,0-.11.05-.23.2-.25-.57-.16-1.03-.06-1.55-.09l.02-.06c-.83-.41-1.58.08-2.44.21.07-.06.09-.26.14-.32-.43-.11-1.12-.19-1.42.28-.51-.5-.34.15-1-.33-.04-.09.07-.08.11-.1-.32-.17-.55-.12-.88-.18-.72.32-.9.98-1.74.78-.04-.69.52-.17.54-.72-.17.12-.31.26-.54.1.14-.27.03-.17.13-.42-.18-.18-.71.72-.71.66,0,.13.05.21.22.19-.2.43-.83.04-1.23.21.13.01.55.15.39.47-.55-.15-.73.52-1.11.8-.5-.31.37-.58.28-1.07-.08-.18-.29-.56-.08-.75-.23-.05-.42.03-.61.13l-.14.08-.24.08c-.16.05-.32.1-.49.12v-.14c-.49.03-.97.18-1.37.34-.41.16-.73.32-1.12.29.14,0,.28.03.42.05-.09.1-.48.17-.51.5-.11-.22-.7-.11-.63-.37.07.39-.25.73-.43,1.17-.2.43-.26.92.02,1.26-.2.08-.44-.21-.57-.36.21-.43.41-.48.33-.89-.23.36-.48.55-.6.39.19.64.28,1.69.75,2.04-.23.21-.34.5-.73.31.13.73.42.56.68.47.26-.1.49-.14.5.46-.35.58-.52-.61-.62.23l-.07-.16c-.48.34-.3.41,0,.49.3.08.71.16.7.43-.53.1-.4-.36-.76.03.16.49.95.66.81,1.15l-.23-.06c.06.31,0,.92.06,1.23-.1.02-.09-.02-.12-.08-.16.59.29.22-.04.72l.27.11c.16-.25.39-.72.06-1,.32.27.64-.51,1.1-.39l-.19-.05c.36-.41.56-.86.69-1.33.07-.23.12-.47.17-.72.03-.12.05-.26.08-.35.03-.08.06-.16.09-.24-.28-.21-.23-.4-.16-.54.07-.15.17-.25-.02-.57-.62-.44-.16-.17-.12-.62-.01.25.44.37.58.37-.11-.18-.11-.3-.09-.41.12.07.37.17.55.23.19.06.3.09.26-.12.28.2.06.2.11.33.24.32,0-.25.16-.04,0,0,.03.07.03.1.22-.03.41.14.61.21.01-.3,0-.36.19-.37.16,0,.35.03.47-.08-.08.2.31.23.47.34l.3-.45c.29-.38.41.27.79.06l-.09-.11c.28-.18,1,.18,1.28.51,2.55-1.19,3.95.67,6.64.35.17-.18-.13-.31,0-.58.27-.07.34-.04.58-.05-.22-.16-.18.04-.16-.13l-.38.17s.02-.06-.01-.15c-.13.06-.28.18-.44.15.24-.16.3-.61.62-.44-.02.06-.07.08-.15.12.27.04.28-.18.48-.06.24.1.18-.04.22.16l.76.24c.38-.54.85-.03.97.02-.08.4-.5.12-.69.52l.27.29.02-.32.39.09-.02.06c.05-.13.09-.25.19-.14.02.04.05.13.01.15l.28-.18c-.16.33.24.1.2.48.91.19,1.15-.52,1.95,0-.13-.18.25-.61.5-.54.14.09.18.18.09.33l.32-.2c.4.6.8.21,1.39.42l-.03.17c.22-.2.45-.36.78-.3l-.06.34c.4.24.31-.71.75-.5,0-.36-.28-.55-.33-.9.1.37.58.43.47.16.44-.15.31,0,.34.1l.26-.22c.31.02.1.48-.02.69.29-.39.61-.12.94-.05l-.13.16.43.07c.28-.28.68-.31,1.04-.16l-.25.48c.26.25.13-.17.2-.25.4-.23.49.09.71.36.65-.5,1.29.79,1.85.07ZM130.36,84.26l.06.07c-.14.08-.21.16-.06-.07ZM133.92,84.4c-.43.19-.29-.04-.33-.17.42.13.66-.02,1.03.14-.06-.1-.07-.22-.09-.3.15.02.3.13.35.37-.18.48-1.15-.31-.96-.03ZM125.9,86.77l.05-.11h0l-.05.11ZM128.02,86.34c.03.1.08.16.15.2-.04-.13-.08-.23-.15-.2ZM132.25,86.94c.1.2.32.14.48.09-.08-.02-.21-.08-.48-.09ZM156.65,81.07c.06.14.23.41.4.2-.16-.13.16-.3-.09-.42.01-.01.02-.01.03-.02-.18.11-.33.2-.34.24ZM152.36,71.6c.02-.2.12-.41.06-.56l.04.02c-.03-.07-.06-.12-.03-.17-.1-.04-.21-.09-.28-.03-.03.64-.25.75.22.74Z"/>
                <path class="cls-1" d="M157.86,71.35c-.03-.06-.05-.11-.07-.15.02.04.04.09.07.15Z"/>
                <path class="cls-1" d="M152.16,70.86s.11.11.26.18c-.03-.08-.1-.14-.26-.18Z"/>
                <path class="cls-1" d="M122.58,81.78l.08.12.16-.27c-.26-.39-.54-.37-.88-.43.34.33.22.58.37,1.04l.27-.45Z"/>
                <path class="cls-1" d="M120.47,82.25c-.08.05-.28.18-.29.25l.2.04.09-.28Z"/>
                <path class="cls-1" d="M123.43,87.67c-.2-.06-.39-.14-.56-.23-.28.14.35.55.56.23Z"/>
                <path class="cls-1" d="M123.36,84.08c-.09.04-.19.07-.28.09-.06.26.13.35.33.13-.25.03.06-.14-.05-.22Z"/>
                <path class="cls-1" d="M125.17,87.72c.12-.39.39.17.47-.19-.1.11-.46-.19-.47.19Z"/>
                <path class="cls-1" d="M124.98,84.05c-.04-.37-.18-.04-.31-.13.1,0,.23.39.31.13Z"/>
                <path class="cls-1" d="M127.28,86.62c-.02.28-.19.26-.37.19.06-.09.1-.21.19-.26-.31.21-.33.17-.58.3.25.19.62.32.58.66.18-.26.41-.64.18-.9Z"/>
                <path class="cls-1" d="M125.49,84c-.18-.11-.4-.36-.47-.34.03.19-.01.47.31.43l-.1.32c.27.24-.11-.43.27-.41Z"/>
                <path class="cls-1" d="M128.42,87.37l-.12-.15c-.29.26-.66.13-.83.54.35-.02.79-.2.95-.39Z"/>
                <path class="cls-1" d="M126.51,84.6l.04-.45c-.29-.06.02.15-.08.26-.08-.06-.21-.11-.27-.02.33-.07.02.36.31.21Z"/>
                <path class="cls-1" d="M127.46,84.1l.37-.19-.29-.49c-.43.17-.02.28-.08.69Z"/>
                <path class="cls-1" d="M127.92,84.41l.04.09.56-.67c-.33.28-.35.24-.6.58Z"/>
                <path class="cls-1" d="M134.67,87.33c.06-.19-.26-.43-.12-.22-.06.16.37.41.12.22Z"/>
                <path class="cls-1" d="M133.34,83.72c.16.15.68-.13.91-.26-.27.09-.94,0-.91.26Z"/>
                <path class="cls-1" d="M134.34,83.41s-.05.03-.09.05c.04-.01.07-.03.09-.05Z"/>
                <path class="cls-1" d="M143.91,82.42s.05-.02.07-.05c-.02.02-.04.03-.07.05Z"/>
                <path class="cls-1" d="M143.68,82.53c-.15-.06-.46.05-.51.26.24-.1.46-.16.74-.37-.11.02-.24-.12-.23.11Z"/>
                <path class="cls-1" d="M145.88,82.63c-.11.12-.27.06-.23.25.06.08.31-.12.23-.25Z"/>
                <path class="cls-1" d="M158.38,79.42c.12-.21.06-.35-.23-.31-.02.25.16.13.23.31Z"/>
                <polygon class="cls-1" points="158.11 78.81 158.26 78.8 158.48 78.67 158.11 78.81"/>
                <path class="cls-1" d="M158.63,77.32s.09.06.12.1c-.03-.09-.07-.16-.12-.1Z"/>
                <path class="cls-1" d="M158.77,77.46s0-.03-.01-.04v.04Z"/>
                <path class="cls-1" d="M158.67,77.56l.15.03s-.04-.07-.05-.12c0,.04-.02.08-.1.09Z"/>
                <path class="cls-1" d="M158.71,76.86l-.44.27c.19.31.24-.33.68,0l-.23-.26Z"/>
                <path class="cls-1" d="M158.64,75.85c.15-.27-.51-.69,0-.84-.12-.38-.34-.41-.54-.34-.2.05-.4.05-.48-.58-.07.31-.04.49.03.62.07.09.19.15.31.2.24.1.48.19.33.56.32-.35.24.25.36.38Z"/>
                <path class="cls-1" d="M157.78,75.95c.25.05.29-.29.12-.41-.03.1-.39.26-.12.41Z"/>
                <polygon class="cls-1" points="158.45 74.04 158.64 73.6 158.48 73.52 158.45 74.04"/>
                <path class="cls-1" d="M158.52,72.45c.1.1.21.2.31.32-.11-.11-.13-.73-.31-.32Z"/>
                <path class="cls-1" d="M158.28,70.34c-.12-.37-.81-.2-.32.32l-.06-.16c.11-.02.09-.52.38-.16Z"/>
                <path class="cls-1" d="M153.86,69.22c.23.01.53-.06.53-.2-.23.03-.47.08-.69.13l.16.07Z"/>
                <path class="cls-1" d="M153.5,70.88c.02.41.42-.03.66.11-.29-.09-.23-.15-.66-.11Z"/>
                <path class="cls-1" d="M153.19,68.63c.21-.17.51-.06.68-.03-.03-.24-.56-.17-.68.03Z"/>
                <path class="cls-1" d="M152.25,68.78c-.13-.17.03-.23-.07-.35-.28-.19-.57-.16-.73.07.07.18.17.65.06.86.44-.15.67-.91.89-.32.08-.24.39-.48.61-.72-.69-.12-.5.5-.76.46Z"/>
                <path class="cls-1" d="M153.37,70.15l-.29-.24c.03.23-.21.28-.38.35.04.53.46-.08.67-.11Z"/>
                <polygon class="cls-1" points="149.79 69.09 149.28 69.22 149.45 69.24 149.79 69.09"/>
                <polygon class="cls-1" points="149.46 68.92 149.45 68.77 149.06 69.05 149.46 68.92"/>
                <polygon class="cls-1" points="148.93 68.74 148.99 68.77 149.29 68.64 148.93 68.74"/>
                <path class="cls-1" d="M147.88,68.64l.09.22c.13-.06.38.19.36-.11-.11.1-.38.07-.45-.11Z"/>
                <path class="cls-1" d="M144.39,74.29c.09-.15.04-.28-.02-.41l-.15.38s.13-.06.16.03Z"/>
                <path class="cls-1" d="M143.78,73.67l-.37.43c.43.07.49-.27.87-.34-.16-.14-.38.17-.58.05l.09-.15Z"/>
                <path class="cls-1" d="M136.27,73.34c.03-.28-.05-.24.23-.42-.38.17-.71.11-1.15.15.07.17-.25.48-.08.4l.49-.17-.07.19c.34.21.22-.31.59-.16Z"/>
                <path class="cls-1" d="M120.32,76.3c-.14-.04-.26.03-.37.09.17.29.34-.15.37-.09Z"/>
              </g>
              <g>
                <path class="cls-1" d="M155.82,140.63h.2s0,0,0,0h0s0,0,0,0h0s0,0,0,0h0s.02.02.02.02l.03.02s.03.02.05.03c.03.01.05.02.06.02.03,0,.03-.03.02-.07-.02-.08-.08-.23-.1-.39l-.04.19-.02.09v.04s-.02.02-.02.02h0s0,.02,0,.02h0s0,0,0,0h0s0,0,0,0h0s-.2,0-.2,0Z"/>
                <path class="cls-1" d="M156.11,140.26l.06-.27c-.06.07-.07.17-.06.27Z"/>
                <path class="cls-1" d="M156.43,137.72c.26.59-.14,1.28.28,1.66.27-.58.19-1.5-.28-1.66Z"/>
                <polygon class="cls-1" points="156.13 138.59 156.36 138.67 156.01 138.15 156.13 138.59"/>
                <polygon class="cls-1" points="155.9 138.95 155.99 138.88 155.78 138.08 155.9 138.95"/>
                <path class="cls-1" d="M156.64,135.75l.05.59c-.33.54-.42-.37-.64,0-.01.73.66.27.54,1.18.3-.07.03-1.47.5-1.31.16-.77-.28-.04-.44-.45Z"/>
                <path class="cls-1" d="M153.13,100.65s.03-.06.04-.08c-.05.04-.08.07-.04.08Z"/>
                <path class="cls-1" d="M152.01,93.57c-.01-.06-.05-.09-.08-.11-.01.05-.02.09-.02.13.03,0,.07-.02.1-.02Z"/>
                <path class="cls-1" d="M154.35,106.62c-.05.14-.08.27-.1.39.06-.08.11-.19.1-.39Z"/>
                <path class="cls-1" d="M121.05,106.76s-.08-.04-.14-.05c0,0,0,.01-.01.02l.12.11.02-.07Z"/>
                <path class="cls-1" d="M142.62,94.29c-.15,0-.3.02-.44.05.25,0,.38-.01.44-.05Z"/>
                <path class="cls-1" d="M154.55,110.09c0-.05,0-.1,0-.15-.02.05-.03.11-.04.18l.04-.03h0Z"/>
                <path class="cls-1" d="M151.77,94.6s.05-.06.05-.07c-.04.03-.05.05-.05.07Z"/>
                <path class="cls-1" d="M157.2,126.78c.04-.17.01-.3-.05-.43-.07.11-.08.24.05.43Z"/>
                <path class="cls-1" d="M157.1,123.32v.02c.06-.02.05-.03,0-.02Z"/>
                <path class="cls-1" d="M157.1,121.1v.04c.05-.03.06-.04,0-.04Z"/>
                <path class="cls-1" d="M157.15,126.35c.18-.29.78-.38.12-.74l-.09.07c.15-.22-.12-.55-.14-.81-.06.03-.11.06-.16.1,0,.13-.02.3-.06.56-.13.31.18.51.33.82Z"/>
                <path class="cls-1" d="M153.26,100.68c-.12.04-.04.27,0,0h0Z"/>
                <path class="cls-1" d="M153.92,103.61c0-.1,0-.19,0-.29-.02.09-.04.19,0,.29Z"/>
                <path class="cls-1" d="M154.25,114.79s.02-.03.02-.05c-.07-.01-.06.03-.02.05Z"/>
                <path class="cls-1" d="M153.91,103.05c0,.09,0,.18,0,.27.02-.08.03-.17,0-.27Z"/>
                <path class="cls-1" d="M154.48,111.42s.01-.03.02-.05c0,.01-.01.03-.02.05Z"/>
                <path class="cls-1" d="M132.63,144.7c-.23.06-.36-.12-.57-.17-.48.44.99.01.29.4.21,0,.38-.06.53-.12l-.3-.41c-.42.16.28.14.05.3Z"/>
                <path class="cls-1" d="M120.06,109.53l.04-.09c-.19.06-.25,0-.36.36.27.32.72-.15,1.01.4-.03-.11,0-.27.04-.41-.27.22-.52-.01-.73-.26Z"/>
                <path class="cls-1" d="M120.79,109.79h.02s.07-.06.11-.09c0-.08.02-.16.06-.22-.08.06-.14.18-.18.31Z"/>
                <path class="cls-1" d="M125.15,144.52c-.09-.01-.18-.03-.25-.04.12.08.2.08.25.04Z"/>
                <path class="cls-1" d="M143.31,89.06c.11-.04.22-.09.3-.13-.17.02-.25.07-.3.13Z"/>
                <path class="cls-1" d="M120.72,104.24c.04-.08.06-.17.08-.26,0-.06,0-.1-.01-.17l-.07.43Z"/>
                <path class="cls-1" d="M123.89,122.06c-.46-.2.03.15-.25.52l.24.36c.08-.32.01-.62,0-.87Z"/>
                <path class="cls-1" d="M132.91,144.84s0-.03,0-.04c0,0-.02,0-.03.01l.02.03Z"/>
                <path class="cls-1" d="M123.84,132.42c-.02.06-.04.11-.06.17.03-.03.05-.09.06-.17Z"/>
                <path class="cls-1" d="M121.09,107.71l.09-1.34-.13.39c.22.19-.23.76.04.95Z"/>
                <path class="cls-1" d="M124.36,116.39l.29-.11c-.54-1.36.4-2.87-.39-3.97,1.08-1.6-.84-1.1.13-2.57l-.14.05c.41-4.91,1.18-10.13.93-14.73h.2s.03-.34.03-.34l.02-.17s0,0,0,0l.02.05s.03-.06.05-.08c.04-.05.12-.03.17-.02,1.58,0,3.15-.02,4.72-.03,3.64-.04,7.27-.11,10.93-.03.68-.18.27-.62.86-.85.26.02.83,0,.84.24-.5.13-.22.35-.39.45.82-.03,1.89.26,2.62-.04l-.61-.32c.29-.13.73-.04.99-.03-.11.16.27.51.04.58,1.55-.79,1.21.34,2.51.03.26-.67,1.89-1.22,2.97-1.7.23.06.24.12.36.17-.2,0-.19.12-.2.24,0,.12-.04.23-.51.22.17.05.44.07.52.07.07,0,.13-.01.2-.03.14-.03.3-.08.41-.03.03-.17.14-.39.34-.46.17.13-.05.47.06.61-.1.02-.21.05-.31.1-.11.28.22.03.32.11-.23.26-.28.47-.58.6.19-.05.23,0,.26.05.01.03.02.05.05.08.01.02.03.03.04.05.02.02.04.02.08.14.03-.12.06-.12.09-.14.03-.02.06-.03.08-.04.05-.01.1,0,.14.02.04,0,.09.08.14.15.05.06.1.1.16.08l-.04-.21-.03-.1-.07-.18c-.15.55-.06-.18-.53.06.1-.12.3-.16.46-.14.16,0,.29.03.23-.2.07.11.11.23.14.33.03.13.04.14.07.36.05.35.12.7.36,1.28-.14-.71.32.12.44-.28.08.91-.15.24-.44.54.05.49-.21.69.17,1.12-.09.81-.37-.1-.54.32-.35-.27.26-2.25-.78-1.96-.02-.21-.14-.43-.26-.68-.06-.12-.12-.25-.16-.39-.04-.04-.06-.05-.06-.08-.03.03-.08.05-.12.09-.04.16-.07.32-.1.49-.05.34-.05.69.09,1h.59c.05.48.46.56.43.92-.18-.18-.41.18-.34.57.08-.12.05-.27.15-.24.09.73.5.81.67,1.67.11-.73.28-.89.49-1.58.43.15.09.47.17.87-.06-.06-.08-.14-.15-.02l.23.41c-.12.91-.61-.07-.76.68-.32.53.24.69.06,1.09.04-.03.08-.06.1-.08,0,.09,0,.15-.02.2,0,0,.02,0,.03,0,.09.47.09.99.4,1.1-.14.06.06.42.17.57.14.26.54.88.06,1.3,0-.01,0-.02,0-.03-.03.6-.16,1.07-.33.95l-.07.97-.41-.08c.15.87.38.77.83,1.35-.21.64.04,1.72.21,2.13-.01.07,0,.18.02.35l.14-.37c.02.68.22.59.25,1.04.03-.1.06-.11,0,.15,0,.08-.01.16-.02.26-.04-.02-.04-.12-.02-.22l-.13.09c-.41.56.28.83.16,1.42-.02-.06-.05-.15-.05-.21-.09.33-.65.83-.29.95-.04.08.03.19.12.3l-.05.24c.01-.1.03-.18.05-.24.12.15.27.28.19.3l-.04.84c-.05.16,0,.38.07.55l-.16.15c.04.31-.06.31-.11.28-.54,1.08.36,1.63-.11,2.8.29.21.4-.27.55-.31.22.17.44.82.6,1.14-.36.52-.67,2.1-1.23,1.86-.02.94.34-.3.54.16l-.02.11c.06-.33.24-.59.45-.78.3-.08.41.75.33,1.01l-.43-.17c.18.87.81.67,1.26,1.2-.15.7-.55.31-.93.46l.12.73h-.32c.1.48.4.58.28,1.24-.31-.47-.29.99-.7.34-.1.36.52.46.1.65.35.25.17-.33.27-.51.49-.16.25.8.38,1.23-.26.04-.3-.29-.47.23.19.1.35.43.11.72.32,0,.07.58.05.87.06-.33.29-.8.57-.59.13.25.2.47.16,1.06l.15-.4c.48.51-.34.84-.19,1.54-.19-.29-.2-.47-.43-.73.15.33.39.95.54,1.46l-.47.58c.24.07-.02.66.3.66-.22.73-.39-.59-.62-.66-.22.91.54.73.04,1.6l-.3-.29c-.02.29.14.87,0,.91.11,0,.07-.15.07-.33.64.18.44,1.35,1.11,1.25l.05-.4c.12.62.57,1.06.33,1.54-.22.36-.45-.26-.62-.48-.05.58.73.48.65,1.18.11-.36.35-.29.52-.07.05-.4.19-1.24-.09-1.1l-.07.14c-.17-.04-.23-.26-.32-.37,0-.55.3-.25.43-.36.12-.91-.66-.08-.64-.92l.13-.11c-.17-.4-.19-1.03-.6-1.14.43-.36-.17-.95.09-1.35.94-.07-.07,1.42.44,1.9.2-.44.45.25.66.44l-.4-1.39c.13-.11.6-.52.26-.77l-.02.11c-.11-.55-.49-.4-.36-.88.09-.07.24.07.3.11.09-.44-.22-.37-.3-.66.08-.44.39.22.49-.15-.37-.51.08-.81.06-1.25-.53.19-.75-1.75-1.21-.79l-.38-1.05c.28-.33.76.72,1.21.42v.84c.65-.15-.46-1.76.27-2.33.02-.45-.07-.34.25-1.2l-.59.16c.13-.44.45-.59.56-.62-.04-.26-.03-.49-.01-.73.09.06.17.15.21.31.32-.34.2-.43.02-.55-.15-.18-.14-.45-.14-.73l.23.24c-.05-.17-.12-.37-.23-.39,0-.11-.02-.22-.06-.33-.1.08-.44.27-.59.67.21-1.03.06-1.83.52-2.72.17.03.4.39.42.28.08-.44-.24-.91-.5-.86-.02-.1-.03-.17-.03-.24.14-.09.3-.2.32-.41.05-.05.1-.13.11-.28-.48-.13-.27-.98-.49-1.15-.04.2-.03.44,0,.69-.33-.34-.7-.64-.46-.93.32.64.47-.72.63.27.57-.72-.44-.35-.26-1.09l.22-.48c.35.06.2.76.32.65l-.06-.33c.27.32.14,1.57.56,2.32l.14-1.55c-.48-1.92-.1-4.36-.93-5.97v.07s-.09-.04-.22-.06l.08-.08-.27-.31c.31-.38.34-1.08.56-1.68q-.19.38-.45.43c-.35-.06-.5-.11-.39-.66.24-.02.25.32.43-.09-.11.21-.29.04-.33-.2.14-.32.15-.83.4-.85.07.14,0,.26-.04.36.07.14.19-.59.41-.18l-.1-.56c.19-.34.33.2.46.06-.21-.92-.8-1.37-1.01-2.2.13.03.68.01.52.01.13-.66-.67-1.36-.75-2.09.17.1.12.38.21.6.08-2.26-.02-4.1.36-6.25l-.6-.51.34-.58c.03-.28.04-.55.05-.82,0-.31-.02-.82-.04-1.21-.03-.41-.07-.82-.14-1.2-.1-.36-.2-.69-.37-.99-.35-.61-.98-1.1-1.66-1.32-.66-.2-1.45-.22-2.29-.15-.51.02-.66-.08-.74-.2-.08-.12-.14-.27-.28-.35-1.44-.06-1.79.57-3.17.7.19-.17.51-.65-.08-.68-.11.16-.18.42-.56.32l.19-.17c-.34-.25-.67-.01-1.38-.12-1.25.01-2.44.41-3.47,1.03-1.1-.06.11-.6-.1-.72.78.21.54-.1.71-.29-.41.16-.91.26-1.12-.14-.57.02-.83,0-1.4.28.29-.14.53.08.26.26-.47-.14-1.67.01-1.6-.49-2.72.1-5.76,0-8.68.02-.49.26.37.1.1.28-.71.34-.56-.17-1.14.09l.24-.27c-.85-.04-1.75.46-2.58.72.14-.31-.68-.26,0-.44-.4.05-.89-1.34-1.2-1.05l.45,1.3c-.02.13-.59.05-.53.13-.09-.06-.18-.13-.27-.19l-.14-.09c-.06-.03-.15-.06-.22-.09-.3-.11-.59-.18-.8-.18-.13-.16.07-.23.38-.25.16-.01.34-.01.52,0,.12,0,.24,0,.33,0,.02-.27-.19-.36-.71-.44-.43-.08-.79-.16-.35-.41-1.4.09.24.28-.55.48-.4-.05-.8-.07-1.18-.05.31.02.62.05.93.11-.45.09-.71.27-.97.42-.27.15-.56.23-1.13.35-.23.33-.42.69-.53,1.08-.4-.23-.58.57-.81,1.01-.05-.15-.08-.31-.1-.48-.29.68-.4.95-.63,1.42-.3-.65.23-.71-.04-1.07-.14.26-.25.56-.34.87.24.1.38.76.58.15.17.51.38.92.5,1.42.06.23.1.58.13.81.03.21.03.46,0,.78-.45.57-.34-.61-.76-.38-.24,1.31,1.01,1.6.92,2.37-.22.97.17.92.15,1.91-.27-.32-.34.69-.62.87l-.28-.39c.07.3-.05.59-.26.5.39-.05.3,1.29.45,1.97l.33-.11c.08.54.25,1.28.14,1.84.06.84.36.66.69,1.31-.31.35-.66.3-1.02.18.18-.22.1-.6.22-.97-.23-1.07-.88-1.91-.67-2.96-.77-.47.06.72-.25,1.23-.05-.02-.06-.05-.07-.09,0,.05,0,.09-.03.13-.08-.38-.17-1-.58-1.11.05.64.77.47.39,1.26.19.59-.46,1.05-.53,1.41.28.39.92.42.75,1.38l-.43-.43c-.06,1.08.63.52.56,1.53.07-.35.42.35.47-.32.22.34.23,1.07.08,1.61.06.14.15.03.3.06.34-.6-.25-.96.22-1.45l-.46-.43c.2-.56.59-.61.76-.26-.01-.16-.07-.3.02-.41.73-.08-.29.67.31.88l-.03-.4c.48-.16.37.94.31,1.45-.25.58-.36,1.1-.7,1.13l-.11-.78c-.29.4.11,1,.08,1.45-.05.03-.09.07-.11.12.03-.02.06-.03.1-.03-.02.1-.07.18-.15.25-.04.4.14.99.02,1.35l.31-.04-.17-.06c.03-.36.24-.85.45-.57.17.83-.42.98-.7,1.16-.46-.2.04-.8-.09-1.22-.47.24-.09.83-.44,1.67-.49-.35.06-.98-.4-1.18-.12.68.23.87.07,1.58-.23-.1-.22-.8-.52-.76l-.17.46c.03-1.13-.64.18-.72-.71-.23.41.38.59.03,1.17.23-.16.65-.62.82-.04l-.18.64c-.26.26-.5-.69-.73-.28l.14.68c.15-.02.24-.34.44-.13-.18.38.55.66.75,1.12-.03.36-.08.65-.26.77.4.93.34,2.1.73,2.97-.28-.59-.52,0-.76.34-.04-.67-.51-.69-.82-.66.04.41.51.69.68.49-.22.67.31.48-.03,1.07-.18.38-.46-.21-.64-.08-.04.73.57.22.43,1.01-.06-.05-.08-.12-.17-.06-.11.43.09.9.33,1-.63.44.03,1.29-.56,1.19.13,1.05.33-.15.53.06.25.43.02,1.22-.08,1.46,0-.26-.17-.5-.07-.74l-.42.21c-.32,1.29.92.84.54,2.09-.2-.65-.31-.22-.6-.55.1.2-.04,1.17.29.59-.04.47-.12.79-.2,1.12.15.42.26.87.53,1.12-.05.66-.35,1.14-.54,1.45.29,1.39-.23,2.66.09,4.12l.03-.11c-.08,1.13.55-.5.54.67-.51-.16-.34.7-.61,1.09-.13.72-.03,1.35.06,1.96.04.3.09.61.1.91,0,.15,0,.31-.01.47-.01.14-.04.49-.08.74-.11,0-.24-.13-.26-.58-.07.88-.08,1.7.02,2.43.13.7.36,1.29.84,1.87h-.09c.29.52.76.93,1.26,1.17.49.23,1.06.34,1.7.34.64-.02,1.29-.1,1.92-.15.41-.06.74-.11,1.13-.14-.12.06-.15.26-.25.32.76.11,1.98.19,2.51-.28.9.5.6-.15,1.76.33.07.09-.12.08-.19.1.57.17.98.12,1.55.18,1.28-.32,1.59-.98,3.07-.78.08.69-.91.17-.94.72.3-.12.55-.26.96-.1-.24.27-.05.17-.22.42.31.18,1.26-.72,1.25-.66.02-.13-.09-.21-.38-.19.35-.43,1.46-.04,2.17-.21-.23-.01-.97-.15-.69-.47.96.15,1.28-.52,1.96-.8.89.31-.65.58-.49,1.07.15.18.5.56.13.75.8.1,1.37-.31,2.08-.42l-.02.14c.99-.06,2.05-.66,2.89-.38l-.44-.16c.16-.08.66-.04.94-.32-.03.23.62.43.35.62.44-.73,2.26-.44,2.75-1.14.27.18.05.48-.03.65-.63-.06-.84-.21-1.17.08.52-.01.9.18.82.34.52-.45,1.76-.63,2.03-1.09.38.23.74.35.61.73,1.6-.24-.79-1.17,1.02-1.16.82.37-.8.5.33.62l-.21.06c.82.98.58-.7,1.5-.66.12.53-.65.38,0,.76.85-.13,1.22-.92,2.07-.75l-.13.23c.27-.02.67,0,1.07.01.2,0,.36.03.72,0,.3-.04.57-.14.76-.25.09.07-.04.13-.2.22.86-.27.92-.6.99-.72.03-.07.06-.14.14-.25.08-.12.25-.28.43-.67-.05-.18-.12-.34-.21-.48-.08.38-.34.87-.71,1.19-.36.33-.77.53-1.13.75.35-.24-.02-.3-.31-.47-.27-.18-.52-.39-.4-.61l-.1.18c-1.36-.78-3.12-.88-4.84-1.17-1.09.54-1.85-.22-3.02.16-.18.62-.22.12-1.22.25.53-.08.06-.47-.27-.56-.2.16-.43.22-.67.28-.2-.21-1.47-.71-1.93-.29-.61-.2.14-.2.28-.33-.25-.32-.5.25-.7.04,0,0,0-.07.07-.1-.93.03-1.49-.14-2.47-.21-.08.61-.96.23-1.39.45.14-.2-.55-.23-.82-.34l-.52.45c-.52.39-.72-.27-1.38-.06l.16.11c-.49.18-1.77-.18-2.25-.51-2.25.6-3.99.43-5.76.15-.89-.14-1.78-.3-2.75-.41-.32-.03-.3-.05-.39-.07-.07-.02-.14-.03-.21-.04-.13-.02-.3.02-.46-.08-.23.09-.21.33-.51.51-.21-.11-.21-.2-.24-.39-.14.29.07.13-.11.22.08.07.19.13.31.15-.03.05-.07.04-.13.14.13.04.33,0,.44.05-.27.1-.76.48-.8.05.07-.03.11,0,.2.03-.12-.23-.32-.11-.24-.39.09-.3-.04-.17.15-.3.08-.28.15-.52.23-.74-.14-.06-.21-.14-.23-.35-.03-.17-.02-.34.02-.5.06-.32.2-.58.23-.68.4.14.13.88.53,1.2l.29-.48-.32-.02.08-.68.06.04c-.13-.08-.25-.16-.14-.34.04-.03.13-.1.15-.02l-.18-.49c.34.28.1-.43.48-.36.18-1.59-.53-2.02,0-3.42-.18.23-.61-.45-.54-.88.1-.25.18-.31.33-.15l-.19-.57c.6-.7.22-1.4.44-2.43l.17.06c-.2-.39-.35-.8-.28-1.38l.34.11c.25-.7-.7-.55-.48-1.32-.36,0-.56.49-.91.56.37-.18.44-1.01.18-.82-.13-.78.02-.54.11-.6l-.21-.46c.03-.55.48-.16.69.04-.38-.52-.1-1.07-.02-1.64l.16.24.09-.76c-.27-.5-.28-1.2-.11-1.83l.47.46c.26-.44-.16-.24-.24-.36-.21-.72.12-.86.4-1.22-.47-1.15.87-2.23.19-3.23ZM154.47,114.51l.07-.11c.09.24.17.37-.07.11ZM154.34,108.24c.22.75-.02.52-.15.58.1-.75-.08-1.15.05-1.82-.09.11-.22.14-.3.17.01-.26.1-.53.34-.63.5.3-.21,2.04.05,1.7ZM157.23,122.29s-.07-.05-.11-.09h0s.11.09.11.09ZM156.7,118.55c.1-.06.16-.15.19-.27-.13.07-.23.14-.19.27ZM157.01,111.07c.19-.18.12-.57.06-.86-.02.13-.07.38-.06.86ZM126.67,90.09c.23-.08.65-.28.26-.43-.19.17-.55-.13-.7.14-.02,0-.03-.02-.04-.02.23.16.41.3.48.31ZM121.99,109.88c-.2-.05-.4-.22-.56-.12,0-.02.01-.04.02-.06-.07.05-.13.1-.17.05-.05.18-.1.37-.05.49.64.08.73.46.76-.37Z"/>
                <path class="cls-1" d="M119.7,102.46c0,.09,0,.15,0,.2,0-.06,0-.12,0-.2Z"/>
                <path class="cls-1" d="M121.23,110.21s.11-.19.2-.45c-.08.05-.15.17-.2.45Z"/>
                <path class="cls-1" d="M155.11,134.49l-.06-.22-.2.43c.21.73.48.77.8.96-.29-.66-.13-1.06-.21-1.9l-.33.72Z"/>
                <path class="cls-1" d="M157.26,134.15c.09-.07.3-.25.33-.36l-.19-.11-.13.48Z"/>
                <path class="cls-1" d="M158.2,125.45l-.16.7c.17.22.47-.59.16-.7Z"/>
                <path class="cls-1" d="M154.83,128.56l.22.36c.17-.33.15-.77-.09-.84.13.44-.13.11-.13.47Z"/>
                <path class="cls-1" d="M158.21,123.57c-.39-.21.16-.7-.21-.84.11.18-.18.81.21.84Z"/>
                <path class="cls-1" d="M154.54,124.12c-.36.23-.03.58-.11,1.02,0-.36.37-.88.11-1.02Z"/>
                <path class="cls-1" d="M157.02,119.86c.28.03.27.32.21.65-.09-.11-.22-.18-.27-.32.23.54.19.58.33,1.02.18-.44.29-1.11.63-1.05-.27-.32-.66-.71-.91-.3Z"/>
                <path class="cls-1" d="M154.48,123.07c-.1.37-.35.59-.32,1.02.19-.08.47-.23.41-.74l.33.18c.23-.48-.42.19-.42-.46Z"/>
                <path class="cls-1" d="M157.71,117.82l-.14.23c.28.5.17,1.17.59,1.45-.04-.62-.24-1.39-.44-1.67Z"/>
                <path class="cls-1" d="M155.04,121.27l-.45-.06c-.05.51.15-.04.26.14-.06.15-.1.37-.01.47-.08-.58.36-.05.2-.55Z"/>
                <path class="cls-1" d="M154.49,119.61l-.21-.65-.48.52c.19.76.28.03.69.12Z"/>
                <path class="cls-1" d="M154.77,118.8l.08-.08-.7-.96c.3.57.26.61.62,1.03Z"/>
                <path class="cls-1" d="M157.22,106.78c-.2-.1-.41.49-.21.23.17.1.38-.68.21-.23Z"/>
                <path class="cls-1" d="M153.72,109.29c.13-.29-.18-1.19-.34-1.58.12.47.08,1.66.34,1.58Z"/>
                <path class="cls-1" d="M153.32,107.55s.03.09.06.16c-.02-.07-.04-.12-.06-.16Z"/>
                <path class="cls-1" d="M151.45,94.4s-.02.02-.04.05l.04-.05Z"/>
                <path class="cls-1" d="M151.56,94.29c-.01.07.12,0,.32-.15-.13.01-.26.04-.44.26.03-.02-.05.13.11-.11Z"/>
                <path class="cls-1" d="M149.64,94.18c.2-.12.48-.06.41-.25-.11-.08-.54.12-.41.25Z"/>
                <path class="cls-1" d="M121.94,89.01c-.61.2-.84.54-.52.63.55-.39.14-.32.52-.63Z"/>
                <path class="cls-1" d="M120.9,90.23l-.16-.03c-.14.06-.27.12-.4.19.18-.06.37-.12.56-.16Z"/>
                <path class="cls-1" d="M119.48,94.38s-.09-.18-.11-.33c.02.31.05.56.11.33Z"/>
                <path class="cls-1" d="M119.36,93.9s0,.1.01.15c0-.05,0-.11-.01-.15Z"/>
                <path class="cls-1" d="M119.47,93.57l-.15-.09c.02.09.03.26.04.42,0-.15.02-.3.11-.34Z"/>
                <path class="cls-1" d="M119.39,95.22l.45-.49c-.19-.51-.25.58-.68.08l.23.41Z"/>
                <path class="cls-1" d="M119.42,96.92c-.16.46.48,1.14-.04,1.4.2,1.32.86-.3.98,1.22.33-1.42-.94-.74-.6-2-.34.61-.23-.41-.34-.62Z"/>
                <path class="cls-1" d="M120.29,96.7c-.25-.08-.3.51-.14.7.04-.17.41-.47.14-.7Z"/>
                <polygon class="cls-1" points="119.52 99.5 119.31 99.9 119.47 100.01 119.52 99.5"/>
                <path class="cls-1" d="M119.35,101.02l-.28-.4c.11.13.06.72.28.4Z"/>
                <path class="cls-1" d="M118.87,103.15c-.12.37.55.71.44-.07l-.04.18c-.1-.05-.36.37-.4-.11Z"/>
                <path class="cls-1" d="M119.7,108.09c.03-.25-.04-.56-.19-.51l.1.7.08-.19Z"/>
                <path class="cls-1" d="M121.36,108.03c.42-.22,0-.66.16-1.12-.11.53-.16.46-.16,1.12Z"/>
                <path class="cls-1" d="M119.07,108.87c-.16-.19-.04-.48,0-.65-.24.08-.2.56,0,.65Z"/>
                <path class="cls-1" d="M119.16,109.99c-.18.22-.23-.06-.35.11-.21.48-.21,1,0,1.28.18-.12.67-.28.87-.08-.11-.79-.85-1.21-.25-1.57l-.69-.67c-.15.62.48.49.42.92Z"/>
                <path class="cls-1" d="M120.61,108.45l-.26.41c.24-.08.26.24.33.47.53-.09-.05-.64-.07-.88Z"/>
                <polygon class="cls-1" points="119.27 114.33 119.34 115.22 119.39 114.93 119.27 114.33"/>
                <polygon class="cls-1" points="119.07 114.89 118.92 114.9 119.16 115.59 119.07 114.89"/>
                <polygon class="cls-1" points="118.84 115.81 118.87 115.7 118.77 115.18 118.84 115.81"/>
                <path class="cls-1" d="M118.67,117.67l.23-.16c-.05-.23.22-.67-.09-.64.09.2.04.67-.14.8Z"/>
                <path class="cls-1" d="M124.13,123.98c-.14-.16-.28-.07-.41.02l.37.26c-.02-.08-.05-.23.04-.29Z"/>
                <path class="cls-1" d="M123.49,125.04l.42.67c.08-.76-.26-.87-.31-1.53-.14.28.16.67.03,1.03l-.14-.16Z"/>
                <path class="cls-1" d="M123.11,138.2c-.28-.06-.24.09-.42-.39.05.17.08.33.1.49l.04.36c.01.15.01.3.04.47.17-.11.48-.04.4-.11-.06-.07-.11-.15-.17-.25h.19c.1-.11.03-.12-.06-.15-.04-.02-.09-.03-.11-.06-.03-.08-.03-.19,0-.35Z"/>
                <path class="cls-1" d="M152.61,142.7c-.08.13.02.26.13.38.51-.15-.23-.35-.13-.38Z"/>
              </g>
            </g>
          </g>
        </g>
      </g>
    </mask>
  </defs>
  <g id="_レイヤー_1-2" data-name="レイヤー 1">
    <g class="cls-2">
      <g>
        <path class="cls-3" d="M181.71,97.69c.03-.28.08-.35.14-.38-.02-.23-.04-.45-.06-.69l-.08,1.06Z"/>
        <path class="cls-3" d="M184.69,164.43q-.06-.18-.25.16s-.03.08-.05.13c.1-.13.22-.29.3-.3Z"/>
        <path class="cls-3" d="M185.69,145.91c.05-.28.11-.56.18-.82-.07.01-.13.35-.18.82Z"/>
        <path class="cls-3" d="M181.37,106.55c.09-.72.18-1.45.27-2.2-.17.24-.34,1.08-.27,2.2Z"/>
        <path class="cls-3" d="M185.45,148.09c.09-.58.16-1.5.24-2.19-.12.67-.2,1.4-.24,2.19Z"/>
        <path class="cls-3" d="M156.71,188.54c.55-.07,1.15-.16,1.8-.28.03-.05.13-.1.1-.15l-1.9.43Z"/>
        <path class="cls-3" d="M.18,44.68l-.18.85c.09-.14.14-.46.18-.85Z"/>
        <path class="cls-3" d="M27.68,2.72c.49-.12.92-.21,1.13-.28-.39.1-.76.19-1.13.28Z"/>
        <path class="cls-3" d="M154.38,187.99c-.68.23-1.65.51-2.54.64-1.03.17-1.91.34-1.95.54,2.28.02,4.55-.26,6.81-.64-2.28.16-3.52-.1-2.33-.55Z"/>
        <path class="cls-3" d="M154.38,187.99c.11-.04.23-.08.33-.11-.13.04-.23.07-.33.11Z"/>
        <path class="cls-3" d="M180.15,88.53c-.03-.25-.05-.46-.08-.78.02.35.05.58.08.78Z"/>
        <path class="cls-3" d="M186.6,94.69c.62.32.22,4.87.63,6.87.22-1.68-.23-6.81.36-7.68-.36-6.18-1.47-5.5-2.08-8.5-.05-5.05.53-.56.71-.76.04-1.49-1.11-3.93-.27-5.3-.46-2.44-.99-3.81-1.2-.19,0-2.69-.3-6.5-.57-7.18.92,2.17.36-3.07,1.12-3.37.16-4.07.38-13.06-.61-16.87l1,1.13-.11-4.75c.61-3.55.64,4.19.7,6.56.05-3.22.06-5.9.05-8.51,0-1.3-.01-2.59-.02-3.91,0-.66,0-1.33-.01-2.02,0-.34,0-.69,0-1.04v-.54c-.02-.22-.03-.44-.04-.66-.03.53-.07.82-.13.96-.05.16-.11.21-.17.24-.12.06-.24.01-.4.42-.05-.25-.09-.51-.12-.78-.03-.31-.07-.64-.11-.97-.06-.68-.1-1.38-.14-2.09-.01-.71-.11-1.42-.21-2.1-.1-.68-.2-1.34-.33-1.95.14-.64.41-.39.78,1.54-.15-.79-.26-1.59-.46-2.37l-.66-2.32c.69.22.1-2.13,1.69,2.51-.2-.74-.43-1.47-.65-2.19-.23-.73-.42-1.46-.73-2.16-.78-2.39-.66-2.39-.23-1.64.41.75,1.14,2.24,1.35,2.83-.31-1.31-.84-2.56-1.27-3.84-.48-1.26-1.1-2.46-1.67-3.69-1.76-2.32.38,1.64-2.62-2.97-1.85-3.17-4.62-6.42-8.02-9.11-3.39-2.7-7.39-4.86-11.39-6.22l2.68,1.29,2.53,1.53c-1.11-.59-1.92-.93-2.52-1.13-.62-.17-1.03-.18-1.35-.15-.63.07-.88.36-1.65.3-2.1-.78-4.67-1.41-7.19-1.76-.31-.05-.63-.1-.94-.15-.31-.02-.62-.05-.93-.07-.62-.05-1.22-.09-1.81-.13-.59-.05-1.17-.09-1.58-.1-.45-.03-.88-.06-1.27-.08.9-.12,1.49-.26,1.81-.4.37-.13.44-.27.23-.43-.42-.31-1.58-.59-3.28-.81-7.62-.07-5.75,1-9.99,1.36,3.31-1.24-5.31-.42-4.56-1.09-9.68.05-19.41.49-29.41.47.2.18,3.06.36,1.31.55-3.68.2-5.42-.31-5.93-.55-4.75.11-7.49.5-9.05.87,2.06-.12,2.25.06,1.87.39-4.74.11-3.43-.72-7.93-.14-1.19-.66,5-.33,4.57-.98-4.19-.05-6.81.23-9.87.56-.69-.42,2.81-.1.5-.45-6.48.32-14.3.71-19.17.96l-1.31-.55c-3.12.04-5.18.16-6.62.41-1.69-.22-.37-.36,1.25-.43-4.18-.05-9.31.4-11.68.45.38-.33,2.37-.05,3.07-.32-1.31-.03-2.71.01-4.12.08-.71.04-1.43.09-2.13.13-.84.09-1.67.17-2.49.25-.41.04-.81.09-1.2.13-.39.07-.78.15-1.16.22-.76.13-1.49.26-2.19.38-1.38.3-2.61.58-3.66.66.49-.22,1.08-.4,1.63-.54-4.53,1.15-8.52,3.13-12.09,5.77-3.56,2.65-6.75,5.97-9.45,10.19-.67.93-1.18,1.69-1.57,2.31-.35.64-.58,1.14-.74,1.53-.33.79-.37,1.17-.39,1.56-.04.38,0,.78-.17,1.59-.15.82-.61,2.02-1.12,4.17-.35-.07-.78.62-1.08,1.79-.14.59-.26,1.3-.37,2.08-.05.39-.12.8-.15,1.22-.01.42-.02.86-.03,1.3,0,.86-.03,1.84,0,2.64.04.76.08,1.51.12,2.22.07,1.42.11,2.67.04,3.47l.22-1.02c.6,3.75.06,8.93-.34,11.56-.08,5.68-.07,14.18.54,19.85l-.31-1.13c.4,4.69-.08,7.62.32,12.31-.11-.13-.3-1.88-.4-.06-.22,11.3-.09,22.72.08,34.12.08,5.7.16,11.4.24,17.09.02,2.84.04,5.68.07,8.51,0,1.42,0,2.83,0,4.24-.02.66.03,1.52.07,2.33.05.82.05,1.64.15,2.45.69,6.22,3,12.52,7.05,17.78l.74,1c.26.32.55.62.82.93.56.61,1.1,1.25,1.69,1.84,1.23,1.13,2.44,2.31,3.82,3.28,1.31,1.07,2.81,1.89,4.26,2.79,1.54.74,3.04,1.57,4.68,2.11,1.6.66,3.28,1.05,4.96,1.48.84.19,1.71.29,2.56.43l1.29.19,1.3.08c.85.04,1.77.1,2.57.12h2.24c1.5,0,2.99.01,4.49.01,6,0,12.04,0,18.07,0,24.14-.05,48.19-.29,69.42-.89,0,0,6.83-2.1,11.94-4.35h5.85c17.02,0,30.81-13.79,30.81-30.81v-64.64c.28-.03.87-2.23,1.11.05.09,2.34-.19,3.19-.35,2.22.39,3.51.85,1.57,1.01,3.91l.08-1.06c.2,1,1.19-1.74,1.24,3.32,0,3.69-.39,2.53-.62,2.62.24,2.87.04,5.07-.21,7.04.14-.2.27.02.28.89.22,4.87-.59,2.8-.69,4.61-.34,6.94,1.28-.87,1.32,6.88l.22-8.99c.34.38.85.57.84-1.37-.51-.18-.95-3.37-.87-6.37.59-.87.66,8.06,1.3,3-.1,1.81.06,4.32,0,6.56-.63-2.25-.12,7.18-.83,3.3.16,9.81-.28,11.24.19,20.24-.38-.81-1.39-6.55-1.1-11.24l.35-.38c-.43-5.86-.4,4.57-1,3.51.97,7.24-.46,16.04-.1,24.9.32-1.56.51.2.85.57-.08-3.56-.21-2.94.2-5.56.45.5.28,2.62.6,3.75.49.93,0-2.68.27-3.94.26,3.38.33,3.06.73,5.07-.1.47-.18.8-.27,1.06-.09.28-.18.51-.27.7-.18.39-.36.73-.62,1.52-.39,4.67-.93,6.71-1.25,8.57-.23.91-.45,1.77-.79,2.86-.2.53-.46,1.1-.77,1.76-.32.65-.64,1.42-1.19,2.22.59-.89.71-1.29.72-1.38,0-.1-.16.09-.31.27-.23.26-.43.49-.08-.23-.2.37-.4.74-.64,1.09.38-.73.66-1.59,1.01-2.45.17-.43.34-.87.52-1.32.16-.45.28-.92.43-1.39.62-1.84.97-3.78,1.25-5.47.4-3.43.08-5.88-.51-5.36-.01.63-.02,1.25-.03,1.85-.02.6-.1,1.18-.14,1.76-.05.58-.09,1.16-.14,1.73-.1.57-.2,1.14-.29,1.72-.11.58-.19,1.18-.34,1.78-.18.59-.36,1.2-.55,1.84-.34,1.29-1.01,2.56-1.67,4l-.08-.35c-2.34,3.91.3.09-.07,1.13-.6,1.14-1.11,2.09-1.75,2.77-.61.7-1.18,1.25-1.71,1.76-.55.49-1.1.91-1.59,1.43-.25.26-.49.54-.72.85-.24.31-.51.62-.76,1,.69-.55,1.3-1.17,1.9-1.81.61-.63,1.25-1.24,1.77-1.95-.49.88-.75,1.22-.78,1.32-.03.1.15-.07.4-.3.47-.49,1.17-1.29,1.19-.66-1.96,3.06-5.55,6.7-10.22,9.39-4.64,2.78-10.34,4.34-15.55,4.87.76.06,1.39.11,1.96.13.57-.02,1.09-.06,1.64-.11s1.12-.12,1.81-.22c.68-.14,1.46-.34,2.44-.59-1.49,1.47-3.21,1.74-1.01,2.12l2.49-.62c.82-.25,1.62-.56,2.43-.84l.42.88c-.67.26-1.35.5-2.02.71-.66.22-1.34.31-1.97.44-.27.38-2.23.9-4.18,1.08-1.94.31-3.84.25-4.01.57l2.24-.17,2.22-.37c1.14.08.4.31-1.04.6-.36.07-.76.15-1.19.22-.43.04-.88.08-1.34.12-.92.08-1.85.15-2.65.22,1.52.24,4.05.22,6.93-.42.36-.07.73-.14,1.1-.22.37-.11.74-.21,1.11-.32.75-.22,1.51-.45,2.28-.69.77-.24,1.52-.58,2.28-.87.75-.32,1.54-.56,2.26-.94-.52-.13,4.84-3.54-.74-.93-.08-.41,3.13-2.08,5.09-3.42-.48.4.67.04,1.35-.09.33-.07.56-.06.42.19-.06.14-.24.33-.55.59.4-.3.71-.54.94-.75.45-.37.72-.56,1-.75.28-.2.59-.4,1.12-.8.52-.41,1.21-1.08,2.31-2.15-.12.18.35-.13,1.02-.82.65-.69,1.61-1.65,2.49-2.68.86-1.05,1.71-2.11,2.34-2.88.6-.78,1.03-1.22,1.11-.96.36-.95.08-1.08.16-1.75.05-.33.15-.81.43-1.6.14-.4.33-.87.57-1.45.12-.29.26-.6.41-.94.13-.35.26-.73.41-1.15-.5.73-1.72,2.78-2.52,4.04-.43.61-.8,1.01-.9.98-.12-.05.09-.49.51-1.7-.36,1.06-.88,2.04-1.33,3.07-.66,1-1.08,1.33-1.25,1.46-.18.12-.17-.02-.19-.12-.05-.21-.15-.22-2.13,2.1.61-.66,1.33-1.82,2.06-2.81.69-1.02,1.24-1.98,1.65-2.22-.47.18-.44-.24-.16-.96.3-.72.7-1.83,1.19-2.95.9-2.28,1.62-4.86,1.18-5.12.34-.58.63-1.29.92-2.25.22-.98.4-2.22.56-3.84.15.24.34-.08.49-.15.15-.07.32.13.23,1.42-.22,1.05-.31,1.97-.53,2.89-.24.92-.52,1.86-.96,2.96.38-.22.73-.86,1.06-1.78.16-.46.34-.98.48-1.56.11-.59.21-1.23.31-1.9.24-1.34.26-2.84.3-4.33l.03-1.11c0-.31,0-.63,0-.94,0-.62.02-1.23.05-1.81-.1.66-.22.84-.39-.45.19-2.86.4-9.17.99-7.36l-.16-14.42c.29-.07.12,2.06.22,2.94l.03-8.05c.39-1.88.39,2.74.77,3.55l-.03-5.81.38.81c-.25-1.43-.37-8.12.24-9.74-.19-6.37-1.45-6.25-.89-14.86ZM161.43,10.27c.53.18,1.33.4,2.54,1.01.6.62.92,1.06,1.15,1.43-1.74-1.11-3.61-2.06-5.57-2.8.23.05.43.09.61.1.4.04.73.09,1.27.26ZM150.84,7.91c.25.03.46.07.66.11-.96-.09-1.93-.14-2.92-.14h-.35c1.17-.1,2-.03,2.61.03ZM146.98,6.24c2.71.32-.81,1.07-4.56,1.21,1.89.04,3.61.33,5.56-.03.58.18.1.34-.66.48h-7.16c-.31-.1-.84-.19-1.67-.25,4.99-.34,1.81-1.28,8.5-1.39ZM60.11,7.8c-.18.03-.41.06-.7.08h-6.38c2.72.02,4.67-.59,7.08-.08ZM52.84,7.88h-1.34s.09-.04.13-.06c.42.04.82.06,1.21.06ZM179.39,84.81v-2.96c.05.47.1,1.07.15,1.84,0,.91-.08,1.19-.15,1.12ZM180.32,68.02c-.51,2-.7-.46-.94-2.73v-8.25c.54,2.3.82,7.65,1.72,7.24.19,6.37-.47-1.69-.78,3.74ZM181.37,53.78c-.11-9.37-1.63-1.43-1.91-10.61.07,1.63.03,2.25-.07,2.39v-6.87c0-1.4-.1-2.78-.28-4.13.05.2.1.4.15.6.16.57.19,1.17.28,1.76.08.6.16,1.2.24,1.81.05.6.09,1.21.14,1.83.08,1.23.17,2.49.25,3.77l-.2-3.68c.26-1.25.33,3.07.62,3.01l-.35,2.3c.56.63.53-5.18,1.07-3.8-.07.31-.08,1.06-.04,1.5l.17-2.13c-.18,4.81.82,8.62-.07,12.24Z"/>
        <path class="cls-3" d="M179.39,167.11c.2-.38.38-.76.58-1.14-.28.52-.46.89-.58,1.14Z"/>
        <path class="cls-3" d="M170.09,183.4c-.35.26-.78.57-1.31.95.58-.4,1.01-.71,1.31-.95Z"/>
      </g>
    </g>
  </g>
</svg>