<?xml version="1.0" encoding="UTF-8"?>
<svg id="_レイヤー_2" data-name="レイヤー 2" xmlns="http://www.w3.org/2000/svg" viewBox="0 0 916.63 830.92">
  <defs>
    <style>
      .cls-1 {
        fill: #fff4cb;
      }

      .cls-2 {
        fill: #3eac4a;
      }

      .cls-3 {
        fill: #323333;
      }

      .cls-4 {
        fill: #231815;
      }

      .cls-5 {
        fill: #046535;
      }
    </style>
  </defs>
  <g id="_レイヤー_2-2" data-name="レイヤー 2">
    <g>
      <g>
        <g>
          <polygon class="cls-1" points="0 830.91 236.74 794.33 91.07 608.39 0 830.91"/>
          <polygon class="cls-3" points="0 830.92 76.3 819.13 29.35 759.2 0 830.92"/>
        </g>
        <g>
          <polyline class="cls-2" points="888.37 276.92 916.63 71.35 860.73 0 89.11 609.94 234.77 795.89 888.37 276.92"/>
          <polygon class="cls-5" points="798.72 168.21 887.37 281.37 915.63 75.8 798.72 168.21"/>
        </g>
      </g>
      <g>
        <path class="cls-4" d="M382.09,571.02c-.1.81-3.25,21.36-23.3,37.21-22.99,18.17-48.87,14.87-67.46-8.39-9.47-11.86-13.62-24.41-12.29-36.52,1.4-11.79,8.04-22.75,19.36-31.7,22.88-18.08,35.94-14.04,36.53-13.77.9.21,1.43.89,1.43,1.82l1.58,16.06c.08,1.04-.65,1.98-1.71,2.27,0,0-3.47.72-8.59,4.95-3.28,2.6-5.11,5.88-5.63,9.43-.26,3.89,1.11,7.97,4.16,11.63,5.55,6.85,13.84,6.19,18.93,2.17,5.89-4.65,9.26-9.72,9.37-9.81.62-.85,1.79-1.23,2.75-.7l23.8,13.06c.76.5,1.27,1.39,1.06,2.29Z"/>
        <path class="cls-4" d="M453.11,482.83c11.75,16.87,19.4,31.09,19.38,31.29.51.89.37,2.1-.43,2.73l-19.25,15.22c-.45.36-1.09.49-1.69.42s-1.17-.55-1.52-1.01c0,0-2.78-4.25-10.01-14.19l-2.74-3.73c-4.43-5.89-8.69-11.56-11.86-14.2-6.33-5.5-11.41-.75-12.59.55l30.15,37.32c.36.45.6,1,.53,1.61-.07.61-.44,1.08-.89,1.44l-32.73,25.87c-.91.72-2.12.57-2.95-.25-.18-.23-18.53-21.09-36.57-42.94-19.48-23.47-35.63-44.78-35.81-45.01-.71-.91-.54-2.33.36-3.05l34.2-27.03c.45-.36,1.09-.49,1.58-.33.52-.04,1.1.23,1.46.69.18.23,6.06,7.74,13.19,16.84,12.25-8.94,21.42-13.62,30.96-12.68,15.11,1.5,27.31,16.36,37.23,30.44Z"/>
        <path class="cls-4" d="M537.5,410.79c.31.86.3,1.79-.4,2.53-.11.09-4.45,4.62-16.91,14.47-7.7,6.09-13.2,10.07-16.44,12.26,6.22,4.66,12.57,4.8,19.67.29,8.21-5.2,13.88-13.18,13.88-13.18.73-.94,1.99-1.2,3.04-.56l17.08,11.74c.76.5,1.16,1.48.84,2.47-.28.59-5.87,16.62-28.31,33.62-23.87,17.76-49.05,14.64-67.55-8.5-9.65-12.08-13.98-24.87-12.67-36.77,1.24-11.29,7.83-21.85,18.81-30.53,14.27-11.28,27.81-15.53,40.39-12.58,18.96,4.54,28.14,23.99,28.57,24.76ZM490.36,423.18c3.4-2.69,10.53-8.33,12.91-10.21-2.75-2.8-8.83-7.76-13.81-3.82-1.13.9-1.8,2.16-1.87,3.69-.34,2.85.87,6.5,2.78,10.33Z"/>
        <path class="cls-4" d="M639.39,367.64c-.1.81-3.25,21.36-23.3,37.21-22.99,18.17-48.87,14.87-67.46-8.39-9.47-11.86-13.62-24.41-12.29-36.52,1.4-11.79,8.04-22.75,19.36-31.7,22.88-18.08,35.94-14.04,36.53-13.77.9.21,1.43.89,1.43,1.82l1.58,16.06c.08,1.04-.65,1.98-1.71,2.27,0,0-3.47.72-8.59,4.95-3.28,2.6-5.11,5.88-5.63,9.43-.26,3.89,1.11,7.97,4.16,11.63,5.55,6.85,13.84,6.19,18.93,2.17,5.89-4.65,9.26-9.72,9.37-9.81.62-.85,1.79-1.23,2.75-.7l23.8,13.06c.76.5,1.27,1.39,1.06,2.29Z"/>
        <path class="cls-4" d="M729.04,296.23l-3.08,21.59c-.12,1.02-1.03,1.73-1.86,1.84-1.35.15-26.06,2.55-44.72-8.86,9.9,11.7,19.94,23.11,20.12,23.34.36.45.49,1.09.53,1.61-.07.61-.35,1.2-.8,1.55l-33.64,26.59c-.91.72-2.12.57-2.95-.25-.18-.23-18.74-21.11-36.3-43.52-18.8-24-33.84-46.01-34.02-46.24-.6-1-.46-2.22.45-2.94l33.64-26.59c.45-.36,1.08-.49,1.69-.42.49.16,1.08.44,1.43.89.27.34,23.62,32.72,32.73,45.05-6.93-20.31.27-45.53.62-46.73.21-.9,1.12-1.62,2.04-1.61l18.24-.6c.52-.04,1.1.23,1.46.69.47.36.71.91.64,1.52.07.32.22,23.22,8.86,34.26,9.45,12.06,32.96,16.32,33.16,16.34,1.22.15,1.99,1.37,1.76,2.48Z"/>
      </g>
    </g>
  </g>
</svg>