<?xml version="1.0" encoding="UTF-8"?>
<svg id="_レイヤー_2" data-name="レイヤー 2" xmlns="http://www.w3.org/2000/svg" viewBox="0 0 836.52 947.2">
  <defs>
    <style>
      .cls-1 {
        fill: #a37b51;
      }

      .cls-2 {
        fill: none;
      }

      .cls-3 {
        fill: #41210d;
      }

      .cls-4 {
        fill: #c5b098;
      }

      .cls-5 {
        fill: #231815;
      }

      .cls-6 {
        fill: #c2996c;
      }
    </style>
  </defs>
  <g id="_レイヤー_2-2" data-name="レイヤー 2">
    <g>
      <g>
        <polygon class="cls-2" points="597.68 382.48 597.68 382.48 762.04 143.79 553.23 0 762.04 143.79 597.68 382.48"/>
        <polygon class="cls-4" points="836.52 135.04 649.13 0 553.23 0 762.04 143.79 836.52 135.04"/>
        <path class="cls-6" d="M459.24,478.1c38.52-55.95,91.94-90.89,138.43-95.61l164.37-238.69L553.23,0l-176.85,256.83c12.71,45.2-.77,108.15-39.62,164.57-38.85,56.42-92.85,91.47-139.61,95.72L0,803.41l208.82,143.79,210.48-305.67c-12.17-45.12,1.42-107.49,39.94-163.43Z"/>
        <rect class="cls-1" x="351.23" y="512.01" width="314.52" height="0" transform="translate(-201.6 640.43) rotate(-55.45)"/>
        <g>
          <path class="cls-1" d="M762.04,143.79l-164.36,238.69-178.38,259.04-210.48,305.67,89.41-44.79,150.54-214.6,33.05-47.12c4.5-31.04,16.71-64.47,36.69-96.34,25.49-40.65,58.96-71.3,92.87-88.36l42.66-60.81,182.49-260.14-74.48,8.75Z"/>
          <path class="cls-1" d="M459.24,478.1c-38.52,55.95-52.11,118.32-39.94,163.43l178.38-259.04c-46.49,4.72-99.91,39.67-138.43,95.61Z"/>
        </g>
      </g>
      <g>
        <path class="cls-5" d="M559.46,185.58l-14.89,22.53c-.5.7-1.42,1.1-2.42,1.02-.24.04-4.99-.41-11.6-2.4-12.54,16.6-20.97,27.48-21.07,27.62-.8,1.12-2.38,1.25-3.5.45l-17.18-12.32c-1.12-.8-1.5-2.34-.69-3.46.1-.14,6.49-9.94,16.69-25.05-5.55-3.77-8.7-6.45-8.84-6.55-1.02-.94-1.25-2.38-.45-3.5l18.67-27.22c.4-.56,1.08-.92,1.8-1.04s1.62.1,2.08.64c0,0,2.59,2.28,8.42,6.25.66-1.22,1.46-2.34,2.26-3.45,5.27-7.64,10.38-14.77,15.18-21.47-4.93-3.75-7.8-6.23-7.94-6.33-1.12-.8-1.25-2.38-.45-3.5l15.72-21.93c.8-1.12,2.24-1.36,3.46-.69.14.1,3.51,1.88,8.5,5.25,4.75-6.33,7.45-10.1,7.45-10.1.9-1.26,2.48-1.39,3.6-.59l20.54,14.72c1.12.8,1.5,2.34.59,3.6,0,0-2.7,3.77-7.31,10.2,3.81,2.94,6.12,5.03,6.12,5.03,1.12.8,1.25,2.38.45,3.5l-15.72,21.93c-.8,1.12-2.24,1.35-3.46.69,0,0-2.72-1.52-6.73-4.19-4.81,6.71-10.15,13.87-15.7,21.31l-1.2,1.68c3.93,2.19,6.75,3.57,6.75,3.57.7.5,1.16,1.04,1.28,1.76.12.72,0,1.48-.4,2.04ZM610.21,282.66l-15.35,13.74c-.74.74-2.08.84-2.92.24-.94-.46-16.47-9.48-26.52-30.86-22.51-2.82-36.16-13.87-36.86-14.37-.88-.84-1.08-2.04-.75-3.08l8.23-18.85c-.04-.24.06-.38.16-.52.6-.84,1.76-1.28,2.8-.95,5.57,1.67,12.06,2.94,18.72,3.69-.18-10.07.97-18.76.89-19.24.16-.52.36-.8.56-1.08s.4-.56.74-.74c.54-.46,1.26-.58,1.92-.32,0,0,20.39,4.89,21.91,5.13l.24-.04c2.34-.02,2.59,2.28,2.61,3.14.53,3.98,1.2,8.05,2.44,12.53,7.68-1.27,13.03-3.13,16.23-4.65-5.31-3.81-15.03-11.2-18.1-13.4l-2.65-1.9c-5.41-3.67-18.22-12.64-20.14-13.8-.56-.4-1.02-.94-1.14-1.66-.26-.82,0-1.48.4-2.04l13.42-18.72c.8-1.12,2.24-1.35,3.46-.69.14.1,9.52,6.19,19.04,12.38,1.92-3.27,4.35-7.25,6.87-11.36-11.81-8.89-19.72-14.98-19.86-15.08-1.02-.94-1.39-2.48-.59-3.6l12.92-18.02c.8-1.12,2.48-1.4,3.6-.59,0,0,8.16,5.43,20.1,13.56,4.01-5.59,6.65-8.98,6.65-8.98.9-1.26,2.48-1.39,3.6-.59l29.2,20.93c1.12.8,1.49,2.34.59,3.6,0,0-2.36,3.59-6.47,9.32,9.82,7.25,16.18,12.24,16.32,12.34,1.12.8,1.25,2.38.45,3.5l-12.92,18.02c-.8,1.12-2.24,1.35-3.46.69-.14-.1-7.18-4.73-17.62-12-3.14,4.09-6.13,7.66-8.71,10.68,7,5.87,10.91,10.15,12.05,13.29,2.94,7.4.12,13.41-2.49,17.04-1.4,1.96-2.78,3.29-2.98,3.57-1.28,1.2-13.29,13.52-35.88,19.96,3.13,6.26,6.06,11.32,9.6,16.4.78.98.67,2.6-.31,3.38Z"/>
        <path class="cls-3" d="M559.46,185.58l-14.89,22.53c-.5.7-1.42,1.1-2.42,1.02-.24.04-4.99-.41-11.6-2.4-12.54,16.6-20.97,27.48-21.07,27.62-.8,1.12-2.38,1.25-3.5.45l-17.18-12.32c-1.12-.8-1.5-2.34-.69-3.46.1-.14,6.49-9.94,16.69-25.05-5.55-3.77-8.7-6.45-8.84-6.55-1.02-.94-1.25-2.38-.45-3.5l18.67-27.22c.4-.56,1.08-.92,1.8-1.04s1.62.1,2.08.64c0,0,2.59,2.28,8.42,6.25.66-1.22,1.46-2.34,2.26-3.45,5.27-7.64,10.38-14.77,15.18-21.47-4.93-3.75-7.8-6.23-7.94-6.33-1.12-.8-1.25-2.38-.45-3.5l15.72-21.93c.8-1.12,2.24-1.36,3.46-.69.14.1,3.51,1.88,8.5,5.25,4.75-6.33,7.45-10.1,7.45-10.1.9-1.26,2.48-1.39,3.6-.59l20.54,14.72c1.12.8,1.5,2.34.59,3.6,0,0-2.7,3.77-7.31,10.2,3.81,2.94,6.12,5.03,6.12,5.03,1.12.8,1.25,2.38.45,3.5l-15.72,21.93c-.8,1.12-2.24,1.35-3.46.69,0,0-2.72-1.52-6.73-4.19-4.81,6.71-10.15,13.87-15.7,21.31l-1.2,1.68c3.93,2.19,6.75,3.57,6.75,3.57.7.5,1.16,1.04,1.28,1.76.12.72,0,1.48-.4,2.04ZM610.21,282.66l-15.35,13.74c-.74.74-2.08.84-2.92.24-.94-.46-16.47-9.48-26.52-30.86-22.51-2.82-36.16-13.87-36.86-14.37-.88-.84-1.08-2.04-.75-3.08l8.23-18.85c-.04-.24.06-.38.16-.52.6-.84,1.76-1.28,2.8-.95,5.57,1.67,12.06,2.94,18.72,3.69-.18-10.07.97-18.76.89-19.24.16-.52.36-.8.56-1.08s.4-.56.74-.74c.54-.46,1.26-.58,1.92-.32,0,0,20.39,4.89,21.91,5.13l.24-.04c2.34-.02,2.59,2.28,2.61,3.14.53,3.98,1.2,8.05,2.44,12.53,7.68-1.27,13.03-3.13,16.23-4.65-5.31-3.81-15.03-11.2-18.1-13.4l-2.65-1.9c-5.41-3.67-18.22-12.64-20.14-13.8-.56-.4-1.02-.94-1.14-1.66-.26-.82,0-1.48.4-2.04l13.42-18.72c.8-1.12,2.24-1.35,3.46-.69.14.1,9.52,6.19,19.04,12.38,1.92-3.27,4.35-7.25,6.87-11.36-11.81-8.89-19.72-14.98-19.86-15.08-1.02-.94-1.39-2.48-.59-3.6l12.92-18.02c.8-1.12,2.48-1.4,3.6-.59,0,0,8.16,5.43,20.1,13.56,4.01-5.59,6.65-8.98,6.65-8.98.9-1.26,2.48-1.39,3.6-.59l29.2,20.93c1.12.8,1.49,2.34.59,3.6,0,0-2.36,3.59-6.47,9.32,9.82,7.25,16.18,12.24,16.32,12.34,1.12.8,1.25,2.38.45,3.5l-12.92,18.02c-.8,1.12-2.24,1.35-3.46.69-.14-.1-7.18-4.73-17.62-12-3.14,4.09-6.13,7.66-8.71,10.68,7,5.87,10.91,10.15,12.05,13.29,2.94,7.4.12,13.41-2.49,17.04-1.4,1.96-2.78,3.29-2.98,3.57-1.28,1.2-13.29,13.52-35.88,19.96,3.13,6.26,6.06,11.32,9.6,16.4.78.98.67,2.6-.31,3.38Z"/>
        <g>
          <path class="cls-2" d="M559.46,185.58l-14.89,22.53c-.5.7-1.42,1.1-2.42,1.02-.24.04-4.99-.41-11.6-2.4-12.54,16.6-20.97,27.48-21.07,27.62-.8,1.12-2.38,1.25-3.5.45l-17.18-12.32c-1.12-.8-1.5-2.34-.69-3.46.1-.14,6.49-9.94,16.69-25.05-5.55-3.77-8.7-6.45-8.84-6.55-1.02-.94-1.25-2.38-.45-3.5l18.67-27.22c.4-.56,1.08-.92,1.8-1.04s1.62.1,2.08.64c0,0,2.59,2.28,8.42,6.25.66-1.22,1.46-2.34,2.26-3.45,5.27-7.64,10.38-14.77,15.18-21.47-4.93-3.75-7.8-6.23-7.94-6.33-1.12-.8-1.25-2.38-.45-3.5l15.72-21.93c.8-1.12,2.24-1.36,3.46-.69.14.1,3.51,1.88,8.5,5.25,4.75-6.33,7.45-10.1,7.45-10.1.9-1.26,2.48-1.39,3.6-.59l20.54,14.72c1.12.8,1.5,2.34.59,3.6,0,0-2.7,3.77-7.31,10.2,3.81,2.94,6.12,5.03,6.12,5.03,1.12.8,1.25,2.38.45,3.5l-15.72,21.93c-.8,1.12-2.24,1.35-3.46.69,0,0-2.72-1.52-6.73-4.19-4.81,6.71-10.15,13.87-15.7,21.31l-1.2,1.68c3.93,2.19,6.75,3.57,6.75,3.57.7.5,1.16,1.04,1.28,1.76.12.72,0,1.48-.4,2.04ZM610.21,282.66l-15.35,13.74c-.74.74-2.08.84-2.92.24-.94-.46-16.47-9.48-26.52-30.86-22.51-2.82-36.16-13.87-36.86-14.37-.88-.84-1.08-2.04-.75-3.08l8.23-18.85c-.04-.24.06-.38.16-.52.6-.84,1.76-1.28,2.8-.95,5.57,1.67,12.06,2.94,18.72,3.69-.18-10.07.97-18.76.89-19.24.16-.52.36-.8.56-1.08s.4-.56.74-.74c.54-.46,1.26-.58,1.92-.32,0,0,20.39,4.89,21.91,5.13l.24-.04c2.34-.02,2.59,2.28,2.61,3.14.53,3.98,1.2,8.05,2.44,12.53,7.68-1.27,13.03-3.13,16.23-4.65-5.31-3.81-15.03-11.2-18.1-13.4l-2.65-1.9c-5.41-3.67-18.22-12.64-20.14-13.8-.56-.4-1.02-.94-1.14-1.66-.26-.82,0-1.48.4-2.04l13.42-18.72c.8-1.12,2.24-1.35,3.46-.69.14.1,9.52,6.19,19.04,12.38,1.92-3.27,4.35-7.25,6.87-11.36-11.81-8.89-19.72-14.98-19.86-15.08-1.02-.94-1.39-2.48-.59-3.6l12.92-18.02c.8-1.12,2.48-1.4,3.6-.59,0,0,8.16,5.43,20.1,13.56,4.01-5.59,6.65-8.98,6.65-8.98.9-1.26,2.48-1.39,3.6-.59l29.2,20.93c1.12.8,1.49,2.34.59,3.6,0,0-2.36,3.59-6.47,9.32,9.82,7.25,16.18,12.24,16.32,12.34,1.12.8,1.25,2.38.45,3.5l-12.92,18.02c-.8,1.12-2.24,1.35-3.46.69-.14-.1-7.18-4.73-17.62-12-3.14,4.09-6.13,7.66-8.71,10.68,7,5.87,10.91,10.15,12.05,13.29,2.94,7.4.12,13.41-2.49,17.04-1.4,1.96-2.78,3.29-2.98,3.57-1.28,1.2-13.29,13.52-35.88,19.96,3.13,6.26,6.06,11.32,9.6,16.4.78.98.67,2.6-.31,3.38Z"/>
          <g>
            <path class="cls-3" d="M609.79,282.14c-.11.15-.1.23.03.19.14-.05.35-.13.54-.51,0-.22-.05-.43-.13-.61-.04.37-.2.69-.44.93Z"/>
            <path class="cls-3" d="M608.81,276.86c-.78-.89-1.74-1.88-1.59-1.08.9.81.94,1.12,1.95,1.95.59.8.9,1.5.7,1.44.13.13.38.46.51.73.14.3.22.65.32.89.06-.28.05-.61-.05-.93-.1-.32-.33-.62-.55-.96-.44-.65-.95-1.32-1.52-1.98-.14-.35.13-.1.22-.06Z"/>
            <path class="cls-3" d="M631.41,209.43l.32.32c-.08-.1-.19-.21-.32-.32Z"/>
            <path class="cls-3" d="M672.38,193.51c-.26.38-.35.55-.33.59.23-.36.42-.66.33-.59Z"/>
            <path class="cls-3" d="M669.44,184.58c.17.14.32.26.47.38-.17-.16-.34-.32-.47-.38Z"/>
            <path class="cls-3" d="M631.41,209.43l-.38-.39s-.08-.06-.07-.09l.1-.11.2-.2s-.15.07-.3.24c-.16.09.05.17.13.27.1.09.21.19.32.29Z"/>
            <path class="cls-3" d="M601.35,265.63c.17.29.33.53.48.74-.14-.24-.27-.47-.41-.72-.02,0-.04,0-.07-.02Z"/>
            <path class="cls-3" d="M643.94,231.75l-.1.5c.01.15.02.3.03.44.05-.31.04-.63.06-.95Z"/>
            <path class="cls-3" d="M631.85,248.26c.37-.28.33-.6.39-.81-.13.25-.37.51-.68.78.03.05.11.06.29.03Z"/>
            <path class="cls-3" d="M602.83,262.59l-.43.17c.11-.04.3-.12.43-.17Z"/>
            <path class="cls-3" d="M640.17,217.48c0-.05-.01-.13-.04-.21-.03.02,0,.1.04.21Z"/>
            <path class="cls-3" d="M592.74,295.58s-.02.03-.03.04c.05,0,.07-.01.03-.04Z"/>
            <path class="cls-3" d="M610.25,282.72l-.23.23c0,.06.02.13.05.16l.18-.39Z"/>
            <path class="cls-3" d="M658.93,174.2s-.03.04-.05.07c-.26.43-.1.19.05-.07Z"/>
            <path class="cls-3" d="M586.26,176.59c1.5,1.27-2.85-1.47-.54.36-.17-.24,2.49,1.1.54-.36Z"/>
            <path class="cls-3" d="M601.14,265.14c-.17-.34-.35-.69-.53-1.03.24.49.46.91.53,1.03Z"/>
            <path class="cls-3" d="M585.72,176.95h0s.24.19.24.19c-.1-.08-.15-.12-.24-.19Z"/>
            <path class="cls-3" d="M637.61,143.9c.04.09.16.22.29.36,0-.03-.06-.12-.29-.36Z"/>
            <path class="cls-3" d="M663.65,163.66c-.12-.33-.31-.63-.53-.9.25.33.42.63.53.9Z"/>
            <path class="cls-3" d="M624,148.27c-.28.34-.4.43-.72.93.04-.04.08-.07.14-.13.1-.2.25-.44.58-.81Z"/>
            <path class="cls-3" d="M611.43,143.03c.07.07.16.15.24.23.15.09.32.2.47.3l-.7-.52Z"/>
            <path class="cls-3" d="M554.22,262.35c.35.17.55.31.71.44-.21-.26,2.27.29-.71-.44Z"/>
            <path class="cls-3" d="M601.49,265.55c-.11-.06-.21-.18-.35-.41.1.18.19.35.28.51.06.03.1.02.07-.1Z"/>
            <path class="cls-3" d="M625.37,150.14l-.94,1.23c-.53.67-1.03,1.43-1.56,2,.45-.45.93-1.18,1.47-1.87.33-.44.68-.9,1.02-1.36Z"/>
            <path class="cls-3" d="M585.4,218.15c-.03-.16-.07-.32-.12-.46.04.17.08.34.12.46Z"/>
            <path class="cls-3" d="M614.94,148.07c-.35-.36-.76-.7-1.19-1.04-.11-.05-.23-.1-.31-.12l1.49,1.16Z"/>
            <path class="cls-3" d="M554.93,262.8s0,0,0,0c0,0,0,0,0,0Z"/>
            <path class="cls-3" d="M570.24,271.47c-1.28-2.26-.92-.88-1.38-1.26-.83-1.32-.9-1.7-.86-1.83.05-.14.24-.07.09-.59-.24-.42-.48-.81-.72-1.18-.12-.18-.24-.36-.35-.54l-.09-.15-.14-.25-.28-.47-.26-.44c-.02-.1-.13-.08-.22-.09l-.26-.02c-.34-.03-.67-.06-1-.1-.4-.03-.75-.06-1.11-.12-.1-.08-.37-.14-.04-.17-.52,0-1.16-.06-1.86-.15-.7-.09-1.46-.26-2.23-.4-1.55-.27-3.11-.64-4.32-.76-.17-.08-.24-.13-.28-.16.33.27.34.47.23.58-1.15-.26-2.18-.34-2.54-.7.69.21.78.14,1.12.16l-1.21-.25c-.96-.66,1.64.38,1.72.11-1.17-.27-2.44-.56-3.64-.83-1.19-.32-2.3-.67-3.16-1.01-.25-.44,4.1,1.3,1.88.21.88.36,1.77.69,2.67.99-1.92-1.13,1.64.53-.1-.59-3.51-1.21-4.01-1.12-7.43-2.58-.84-.16.15.37-.7.21-2.51-.89-3.35-1.58-4.04-2.12-.69-.56-1.21-1.04-3.02-1.76-.98-.3-1.56-.09-3.79-1.75.33.07.67.12,1,.17-1.51-.97-2.01-1.14-2.51-1.35-.25-.11-.51-.21-.88-.46-.18-.12-.4-.27-.66-.47-.13-.1-.26-.21-.42-.34-.08-.07-.16-.14-.25-.21-.06-.05-.06-.07-.11-.13.06.03.09.04.13.06.11.07.23.15.36.23.24.16.5.33.73.49.46.31.79.53.58.36-.9-.83-1.27-1.05-1.61-1.18-.06.02-.18-.03-.31-.13-.13-.1-.28-.27-.38-.6.08-.12.18-.23.28-.32-.03-.14-.03-.3-.02-.45,0-.08.01-.16.03-.23,0-.04.01-.08.02-.12,0-.01,0-.03,0-.04.18-.45.37-.91.55-1.37.38-.95.76-1.91,1.14-2.89.77-1.95,1.56-3.96,2.4-5.95,0,.26-.2.98.3.1,1.12-2.8,2.44-5.77,3.78-8.65l.35-.75-.68.17c-.31.08-.4-.16.35.32.06-.08.11-.13.17-.19.13-.11.28-.2.44-.27.35-.12.62-.13.99.01,1.21.4,2.38.77,3.52,1.1l2.04.19c.46.11.82.32.31.27,2,.56.14-.15,1.14-.06,1.15.23,1.49.48.74.42,1.81.25,4.39.6,6.99.91,1.58.19,3.16.39,4.64.57l.35.04c.05,0,.13.03.17.01v-.17c0-.23,0-.45,0-.68,0-.45,0-.89.01-1.32,0-.22,0-.43.01-.64,0-.14.01-.28.02-.42.02-.26.04-.5.06-.74l.08.74c.14-2.93-.57-3.33-.19-6.06l.03.53c.12-1.84.24-3.73.36-5.6.16-1.9.32-3.8.47-5.6v-.09s0-.06.02-.08c.06-.27.69-1.12.83-1.12h.02l.14-.11c.18-.14.39-.21.59-.2.1,0,.2.02.29.06.03.01.21.09.33.11l.29.08c.76.22,1.47.43,2.14.66,1-.2,6.18,1.64,6.71,1.16,3.53,1.13,2.48.99,7.5,2.37,1.35.34,2.08.11,3.75.44v.31s1.48.14,1.48.14l.24.02.08-.02c.15-.04.13-.06.21-.08.09-.02.2-.03.28-.03.25.17.37.38.41.58.18.13.36.39.49.75-.09-.46-.25-.81-.15-.84.27.26.45.8.5,1.36.02.74.12,1.4.15,2.02.08,1.23.11,2.16.03,2.21.4,1.96.86,3.91,1.4,5.84-.15-.1-.41-1.07-.65-1.84.99,3.07-.21.65.75,3.45-.03-.4.22.13.34.33.05.31.13.65.22,1.05.05.2.09.41.14.63.03.11.05.22.08.34.03.1.02.29.17.21.47-.07.97-.15,1.49-.22.44-.07.89-.15,1.36-.22,1.31-.22,2.72-.55,3.91-.87l-.41.32c2.18-.48,4.46-1.12,6.76-1.94l.86-.32.97-.38c.91-.36,1.94-.82,2.9-1.27l1.46-.68.18-.09c.05-.01.02-.03,0-.05l-.08-.06-.32-.25-.64-.49c-.82-.65-1.76-1.33-2.66-2,1.28,1.01,1.59,1.38,1.36,1.35-.23-.03-.93-.43-1.81-1.06-.1-.14-.15-.24-.19-.34l-.14-.3c-.87-.39,1.14,1-.54.06-1.46-1.13-.78-1.04.13-.49l-1.86-1.24c-.05-.16.4.11.58.09-.86-.38-2.91-2.56-4.18-3.07l-.04-.15c-3.96-2.93-5.82-4.17-9.05-6.54-.22.18-1.47-.79-2.57-1.3-2.37-1.78-4.96-3.79-7.91-5.79-2.14-1.3-.73-.21-1.75-.71-.01-.32-2.96-2.31-1.34-1.42-3.55-2.38-4.53-3.05-9.1-5.92.43.42.95.83.62.71-.57-.36-1.21-.87-1.46-1.14l.05.03c-.11-.12-.13-.2-.08-.21l.16.09-.06-.04h.01s-.01,0-.01,0l.06.04c-.25-.15-.46-.33-.6-.53-.15-.2-.19-.38-.29-.78-.09-.48.09-.8.68-1.54,1.01-1.33,2.07-2.66,3.11-3.97,2.08-2.61,4.05-5.11,5.24-7.22l-.14.23,2.69-4.22c1.38-1.84-.65,1.23.47-.06.35-.58.69-1.12,1.02-1.63.17-.25.33-.5.49-.75.15-.22.36-.54.43-.62.41-.5,1.07-.61,1.66-.37.07.03.15.06.22.1.02,0,.08.04.03.02l.14.1.62.42c.41.27.83.55,1.25.82.84.55,1.72,1.09,2.69,1.64,1.23,1.25,3.8,2.91,6.51,4.62,1.36.85,2.75,1.72,4.03,2.56.64.42,1.25.83,1.82,1.23.96.68,1.85,1.31,2.66,1.88l-.44-.5c.22.13.42.24.61.34.04.02.09.07.13.06l.08-.14c.05-.09.1-.17.15-.25.19-.31.36-.55.52-.77.17-.23.34-.45.52-.68.16-.22.32-.46.53-.75-.02,0-.05.02-.09.05-.03.02-.07.06-.14.16-.13.17-.27.37-.39.53-.23.31-.34.44-.04-.16.69-1.17,1.39-2.36,2.09-3.55.67-1.1,1.34-2.21,2.01-3.32.83-1.34,1.66-2.69,2.49-4.04l.23-.37.06-.09s.04-.06,0-.08l-.17-.13-.68-.52-1.26-.98-1.55-1.23c-4.14-3.29-8.3-6.6-12.38-9.84-1.5-1.17-2.07-1.31-2.71-1.57-.32-.13-.65-.28-1.13-.61-.24-.16-.52-.37-.84-.64,0,0-.15-.17-.23-.31-.09-.14-.17-.32-.22-.51.2.22.49.41.71.48-.4-.3-.68-.91-.62-1.32.02-.1.04-.2.08-.3.03-.06.03-.06.1-.17l.21-.3.83-1.2c1.13-1.59,2.27-3.18,3.41-4.77,2.29-3.17,4.57-6.32,6.62-9.47-.2.41-.13.48-.56,1.07.56-.58,1.42-1.77,2.12-2.83.13-.2.26-.4.38-.58.07-.1.16-.19.25-.26.18-.14.33-.22.32-.27.68-.05.19.14.54.25.09.03.18.06.26.1.1.05.12.05.33.18.4.24.81.48,1.2.71.79.45,1.49.87,1.78,1.2.1.11-.42-.19-.67-.33.93.49,4,2.73,3.33,1.95,2.27,1.69,4.55,2.92,6.32,4.32,1.39.57,3.92,2.83,4.56,2.73-.21.13.76.9,1.99,1.74.48.32.97.65,1.46.98.55.29,1.19,1.11,1.5.17.37-.53.72-1.03,1.03-1.48.18-.26.22-.33.3-.46.07-.12.13-.22.19-.32-.24.56,1.04-1.16.77-.49,1.2-1.64,2.25-3.18,1.85-3.04.67-.67,1.26-1.4,1.8-2.14.27-.37.53-.74.78-1.11.29-.43.38-.59.56-.75.34-.31.82-.39,1.22-.25.1.03.19.08.27.14.08.06.13.11.27.23.23.22.43.43.6.66,5.06,3.33,9.71,6.46,14.2,9.55-.42.25-4.92-3.47-5-2.95,4.31,2.86,6.95,4.28,11.05,7.35,1.04.82-.73-.28-1.13-.48,2.15,1.43,4.17,2.89,6.14,4.3.99.7,1.96,1.39,2.92,2.08l.36.25c.07.05.14.11.21.17.13.12.24.26.32.41.17.31.23.66.17,1.01-.03-.02,0-.32-.09-.57.05.25-.02.55-.1.76-.08.21-.2.4-.09.43.12-.21.18-.37.22-.55.13-.19.2-.17.22.04.02.22-.05.53-.35,1.05-.51.98-1.16,2.12-1.14,2.23.39-1.6-2.71,3.64-1.92,1.21-.31.51-.65,1.18-.46,1.15-.54.7-.76.89-.38.06-.88,1.36-1.11,1.84-1.33,2.27-.06.11-.11.21-.17.33-.03.06-.07.12-.1.19-.05.08-.1.17-.16.27-.15.22-.32.49-.53.81-.11.16-.22.33-.35.52-.06.09-.13.19-.2.29-.03.05-.08.11-.1.16l.16.12c-.53.08.07-.68.2-1.1-.14.25-.29.5-.43.75l-.11.18s-.05.06-.04.09l.1.07.4.26c.5.33,1.02.68,1.58,1.05.73.47,1.54,1.05,2.51,1.83-.15-.04.03.19-.56-.25,3.42,2.55,6.1,3.97,9.72,6.94-1.35-.48,1.19,1.07,1.17,1.53l2.07,1.43-.7-.76c.42.33.95.67,1.15.86.24.25.42.59.47.96.06.37,0,.76-.18,1.1-.07.16-.2.32-.35.53l-.44.56c.26-.47.61-.98.69-1.31-.04.11-.1.22-.17.33-.07.11-.19.27-.28.41l-.59.85-1.17,1.7,1.48-1.82c-1.14,1.92.52.08-1.27,2.4.32-.51-1.29,1.79-2.14,2.59h0c-.54.95-1.09,1.93-2.11,3.2-.34.27-.14-.52-.36-.34-.37,1.06-2.94,4.24-3.46,5.54.2-.41.06-.55-.06-.45l-.32.88c-.66.78-.78.88-.81.65-1.83,2.47.95-.52-1.34,2.32.15-.24.04-.16.36-.66-.27.35-.53.7-.79,1.05-.24.27-.53.48-.86.59-.65.24-1.46.12-2.04-.29-1.45-.94-2.87-1.87-4.23-2.86-.6-.86,2.48,1.58,1.73.68-4.05-2.67-8.56-5.28-12.39-8l.7.53c-.42.03-1.1-.51-1.95-1.21-.27-.21-.55-.44-.84-.67-.16-.12-.31-.24-.48-.37l-.25-.19c-.05-.06-.08-.01-.11.03l-.1.11c-.26.29-.52.6-.78.93l-.36.47-.26.37c.17-.24.22-.41.26-.56.04-.15.01-.19-.04-.08-1.09,1.27-2.07,2.52-3.19,4-1.14,1.51-2.42,3.2-3.92,5.19l.38-.68c-.22.25-.45.51-.7.79-.12.14-.25.29-.38.44l-.2.23c-.04.07-.21.16-.07.22.59.51,1.21,1.05,1.84,1.6.95.83,1.9,1.68,2.63,2.39.54.3,1.37,1.12.99.49,2.01,2.43,4.16,4.48,5.81,6.79.85,1.13,1.35,2.42,1.78,3.76.41,1.33.56,2.72.43,4.06,0-.65-.24-1.51-.18-1.01.18,1.5.13,3.04-.14,4.55.29-.31.28-.56.56-1.51.09.6-.03,1.95-.38,3.08.39-2.1-.33-.06-.77.72.12-.12.09.2.18.15-.63,1.06-.59,1.18-.56,1.44.02.24.06.64-.91,2.03v-.22c-.6,1.11-1.14,2.16-2.04,3.21-.56.27.75-1.13.6-1.34-.85,1.2-1.6,2.45-2.55,3.52h.01c-.29.27-.59.53-.92.75.23-.26.51-.56.82-.87l-.03.04c.38-.49.76-.89,1.04-1.28-.6.5-.94.74-1.28,1.1l.07-.08c-.51.41-.78.71-1.43,1.26l.11-.09c-.82.7-1.66,1.37-2.52,2.02l.69-.46c-1.38,2.08-3.69,3.18-6.1,5.37,2.34-2.16.28-.5.31-.89-.72.41-1.81,1.02-1.56.75-1.14,1.04-2.22,1.22-3.88,2.62-.12-.02-1.41.8-1.24.42-1.69,1.02.49-.08.41.11-2.5,1.82-6.5,3.03-10.37,5.12-1.71.83-2.72,1.33-3.71,1.81-.99.48-1.93.99-3.61,1.57-1.19.2.82-.63.82-.63-.96.22-1.67.41-2.76.75l-.73.24c-.2.1-.65.09-.36.39.26.46.52.93.79,1.43-.3-.4-.15.06.06.7.7,1.29.76.71,1.54,2.48-.25-.24-.61-.53-1.03-1.11.88,1.49,1.85,2.9,2.82,4.4.09.5-.76-.81-1.16-1.31,1.03,1.73,2.74,4.43,3.31,4.81l-.59-1.15c.39.62,0,.44-.32,0-1.07-1.37-1.17-2.19-1.14-2.32l.69,1.07c-.18-1.4-2.6-4.38-3.73-6.68l.86.75c-.51-.73-.97-1.38-1.58-2.32-.18-.59.02-.71.61.31-.13-.37-.23-.62-.34-.82,0-.04-.1-.12-.03-.13.04-.02.09-.03.13-.05.08-.03.15-.06.22-.09.27-.12.59-.25,1.31-.35.18-.02.11.03-.04.09l1.67-.65c-.31.19.38.19-.69.46,1.58-.33,2.77-.9,3.73-1.3.96-.41,1.69-.74,2.3-.83l-.24.13c4.08-1.82.3-.43,3.23-2.05l2.36-.25.27-.46c.43-.17,1.25-.57,1.15-.38,1.44-.96-.32.01.48-.61,2.13-.71,5.3-2.99,5.96-2.85.56-.61-1.9.94.04-.42.86.11,2.28-1.49,4.09-2.42-.36.58-2.06,1.5-.22.59.38-.53,1.2-1.08,2.1-1.62.89-.56,1.86-1.12,2.5-1.69-.16-.33,2.85-2.41,4.83-4.5-.01.06.25-.15.67-.52l.05-.06c.5-.51,1.49-1.49,2.34-2.53.88-1.05,1.7-2.22,2.23-3.09v.1c-.01-.32.33-1.08.7-2.03.37-.95.78-2.09.97-3.09.18.12.22.52-.05,1.61.22-.61.38-1.25.53-1.88-.03-.48.05-1.08.13-2.33.09.17.15.34.22.51.26-2.62-.33-5.27-1.35-8.39-.14-.04-.1.64-.18.91-.1.29-.24.13-.97-1.35.06-.16.25-.41.65.41-.12-.27-.53-.92-.78-1.45.3.35.58.73.84,1.13-.27-.71-.42-.86-.55-.97-.14-.1-.23-.19-.55-.69.19-.09-.37-.81-.15-.76.19.24.52.91.81,1.28-.64-1.21-1.56-2.56-1.8-3.07-.01.17-.2.16-.86-.56-1.71-1.86-.4-.81-1.34-1.95-.52-.35-1.57-1.58-1.81-1.39-.53-.51-.54-.7-.69-.96-1.03-.83-4.55-3.98-3.67-2.8l.24.23s-.11-.08-.17-.13h0s0,0,0,0c-.39-.29-.71-.52-1.08-.81l-.13-.11c-.05-.03.04-.08.05-.12l.2-.26.42-.52c.64-.79,1.39-1.66,2.1-2.48,1.44-1.66,2.89-3.31,4.17-4.98l.07.07c.33-.44.68-.9,1.04-1.37.25-.68.71-.06,1.1.12,1.03.66,2.11,1.35,2.89,1.75.61.42,1.34,1.13,1.01,1.05,1.63,1.02,1.87,1.05,4.06,2.74-1.69-.94.46.5-1.71-1.01,2.01,1.47,2.38,1.92,4.75,3.2-.9-.31,1.36,1.31,2.39,1.92l-1.34-1.13c1.12.72,2.07,1.39,3.04,2.08l-.72-.09c.5.4.99.77,1.49,1.12.73.53,1.51.72,2.34.71.82-.03,1.62-.37,2.2-.9.15-.13.27-.28.39-.42.12-.16.22-.31.28-.41.14-.23.29-.46.43-.69,1.14-1.82,2.22-3.51,3.62-4.89.6-1.23-1.75,2.15-1.26,1.02,1.4-1.88,3.21-3.59,3.64-4.18,2.02-2.5,1.35-2.72,3.41-5.38-.35.28-.84.43.53-1.68,1.4-1.88,2.09-2.05,1.3-.79-.32.46-.51.66-.53.62-.41.64-.95,1.48-.3.8l.08-.32c.39-.44,1.05-1.31,1.58-1.99.14-.18.24-.3.38-.49.14-.19.24-.36.32-.49.14-.26.2-.33.15-.06.21-.59.21-.98.21-1.16,0-.19-.04-.19-.06-.05-.06.26-.2,1.06-.74,1.76,1.21-1.6.76-3.76-.64-4.72-.95-.71-1.91-1.42-3.11-2.4.35.35.63.74.24.44-3.54-2.86-1.73-1.02-4.21-2.84-1.29-1.2.75.03-1.81-1.72-1.44-1.24-.13-.5.52-.12-2.39-1.52-4.12-3.3-5.38-4.31l1.24.82c-.74-.49-1.32-.93-1.91-1.38l.54.7c-.34-.28-.65-.54-.87-.72-.05-.05-.1-.09-.14-.12,0-.01,0-.02-.01-.03,0-.02,0-.04.02-.05-.12,0-.2.07-.26.15-.08.07-.14.17-.66-.09-.09-.04,0-.12.06-.2.06-.08.11-.16.18-.24.16-.24.33-.49.49-.73.45-.66.86-1.22,1.1-1.29-1.09,1.48-.97,1.44-.79,1.35.09-.04.19-.1.17.02-.01.06-.06.16-.16.33-.05.08-.11.18-.19.3-.02.03-.03.06-.05.1,0-.03.02-.05.03-.08.09-.14.19-.28.29-.43.21-.3.45-.63.72-.97.1-.09-.02.14-.14.35,2.23-2.72.63-1.53,2.71-4.52-.12.48.76-.5,1.07-1.01-.84,1.2-.64.41.01-.77.18-.23.33-.44.47-.62.07-.09.13-.18.19-.26.07-.11.14-.21.2-.31.24-.43.33-.81.38-1.14.06-.67-.02-1.16-.31-1.9.22.57.29,1.2.17,1.79-.05-.31-.03-.84-.28-1.48-.12-.32-.31-.66-.58-.97-.27-.32-.67-.59-.98-.8,0-.08.27.07.59.3.31.24.52.49.29.2-.5-.37-.87-.55-1.28-.87-.4-.3-.81-.65-1.23-1.01-.85-.72-1.76-1.5-2.84-2.15-.88-.78.1-.34-.68-1-2.42-1.45-2.34-1.97-4.85-3.55.55.69.71.73-1.12-.3l4.05,2.7-2.74-1.54c1.19.86,2.61,1.68,3.3,2.23-1.32-.71-1.16-.67-.71-.1-1.43-1.46-3.36-2.15-5.11-3.7l.4-.44c-2.69-2.25-5.22-3.37-8.82-6.13l1.12.93c-.63-.16-2.29-1.61-3.54-2.38.23-.08-.48-.67-.92-1.14-.02.16-2.69-1.95-3.25-1.86l-.75-.7c-.27-.24-.43-.44-.85-.74-1.09-.63-2.21-.54-2.97-.19-.77.34-1.26.97-1.5,1.45-.5.91-.98,1.81-2.05,3.21.46-.98-.61.22.68-1.77-.7.94-1.36,1.77-1.26,1.87-.51.48-1.73,2.78-2.52,3.54-.21.42-.24.82-.75,1.48-.07.03-.04-.11-.04-.11.01,0-.14.53-.38.27-.21-.08-.4-.13,0,.26-.15-.14-.3-.28-.46-.43l-.22-.2-.3-.24c-.42-.33-.87-.67-1.34-1.01-.95-.68-1.99-1.37-3.02-2.05-2.06-1.36-4.08-2.69-5.24-3.79-2.16-1.38-4.76-3.06-6.7-4.35.16.03.06-.08.42.19-1.28-.97-1.77-1.13-2.3-1.33-.26-.08-.55-.25-1.04-.39-.48-.13-1.17-.28-2.15.03-.51.13-.64.21-.59.12.05-.08.32-.25.65-.38.65-.26,1.47-.19.75-.24-.17-.15-.63-.18-1.22.06-.29.13-.61.32-.9.6-.15.14-.28.31-.4.48-.09.13-.18.27-.27.41-.74,1.13-1.59,2.47-2.46,3.36l.32-.51c-1.27,1.4-2.47,3.87-4.3,6.34,0,0,.04-.15-.07-.07-.96,1.9-3.18,5.2-4.83,7.65.33-.9.67-1.17.14-.86-.74,1.1.56-.08-.92,2.12-.34.33-.66,1.1-.63,1.83,0,.72.25,1.33.22,1.53-.54-.85-.77-2-.37-3.05-.51.74-.45,1.99.09,2.87.27.46.57.82,1.01,1.17.39.27.64.45.91.67l-.22.03c3.07,2.27,3.34,1.98,6.6,4.49l-.27-.35c2.02,1.04,1.37,1.31,3.32,2.44l.31.73c1.23.82,4.36,2.83,6.52,4.38-1.37-.68-3.94-2.43-5.57-3.46,1.17.89,3.99,2.99,4.71,3.3-.49-.33-1.14-.7-1.57-1.1.81.42,1.71.96,2.7,1.61.49.33,1.01.68,1.55,1.07.22.16.44.31.66.48l.17.13c.06.04.14.08.07.15l-.23.37c-.08-.05-.2,0-.32.08-.06.04-.13.1-.19.17-.07.07-.12.12-.24.29-.43.59-.98,1.46-1.57,2.42-1.18,1.9-2.52,4.1-3.32,4.86l-.46.85-.12.21-.04.08-.08.16c-.06.1-.11.23-.18.31l-.31-.19c-.96-.65-1.93-1.3-2.93-1.96-2.2-1.5-4.48-3.09-7.01-4.71,1.45,1.65-1.48-.94-1.52-.24-1.2-.73-1.64-1.03-1.72-1.13l-3.35-2.62c-.74-.69,1.2.62,1.17.43-1.27-.86-1.5-1.08-1.62-1.25-.06-.08-.09-.15-.2-.28-.03-.03-.06-.07-.1-.11l-.07-.06-.04-.03s-.14-.1-.13-.09c-.26-.19-.47-.3-.85-.46.26.23-.13.09-.93.02-.78-.08-2.13.09-3.17,1.03,1-.83,2.38-1.04,3.47-.69-1.5-.21-2.59.37-3.22.93-.16.15-.31.29-.43.44-.1.11-.19.22-.28.32-.17.19-.33.36-.49.53-.65.68-1.3,1.37-2.43,3.22l.64-1.23c-1.2,1.87-4.78,6.66-5.65,8.72-.29.28-.73.6-.19-.22-1.27,1.72-2.56,3.65-3.82,5.56-.32.48-.63.95-.94,1.42-.26.41-.77,1.03-.92,1.87-.08.4-.07.84.02,1.22.02.09.05.21.07.26,0,.02,0,.04.04.16.05.19.11.37.19.54.32.7.83,1.19,1.32,1.54l.06.04c.81.56,1.55,1.09,2.18,1.6l-.41-.1c.84.52,1.57.73,2.51,1.56-.09.02-.41-.1-.03.17.46.25,2.3,1.26,3.34,2.08l-1.01-.49c4.15,3.08,6.76,4.14,10.4,6.51-.26.37,3.03,2.75,4.62,4.01h-.09c4.83,3.61,8.45,5.8,13.05,8.98.63.61,1.52,1.37,2.58,2.21.27.21.54.42.82.65.14.11.29.22.43.33l.15.12c.14.11.29.23.44.36-.21.09-.35.15-.6.24l-.78.29c-.38.13-.75.26-1.13.39-1.5.49-2.98.88-4.32,1.16.83-.13-.04.37-.98.65-1.27.23-3.43,1.07-3.31.63l.45-.09c-.26-.05-.61-.04-1.03-.01-.21.02-.43.04-.67.07l-.18.02s-.03,0-.05,0h-.06s-.08,0-.12,0c-.04,0-.03-.07-.05-.1l-.05-.16c-.07-.26-.13-.52-.19-.77l-.59-.21c-.21-2.18-.7-4.82-1.13-7.45-.11-.66-.22-1.31-.32-1.95l-.07-.41c0-.1-.03-.36-.05-.53-.05-.38-.14-.76-.27-1.14-.26-.74-.79-1.51-1.54-1.92-.76-.4-1.45-.51-2.22-.41h.33c-.98-.26-1.79-.52-2.35-.79-1.31-.17-2.9-.55-4.2-.72l.12-.26c-3.55-.91-5.31-1.36-9.73-2.32h.94c-2.47-.59-3.31.08-5.61-.45l-.59-.57-.3-.07c-.07-.01-.06-.03-.25-.08-.31-.09-.64-.13-.96-.11-.66.02-1.3.29-1.79.7l.2-.14c-.6.3-.97.82-1.17,1.09-.11.15-.26.35-.38.57-.06.11-.12.22-.17.34-.06.14-.12.29-.17.44-.01.11-.03.21-.03.32l-.03.32-.04.18-.03.25-.06.52-.12,1.05c-.07.7-.14,1.4-.2,2.11-.11,1.4-.16,2.81-.12,4.21-.06-.08-.17-.22-.14-.94-.19,2.11-.62,8.19,0,7.43-.09.01-.15.31-.17.78-.01.24-.01.52-.01.84,0,.27.01.79.03.8.02.13.04.27.06.4.08.22-.08.17-.21.19-.15,0-.29.01-.43.02-.35-.02-.69-.04-.99-.06l.41-.23c-2.05.07-2.13.17-4.94-.2-.65-.16-.54-.32.32-.1-2.17-.54-1.76-.03-4.39-.73l1.02.03c-2.24-.49-2.08-.37-3.36-.45-1.44-.21-4.21-1.16-4.45-1.51-.08.02-.23.02-.41,0-.24-.03-.54-.05-.87-.03-.66.05-1.43.29-2.09.8-.24.07.2-.38.48-.54-.37.17-.69.41-.95.69-.14.16-.23.26-.36.46-.16.23-.23.65-.17.91l.06-.44c-1.1,2.53-1.48,4.2-2.58,6.14-.11.01-.22.15-.33.34,1.23-2.81,2.24-5.07,2.16-4.85-.24-.1-1.27,2.15-.8.2-.62,1.9-1.59,5.19-2.67,7.35-.07.1-.14.19-.21.26l.07-.24c-.25.5-.42.97-.57,1.42-.35.69-.57,1.13-.87,1.8-.31.18-1.24,2.56-1.75,3.69.3.02-.39,1.48.43.19-.1.17.06-.23.38-.99.07-.17.15-.38.18-.49,0,.02,0,.06-.01.09.32-.75.74-1.72,1.21-2.82-.26.95-.56,1.93-1.25,3.12-.09.65-.2,1.37-.27,1.76-.26.35-.55.79-.84,1.26l-.22.36c-.06.12-.16.23-.24.44-.13.34-.21.66-.25,1-.08.67.04,1.34.23,1.84.18.5.41.84.47.99.11.12.3.29.44.37l.29.2c.21.14.42.29.63.44.43.29.87.59,1.32.88.89.58,1.82,1.15,2.73,1.66,1.8,1.03,3.53,1.82,4.72,2.13.98.45,1.04.7,1.36.95-.59-.21-1.24-.58-1.58-.67.98.46,2.44,1.13,3.72,1.69,1.3.52,2.42.94,2.72.86,2.47,1.15-1.55-.25,1.96,1.07l-.51-.08c1.66.84,3.26,1.35,4.78,1.83,1.55.39,3.03.79,4.57,1.03.76.14,1.53.28,2.31.43.79.13,1.59.27,2.43.41.83.15,1.69.35,2.59.5.45.09.91.18,1.39.28.24.05.48.11.72.16l.36.08.21.07c-.08-.02-.15-.04-.21-.06-.1-.03-.18-.05-.26-.07-.15-.04-.25-.08-.3-.12l.75.14.27.05c.1,0,.1.15.15.22l.68,1.42c.52,1.06,1.03,2.13,1.64,3.15,1.15,2.08,2.46,4.09,3.81,6.06,2.73,3.92,5.79,7.57,8.86,11.01,1.78,1.93,2.19,1.92,3.47,2.86l.23.6c.78.5,1.53,1.02,2.32,1.48,1.58,1.11,2.82,2.22,4.27,3.34.37.28.73.55,1.17.82-.01,0,.02.03.1.08.07.05.14.08.21.13.14.08.29.14.44.19.31.1.63.15.96.15.65,0,1.35-.2,1.93-.7.47-.44.82-.81,1.24-1.27l-.61.27c1.32-1.13,4.03-3.77,3.97-3.4.11-.15.28-.54.86-.91l.15.08,3.01-3.05c2.55-2.13.04.81,3.66-2.4,1.3-1.24,3.51-3.76,2.94-3.39-.55.48-1.45,1.16-1.59,1.08l1.17-1.16c-.09-.55.54-1.75-2.7.71l-1.91,2.09-.83.44,1.76-1.59c-1.15.74-1.66,1.45-2.28,2.18-.25.06-.6.26-1.05.6l-1.76,2.17c-.37.09.68-1.09-.77.07-.83,1.02,1.2-.53-.3,1-1.15.74-.97.36-2.03,1.54-.25.06-.05-.22.38-.68-.95,1.05-2.74,2.53-3.11,3.2-.31.19-.68.48-1.07.81-.23.2-.29.26-.42.33-.12.07-.27.12-.41.14-.3.06-.57,0-.71-.09-.14-.09-.16-.19-.09-.27,0,0-.02,0-.11-.05-.05-.02-.09-.05-.15-.07l-.05-.02c-.08-.03-.16-.05-.29-.1-.24-.1-.54-.22-.85-.39-.64-.31-1.34-.73-1.87-1.08,1.1.44.12-.22-.98-1.08-1.11-.85-2.34-1.89-1.92-1.92-1.65-.7-4.79-3.93-7.01-6.03.14.1.43.29.59.51-1.15-1.27-1.37-1.75-2.01-2.65-.22.04-.78-.43-1.43-1.03-.62-.62-1.32-1.39-1.87-1.89-1-1.89,1.16.73,1.03-.02-.09.14-.73-.52-1.29-1.15-.54-.64-1.04-1.22-.94-.85-.74-1.45-.71-1.2-.93-2.06-.56.03-.88-1.21-1.85-2.18-1.04-2.1.07-.74-1.35-2.88-.47-1.13.8.75.8.75ZM532.93,238.46h0c-.21.49-.38.91-.5,1.18.1-.25.24-.58.49-1.18ZM535,233.7c-.26.58-.57,1.3-.91,2.06-.16.13-.17-.09.04-.57-.05.29.49-.81.87-1.49ZM528.82,242.98c.29-.77.45-1,.55-1.08-.15.36-.32.78-.54,1.33,0,.03,0,.08,0,.1-.02-.09-.03-.2,0-.35Z"/>
            <path class="cls-3" d="M528.57,244.48c-.04.11-.06.18-.12.32.09-.15.17-.28.25-.42.01-.1.02-.21.04-.3-.06.14-.12.28-.17.41Z"/>
            <path class="cls-3" d="M631.8,209.82l-.07-.07s.11.13.14.17c-.05-.06-.04-.07-.07-.1Z"/>
            <polygon class="cls-3" points="582.08 216.38 582.08 216.31 581.63 216.27 582.08 216.38"/>
            <path class="cls-3" d="M641.99,234.08s-.1.13-.2.31c.02,0,.11-.14.2-.31Z"/>
            <path class="cls-3" d="M634.99,243.79c-.44.37-.9.72-1.36,1.08.6-.45,1.03-.79,1.36-1.08Z"/>
            <path class="cls-3" d="M627.55,249.53c-.07.11-.08.16-.08.2h.02s.07-.2.07-.2Z"/>
            <path class="cls-3" d="M662.03,164.76c0-.07-.04-.14-.06-.2-.25-.42-.05-.15.06.2Z"/>
            <path class="cls-3" d="M668.37,197.27c.24-.42.47-.83.73-1.25-.48.64-.85,1.14-.73,1.25Z"/>
            <path class="cls-3" d="M625.55,149.9s0,0,0,0c-.06.09-.12.16-.18.25l.18-.24Z"/>
            <path class="cls-3" d="M670.33,194.32c-.51.62-.89,1.17-1.22,1.7.4-.52.87-1.13,1.22-1.7Z"/>
            <path class="cls-3" d="M605.46,273.1l.23.4s.04,0,.07.02l-.3-.42Z"/>
            <path class="cls-3" d="M605.76,273.52l.29.42c-.12-.2-.23-.37-.29-.42Z"/>
            <path class="cls-3" d="M606.68,274.82l-.63-.88c.2.32.43.71.63.88Z"/>
            <path class="cls-3" d="M601.88,261.8l.15-.15c-.1.05-.16.11-.15.15Z"/>
            <path class="cls-3" d="M605.69,260.55c-.43.14-.98.29-1.58.42-.3.07-.6.15-.91.23l-.46.14-.56.19-.14.13c.1-.05.24-.11.42-.16.13-.04.25-.08.4-.12.29-.07.64-.15,1-.23.72-.15,1.46-.35,1.83-.58Z"/>
            <path class="cls-3" d="M620.73,255.23c-.95.5-1.9.99-2.88,1.44.55-.16,1.28-.36-.02.32,1.89-.77,1.67-.74,1.46-.73-.21,0-.42-.02,1.44-1.03Z"/>
            <path class="cls-3" d="M629.26,250.04c-1.39,1.03.11.12.07.22.83-.73,1.03-.91-.07-.22Z"/>
            <path class="cls-3" d="M644.26,202.76l-.29.11c1.12.72.07-.07.29-.11Z"/>
            <polygon class="cls-3" points="656.36 209.4 655.39 208.55 654.75 208.39 656.36 209.4"/>
            <polygon class="cls-3" points="662.99 207.45 662.69 207.95 663.9 206.09 662.99 207.45"/>
            <path class="cls-3" d="M614.14,144.56l.15.48c.77.45,1.13.27-.15-.48Z"/>
            <path class="cls-3" d="M592.9,165.9c.36.47,1.46,1.44,2.27,1.86-.92-.72-1.77-1.53-2.27-1.86Z"/>
            <polygon class="cls-3" points="589.01 225.67 589.32 226.66 588.85 224.77 589.01 225.67"/>
          </g>
          <g>
            <path class="cls-3" d="M558.92,185.19c-.08.23.23.24.4-.23-.06-.15-.13-.3-.22-.43-.02.24-.08.46-.19.66Z"/>
            <path class="cls-3" d="M558.67,181.91c-.68-.23-1.6-.36-1.3.14.4.03.62.09.85.16.13,0,.37.1.76.21.47.4.46.87.31.82.18.12.12.76.28,1.08.15-.35.2-.83.01-1.26-.19-.43-.61-.78-1.08-.99-.12-.17.08-.14.17-.15Z"/>
            <path class="cls-3" d="M587.08,148.15l-.26.3c.08-.08.17-.18.26-.3Z"/>
            <path class="cls-3" d="M595.93,118.42c-.17.25-.21.36-.19.39.14-.23.25-.43.19-.39Z"/>
            <path class="cls-3" d="M593.39,112.22c.11.09.2.16.3.24-.1-.11-.21-.21-.3-.24Z"/>
            <path class="cls-3" d="M587.08,148.15l.68-.77c-.05-.12-.37.38-.68.77Z"/>
            <path class="cls-3" d="M551.19,177.67c-.16.26-.27.46-.35.64.13-.2.26-.4.39-.6-.01-.01-.03-.02-.04-.04Z"/>
            <path class="cls-3" d="M575.6,160.27c-.12-.04-.24-.09-.35-.15-.12-.02-.24-.03-.33-.02.18.06.46.14.68.18Z"/>
            <path class="cls-3" d="M566.7,159.33c.18-.23.01-.47-.02-.63,0,.2-.09.41-.22.62.04.04.12.04.24.01Z"/>
            <path class="cls-3" d="M554.18,175.48l-.18.31c.05-.08.13-.22.18-.31Z"/>
            <path class="cls-3" d="M582.94,154.49s.1,0,.15-.04c-.03-.02-.08,0-.15.04Z"/>
            <path class="cls-3" d="M550.14,197.31s.03.01.04.03c.02-.08.01-.11-.04-.03Z"/>
            <path class="cls-3" d="M559.52,185.62l-.1.18s.06.1.11.12v-.31Z"/>
            <path class="cls-3" d="M583.93,105s.02.02.04.04c.27.16.13.06-.04-.04Z"/>
            <path class="cls-3" d="M527.54,158.79c.92-.87-.91,1.84.4.47-.19.07.61-1.61-.4-.47Z"/>
            <path class="cls-3" d="M551.52,177.28c.15-.21.3-.42.44-.63-.21.28-.35.48-.44.63Z"/>
            <path class="cls-3" d="M527.95,159.26h0s.13-.14.13-.14c-.06.06-.09.09-.14.14Z"/>
            <path class="cls-3" d="M562.95,108.78c.02.05.05.07.09.08-.01-.03-.04-.05-.09-.08Z"/>
            <path class="cls-3" d="M577.92,101.39l-.39-.32c.15.14.27.24.39.32Z"/>
            <path class="cls-3" d="M554.55,104.24c-.32-.12-.43-.21-.92-.23.04.02.09.03.14.05.18-.02.42,0,.78.18Z"/>
            <path class="cls-3" d="M546.15,111.62c.05-.03.11-.09.16-.13.06-.09.13-.2.19-.29l-.36.43Z"/>
            <path class="cls-3" d="M525.46,211.46c.21-.14.37-.21.51-.25-.26.02.66-1.32-.51.25Z"/>
            <path class="cls-3" d="M551.39,177.66c-.04-.07,0-.18.13-.38-.1.15-.2.29-.29.43.03.04.07.04.17-.05Z"/>
            <path class="cls-3" d="M553.58,106.26c-.29-.07-.57-.05-.8.06.2-.07.49-.12.8-.06Z"/>
            <path class="cls-3" d="M501.41,201.13l-.2.35c.09-.13.16-.25.2-.35Z"/>
            <path class="cls-3" d="M550.06,109.96c-.26.2-.5.43-.73.69-.02.07-.06.15-.06.21l.79-.9Z"/>
            <path class="cls-3" d="M525.97,211.2h0s0,0,0,0Z"/>
            <path class="cls-3" d="M535.95,206.5c-1.59-.38-.83.18-1.22.3-1.93-.38-.81-.49-1.41-.83-.3-.06-.59-.1-.86-.12-.16-.02-.22,0-.46-.05-.22-.04-.43-.07-.64-.11-.39-.07-.77-.14-1.13-.2-.1-.07-.14.08-.2.16l-.17.25-.35.47c-.11.04-.31.28-.14-.08-.14.23-.3.48-.46.75-.1.17-.22.35-.35.54-.26.37-.55.77-.85,1.17-.6.81-1.21,1.64-1.52,2.36-.1.07-.16.1-.19.1.3-.09.47,0,.55.12-.45.6-.66,1.24-1.02,1.32.28-.36.23-.45.3-.67l-.39.69c-.71.35.55-.92.35-1.08-.84,1.28-1.69,2.87-2.48,3.75-.42,0,1.57-2.25.38-1.18l1.21-1.37c-1.27.78.7-.85-.53-.18-1.53,1.84-1.48,2.23-3.01,4.06-.17.54.33.03.16.56-1.78,2.89-2.3,1.61-3.45,3.86-.21.65-.01,1.1-1.27,2.37l.06-.71c-1.43,1.82-.35,1.38-2.03,3.15.14-.43,1-1.52.75-1.27-1.2,1.07-.5,1.01-1.23,1.97h-.43c-1.45,1.99-2.9,4.29-4.5,6.49,0-.18.21-.61-.27-.17l-.37.53-.18.25s-.06.1-.11.13c-.15.17-.36.28-.6.34-.25.05-.52.03-.78-.06-.13-.04-.25-.11-.36-.18l-.22-.16-.27-.21c-1.45-1.11-2.85-2.24-4.14-3.29l-1.2-.5c-.24-.17-.37-.43-.07-.29-.99-.84-.16.11-.73-.16-.61-.41-.69-.7-.26-.5-2-1.13-5.59-3.35-7.36-5l.43.2c-1.45-1.19-2.07-.74-3.32-1.97l.3.15-.6-.45c-.14-.11-.26-.24-.36-.38-.21-.28-.33-.63-.35-.95-.01-.34.07-.63.27-.91.29-.43.57-.86.85-1.28,1.12-1.68,2.21-3.23,3.25-4.39-.02-.73,2.38-3.24,2.05-3.8,1.53-1.76,1.24-1.15,3.22-3.76.51-.71.42-1.29.97-2.23l.27.15.55-1.4.74-.44.5-.89c-.24.33-.59.63-.63.53.76-1.39,2.31-3.09,2.47-3.03l1.93-3.37c-.05.3-.32.78-.54,1.25.21-.46.35-.7.44-.82.1-.13.22-.23.28-.25.13-.05.3-.15,1.08-1.57-.33.37-.09-.19-.14-.23.07-.08.14-.17.22-.27.02-.02.04-.05.05-.07l-.06-.05-.13-.11c-.19-.15-.41-.31-.63-.49-.45-.33-.96-.7-1.5-1.09-.66-.48-1.4-.98-2.04-1.39h.36c-.87-.64-1.78-1.31-2.72-2-.46-.34-.94-.69-1.41-1.05-.49-.38-.99-.76-1.49-1.15l.13.1c-.28-.24-.46-.56-.51-.88,0,.27-.04.44-.15.46-.1.03-.3-.12-.35-.43.1-.09.2-.17.31-.24-.19-.37-.14.6-.36-.18.09-.39.26-.46.33-.4.09.06.12.24.15.41,0-.12.02-.24.06-.36.03-.11.1-.24.24-.47.13-.02-.04.31.05.41.13-.55,1.64-1.81,1.82-2.69h.12c1.76-2.57,2.47-3.8,3.89-5.9-.2-.2.41-.98.65-1.74,1.13-1.48,2.48-3.06,3.73-4.93.78-1.38.06-.52.33-1.19.28.05,1.52-1.81,1.02-.75,1.49-2.24,1.9-2.87,3.66-5.79-.3.25-.57.56-.52.33.31-.53.88-1.1.94-.96l-.07.15c.7-1.27,1.66-2.55,2.67-3.81.15-.19.19-.23.28-.3.09-.07.19-.12.3-.17.22-.1.48-.15.73-.17.38-.03.9.25.87.32h0s.14.14.14.14c.76.68,1.45,1.18,2.14,1.55l-.15-.09c.9.58,1.8,1.14,2.72,1.69,1.16.9-.82-.36-.04.4.85.47,1.57.92,2.22,1.36.99.69,1.91,1.33,2.8,1.95.47-.8.95-1.68,1.45-2.44.29-.45.59-.93.89-1.46,1.88-1.34,4.4-6.32,6.49-8.43l-.24.04c.29-.72.61-.69.97-1.12-.16-.02-.6.58-.41.14,1.76-2.68,3.73-5.34,5.74-7.99l1.52-1.99.76-.99,1.26-1.7.36-.48.18-.24c.06-.08.16-.17.03-.22l-.91-.75-1.59-1.33c-.64-.54-1.27-1.07-1.9-1.61-1.86-1.54-1.62-.11-3.74-2.35l.87.27c-.51-.34-1.01-.69-1.5-1.05l-.34-.25c-.06-.03-.11-.08-.15-.12-.09-.09-.17-.2-.22-.34-.1-.27-.09-.62.04-.92.06-.2.55-.82.88-1.29,1.45-2,2.89-3.98,4.14-6.01-.1.27-.03.34-.3.71.78-.68,2.17-3.01,2.02-3.14.45-.59.24-.04.59-.35.7-.74,1.22-2.23,1.73-2.53.08-.05-.1.28-.19.44.29-.6,1.8-2.47,1.21-2.12,1.15-1.37,1.89-2.84,2.85-3.9.29-.93,1.9-2.39,1.72-2.89.15.18.68-.4,1.23-1.15.28-.42.79-.63,1.16-.7-.12.06.03.1.15.17.13.07.23.16.09.21.13.03.25.08.37.13l-.15-.09.2.12.09.04.16.08c.1.05.2.09.29.14.18.08.34.15.47.2.26.09.42.1.39-.02,1.75,1.63,4.27,2.07,5.01,3.37l.62.35.98.6,1.03.64.25.16.13.08s.06-.08.09-.12l.35-.51c.41-.6.83-1.2,1.23-1.79.25-.38.5-.76.75-1.13,1.01-1.49,1.99-2.93,2.96-4.36.29.37-2.22,3.09-1.75,3.25.9-1.37,1.55-2.49,2.22-3.59.34-.55.68-1.09,1.07-1.65.2-.28.4-.57.61-.87.11-.15.22-.3.34-.45.09-.11.18-.21.28-.29.23-.15.19-.06.11.08-.1.16-.17.33-.25.52.14-.2.16-.25.25-.35.07-.09.16-.17.25-.23.18-.13.39-.2.61-.23.22-.03.45.01.67.1.11.04.21.1.31.16l.44.32c1.24.89,2.45,1.76,3.7,2.5-.03.03-.31-.12-.57-.26.47.32,1.04.83,1.11.62l-.49-.28c-.57-.77,2.21.82,2.38.75-1.13-.09,2.24,1.79.56,1.49.33.19.77.38.78.22.43.36.53.53-.02.32,1.73,1.1,1.26.5,2.77,1.58-.06.08-.39-.11-.61-.13.88.39,1.76.78,2.98,1.76-.11,0,0,.16-.39-.11,2.2,1.54,4.03,2.25,6.32,4.13-.96-.16.73.7.64,1.09l.68.42.34.21c.09.06.16.09.22.15-.05-.13-.14-.27-.3-.46.12.09.24.17.36.26.1.08.19.16.27.24.17.17.3.37.4.58.19.43.18.94-.07,1.33.06-.26.07-.52.03-.75,0,.3-.07.6-.22.88-.07.12-.2.31-.32.49l-.37.54c.3-.36.7-.78.9-1.06-.08.26-.14.42-.15.52,0,.1.04.12.07.15.06.06.05.15-.53.87.19-.33-.81,1.13-1.42,1.59h0c-.3.62-.61,1.27-1.29,2.05-.25.15-.21-.42-.38-.32-.14.73-1.83,2.7-2.06,3.59.1-.28-.05-.4-.13-.35l-.13.61c-.44.48-.53.53-.59.35-.77,1.04-.55.94-.36.83.19-.08.29-.14-.61,1.02.05-.17-.03-.08.2-.48l-.35.46c.06.13.27.24.39.36.29.23.58.45.87.67.48.36.95.72,1.42,1.07.87.65,1.72,1.3,2.48,2.03.24.69-1.47-1.12-1.13-.41.6.47,1.21.94,1.82,1.42l.46.36.15.11s.06.04.08.06c.05.05.11.08.15.13.19.19.34.43.41.72.16.58.04,1.21-.37,1.77-.43.64-.87,1.26-1.32,1.85l.36-.42c.19.64-1.5,1.64-2.17,3,.18-.32.04-.56.03-.45-1.25,1.6-2.31,3.45-3.96,6.04l.11-.39c-.8.9-1.89,2.52-2.69,3.53-.11.39-.56.98-.14.73-1.47,1.39-2.5,2.99-3.47,4.56-.49.78-.96,1.56-1.48,2.29-.26.37-.53.72-.81,1.07-.25.29-.56.49-.9.55.31-.13.52-.53.34-.36-.5.5-1.34.64-2.1.33.09.28.23.28.76.52-.17.05-.47.07-.81-.01-.33-.08-.69-.28-1.01-.46,1.25.54.17-.32-.26-.73.05.11-.16.08-.16.16-1.13-1.16-.47.27-2.15-1.09l.16-.04c-.71-.37-1.42-.63-2.13-1.13-.16-.42.78.36.95.2-.26-.16-.53-.29-.8-.42-.3-.13-.59-.27-.88-.4-.28-.13-.54-.26-.79-.41-.03-.01-.06-.05-.09-.05l-.07.09-.14.17c-.09.11-.19.2-.3.29.08-.13.17-.28.26-.43.1-.11.18-.44.35-.24.3.17.61.36.87.48-.27-.27-.53-.5-.74-.69-.11-.09-.21-.18-.3-.25-.05-.07-.08.02-.11.04l-.09.11c-.25.29-.45.58-.83,1.06l.08-.09-.76.92-.67.79.38-.37c-.34,1.63-1.73,2.57-2.58,4.49.83-1.86,0-.41-.16-.71-.38.37-.93.96-.86.73-.38.92-1.12,1.19-1.64,2.5-.12,0-.62.83-.69.51-.69,1.06.31-.14.35.02-.88,1.76-3.03,3.44-4.32,5.95-1.28,2.05-1.27,2.6-2.47,4.5-.57.52.08-.71.08-.71-.42.45-.76.86-1.07,1.28-.15.21-.3.43-.45.65-.16.26-.32.52-.5.8.07-.25-.15-.06-.55.31-.34.5-.34.65-.39.83-.01.04-.02.09-.05.14-.01.03-.03.05-.04.09.02.02.08.04.12.06.18.08.39.2.68.4-.17-.03-.38-.06-.65-.12-.13-.03-.28-.07-.44-.11-.08-.02-.16-.05-.25-.08-.03-.04.03-.11.04-.16l-.07.12s-.03.04-.03.05l.07.03.29.13.57.25,1.09.46c.55.22,1.1.45,1.67.68.18.29-.72-.09-1.13-.18,1.16.53,2.98,1.4,3.44,1.34l-.67-.46c.41.2.1.32-.22.2-1.06-.32-1.34-.81-1.35-.93l.74.32c-.23-.45-.95-.8-1.79-1.14-.49-.2-1-.41-1.5-.62l-.4-.17-.1-.04s-.07-.03-.04-.06l.1-.16c.13-.21.27-.42.42-.61.01.22.05.4.13.54.14-.4.35-.88.61-1.45.34-.29.61-.27.25.35.8-.76.47-.9,1.24-1.55.09-.07.08-.02.03.08l.57-.98c-.06.23.35.02-.11.54,1.39-1.49,1.68-2.81,2.39-3.24l-.08.15c1.55-2.34-.09-.4.87-2.3l1.45-.7-.08-.4c.18-.23.54-.67.58-.52.47-.99-.22.07,0-.55,1.05-.96,2.18-3.17,2.76-3.14.11-.54-.94.97-.18-.32.68-.04.95-1.44,1.9-2.32-.01.47-.84,1.36.11.48.09-.89,1.55-1.94,2.12-2.85-.13-.13.18-.62.65-1.27.24-.32.51-.69.78-1.07.31-.42.46-.64.68-.99,0,.05.11-.05.26-.22.22.15.49.38.84.63.85.61,1.89,1.34,2.55,1.82l-.07.03c.47-.14,1.91.83,3.05,1.39-.15.17-.4.13-1.04-.14.36.21.65.39,1.07.61.36.03.79.21,1.71.17-.12.1-.24.18-.38.26,1.01.09,2.09-.4,2.72-1.26.52-.79.97-1.5,1.66-2.28-.14-.24-1.52.9-.41-.95.16.02.4.09.12.58.09-.16.29-.6.55-.87l-.31.83c.62-.69.12-.51.57-1.09.15.13.43-.36.5-.18-.09.16-.44.48-.54.75.51-.66,1.2-1.41,1.51-1.59-.13,0-.22-.15.12-.67.91-1.29.51-.3,1.13-.99.11-.39.81-1.12.59-1.32.27-.37.43-.36.6-.46.37-.74,2.19-3.12,1.4-2.55l-.14.16s.04-.07.07-.12h0s0,0,0,0c1.32-2.34,3.37-4.42,4.81-6.65l.08.06c.83-1.35,2-2.9,2.49-3.95.27-.38.79-.79.77-.56.15-.25.29-.46.4-.7.1-.23.17-.43.23-.66.09-.45.27-1.01-.03-2.04.33.67.28.57.3.5,0-.03,0-.04.02.08.01.12.08.39.02.91.13-.97-.1-1.63-.45-2.19-.1-.13-.2-.27-.33-.39-.06-.06-.13-.12-.2-.17-.1-.08-.06-.03-.15-.11-.24-.18-.52-.38-.89-.6.61.19-.7-1.02-1.33-1.44l.73.85c-.67-.52-1.23-1.01-1.79-1.5h.53c-.56-.59-1.16-1.08-1.76-1.51-.16-.1-.33-.2-.47-.27-.12-.07-.38-.13-.25-.26.04-.12.1-.25.17-.4.02-.04.11-.19.2-.33l.27-.4c.37-.52.78-.99,1.27-1.39.31-.83-1.15,1.33-.93.55.9-1.18,2.19-2.15,2.46-2.53,1.33-1.54.71-1.82,2.05-3.47-.25.15-.66.18.17-1.18.45-.57.82-.92,1.01-1.05.18-.12.28.11,0,.65-.22.35-.34.43-.37.4-.24.41-.57.95-.12.55l.02-.23c.13-.13.3-.33.49-.56.23-.29.43-.66.56-1.01.25-.7.22-1.29.33-.94-.07-.82-.24-.95-.22-.77,0,.18.05.69-.09,1.24.29-1.28-.23-2.36-.94-3.05-.41-.38-.71-.54-1.03-.79-.33-.24-.67-.5-1.05-.81.21.23.37.51.12.33-2.25-1.79-1.16-.55-2.77-1.64-.79-.79.57-.12-1.11-1.14-.9-.8-.02-.4.42-.21-1.58-.85-2.62-2.06-3.42-2.69l.82.47c-.49-.28-.86-.55-1.24-.82l.3.51c-.42-.35-.8-.63-.74-.7-.55-.2.12.57-.92.09-.53-.53-1.89-1.2-1.92-1.6,1.82,1.43-.02-.41,1.6.69-.33-.19-.7-.46-1.13-.82-.05-.08.1,0,.23.07-1.63-1.52-1.03-.3-2.89-1.64.34.03-.24-.58-.56-.77.75.54.19.5-.58.11-1.11-.97-1.36-.85-1.97-1.31l.68.56c-.35-.03-.93-.48-1.79-1.03,0-.16.81.47.55.2-.55-.2-1.03-.64-1.54-1.13-.26-.24-.52-.49-.81-.73-.23-.21-.75-.57-1.24-.65-.44-.19-.47-.25-.46-.34,0-.08.03-.16-.45-.23-1.31.12-1.95.51-2.55.9-.15.1-.28.23-.42.36-.13.13-.28.31-.36.41-.19.24-.4.53-.64.93.51-.29.52-.4-.07.79l.84-1.28.21-.32c.08-.11.19-.27.3-.4.22-.27.49-.5.79-.7-.37.29-.66.64-.87,1.01-.19.35-.31.61-.47.92.29-.36.49-.78.9-1.24.38-.42.86-.68,1.21-.78-.55.29-.72.51-.75.56-.02.06.14-.03.42-.06-.37.09-.71.32-.96.6-.26.32-.39.56-.57.85-.33.56-.67,1.16-1.2,1.68l-.45-.38c-1.52,1.62-2.08,3.33-3.9,5.54l.63-.68c-.02.22-.28.58-.58.99-.16.2-.32.42-.48.63-.15.21-.33.46-.37.54-.12-.17-.34,0-.46-.04.02.04,0,.09-.04.17-.04.08-.14-.05-.23-.07-.09-.05-.2-.09-.31-.11-.16-.05-.39-.13-.49-.07l-.94-.92c-1.92-1.34-2.54-.94-4.43-2.13.69.15-.12-.48,1.25.15-.64-.39-1.21-.75-1.29-.64-.1-.1-.31-.21-.58-.34-.14-.06-.28-.12-.44-.19l-.23-.1-.11-.05s-.04-.02-.04-.02h0s0,0,0,0l-.4.55.31-.6c-.49-.22-.98-.33-1.31-.45-.41.07-.55.17-1.51.43-.12,0-.03-.09-.03-.09.01.04-.35.22-.56.42-.21.21-.29.34.11.19-.31.11-.62.32-.88.61-.23.25-.46.52-.69.81-.46.58-.91,1.23-1.35,1.87-.89,1.28-1.75,2.54-2.55,3.19-.89,1.35-1.98,2.98-2.82,4.18,0-.11-.08-.06.1-.28-1.33,1.54-.27,1.34-1.78,3.1-.95.77.57-1.1.05-.57-.71-.12-1.55,2.32-2.76,3.36l.19-.33c-.87.84-1.49,2.5-2.66,4.05,0,0,0-.11-.07-.07-.25.64-.72,1.48-1.25,2.36-.12.21-.3.47-.41.75-.11.28-.19.58-.22.87-.06.59.05,1.18.3,1.65-.5-.52-.38-.94-.57-.43.16.52.26.39.37.4.15-.02.21.19.89.8.37.48,1.22,1.31,1.19,1.64l-1.24-.97c.42.79,1.6,1.26,2.21,1.82l-.17.06c1.91,1.46,2.17,1.16,4.18,2.8l-.14-.26c.66.28.9.54,1,.71.06.09.11.18.21.27.05.05.12.1.21.15.05.03.1.06.16.09.05.03.16.06.11.12-.24.11-.46.19-.66.24-.05.11-.12.27-.2.46-.18.32-.39.7-.6,1.09-.45.8-.96,1.67-1.41,2.38.16-.47.49-1.13.85-1.81.18-.34.37-.68.55-1.01.09-.16.18-.32.26-.48.08-.16.17-.32.17-.35-.12.17-.27.39-.45.65-.19.29-.4.61-.61.91-.4.62-.74,1.2-.8,1.46.18-.33.38-.77.64-1.03-.4,1.11-1.14,2.42-2.22,3.92-.43-.71-2.94,3.82-4.2,4.57-1.66,2.83-3.84,5.23-6.01,8.36,1.27-.76-.63.92,0,1.08-.48.75-.68,1.01-.76,1.05l-.93,1.01-.23.26c-.08.09-.16.19-.19.21l-.23.19c-.22.02.08-.39-.05-.43-.24.31-.24.05-.32-.1-.01-.05-.03-.1-.03-.14.01.14.02.24-.03.26-.1-.02.05.09-.53-.37.51.47.36.48.53.71-.09-.01-.19-.05-.27-.1-.02,0-.12-.08-.21-.15-.09-.07-.17-.13-.25-.19-.3-.24-.5-.47-.7-.69-.4-.44-.8-.89-1.99-1.56l.8.35c-.97-.59-3.12-2.28-4.48-3.13l.12.13c-.53-.52-1.04-.64-1.39-.68-.3-.16-.75-.47.15-.24-.6-.23-1.22-.31-1.9-.21-.61.1-1.2.32-1.74.71-.27.19-.52.42-.74.7-.26.34-.29.45-.43.67-.23.39-.47.77-.69,1.15-.92,1.52-1.81,2.95-2.67,3.94l.02-.29c-.32.54-.38,1.06-.95,1.62-.03-.07.02-.29-.15-.06-.14.3-.72,1.52-1.26,2.15l.26-.68c-2.01,2.59-2.5,4.37-3.97,6.69-.36-.26-1.93,1.78-2.72,2.8l-.03-.07c-2.2,3.11-3.36,5.54-5.21,8.55-.21.2-.44.45-.69.74-.2.23-.64.74-.83,1.38-.46,1.27,0,2.95,1.1,3.93l.74-.78c-.9,1.26-.55.77-.62.87h0s.01.01.01.01l.07.06.14.12.29.24.58.47c.39.31.78.63,1.16.93.76.61,1.5,1.21,2.15,1.76-.39-.39.27-.22.81.11.62.56,2.05,1.09,1.71,1.34l-.24-.18c.07.17.22.36.41.55.1.1.21.19.33.29.08.07.08.07.08.08l.02.03s.07.07.12.09c.03.03-.03.09-.05.12.18.04.35.11.51.19l-.14.1s-.04.02-.07.05l-.12.13c-.16.17-.31.36-.47.55-.31.38-.61.79-.91,1.22-.59.86-1.17,1.78-1.71,2.67-1.08,1.77-2.05,3.38-2.85,3.97-.35.77-.93,1.63-1.28,2.4l-.21-.2c-1.34,1.89-2.01,2.83-3.54,5.25l.16-.6c-.91,1.33-.46,2.17-1.28,3.42l-.59.13c-.78,1.17-1.64,2.3-2.46,3.45l-.6.87-.15.22-.21.32c-.14.24-.24.49-.32.75-.3,1.07-.03,2.18.57,2.95-.07-.03-.28-.04-.55-.68.16.47.49,1.13,1.07,1.68.34.3.54.43.76.61.23.17.45.33.66.49.86.61,1.58,1.04,1.55.66-.19.33,2.34,1.72,3.68,2.48l-.35.09c1.25.46,1.34.4,2.86,1.37.32.28.17.4-.24.01,1.07.94,1.05.43,2.36,1.55l-.62-.23c1.17.87,1.13.72,1.91,1.02.81.44,2.21,1.67,2.24,2,.25-.01,1.02.29,1.67.85.04.14-.25.01-.39-.06.47.39.9.71,1.3.97.21.14.37.24.6.38.24.14.49.24.73.32.98.26,1.9.18,2.89-.29.09.06.24,0,.4-.1-1.05.9-2.37.86-3.11.61-.77-.24-1.11-.59-1.03-.53-.08.11.32.46.6.66.28.18.38.38-.56.14.88.39,2.27.49,3.43-.16.57-.3,1.08-.85,1.34-1.29.24-.36.5-.7.75-.98.06-.04.13-.09.19-.11l-.07.14c.23-.26.41-.53.55-.79.33-.36.54-.59.83-.96.28-.02,1.18-1.36,1.66-1.97-.27-.11.39-.9-.38-.27.09-.09-.06.14-.37.56-.06.1-.14.21-.18.28,0-.02,0-.04.01-.06-.31.41-.71.94-1.16,1.55.26-.57.55-1.16,1.2-1.75.1-.42.21-.88.29-1.13.97-.62,2.38-2.13,2.75-2.21,1.32-1.99,3.32-4.52,3.8-6.02.36-.58.59-.53.81-.68-.19.34-.48.71-.55.92.71-1.16,2.39-3.22,2.29-3.7,1.17-1.26-.31.96,1.06-.94l-.1.32c1.64-1.66,2.58-3.29,3.59-4.96.5-.83,1.02-1.68,1.64-2.54.31-.43.65-.87,1.02-1.31l.28-.32.21-.21c.15-.11.24-.36.49-.15-.26-.18-.29,0-.36-.04.06-.04.09-.17.18-.12l.26.09.5.17c.44.14.96.29,1.44.42.98.27,1.98.5,2.99.71,1.01.2,2.02.38,3.04.53l1.53.21.77.09.39.04h.21s.11.02.11.02c.06,0,.13,0,.19,0h-.13c1.09.1,2.29-.3,2.98-1.29.54-.76,1.1-1.5,1.67-2.22.99-1.31.89-1.58,1.29-2.52l.45-.13.65-1.62c1.12-2.16,2.93-3.09,4.22-5.91l-.39.22c.64-.9,1.82-2.97,1.92-2.69.03-.11.02-.42.35-.72l.15.06,1.26-2.41c1.25-1.69.34.62,2.05-1.92.58-.98,1.4-2.95,1.08-2.66-.26.38-.73.92-.88.87l.5-.91c-.28-.41-.24-1.34-1.92.61l-.74,1.64-.5.35.81-1.26c-.65.59-.79,1.14-1.01,1.72-.18.05-.39.21-.62.48l-.59,1.7c-.27.08.13-.85-.6.07-.28.8.77-.43.14.78-.65.59-.65.29-1.05,1.22-.18.05-.12-.17.05-.53-.37.82-1.25,2-1.29,2.52-.71.6-1.6,2.54-1.92,2.23-.07.29-.57,1.5-1.01,2.19.38-1.54-1.71,2.53-1.97,1.89-.21,1.18-2.02,3.44-2.88,5.22.03-.11.08-.33.2-.46-.62.84-1.02,1.27-1.21,1.28.09.13.04.33-.17.52-.2.19-.56.32-.92.37l-.08.71c-.03-.15-.05-.3-.07-.45l-.02-.23c0-.06,0-.02,0-.03h.02s-.03.01-.04.02l-.13.02c-.09.01-.18.03-.26.04-.63-.26-.41-.35-.1-.43.34-.08.66-.17.51-.36.13.36-2.23.06-1.82.37-.96-.38-.84-.25-1.3-.65-.26.45-.94-.08-1.82.04-1.39-.54-.27-.52-1.88-.73-.71-.32.72-.17.72-.17ZM509.45,233.16h0c.2-.27.37-.51.48-.65-.1.14-.23.32-.47.65ZM507.49,234.56c.28.02.65-.04.95-.23.12.04.11.18-.13.28.1-.11-.46.07-.82-.06ZM513.25,231.39c-.28.44-.43.54-.52.56.14-.2.31-.43.52-.74,0-.02,0-.05,0-.07.01.07.02.15,0,.25Z"/>
            <path class="cls-3" d="M513.52,230.44c.04-.06.06-.1.11-.18-.08.07-.16.14-.24.21-.01.07-.03.14-.04.2.06-.08.11-.15.17-.22Z"/>
            <path class="cls-3" d="M586.77,148.51l.05-.05s-.08.08-.12.09c.04-.03.04-.02.07-.04Z"/>
            <polygon class="cls-3" points="499.49 204.25 499.43 204.22 499.32 204.49 499.49 204.25"/>
            <path class="cls-3" d="M574.62,158.28s-.06-.1-.17-.18c0,.02.07.1.17.18Z"/>
            <path class="cls-3" d="M567.62,155.73c-.37.44-.55.64-.81.93.33-.35.54-.59.81-.93Z"/>
            <path class="cls-3" d="M563.88,160.58c0,.09.01.13.03.16h0s-.04-.16-.04-.16Z"/>
            <path class="cls-3" d="M577.16,103.16c-.07-.05-.13-.09-.2-.12-.47-.27-.16-.07.2.12Z"/>
            <path class="cls-3" d="M593.07,120.57c.13-.27.27-.54.42-.82-.31.4-.55.71-.42.82Z"/>
            <polygon class="cls-3" points="553.67 106.29 553.67 106.28 553.58 106.26 553.67 106.29"/>
            <path class="cls-3" d="M594.27,118.68c-.34.38-.58.73-.77,1.07.26-.33.56-.71.77-1.07Z"/>
            <path class="cls-3" d="M555.55,181.17l.25.15s.03-.02.05-.02l-.3-.12Z"/>
            <path class="cls-3" d="M555.85,181.29l.3.12c-.13-.07-.25-.13-.3-.12Z"/>
            <path class="cls-3" d="M556.78,181.66l-.63-.25c.21.11.46.25.63.25Z"/>
            <path class="cls-3" d="M553.17,175.11l-.03-.13c-.01.05,0,.1.03.13Z"/>
            <path class="cls-3" d="M554.58,173.15c-.36.45-1.03,1.03-1.46,1.72l.02.11c.1-.39,1.25-1.28,1.44-1.83Z"/>
            <path class="cls-3" d="M561.57,165.78l-1.27,1.58c.3-.22.69-.51.17.25,1.77-1.86-.51.28,1.1-1.83Z"/>
            <path class="cls-3" d="M565.42,160.83c-.6.9.14.08.15.16.33-.61.41-.76-.15-.16Z"/>
            <path class="cls-3" d="M595.2,137.14c.04.09.09.16.14.24.54-.9-.08-.04-.14-.24Z"/>
            <polygon class="cls-3" points="590.13 130.75 590.66 131.38 591.1 131.45 590.13 130.75"/>
            <polygon class="cls-3" points="590.15 127.34 589.97 127.66 590.7 126.47 590.15 127.34"/>
            <path class="cls-3" d="M547.09,109.88l.4-.02c.28-.49.07-.8-.4.02Z"/>
            <path class="cls-3" d="M541.5,136.64c.09.17.3.43.56.66.17.15.16.15.24.2.06.04.13.06.23.09-.06-.06-.12-.11-.17-.18l-.08-.1c-.06-.06-.12-.11-.17-.16-.24-.22-.44-.41-.6-.51Z"/>
            <polygon class="cls-3" points="502.24 195.58 502.52 194.97 501.9 196.05 502.24 195.58"/>
          </g>
        </g>
      </g>
    </g>
  </g>
</svg>