<?xml version="1.0" encoding="UTF-8"?>
<svg id="_レイヤー_2" data-name="レイヤー 2" xmlns="http://www.w3.org/2000/svg" viewBox="0 0 188.59 198.36">
  <defs>
    <style>
      .cls-1 {
        fill: #fff;
      }

      .cls-2 {
        fill: #666767;
      }

      .cls-3 {
        fill: #323333;
      }
    </style>
  </defs>
  <g id="_レイヤー_2-2" data-name="レイヤー 2">
    <g>
      <g>
        <g>
          <polygon class="cls-1" points="15.63 181.16 142.4 149.63 124.25 112.46 15.63 181.16"/>
          <path class="cls-2" d="M9.86,183.62l114.81-72.6,19.17,39.27L9.86,183.62ZM123.85,113.91L21.4,178.69l119.56-29.74-17.11-35.05Z"/>
        </g>
        <path class="cls-2" d="M38.46,174.45l85.8-61.99,11.25,20.76-97.04,41.23Z"/>
        <g>
          <polygon class="cls-1" points="3.17 195.26 160.21 99.8 91.41 57.23 3.17 195.26"/>
          <path class="cls-2" d="M0,198.36L91.1,55.87l71.02,43.94L0,198.36ZM91.72,58.6L6.33,192.17l151.96-92.38-66.57-41.19Z"/>
          <polygon class="cls-2" points="3.75 195.89 2.58 194.64 121.51 75.59 122.67 76.84 3.75 195.89"/>
        </g>
      </g>
      <path class="cls-3" d="M130.64,69.45c-.62,0-1.2-.39-1.42-1.01-.27-.78.14-1.64.92-1.91.85-.29,20.84-7.56,30.21-36.63.07-.2.13-.41.19-.61-4.71,2.66-8.93,3.9-11.64,2.55-3.97-1.98-6.49-4.94-7.29-8.56-1.11-4.99,1.03-10.92,6.35-17.62,4.02-5.07,8.69-6.88,12.48-4.85,4.35,2.33,7.09,9.79,4.87,21.76,8.03-5.95,16.76-14.56,20.47-20.89.42-.71,1.34-.95,2.05-.54.71.42.95,1.34.54,2.05-3.55,6.06-14.25,17.09-24.03,23.72-.33,1.26-.71,2.56-1.14,3.9-7.84,24.33-23.85,35.68-32.08,38.54-.16.06-.33.08-.49.08ZM157.22,3.01c-2.11,0-4.56,1.58-6.9,4.52-4.66,5.87-6.66,11.1-5.77,15.11.61,2.74,2.53,4.94,5.7,6.52,2.08,1.04,6.44-.78,11.46-4.06,2.84-11.77,1.01-19.67-2.68-21.64-.56-.3-1.18-.45-1.82-.45Z"/>
    </g>
  </g>
</svg>