<?xml version="1.0" encoding="UTF-8"?>
<svg id="_レイヤー_2" data-name="レイヤー 2" xmlns="http://www.w3.org/2000/svg" viewBox="0 0 322 286.32">
  <defs>
    <style>
      .cls-1 {
        fill: #231815;
      }

      .cls-2 {
        fill: #daadcf;
      }

      .cls-3 {
        fill: #daa7c7;
      }

      .cls-4 {
        fill: #f1d9c2;
      }

      .cls-5 {
        fill: #00a0e9;
      }

      .cls-6 {
        fill: #fff;
        stroke: #29abe2;
        stroke-miterlimit: 10;
        stroke-width: 7px;
      }

      .cls-7 {
        fill: #5fae3c;
      }
    </style>
  </defs>
  <g id="web作品欄">
    <g>
      <ellipse class="cls-6" cx="161" cy="143.16" rx="157.5" ry="139.66"/>
      <g>
        <path class="cls-1" d="M187.83,233.55c-62.67.02-85.05-31.07-85.02-57.67,0-38.81,37.56-83.92,85.95-83.92,51.28,0,77.31,23.24,84.41,75.37,1.91,13.96-2.35,27.32-12.28,38.62-15.42,17.53-42.06,27.6-73.07,27.6ZM188.79,94.26c-47.11,0-83.64,43.87-83.64,81.62,0,25.53,21.65,55.36,82.64,55.38,42.43.18,87.3-21.32,83.16-63.61-7.01-51.45-31.59-73.4-82.15-73.39Z"/>
        <rect class="cls-3" x="155.91" y="185.03" width="33.5" height="33.3"/>
        <g>
          <path class="cls-4" d="M188.79,93.11c50.77,0,76.17,22.21,83.27,74.38,8.07,84.59-170.11,85.51-168.06,8.39,0-38.35,37.07-82.77,84.81-82.77h-.02Z"/>
          <path d="M187.85,234.09c-43.01-.11-83.7-15.92-85.53-58.21,0-39.05,37.77-84.44,86.47-84.45,52.89.25,77.54,23.39,84.94,75.84,4.38,44.23-41.56,66.93-85.88,66.83ZM188.8,94.8c-46.81,0-83.12,43.59-83.12,81.09,0,25.28,21.5,54.82,82.1,54.84,42.15.16,86.72-21.08,82.61-63-6.96-51.11-31.36-72.92-81.59-72.92Z"/>
        </g>
        <g>
          <path class="cls-7" d="M111.95,55.45c12.81-4.18,25.14-1.8,27.53,5.3,4.64,17.48-39.73,31.73-46.4,15.12-2.39-7.1,6.06-16.24,18.87-20.42Z"/>
          <path class="cls-7" d="M49.38,68.82c1.76-7.29,13.8-10.72,26.9-7.67,31.4,8.13,25.15,33.04-6.37,26.41-13.1-3.06-22.29-11.45-20.53-18.74Z"/>
          <path class="cls-1" d="M108.29,84.38c-13.41.28-22.8-9.06-12.23-20.68,9.9-11.49,39.54-17.24,44.57-3.28h0c3.92,12.29-17.84,24.41-32.34,23.93v.02ZM124.41,54.51c-8.87-.16-21.01,4.42-26.68,10.77-6.82,7.13-4.36,14.56,5.34,16.32,4.99.99,11.07.46,17.08-1.49,12-3.87,20.36-12.56,18.29-18.96-1.39-4.29-6.95-6.66-14.03-6.65Z"/>
          <path class="cls-1" d="M79.44,89.83c-14.17.44-33.98-9.77-31.2-21.23h0c3.83-14.38,33.75-11.19,44.57-.57,11.99,11.02,2.26,22.12-13.4,21.8h.02ZM50.51,69.11c-2.67,16.28,40.41,26.21,45.18,10.45.72-3.12-.84-6.6-4.4-9.86-9.57-9.43-37.1-12.91-40.77-.6h0Z"/>
          <path class="cls-1" d="M125.95,123.05c-22.3-5.32-42.25-29.01-28.66-44.47l1.42,1.35c-12.41,14.08,6.98,36.41,27.73,41.24l-.51,1.88h.02Z"/>
        </g>
        <g>
          <rect class="cls-1" x="127.86" y="146.38" width="36.56" height="6.49"/>
          <rect class="cls-1" x="197.92" y="146.38" width="36.56" height="6.49"/>
          <g>
            <path class="cls-5" d="M210.01,196.81c.49,1.21.86,1.7,1.63,2.22,3.06,2.2,10.41.11,9.34-4.15-.33-1.56-1.37-2.64-2.84-2.84-2.48-.3-6.2.72-8.78,1.49l-1.35-6.58c3.61-.31,10.41-1.22,9.32-5.48-.42-2.06-2.19-2.93-4.87-2.41-2.87.57-4.1,1.95-4.22,4.52l-8.97.57c.28-2.52.7-3.8,1.72-5.41,3.14-5.69,15.87-8.53,21.32-4.91,1.79,1.12,2.94,2.8,3.38,4.97.84,4.06-.96,7.04-5.38,9.01,6.97-.92,11.63,5.51,8.85,11.53-2.15,4.1-6.5,5.72-11.32,6.83-6.28,1.14-11.53.66-15.03-4.36-.35-.48-.61-.96-1.1-1.88l8.27-3.14h.02Z"/>
            <path class="cls-5" d="M234.24,199.79c-3.49-3.74-3.99-8.55-3.82-13.52.47-9.52,5.68-16.72,15.56-16.14,10.23.61,14.28,8.47,13.61,17.74-.23,4.1-1.51,8.32-3.24,10.68-4.42,6.78-16.79,7.17-22.11,1.19v.05ZM238.88,186.43c-.42,6.99,1.47,10.68,5.55,10.93,4.03.23,6.29-3.16,6.71-10.11.4-6.67-1.54-10.29-5.55-10.54-3.87-.23-6.36,3.35-6.73,9.7l.02.02Z"/>
          </g>
          <g>
            <path class="cls-1" d="M155.52,180.09v35.25h35.46v-35.25h-35.46ZM189.88,214.36h-33.27v-33.27h33.27v33.27Z"/>
            <rect class="cls-2" x="156.61" y="181.08" width="33.27" height="33.27"/>
          </g>
        </g>
      </g>
    </g>
  </g>
</svg>