<?xml version="1.0" encoding="UTF-8"?>
<svg xmlns="http://www.w3.org/2000/svg" xmlns:xlink="http://www.w3.org/1999/xlink" viewBox="0 0 1200 1700">
  <defs>
    <style>
      .cls-1 {
        fill: url(#_名称未設定グラデーション_201);
      }

      .cls-2 {
        fill: #cbdfaa;
      }

      .cls-3, .cls-4, .cls-5 {
        fill: #f0f0f0;
      }

      .cls-6 {
        fill: #7f3855;
      }

      .cls-7 {
        fill: #c6bda9;
      }

      .cls-8 {
        fill: #dbd0ba;
      }

      .cls-9 {
        fill: #ccc;
      }

      .cls-10 {
        fill: #787633;
      }

      .cls-4, .cls-11 {
        stroke: #323333;
      }

      .cls-4, .cls-11, .cls-5 {
        stroke-miterlimit: 10;
      }

      .cls-12, .cls-11 {
        fill: #5b7c3f;
      }

      .cls-13 {
        fill: #323333;
      }

      .cls-14 {
        fill: #96707b;
      }

      .cls-15 {
        fill: #2f461c;
      }

      .cls-16 {
        fill: #231815;
      }

      .cls-17 {
        fill: none;
        stroke-linecap: round;
        stroke-linejoin: round;
        stroke-width: 3px;
      }

      .cls-17, .cls-5 {
        stroke: #231815;
      }

      .cls-18 {
        fill: #c8454c;
      }

      .cls-19 {
        fill: rgba(240, 240, 240, .26);
      }

      .cls-20 {
        fill: url(#_名称未設定グラデーション_299);
      }

      .cls-21 {
        fill: #9fa0a0;
      }

      .cls-22 {
        fill: url(#_名称未設定グラデーション_285);
      }

      .cls-23 {
        fill: #992f36;
      }

      .cls-24 {
        fill: #f5baca;
      }

      .cls-25 {
        fill: #ec77a3;
      }

      .cls-26 {
        fill: url(#_名称未設定グラデーション_201-2);
      }
    </style>
    <linearGradient id="_名称未設定グラデーション_201" data-name="名称未設定グラデーション 201" x1="76.98" y1="207.3" x2="247.98" y2="207.3" gradientUnits="userSpaceOnUse">
      <stop offset=".07" stop-color="#87625e"/>
      <stop offset=".35" stop-color="#f0f0f0"/>
    </linearGradient>
    <linearGradient id="_名称未設定グラデーション_201-2" data-name="名称未設定グラデーション 201" x1="236.19" y1="207.32" x2="404.82" y2="207.32" gradientTransform="translate(5.72 26.72) rotate(-.31) scale(.98 .91) skewX(-.6)" xlink:href="#_名称未設定グラデーション_201"/>
    <radialGradient id="_名称未設定グラデーション_299" data-name="名称未設定グラデーション 299" cx="265.13" cy="756.54" fx="265.13" fy="756.54" r="15.45" gradientTransform="translate(-112.9 -563.69) rotate(.71) scale(1.64 1.74)" gradientUnits="userSpaceOnUse">
      <stop offset=".03" stop-color="#c8454c"/>
      <stop offset=".96" stop-color="#e0978f"/>
      <stop offset="1" stop-color="#fff"/>
    </radialGradient>
    <radialGradient id="_名称未設定グラデーション_285" data-name="名称未設定グラデーション 285" cx="693.45" cy="1090.46" fx="705.12" fy="1082.53" r="82.9" gradientTransform="translate(-1377.68 1956.07) rotate(-92.05) scale(.8 1.59)" gradientUnits="userSpaceOnUse">
      <stop offset=".54" stop-color="#c8454c"/>
      <stop offset=".89" stop-color="#e0978f"/>
      <stop offset="1" stop-color="#fff"/>
    </radialGradient>
  </defs>
  <g id="_レイヤー_3" data-name="レイヤー 3">
    <rect class="cls-2" width="1200" height="1700"/>
  </g>
  <g id="_レイヤー_1" data-name="レイヤー 1">
    <g>
      <path class="cls-1" d="M77,227.27l1.61-19.36c.19-2.33,2.21-4.07,4.54-3.91,2.97.2,6.25.39,9.83.56,5.35.26,11.2.39,17.53.39l.06-.4c.71-4.75,1.59-9.57,2.66-14.47.7-3.22,1.48-6.45,2.32-9.68.69-2.61-1.2-5.19-3.9-5.34-5.63-.31-10.93-.55-15.9-.73-4.39-.15-8.31-.25-11.76-.3-2.51-.03-4.45-2.2-4.2-4.7l1.83-17.91c.2-1.96,9.44-3.34,11.39-3.6,4.8-.62-1.75-18.58,10.05-18.81,16.54-.32,12.77,17.47,20.38,17.73,1.79.06,3.43-.99,4.11-2.65,2.01-4.9,4.12-9.75,6.31-14.53,2.05-4.47,4.16-8.81,6.33-13.02,1-1.92,3.26-2.81,5.29-2.06l20.96,7.78c2.43.9,3.5,3.73,2.27,6.02-2.68,4.97-5.27,10.25-7.78,15.82-1.18,2.62.53,5.65,3.38,5.99,5.29.64,10.46,1.34,15.51,2.09,7.65,1.14,14.67,2.39,21.08,3.75,4.69.99,8.83,2.02,12.43,3.07,2.12.62,3.41,2.75,2.99,4.91l-3.66,18.86c-.46,2.35-2.74,3.87-5.08,3.36-2.13-.46-4.4-.93-6.83-1.41-4.12-.82-8.56-1.58-13.31-2.29-5.93-.88-12.21-1.72-18.84-2.5-5.48-.65-11.01-1.24-16.59-1.76-2.07-.19-3.96,1.14-4.52,3.14-.94,3.36-1.78,6.71-2.53,10.06-.61,2.71-1.17,5.39-1.7,8.04s1.57,5.16,4.3,5.09c9.37-.26,18.54-.71,27.5-1.36,8.64-.63,16.23-1.39,22.78-2.29,2.39-.33,4.56,1.39,4.81,3.79l2.03,19.42c.24,2.29-1.38,4.36-3.66,4.67-6.86.95-15.1,1.85-24.72,2.7-10.2.91-20.69,1.59-31.45,2.05-2.48.11-4.37,2.29-4.08,4.75.74,6.35,2.23,11.6,4.46,15.76,2.74,5.13,6.22,8.95,10.43,11.46,4.21,2.52,8.82,4.14,13.83,4.89,11.87,1.77,22.24-.86,31.1-7.9,7.92-6.28,15.33-15.33,22.24-27.13,1.33-2.27,4.35-2.84,6.39-1.19l17.14,13.91c1.62,1.31,2.05,3.59,1.04,5.41-3.21,5.78-6.92,11.47-11.11,17.05-4.96,6.61-10.81,12.38-17.54,17.3-6.73,4.93-14.65,8.5-23.74,10.72-9.09,2.22-19.57,2.44-31.44.68-12.79-1.91-23.12-5.9-30.97-11.99-7.86-6.09-13.66-13.73-17.41-22.92-3.33-8.14-5.39-17-6.17-26.56-.17-2.12-1.9-3.79-4.03-3.9-3.96-.2-7.75-.42-11.35-.65-4.74-.3-9.09-.75-13.05-1.34h0c-2.23-.33-3.81-2.33-3.63-4.58Z"/>
      <path class="cls-26" d="M261.54,247.49c-3.47.05-6.2-2.71-5.87-5.94.88-8.77,1.93-17.18,3.17-25.25,1.05-6.88,2.23-13.58,3.53-20.13.79-3.99-3.14-7.34-7.32-6.22-3.34.89-6.49,1.8-9.45,2.71-3.61,1.11-7.35-1.17-7.66-4.69l-1.27-14.68c-.21-2.48,1.39-4.82,3.93-5.65,3.27-1.08,6.97-2.18,11.09-3.3,5.06-1.37,10.49-2.66,16.29-3.88,2.12-.44,3.8-1.95,4.41-3.89,1.06-3.41,2.16-6.76,3.3-10.07,1.1-3.18,2.23-6.35,3.41-9.51.77-2.08,2.81-3.53,5.16-3.7l18.01-1.31c4.23-.31,7.35,3.54,5.91,7.27-.49,1.28-.97,2.55-1.44,3.8-.33.88-.66,1.76-.98,2.64-1.43,3.88,2.02,7.74,6.36,7.14,5.56-.77,11.12-1.5,16.69-2.17,8.71-1.05,17.05-1.9,25.01-2.52,6.52-.51,12.67-.88,18.43-1.09,3.34-.12,6.46-.18,9.37-.19,3.29,0,5.91,2.5,5.82,5.57l-.48,16.09c-.09,3.06-2.85,5.47-6.14,5.38-4.65-.13-9.46-.12-14.43.02-7.14.2-14.37.58-21.67,1.16-8.35.66-16.75,1.54-25.2,2.63-7.09.92-14.04,1.93-20.84,3.04-2.36.39-4.25,2.09-4.77,4.27-1,4.2-1.85,8.1-2.54,11.68,0,.05-.02.09-.03.14-.86,4.44,4.06,7.82,8.4,5.78.61-.29,1.23-.57,1.87-.86,5.26-2.37,11.07-4.48,17.42-6.32,6.35-1.84,12.79-3.03,19.32-3.54,12.53-.99,23.42.17,32.67,3.47,9.25,3.3,16.5,8.17,21.73,14.6,5.23,6.43,8.19,13.96,8.87,22.58.52,6.56-.67,13.13-3.57,19.71-2.9,6.58-7.23,12.85-12.99,18.81-5.77,5.95-12.67,11.23-20.71,15.84-7.15,4.09-14.98,7.4-23.5,9.91-1.97.58-4.12.17-5.66-1.09l-13.88-11.4c-3.35-2.75-2.25-7.91,2.01-9.28,1.05-.34,2.14-.71,3.26-1.1,5.18-1.81,10.47-4.13,15.9-6.94,5.42-2.81,10.4-5.92,14.92-9.33,4.52-3.41,8.14-7.03,10.86-10.85,2.72-3.82,3.92-7.73,3.6-11.74-.36-4.61-2.1-8.27-5.2-10.95-3.1-2.69-6.99-4.52-11.66-5.5-4.67-.97-9.55-1.26-14.64-.86-2.48.2-5.66.6-9.56,1.21-3.89.61-8.32,1.88-13.29,3.8-4.97,1.92-10.32,4.82-16.06,8.69-5.23,3.54-10.76,8.21-16.57,14.03-1.1,1.1-2.63,1.72-4.24,1.74l-19.14.26Z"/>
      <path class="cls-3" d="M463.25,290.67h0c-4.39-6.81-.58-15.24,7.62-16.95,3.12-.65,6.09-1.44,8.91-2.38,7.65-2.54,13.92-5.91,18.83-10.11,4.9-4.2,7.97-8.98,9.22-14.34s.17-10.1-3.26-13.92c-3.44-3.82-9-6.63-16.67-8.41-6.48-1.5-13.26-2.23-20.34-2.17-7.07.05-14.13.55-21.18,1.48-2.71.36-5.39.73-8.04,1.1-6.91.98-13.63-3.36-15.06-9.7l-.05-.24c-1.47-6.54,3.27-12.63,10.44-13.43,3.05-.34,6.2-.66,9.47-.97,8.21-.77,16.7-1.06,25.48-.87,8.78.19,17.28,1.23,25.49,3.14,10.05,2.33,12.33-15.92,33.01-3.55,13.62,8.15,2.66,25.08,5.18,31.88,2.52,6.8,2.83,14.34.91,22.61-2.66,11.5-9.47,20.98-20.43,28.45-8.98,6.12-20.58,10.83-34.8,14.12-5.63,1.3-11.69-1.05-14.72-5.75Z"/>
      <path class="cls-14" d="M625.82,289.45c-4,0-8.5-.33-13.5-.98-5-.65-10.05-1.83-15.15-3.52-5.1-1.7-9.78-4.1-14.03-7.2-4.25-3.1-7.68-7.1-10.27-12-2.6-4.9-3.9-10.9-3.9-18,0-8.6,2.82-16.47,8.48-23.62,3.77-4.77,8.23-9.21,13.4-13.33,4.37-3.49,4.9-9.93,1.03-13.96-.67-.69-1.35-1.4-2.05-2.11-3.6-3.65-7.25-7.12-10.95-10.42-.56-.5-1.12-.99-1.66-1.45-4.2-3.6-4.48-9.99-.59-13.91l3.33-3.36c3.65-3.68,9.57-3.77,13.31-.17.03.03.05.05.08.08,2.75,2.65,5.65,5.6,8.7,8.85,3.05,3.25,6.02,6.55,8.92,9.9,1.16,1.34,2.28,2.65,3.36,3.94,2.74,3.26,7.32,4.25,11.21,2.5,6.42-2.89,12.99-5.56,19.71-8.01,5.28-1.93,10.37-3.72,15.26-5.37,5.4-1.82,11.17,1.47,12.34,7.05l1.21,5.79c1.02,4.87-1.89,9.7-6.68,11.07-1.94.55-3.99,1.17-6.16,1.86-5.7,1.8-11.7,3.9-18,6.3s-12.5,5.08-18.6,8.02c-6.1,2.95-11.62,6.1-16.58,9.45-4.95,3.35-8.9,6.85-11.85,10.5-2.95,3.65-4.43,7.33-4.43,11.02,0,3,.88,5.53,2.62,7.58,1.75,2.05,4,3.73,6.75,5.02,2.75,1.3,5.7,2.32,8.85,3.07,3.15.75,6.15,1.25,9,1.5,2.85.25,5.22.38,7.12.38,6.6,0,13.12-.77,19.58-2.32,6.45-1.55,12.5-3.5,18.15-5.85,1.38-.57,2.7-1.15,3.97-1.72,5.45-2.46,11.79.61,13.18,6.42l1.33,5.57c1.04,4.35-1.1,8.82-5.11,10.77s-8.03,3.52-12.32,4.83c-6.85,2.1-13.68,3.6-20.47,4.5-6.8.9-13,1.35-18.6,1.35Z"/>
      <path class="cls-14" d="M1022.04,215.91h92.93c8.03,0,14.54,6.51,14.54,14.54v75.02c0,1.9-1.54,3.44-3.44,3.44h-21.11c-1.9,0-3.44-1.54-3.44-3.44v-.31c0-1.9-1.54-3.44-3.44-3.44h-46.91c-1.9,0-3.44,1.54-3.44,3.44v.31c0,1.9-1.54,3.44-3.44,3.44h-19.71c-1.9,0-3.44-1.54-3.44-3.44v-59.81c0-3.33-4.26-4.72-6.23-2.03l-.72.99c-1.37,1.87-4.17,1.89-5.54.02-.83-1.13-1.74-2.31-2.71-3.52-.16-.2-.32-.39-.47-.59-2.04-2.53-6.13-1.08-6.13,2.17v63.38c0,1.9-1.54,3.44-3.44,3.44h-21.51c-1.9,0-3.44-1.54-3.44-3.44v-50.68c0-2.93-3.42-4.5-5.67-2.63-.84.7-1.68,1.38-2.53,2.05l-.08.07c-3.87,3.04-9.55,1.58-11.49-2.94-.07-.17-.15-.35-.23-.53-1.6-3.67-3.27-7.23-5-10.7l-.05-.1c-2.23-4.45-.92-9.88,3.14-12.75,6.54-4.62,12.78-10.14,18.71-16.54,6.9-7.45,12.87-15.47,17.91-24.04,1.34-2.28-.34-5.16-2.99-5.16h-30.48c-1.9,0-3.44-1.54-3.44-3.44v-19.11c0-1.9,1.54-3.44,3.44-3.44h15.31c1.9,0,3.44-1.54,3.44-3.44v-17.77c0-8.5,6.89-15.39,15.39-15.39h9.57c1.9,0,3.44,1.54,3.44,3.44v29.71c0,1.9,1.54,3.44,3.44,3.44h0c.24,0,.47-.02.7-.07l3.08-.64c.88-.18,1.8-.02,2.55.47l12.51,7.97c1.35.86,1.94,2.55,1.4,4.06-4.35,12.14-9.92,23.88-16.71,35.21-.89,1.49-.55,3.4.82,4.46,1.69,1.3,3.55,2.75,5.59,4.35,2.45,1.92,4.74,3.8,6.85,5.63.61.53,1.55.1,1.55-.7h0c0-.52.42-.93.93-.93ZM1129.9,130.36v17.31c0,1.9-1.54,3.44-3.44,3.44h-103.11c-1.9,0-3.44-1.54-3.44-3.44v-2.68c0-9.98,8.09-18.08,18.08-18.08h88.48c1.9,0,3.44,1.54,3.44,3.44ZM1121.1,159.96v46.11c0,1.9-1.54,3.44-3.44,3.44h-83.31c-1.9,0-3.44-1.54-3.44-3.44v-31.83c0-9.79,7.94-17.72,17.72-17.72h69.03c1.9,0,3.44,1.54,3.44,3.44ZM1047.7,242.36v2.31c0,1.9,1.54,3.44,3.44,3.44h7.11c1.9,0,3.44-1.54,3.44-3.44v-2.31c0-1.9-1.54-3.44-3.44-3.44h-7.11c-1.9,0-3.44,1.54-3.44,3.44ZM1051.15,278.71h7.11c1.9,0,3.44-1.54,3.44-3.44v-2.51c0-1.9-1.54-3.44-3.44-3.44h-7.11c-1.9,0-3.44,1.54-3.44,3.44v2.51c0,1.9,1.54,3.44,3.44,3.44ZM1090.86,178.11h-30.91c-1.9,0-3.44,1.54-3.44,3.44v2.91c0,1.9,1.54,3.44,3.44,3.44h30.91c1.9,0,3.44-1.54,3.44-3.44v-2.91c0-1.9-1.54-3.44-3.44-3.44ZM1098.06,238.91h-7.11c-1.9,0-3.44,1.54-3.44,3.44v2.31c0,1.9,1.54,3.44,3.44,3.44h7.11c1.9,0,3.44-1.54,3.44-3.44v-2.31c0-1.9-1.54-3.44-3.44-3.44ZM1101.5,275.27v-2.51c0-1.9-1.54-3.44-3.44-3.44h-7.11c-1.9,0-3.44,1.54-3.44,3.44v2.51c0,1.9,1.54,3.44,3.44,3.44h7.11c1.9,0,3.44-1.54,3.44-3.44Z"/>
      <g>
        <path class="cls-14" d="M917.55,221.38v7.5c0,5.05-4.09,9.15-9.15,9.15h-168.43c-4.06,0-7.35-3.29-7.35-7.35v-8.06c0-4.66,3.78-8.43,8.43-8.43h169.3c3.98,0,7.2,3.22,7.2,7.2Z"/>
        <ellipse class="cls-3" cx="825.09" cy="183.38" rx="55.57" ry="31.14"/>
      </g>
      <g>
        <g>
          <path class="cls-13" d="M823.97,115.97c-2.44,0-4.67-.66-6.69-1.98-2.02-1.32-3.82-3.13-5.4-5.43-1.58-2.3-2.95-4.97-4.11-8.01-1.16-3.04-2.13-6.28-2.91-9.72-.78-3.44-1.38-6.96-1.8-10.56s-.67-7.12-.75-10.56l9.6-1.38c.16,4.88.59,9.54,1.29,13.98.7,4.44,1.61,8.38,2.73,11.82,1.12,3.44,2.38,6.15,3.78,8.13,1.4,1.98,2.86,2.97,4.38,2.97,1.28,0,2.63-.91,4.05-2.73,1.42-1.82,2.57-4.25,3.45-7.29l5.76,10.14c-1.72,3.44-3.65,6.07-5.79,7.89-2.14,1.82-4.67,2.73-7.59,2.73ZM851.27,91.85c-.84-.84-1.91-1.86-3.21-3.06-1.3-1.2-2.76-2.48-4.38-3.84-1.62-1.36-3.33-2.67-5.13-3.93-1.8-1.26-3.64-2.37-5.52-3.33l6.36-7.38c1.64.84,3.33,1.86,5.07,3.06,1.74,1.2,3.44,2.47,5.1,3.81,1.66,1.34,3.18,2.62,4.56,3.84,1.38,1.22,2.53,2.29,3.45,3.21l-6.3,7.62Z"/>
          <path class="cls-13" d="M890.21,118.01l-6.96-7.5c3.4-1.04,6.34-2.4,8.82-4.08,2.48-1.68,4.41-3.56,5.79-5.64,1.38-2.08,2.07-4.22,2.07-6.42s-.76-3.95-2.28-5.13c-1.52-1.18-3.7-1.77-6.54-1.77-2.4,0-4.84.33-7.32.99s-4.92,1.49-7.32,2.49c-2.4,1-4.72,2-6.96,3l-3.78-8.7c2.32-1,4.89-2.02,7.71-3.06,2.82-1.04,5.78-1.92,8.88-2.64,3.1-.72,6.17-1.08,9.21-1.08,3.72,0,6.91.66,9.57,1.98,2.66,1.32,4.71,3.19,6.15,5.61,1.44,2.42,2.16,5.33,2.16,8.73,0,4.72-1.62,9.03-4.86,12.93-3.24,3.9-8.02,7.33-14.34,10.29Z"/>
        </g>
        <path class="cls-13" d="M932.32,117.17l-9.42-2.16c.12-1.68.38-3.62.78-5.82.4-2.2.87-4.4,1.41-6.6.54-2.2,1.04-4.15,1.5-5.85.46-1.7.81-2.89,1.05-3.57l8.82,2.76c-.68,2.04-1.28,4.33-1.8,6.87-.52,2.54-.97,5.07-1.35,7.59-.38,2.52-.71,4.78-.99,6.78ZM951.64,118.97l-7.5-6.96c1.08-.4,2.24-.93,3.48-1.59,1.24-.66,2.41-1.45,3.51-2.37,1.1-.92,2-1.97,2.7-3.15.7-1.18,1.05-2.49,1.05-3.93,0-1.8-.51-3.27-1.53-4.41-1.02-1.14-2.39-1.98-4.11-2.52-1.72-.54-3.62-.81-5.7-.81-.84,0-1.67.05-2.49.15-.82.1-1.61.25-2.37.45l-1.8-9.24c2.64-.64,4.87-1.47,6.69-2.49,1.82-1.02,3.21-2.06,4.17-3.12.96-1.06,1.44-1.97,1.44-2.73,0-1.04-.56-1.78-1.68-2.22-1.12-.44-2.52-.66-4.2-.66-1.48,0-3.06.15-4.74.45-1.68.3-3.28.73-4.8,1.29l-2.28-9c2.08-.6,4.1-1.04,6.06-1.32,1.96-.28,3.84-.42,5.64-.42,2.8,0,5.17.29,7.11.87,1.94.58,3.51,1.33,4.71,2.25,1.2.92,2.12,1.91,2.76,2.97.64,1.06,1.08,2.07,1.32,3.03.24.96.36,1.76.36,2.4,0,1.44-.37,2.83-1.11,4.17-.74,1.34-1.62,2.51-2.64,3.51-1.02,1-1.99,1.74-2.91,2.22,4.04,1.04,7.04,2.91,9,5.61,1.96,2.7,2.94,5.99,2.94,9.87,0,2.88-.63,5.43-1.89,7.65-1.26,2.22-2.88,4.15-4.86,5.79-1.98,1.64-4.09,3.06-6.33,4.26ZM967.66,76.43c-1.6,0-2.98-.58-4.14-1.74-1.16-1.16-1.74-2.54-1.74-4.14s.58-2.97,1.74-4.11c1.16-1.14,2.54-1.71,4.14-1.71s3.02.57,4.14,1.71,1.68,2.51,1.68,4.11-.56,2.98-1.68,4.14c-1.12,1.16-2.5,1.74-4.14,1.74ZM971.02,113.21c-.28-2.04-.73-4.35-1.35-6.93-.62-2.58-1.35-5.17-2.19-7.77-.84-2.6-1.76-4.9-2.76-6.9l8.22-3.48c.84,1.32,1.67,2.96,2.49,4.92.82,1.96,1.58,4.02,2.28,6.18.7,2.16,1.29,4.24,1.77,6.24.48,2,.82,3.68,1.02,5.04l-9.48,2.7ZM967.66,72.47c.52,0,.97-.19,1.35-.57.38-.38.57-.83.57-1.35s-.19-.97-.57-1.35c-.38-.38-.83-.57-1.35-.57s-.97.19-1.35.57c-.38.38-.57.83-.57,1.35s.19.97.57,1.35c.38.38.83.57,1.35.57Z"/>
        <path class="cls-13" d="M1027,117.77c-2.2-.68-4.65-1.5-7.35-2.46s-5.48-2.06-8.34-3.3c-2.86-1.24-5.64-2.6-8.34-4.08-2.7-1.48-5.13-3.06-7.29-4.74-4.56-3.44-6.84-6.74-6.84-9.9,0-1.64.55-3.32,1.65-5.04,1.1-1.72,2.75-3.58,4.95-5.58,1.08-.96,2.44-2.06,4.08-3.3,1.64-1.24,3.45-2.54,5.43-3.9,1.98-1.36,3.98-2.7,6-4.02,2.02-1.32,3.96-2.56,5.82-3.72,1.86-1.16,3.47-2.18,4.83-3.06l6.6,8.4c-2.6,1.36-5.19,2.79-7.77,4.29-2.58,1.5-5.04,2.99-7.38,4.47-2.34,1.48-4.44,2.88-6.3,4.2-1.86,1.32-3.37,2.46-4.53,3.42-1.32,1.16-1.98,2.26-1.98,3.3,0,.96.62,1.94,1.86,2.94,1.84,1.44,4.34,2.93,7.5,4.47,3.16,1.54,6.67,3,10.53,4.38s7.79,2.61,11.79,3.69l-4.92,9.54Z"/>
      </g>
    </g>
    <g>
      <g>
        <path class="cls-13" d="M481.42,825.93c0,20.56-81.27,60.53-176,60.53s-190.49-31.42-190.49-51.98,98.92-6.04,193.65-6.04,172.84-23.08,172.84-2.52Z"/>
        <g>
          <g>
            <g>
              <path class="cls-9" d="M246.22,852.2c-9.34,7.28-25.13,8.84-29.04,3.84-3.91-5,1.85-20.09,11.19-27.37s18.16-1.21,22.08,3.79c3.91,5,5.11,12.47-4.23,19.74Z"/>
              <path class="cls-13" d="M226.01,859.24c-4.08,0-7.46-.96-9.07-3.01-4.15-5.31,2.05-20.64,11.25-27.8,4.18-3.26,8.8-4.21,13.36-2.76,4.8,1.53,8,5.13,9.15,6.6,1.58,2.01,3.36,5.25,2.92,9.24-.43,3.87-2.86,7.55-7.2,10.94-5.57,4.34-13.87,6.8-20.4,6.8ZM237.33,825.61c-3.01,0-5.94,1.1-8.77,3.3-9.47,7.38-14.72,22.35-11.14,26.93,3.69,4.72,19.11,3.5,28.6-3.89,4.21-3.28,6.55-6.82,6.97-10.52.42-3.78-1.28-6.87-2.79-8.79-1.12-1.43-4.22-4.92-8.85-6.39-1.35-.43-2.69-.65-4.02-.65Z"/>
            </g>
            <g>
              <path class="cls-9" d="M361.33,852.2c9.34,7.28,25.13,8.84,29.04,3.84,3.91-5-1.85-20.09-11.19-27.37s-18.16-1.21-22.08,3.79-5.11,12.47,4.23,19.74Z"/>
              <path class="cls-13" d="M381.54,859.24c-6.53,0-14.84-2.46-20.4-6.8h0c-4.35-3.39-6.77-7.07-7.2-10.94-.45-3.99,1.34-7.23,2.92-9.24,1.15-1.48,4.36-5.07,9.15-6.6,4.56-1.45,9.18-.5,13.36,2.76,9.2,7.17,15.4,22.5,11.25,27.8-1.61,2.05-4.99,3.01-9.07,3.01ZM361.52,851.96c9.49,7.4,24.91,8.61,28.6,3.89,3.58-4.58-1.67-19.55-11.14-26.93-4.07-3.17-8.37-4.07-12.79-2.66-4.63,1.48-7.73,4.96-8.85,6.39-1.5,1.92-3.21,5.01-2.79,8.79.41,3.7,2.76,7.24,6.97,10.52Z"/>
            </g>
            <g>
              <path class="cls-3" d="M389.57,628.55c2.53-6.36,3.9-13.11,3.9-20.11,0-37.7-39.53-68.26-88.3-68.26s-88.3,30.56-88.3,68.26c0,4.71.62,9.31,1.79,13.76-26.98,24.18-44.08,60.06-44.08,100.11,0,72.83,56.52,131.87,126.23,131.87s126.23-59.04,126.23-131.87c0-36.68-14.34-69.86-37.48-93.76Z"/>
              <path class="cls-13" d="M300.82,854.8c-69.95,0-126.85-59.43-126.85-132.49,0-38.56,16.03-75.1,44-100.32-1.14-4.43-1.72-8.99-1.72-13.55,0-37.98,39.89-68.88,88.92-68.88s88.92,30.9,88.92,68.88c0,6.8-1.28,13.52-3.8,19.97,24.1,25.05,37.37,58.38,37.37,93.9,0,73.05-56.91,132.49-126.85,132.49ZM305.17,540.8c-48.35,0-87.68,30.34-87.68,67.64,0,4.58.6,9.15,1.77,13.6l.1.37-.28.25c-27.88,24.99-43.87,61.31-43.87,99.65,0,72.37,56.35,131.25,125.61,131.25s125.61-58.88,125.61-131.25c0-35.33-13.25-68.48-37.3-93.33l-.28-.29.15-.37c2.56-6.42,3.85-13.11,3.85-19.88,0-37.3-39.33-67.64-87.68-67.64Z"/>
            </g>
            <g>
              <path class="cls-18" d="M234.16,543.98l17.05,18.56c3.06,4.7,8.23,2.67,8.23,2.67l7.14-7.79c3.21-3.5,3.09-4.14-2.02-10.75l-20.28-5.14s-12.02-2.44-10.13,2.45Z"/>
              <path class="cls-24" d="M222.74,550.88l11.23,27.42c1.86,4.35,6.28,5.08,8.99.53l10.86-9.49c4.12-1.32,5.29-6.51,2.11-9.35l-16.34-14.55c-11.39-8.83-15.91,1.28-16.85,5.44Z"/>
              <g>
                <path class="cls-16" d="M233.96,579.55c-.3,0-.61-.11-.85-.34-3.87-3.62-9.84-17.51-9.89-27.8-.02-4.28,1-7.43,3.04-9.38,1.78-1.7,4.32-2.02,7.55-.94,9.66,3.21,24.43,19.01,25.31,24.29.11.68-.34,1.32-1.02,1.43-.67.11-1.32-.34-1.43-1.02-.59-3.54-14.27-19.23-23.65-22.34-2.29-.76-3.99-.63-5.05.38-1.52,1.46-2.29,4-2.27,7.57.05,9.36,5.71,22.82,9.1,26,.5.47.53,1.25.06,1.75-.24.26-.58.39-.91.39Z"/>
                <path class="cls-16" d="M266.58,558.66c-.15,0-.31-.03-.45-.09-.64-.25-.95-.97-.7-1.61,1.46-3.72.33-6.79-3.45-9.4-9.4-6.46-30.72-6.72-34.01-3.72-.51.46-1.29.43-1.76-.08-.46-.51-.43-1.29.08-1.75,4.43-4.03,26.83-3.54,37.09,3.51,4.75,3.26,6.26,7.53,4.36,12.35-.19.49-.66.79-1.16.79Z"/>
              </g>
            </g>
            <g>
              <path class="cls-18" d="M371.9,540.13l-17.05,18.56c-3.06,4.7-8.23,2.67-8.23,2.67l-7.14-7.79c-3.21-3.5-3.09-4.14,2.02-10.75l20.28-5.14s12.02-2.44,10.13,2.45Z"/>
              <path class="cls-24" d="M383.32,547.03l-11.23,27.42c-1.86,4.35-6.28,5.08-8.99.53l-10.86-9.49c-4.12-1.32-5.29-6.51-2.11-9.35l16.34-14.55c11.39-8.83,15.91,1.28,16.85,5.44Z"/>
              <g>
                <path class="cls-16" d="M372.09,575.7c-.33,0-.66-.13-.91-.39-.47-.5-.44-1.29.06-1.75,3.4-3.18,9.05-16.64,9.1-26,.02-3.57-.75-6.12-2.27-7.57-1.06-1.01-2.76-1.14-5.05-.38-9.38,3.11-23.05,18.8-23.65,22.34-.11.68-.75,1.13-1.43,1.02-.68-.11-1.14-.75-1.02-1.43.88-5.28,15.65-21.08,25.31-24.29,3.23-1.07,5.77-.76,7.55.94,2.04,1.95,3.06,5.1,3.04,9.38-.05,10.29-6.02,24.18-9.89,27.8-.24.22-.55.34-.85.34Z"/>
                <path class="cls-16" d="M339.47,554.81c-.52,0-1.01-.33-1.18-.85-1.68-5.02.11-9.41,5.16-12.69,10.44-6.78,31.98-7.06,36.32-3.11.51.46.54,1.25.08,1.75-.46.51-1.25.54-1.76.08-3.22-2.93-23.7-2.87-33.28,3.36-4.11,2.67-5.47,5.88-4.16,9.82.22.65-.13,1.35-.79,1.57-.13.04-.26.06-.39.06Z"/>
              </g>
            </g>
            <path class="cls-16" d="M320.32,635.44c-.32,0-.65,0-.99-.02-8.66-.36-11.37-3.3-13.16-5.25-.76-.83-1.18-1.26-1.74-1.36-.5-.09-1.11.48-2.15,1.48-2.11,2.04-5.29,5.13-12.37,5.13-9.64-.34-10.94-5.21-10.94-9.92,0-.69.56-1.24,1.24-1.24s1.24.56,1.24,1.24c0,3.76.65,7.17,8.5,7.44,6.03,0,8.67-2.56,10.6-4.43,1.3-1.26,2.53-2.46,4.31-2.15,1.42.24,2.26,1.16,3.15,2.13,1.6,1.74,3.8,4.13,11.43,4.45,4.58.19,7.61-1.11,8.32-3.56.4-1.4-.13-2.46-.37-2.65-.65-.07-1.14-.64-1.1-1.3.04-.68.62-1.21,1.31-1.17,1.65.09,2.9,2.07,2.78,4.41-.16,3.33-2.91,6.77-10.06,6.77Z"/>
            <path class="cls-24" d="M306.57,621.45l2.32-2.52c1.28-1.4-.19-3.21-2.6-3.21h-4.63c-2.41,0-3.88,1.82-2.6,3.21l2.32,2.52c1.2,1.31,3.99,1.31,5.19,0Z"/>
            <g>
              <ellipse class="cls-16" cx="276.96" cy="607.52" rx="5.11" ry="5.1"/>
              <ellipse class="cls-16" cx="330.39" cy="607.52" rx="5.11" ry="5.1"/>
            </g>
            <ellipse class="cls-20" cx="304.68" cy="759.33" rx="25.29" ry="25.24"/>
            <path class="cls-9" d="M372.95,749.78c-12.34,0-18.8-8.83-24.33-31.76-.4-1.67.62-3.34,2.29-3.74,1.67-.4,3.35.62,3.75,2.29,6.53,27.06,13.13,28.12,22.44,26.64,11.01-1.74,14.38-27.73,13.89-35.38-.11-1.71,1.19-3.19,2.9-3.29,1.71-.11,3.19,1.19,3.3,2.9.32,5.05-1.55,39.12-19.12,41.9-1.82.29-3.52.44-5.13.44Z"/>
            <path class="cls-9" d="M234.02,749.78c-12.34,0-18.8-8.83-24.33-31.76-.4-1.67.62-3.34,2.29-3.74,1.67-.4,3.35.62,3.75,2.29,6.53,27.06,13.13,28.12,22.44,26.64,11.01-1.74,14.38-27.73,13.89-35.38-.11-1.71,1.19-3.19,2.9-3.29,1.71-.11,3.19,1.19,3.3,2.9.32,5.05-1.55,39.12-19.12,41.9-1.82.29-3.52.44-5.13.44Z"/>
          </g>
          <ellipse class="cls-19" cx="300.82" cy="758.47" rx="42.43" ry="44.84"/>
        </g>
      </g>
      <g>
        <path class="cls-16" d="M169.05,502.64c-2.4,0-4.59-.65-6.58-1.94-1.99-1.3-3.76-3.07-5.31-5.33-1.55-2.26-2.9-4.88-4.04-7.86-1.14-2.98-2.1-6.16-2.86-9.54-.77-3.38-1.36-6.83-1.77-10.37s-.66-6.99-.74-10.37l9.44-1.35c.16,4.79.58,9.37,1.27,13.72.69,4.36,1.58,8.23,2.69,11.6,1.1,3.38,2.34,6.04,3.72,7.98,1.38,1.94,2.81,2.92,4.31,2.92,1.26,0,2.59-.89,3.98-2.68,1.4-1.79,2.53-4.17,3.39-7.16l5.67,9.95c-1.69,3.38-3.59,5.96-5.7,7.75-2.11,1.79-4.59,2.68-7.47,2.68ZM195.91,478.96c-.83-.82-1.88-1.83-3.16-3-1.28-1.18-2.72-2.43-4.31-3.77-1.59-1.33-3.28-2.62-5.05-3.86-1.77-1.24-3.58-2.33-5.43-3.27l6.26-7.24c1.61.82,3.28,1.83,4.99,3,1.71,1.18,3.38,2.42,5.02,3.74,1.63,1.32,3.13,2.57,4.49,3.77,1.36,1.2,2.49,2.25,3.39,3.15l-6.2,7.48Z"/>
        <path class="cls-16" d="M211.37,488.03c.55-3.49,1.17-6.81,1.86-9.95.69-3.14,1.45-6.16,2.27-9.07-3.03.51-5.65,1.08-7.85,1.71l-.06-8.36c1.3-.39,2.87-.78,4.72-1.15,1.85-.37,3.86-.7,6.02-.97.51-1.41,1.04-2.8,1.59-4.15.55-1.35,1.12-2.7,1.71-4.03l9.33.06c-.59,1.26-1.14,2.47-1.65,3.65-.51,1.18-1,2.34-1.48,3.48,2.64-.2,5.27-.35,7.91-.47,2.64-.12,5.15-.18,7.55-.18,1.97,0,3.82.04,5.55.12,1.73.08,3.27.2,4.6.35l-.89,8.72c-1.93-.27-3.97-.47-6.11-.59-2.14-.12-4.32-.18-6.52-.18-2.52,0-5.06.07-7.61.21-2.56.14-5.06.32-7.5.56-.55,1.77-1.01,3.38-1.39,4.83-.37,1.45-.7,2.71-.97,3.77.98-.63,2.29-1.26,3.92-1.88,1.63-.63,3.42-1.16,5.37-1.59,1.95-.43,3.91-.65,5.87-.65,3.78,0,7.01.65,9.71,1.94,2.69,1.3,4.75,3.04,6.17,5.24,1.42,2.2,2.12,4.69,2.12,7.48,0,2.12-.51,4.2-1.53,6.24-1.02,2.04-2.47,3.95-4.34,5.71-1.87,1.77-4.06,3.29-6.58,4.56-2.52,1.28-5.27,2.21-8.26,2.8l-6.85-7.07c1.14-.12,2.51-.4,4.1-.85,1.59-.45,3.24-1.06,4.93-1.83,1.69-.77,3.26-1.64,4.69-2.62,1.44-.98,2.61-2.05,3.51-3.21.9-1.16,1.36-2.39,1.36-3.68,0-1.49-.43-2.71-1.3-3.65-.87-.94-1.99-1.63-3.36-2.06-1.38-.43-2.83-.65-4.37-.65-.75,0-1.71.05-2.89.15-1.18.1-2.54.39-4.07.88-1.53.49-3.21,1.29-5.02,2.39-1.81,1.1-3.76,2.63-5.84,4.59l-8.44-.59Z"/>
        <path class="cls-16" d="M313.89,497.98c-3.82,1.69-7.77,2.98-11.86,3.89-4.09.9-8.01,1.35-11.75,1.35-4.01,0-7.66-.56-10.95-1.68-3.29-1.12-5.9-2.87-7.85-5.24-1.95-2.38-2.92-5.43-2.92-9.16v-.59l8.38-2.59v.71c0,2.16.55,3.89,1.65,5.18,1.1,1.3,2.58,2.22,4.43,2.77,1.85.55,3.91.82,6.2.82,2.44,0,4.98-.24,7.61-.74,2.64-.49,5.18-1.13,7.64-1.91,2.46-.79,4.61-1.61,6.46-2.47l2.95,9.66ZM307.28,469.71c-1.77-.9-3.82-1.63-6.14-2.18-2.32-.55-4.77-.96-7.35-1.24-2.58-.27-5.14-.41-7.7-.41-2.16,0-4.28.1-6.34.29-2.07.2-3.95.47-5.64.82l-1-9.42c2.56-.59,5.07-1.02,7.53-1.3,2.46-.27,4.87-.41,7.23-.41,4.33,0,8.4.43,12.22,1.3,3.82.86,7.14,2.08,9.97,3.65l-2.77,8.89ZM310.47,459.23c-.28-.35-.67-.95-1.18-1.8-.51-.84-1-1.73-1.48-2.65-.47-.92-.79-1.68-.94-2.27l3.78-1.47c.31.82.76,1.79,1.33,2.89.57,1.1,1.19,2.04,1.86,2.83l-3.36,2.47ZM317.2,458.34c-.35-.31-.84-.81-1.45-1.5-.61-.69-1.19-1.43-1.74-2.24-.55-.8-.94-1.48-1.18-2.03l3.31-2.24c.43.75,1.03,1.61,1.8,2.59.77.98,1.54,1.81,2.33,2.47l-3.07,2.94Z"/>
      </g>
    </g>
    <g>
      <g>
        <g>
          <path class="cls-13" d="M768.45,837.32c-3.4,29.48-64.18,53.72-143.34,53.72s-139.78-24.27-143.34-53.72c-5.84-48.26,64.18-53.72,143.34-53.72s148.53,8.78,143.34,53.72Z"/>
          <ellipse class="cls-6" cx="625.11" cy="819.89" rx="143.34" ry="53.72"/>
        </g>
        <g>
          <path class="cls-10" d="M561.79,709.59c1.19,9.43,3.19,18.39,5.93,26.66-.24.36-.3.84-.06,1.27,4.04,8.54,7.98,18.72,13.45,25.69.53,3.5,1.07,2.48,1.62,2.18,1.02,1.66,2.92,2.7,3.04,4.74.68-1.06,1.36,6,2.05,3.7.69-.97,1.39-1,2.1,3.78.71,1.9,1.42,2.23,2.14,3.84.72-1.36,1.44,3.48,2.16,4.26.72-3.84,1.45,4.36,2.18,3.55.77,4.76,1.53,2.2,2.3,4.14.77,3.02,1.53-1.97,2.29,4.03.76.94,1.52,1.53,2.27,4.01,1.77-1.14,3.19,12.47,4.44,8.17.72,5.78,1.44,6.86,2.14,3.63,1.12-2.73,2.58,10.64,5.98,11.01,1.93,4.95,4.18,5.7,6,10.56,1.14,5.82,2.13,3.96,2.94,5.53,1.63,2.4,2.56,5.35,2.56,4.62.46,1,1.66,1.4,2.12,0,0,1.63.93.17,2.56-4.62.82.37,1.81-3.85,2.94-5.14,1.95-12.53,4.53-2.06,6-11.2.75-2.17,1.53,1.97,2.33-4.03.8.11,1.62-2.29,2.47-4.39.84,1.56,1.7-3.95,2.57-4.61.87,2.39,1.76-11.23,2.66-4.79.9-.61,1.81-7.64,2.73-4.91.92,2.44,1.84,2.11,2.77-4.99.93-6.31,1.86-3.43,2.79-5.03.93-3.78,1.86-.61,2.79-5.03.93-8.37,1.85-1.39,2.77-4.99.92-2.83,1.83-8.3,2.73-4.91.88-2.48,1.86,1.28,2.68-4.86,42.02-42.65,29.2-136.78-41.86-141.36-36.77,0-72.09,35.94-66.59,79.51Z"/>
          <path class="cls-24" d="M579.39,825.03c-7.81,6.09-21.02,7.39-24.29,3.21-3.27-4.18,1.55-16.81,9.36-22.9,7.81-6.09,15.2-1.01,18.47,3.17,3.27,4.18,4.27,10.43-3.54,16.52Z"/>
          <path class="cls-13" d="M562.48,830.92c-3.41,0-6.24-.8-7.59-2.52-3.47-4.44,1.71-17.27,9.41-23.26,3.5-2.73,7.36-3.52,11.18-2.31,4.01,1.28,6.69,4.29,7.66,5.52,1.32,1.68,2.81,4.39,2.44,7.73-.36,3.24-2.39,6.32-6.03,9.15-4.66,3.63-11.6,5.69-17.07,5.69ZM571.96,802.78c-2.52,0-4.97.92-7.33,2.76-7.92,6.17-12.32,18.7-9.32,22.53,3.09,3.95,15.99,2.93,23.93-3.26,3.52-2.74,5.48-5.7,5.83-8.8.35-3.16-1.07-5.75-2.33-7.35-.94-1.2-3.53-4.11-7.41-5.35-1.13-.36-2.25-.54-3.36-.54Z"/>
          <path class="cls-24" d="M675.7,825.03c7.81,6.09,21.02,7.39,24.29,3.21s-1.55-16.81-9.36-22.9c-7.81-6.09-15.2-1.01-18.47,3.17-3.27,4.18-4.27,10.43,3.54,16.52Z"/>
          <path class="cls-13" d="M692.61,830.92c-5.47,0-12.41-2.06-17.07-5.69h0c-3.64-2.83-5.66-5.91-6.03-9.15-.37-3.34,1.12-6.05,2.44-7.73.97-1.23,3.65-4.24,7.66-5.52,3.81-1.21,7.68-.42,11.18,2.31,7.69,6,12.88,18.82,9.41,23.26-1.34,1.72-4.18,2.52-7.59,2.52ZM675.86,824.82c7.94,6.19,20.84,7.21,23.93,3.26,3-3.83-1.4-16.36-9.32-22.53-3.41-2.65-7-3.4-10.7-2.22-3.87,1.24-6.47,4.15-7.41,5.35-1.26,1.61-2.69,4.19-2.33,7.35.35,3.09,2.31,6.05,5.83,8.8Z"/>
          <path class="cls-24" d="M699.33,637.91c2.12-5.32,3.26-10.97,3.26-16.83,0-31.54-33.08-57.11-73.88-57.11s-73.88,25.57-73.88,57.11c0,3.94.52,7.79,1.5,11.51-22.57,20.23-36.88,50.25-36.88,83.76,0,60.93,47.28,110.33,105.61,110.33s105.61-49.39,105.61-110.33c0-30.69-12-58.44-31.36-78.44Z"/>
          <path class="cls-13" d="M625.07,824.41c-4.11,0-8.43,4.85-12.42,4.38s-7.28-5.6-11.19-6.55-9.22,2.24-13,.82-6.9-4.93-10.49-6.78-7.33-3.71-10.69-5.98-6.62-4.85-9.71-7.48-6.44-5.16-9.22-8.12-2.18-8.63-4.62-11.89-9.31-3.51-11.38-7.02-2.42-8.08-4.11-11.8-1.24-8.19-2.51-12.07-3.33-7.41-4.19-11.41.26-8.12-.16-12.19-.44-7.86-.44-11.96-3.73-8.08-3.33-11.97,1.72-7.87,2.52-11.71,5.52-6.62,6.71-10.36,1.16-7.76,2.73-11.36,4.66-6.24,6.59-9.65,1.01-8.56,3.3-11.75,3.64-7.36,6.27-10.3,5-4.84,7.93-7.48c-.95-3.71-2.01-6.87-2.01-10.68s1.12-8.28,2.08-11.98,4.92-6.52,6.77-9.94,4.19-6.22,6.74-9.2,5.96-4.42,9.02-6.9,3.41-8.57,6.82-10.54,6.99-4.01,10.64-5.47,7.81-1.73,11.62-2.69,8.11,1.6,12,1.13,7.45-.33,11.38-.33,7.93-2.7,11.69-2.25,7.64,2.02,11.32,2.94,7.52,2.2,11.04,3.6,6.44,4.46,9.71,6.34c3.41,1.97,7.39,2.89,10.32,5.27s3.59,7.18,6.04,10.05c2.55,2.99,6.02,4.85,7.83,8.19s1.47,7.28,2.44,10.99,1.96,6.86,1.96,10.78c0,5.69,3.72,11.06,1.62,16.46,2.88,2.99,4.45,5.13,6.96,8.39s5.23,6.73,7.36,10.26,4.59,7.23,6.32,10.98,1.66,8.43,2.97,12.36,3.53,7.75,4.4,11.8-1.35,8.62-.92,12.75,2.39,8.11,2.39,12.27-2.32,8.04-2.73,12.03,2.41,8.7,1.57,12.63-6.51,6.68-7.76,10.5.19,8.71-1.48,12.39c-1.68,3.72-3.91,7.2-5.96,10.68s-5.26,6.24-7.68,9.48-3.99,7.25-6.76,10.2-7.84,3.39-10.92,6.02-5.58,5.67-8.95,7.94-4.58,8.33-8.19,10.19-9.15-.42-12.96,1.01-6.63,6.13-10.6,7.1-8.15,1.93-12.22,2.41-8.33-4.52-12.44-4.52ZM628.71,561.71c-3.86,0-7.38,5.33-11.08,5.78s-8.37-3.23-11.99-2.33-5.94,6.48-9.4,7.86-7.68,1.23-10.9,3.08-6.25,4.26-9.14,6.6-5.71,4.92-8.13,7.74-4.17,6.16-5.95,9.44-7.11,5.57-8.07,9.23,4.03,8.13,4.03,11.99-1.34,7.42-.35,11.14c.04.15-1.84.07-1.88.22s.92.39.8.49c-2.92,2.62-7,4.22-9.6,7.12s-5.34,6.01-7.62,9.18-1.08,8.6-3.02,12-4.24,6.43-5.81,10.01-6.59,5.94-7.78,9.68-.84,8.05-1.64,11.89-2.99,7.64-3.39,11.55,2.94,8.06,2.94,11.99,1.74,7.84,2.16,11.8.92,7.79,1.76,11.68,2.28,7.47,3.53,11.26,2.13,7.55,3.78,11.18,1.14,8.39,3.17,11.83,4.05,7.07,6.45,10.27,4.08,7.3,6.82,10.22,8.99,2.2,12.04,4.8,6.19,4.62,9.52,6.86,6.03,5.02,9.61,6.86,5.87,6.47,9.65,7.88,7.66,2.98,11.59,3.94,8.38-1.23,12.41-.75,7.81,1.54,11.88,1.54,8.04-.2,11.98-.67,8.29.26,12.17-.69,7.37-3.58,11.12-4.99,8.79-.36,12.35-2.2,6.29-5.56,9.62-7.8,7.78-3.37,10.84-5.98,5.76-5.97,8.51-8.91,1.62-9.06,4.04-12.29c2.4-3.2,5.07-5.94,7.13-9.42s3.52-6.94,5.19-10.62,2.6-7.29,3.87-11.13,3.97-7.01,4.81-10.97.32-7.88.74-11.92,3.54-7.75,3.54-11.81-1.96-8.14-2.39-12.2.99-8.51.12-12.5-5.35-6.99-6.64-10.87,1.6-9.48-.13-13.2-6.45-5.97-8.58-9.48-4.12-7.04-6.63-10.3-4.34-7.1-7.22-10.06c-.12-.12-1.35.58-1.38.41s3.06.68,3.12.53c2.14-5.37,2.49-11.92,2.49-17.59,0-3.85-5.01-6.87-5.97-10.51s1.69-8.6-.14-11.97-6.91-4.26-9.43-7.19-4.99-5.02-8-7.46-4.56-6.26-7.93-8.18-5.86-5.45-9.46-6.87-8,.07-11.75-.87-7.41-.26-11.25-.73-7.24-5.59-11.1-5.59Z"/>
          <path class="cls-25" d="M569.3,567.15l14.27,15.53c2.56,3.93,6.89,2.23,6.89,2.23l5.97-6.52c2.68-2.93,2.59-3.46-1.69-9l-16.97-4.3s-10.05-2.04-8.47,2.05Z"/>
          <path class="cls-24" d="M559.75,572.93l9.39,22.94c1.56,3.64,5.25,4.25,7.52.44l9.09-7.94c3.45-1.11,4.43-5.45,1.76-7.82l-13.67-12.17c-9.53-7.39-13.31,1.07-14.09,4.55Z"/>
          <path class="cls-16" d="M569.14,596.91c-.26,0-.51-.09-.71-.28-3.24-3.03-8.23-14.65-8.27-23.26-.02-3.58.84-6.22,2.54-7.84,1.49-1.42,3.62-1.69,6.32-.79,8.09,2.68,20.44,15.9,21.18,20.32.09.57-.29,1.1-.86,1.19-.56.09-1.1-.29-1.2-.85-.49-2.96-11.94-16.08-19.78-18.69-1.91-.64-3.34-.53-4.22.32-1.28,1.22-1.91,3.35-1.9,6.33.04,7.83,4.77,19.09,7.61,21.75.42.39.44,1.05.05,1.47-.2.22-.48.33-.76.33Z"/>
          <path class="cls-16" d="M596.43,579.44c-.13,0-.26-.02-.38-.07-.53-.21-.8-.81-.59-1.35,1.23-3.11.28-5.68-2.89-7.86-7.87-5.4-25.7-5.62-28.45-3.11-.42.39-1.08.36-1.47-.07-.39-.42-.36-1.08.07-1.47,3.71-3.38,22.45-2.96,31.03,2.94,3.97,2.73,5.23,6.3,3.65,10.33-.16.41-.55.66-.97.66Z"/>
          <path class="cls-25" d="M684.54,563.93l-14.27,15.53c-2.56,3.93-6.89,2.23-6.89,2.23l-5.97-6.52c-2.68-2.93-2.59-3.46,1.69-9l16.97-4.3s10.05-2.04,8.47,2.05Z"/>
          <path class="cls-24" d="M694.1,569.71l-9.39,22.94c-1.56,3.64-5.25,4.25-7.52.44l-9.09-7.94c-3.45-1.11-4.43-5.45-1.76-7.82l13.67-12.17c9.53-7.39,13.31,1.07,14.09,4.55Z"/>
          <path class="cls-16" d="M684.7,593.69c-.28,0-.55-.11-.76-.33-.39-.42-.37-1.08.05-1.47,2.84-2.66,7.58-13.92,7.61-21.75.02-2.99-.62-5.12-1.9-6.33-.89-.85-2.31-.96-4.22-.32-7.84,2.61-19.29,15.73-19.78,18.69-.09.57-.63.95-1.2.85-.57-.09-.95-.63-.86-1.19.74-4.42,13.09-17.63,21.18-20.32,2.7-.9,4.83-.63,6.32.79,1.71,1.63,2.56,4.27,2.54,7.84-.04,8.61-5.04,20.23-8.27,23.26-.2.19-.46.28-.71.28Z"/>
          <path class="cls-16" d="M657.41,576.22c-.44,0-.84-.27-.99-.71-1.41-4.2.09-7.87,4.32-10.61,8.73-5.67,26.75-5.91,30.38-2.6.42.39.45,1.04.07,1.47-.39.42-1.05.45-1.47.07-2.69-2.45-19.83-2.4-27.85,2.81-3.44,2.23-4.58,4.92-3.48,8.22.18.54-.11,1.13-.66,1.31-.11.04-.22.05-.33.05Z"/>
          <path class="cls-16" d="M641.39,643.68c-.27,0-.54,0-.83-.02-7.25-.3-9.51-2.76-11.01-4.39-.64-.69-.99-1.06-1.45-1.14-.42-.07-.93.4-1.8,1.24-1.76,1.71-4.42,4.29-10.35,4.29-8.07-.29-9.15-4.36-9.15-8.3,0-.57.47-1.04,1.04-1.04s1.04.46,1.04,1.04c0,3.15.54,5.99,7.11,6.23,5.05,0,7.25-2.14,8.86-3.7,1.09-1.06,2.12-2.06,3.61-1.8,1.19.2,1.89.97,2.63,1.78,1.34,1.46,3.18,3.46,9.56,3.72,3.83.16,6.37-.92,6.96-2.98.34-1.17-.1-2.06-.31-2.22-.54-.06-.95-.54-.92-1.09.03-.57.52-1.01,1.1-.98,1.38.08,2.42,1.73,2.33,3.69-.14,2.79-2.43,5.67-8.42,5.67Z"/>
          <path class="cls-6" d="M629.88,631.97l1.94-2.11c1.07-1.17-.16-2.69-2.17-2.69h-3.87c-2.02,0-3.25,1.52-2.17,2.69l1.94,2.11c1.01,1.1,3.34,1.1,4.35,0Z"/>
          <ellipse class="cls-16" cx="605.11" cy="620.31" rx="4.27" ry="4.27"/>
          <ellipse class="cls-16" cx="649.81" cy="620.31" rx="4.27" ry="4.27"/>
          <path class="cls-25" d="M685.42,739.33c-10.32,0-15.73-7.39-20.36-26.57-.34-1.39.52-2.8,1.92-3.13,1.4-.34,2.8.52,3.14,1.92,5.47,22.64,10.98,23.52,18.78,22.29,9.22-1.46,12.03-23.2,11.62-29.6-.09-1.43,1-2.66,2.43-2.76,1.43-.09,2.67.99,2.76,2.42.27,4.22-1.3,32.73-16,35.06-1.52.24-2.95.37-4.29.37Z"/>
          <path class="cls-25" d="M569.19,739.33c-10.32,0-15.73-7.39-20.36-26.57-.34-1.39.52-2.8,1.92-3.13,1.4-.34,2.8.52,3.14,1.92,5.47,22.64,10.98,23.52,18.78,22.29,9.22-1.46,12.03-23.2,11.62-29.6-.09-1.43,1-2.66,2.43-2.76,1.43-.09,2.67.99,2.76,2.42.27,4.22-1.3,32.73-16,35.06-1.52.24-2.95.37-4.29.37Z"/>
          <g>
            <ellipse class="cls-24" cx="625.43" cy="545.44" rx="6.98" ry="16.91"/>
            <path class="cls-25" d="M619.4,545.44c0,8.02,4.46,14.52,0,14.52s-8.08-6.5-8.08-14.52,3.62-14.52,8.08-14.52,0,6.5,0,14.52Z"/>
            <path class="cls-25" d="M630.74,542.33c0,9.74-4.46,17.63,0,17.63,4.46,0,8.08-7.89,8.08-17.63s-3.62-17.63-8.08-17.63c-4.46,0,0,7.89,0,17.63Z"/>
            <path class="cls-6" d="M637.12,563.72h-.18l-6.98-12.32-4.56,8.04-4.56-8.04-6.98,12.32h-.18l.12.1-.12.21h.37l10.18,8.57c1.43,5.02,2.98,9.28,3.08,9.57l1.53-.55c-.02-.07-1.41-3.9-2.78-8.57l10.69-9h.37l-.12-.21.12-.1Z"/>
          </g>
        </g>
      </g>
      <g>
        <path class="cls-16" d="M543.34,474.37l-2.54-8.72c2.44-.75,5.6-1.47,9.47-2.18,3.88-.71,7.96-1.33,12.25-1.88-1.26-3.1-2.32-6.16-3.19-9.19l9.15-1.3c.39,1.49.88,3.03,1.45,4.62.57,1.59,1.21,3.21,1.92,4.86,2.32-.2,4.58-.35,6.79-.47,2.2-.12,4.23-.18,6.08-.18,1.73,0,3.25.06,4.54.18l.35,9.19c-1.46-.12-3.15-.18-5.08-.18-1.26,0-2.6.03-4.01.09s-2.87.13-4.37.21c1.57,2.83,3.31,5.53,5.22,8.1,1.91,2.57,3.94,4.88,6.11,6.92l-6.79,6.6c-2.75-2.79-5.33-5.97-7.73-9.54-2.4-3.57-4.58-7.3-6.55-11.19-2.95.35-5.86.75-8.74,1.18-2.87.43-5.54.89-8,1.38-2.46.49-4.57.99-6.34,1.5ZM569.14,505.3c-4.21-.28-8.11-1.15-11.69-2.62-3.58-1.47-6.7-3.39-9.36-5.74-2.66-2.36-4.73-4.97-6.23-7.83l7.97-4.65c.63,1.06,1.54,2.25,2.74,3.56,1.2,1.32,2.72,2.58,4.57,3.8,1.85,1.22,4.03,2.23,6.55,3.03,2.52.81,5.39,1.27,8.62,1.38l-3.19,9.07Z"/>
        <path class="cls-16" d="M640.38,504.77c-2.16-.67-4.57-1.47-7.23-2.41-2.66-.94-5.39-2.02-8.2-3.24-2.81-1.22-5.55-2.55-8.2-4-2.66-1.45-5.05-3-7.17-4.65-4.49-3.38-6.73-6.62-6.73-9.72,0-1.61.54-3.26,1.62-4.95,1.08-1.69,2.7-3.51,4.87-5.48,1.06-.94,2.4-2.02,4.01-3.24,1.61-1.22,3.39-2.49,5.34-3.83,1.95-1.33,3.91-2.65,5.9-3.95,1.99-1.3,3.9-2.51,5.73-3.65,1.83-1.14,3.41-2.14,4.75-3l6.49,8.25c-2.56,1.34-5.11,2.74-7.64,4.21-2.54,1.47-4.96,2.94-7.26,4.39-2.3,1.45-4.37,2.83-6.2,4.12-1.83,1.3-3.32,2.41-4.46,3.36-1.3,1.14-1.95,2.22-1.95,3.24,0,.94.61,1.9,1.83,2.89,1.81,1.41,4.27,2.88,7.38,4.39,3.11,1.51,6.56,2.94,10.36,4.3s7.66,2.56,11.6,3.62l-4.84,9.37Z"/>
        <path class="cls-16" d="M686.06,505.77l-6.14-7.89c2.36-.43,4.62-1,6.79-1.71,2.16-.71,4.1-1.54,5.81-2.5,1.71-.96,3.06-2.04,4.04-3.24.98-1.2,1.48-2.52,1.48-3.98,0-2-.79-3.53-2.36-4.59-1.57-1.06-3.6-1.59-6.08-1.59-1.77,0-3.89.32-6.35.97-2.46.65-5.07,1.72-7.82,3.21-2.76,1.49-5.45,3.48-8.09,5.95l-8.2-.94c.47-3.69,1.04-7.16,1.71-10.4.67-3.24,1.52-6.4,2.57-9.48,1.04-3.08,2.29-6.21,3.75-9.39l8.5,3.65c-1.73,3.26-3,6.1-3.81,8.51-.81,2.42-1.39,4.47-1.74,6.16,1.38-1.26,3.13-2.35,5.25-3.27,2.12-.92,4.43-1.64,6.91-2.15,2.48-.51,4.92-.77,7.32-.77,2.2,0,4.37.28,6.49.82,2.12.55,4.06,1.39,5.81,2.53,1.75,1.14,3.15,2.59,4.19,4.36,1.04,1.77,1.56,3.89,1.56,6.36s-.59,4.89-1.77,7.01c-1.18,2.12-2.77,4-4.78,5.62-2.01,1.63-4.31,3.01-6.91,4.15-2.6,1.14-5.31,2-8.14,2.59ZM695.56,463.77c-1.97,0-4.07-.16-6.32-.47-2.24-.31-4.44-.72-6.58-1.21-2.15-.49-4.08-1.01-5.81-1.56-1.73-.55-3.09-1.06-4.07-1.53l3.72-8.13c.94.51,2.23,1,3.87,1.47,1.63.47,3.44.9,5.43,1.3,1.99.39,3.97.7,5.96.91,1.99.22,3.79.32,5.4.32h1.24l-.94,8.83c-.28.04-.58.06-.92.06h-.97Z"/>
      </g>
    </g>
    <g>
      <g>
        <g>
          <path class="cls-13" d="M602.19,1081.17c-3.4,29.48-64.18,53.72-143.34,53.72s-139.78-24.27-143.34-53.72c-5.84-48.26,64.18-53.72,143.34-53.72s148.53,8.78,143.34,53.72Z"/>
          <ellipse class="cls-23" cx="458.85" cy="1063.75" rx="143.34" ry="53.72"/>
        </g>
        <g>
          <g>
            <path class="cls-15" d="M399.64,1066.79c-9.45,7.37-25.43,8.94-29.39,3.89-3.96-5.06,1.88-20.34,11.33-27.7,9.45-7.37,18.39-1.22,22.34,3.83s5.17,12.62-4.28,19.98Z"/>
            <path class="cls-13" d="M379.18,1073.92c-4.13,0-7.55-.97-9.18-3.05-4.2-5.37,2.07-20.89,11.38-28.14,4.23-3.3,8.91-4.26,13.52-2.79,4.85,1.55,8.1,5.19,9.26,6.68,1.6,2.04,3.4,5.32,2.95,9.35-.44,3.92-2.89,7.64-7.29,11.07-5.63,4.39-14.04,6.88-20.65,6.88ZM390.64,1039.88c-3.04,0-6.01,1.12-8.87,3.34-9.59,7.47-14.9,22.62-11.28,27.26,3.74,4.78,19.34,3.55,28.95-3.94,4.26-3.32,6.63-6.9,7.05-10.64.43-3.83-1.3-6.95-2.82-8.9-1.13-1.45-4.27-4.98-8.96-6.47-1.37-.44-2.73-.65-4.07-.65Z"/>
          </g>
          <g>
            <path class="cls-15" d="M516.15,1066.79c9.45,7.37,25.43,8.94,29.39,3.89,3.96-5.06-1.88-20.34-11.33-27.7-9.45-7.37-18.39-1.22-22.34,3.83s-5.17,12.62,4.28,19.98Z"/>
            <path class="cls-13" d="M536.61,1073.92c-6.61,0-15.02-2.49-20.65-6.88h0c-4.4-3.43-6.85-7.15-7.29-11.07-.45-4.04,1.36-7.32,2.95-9.35,1.17-1.49,4.41-5.13,9.26-6.68,4.61-1.47,9.29-.5,13.52,2.79,9.31,7.25,15.59,22.77,11.38,28.14-1.63,2.08-5.06,3.05-9.18,3.05ZM516.34,1066.54c9.61,7.49,25.21,8.72,28.95,3.94,3.63-4.64-1.69-19.79-11.28-27.26-4.12-3.21-8.47-4.12-12.94-2.69-4.69,1.49-7.83,5.02-8.96,6.47-1.52,1.95-3.25,5.07-2.82,8.9.42,3.74,2.79,7.32,7.05,10.64Z"/>
          </g>
          <g>
            <path class="cls-12" d="M458.81,1066.06c-70.8,0-128.4-60.16-128.4-134.1,0-39.03,17.87-68.06,46.18-93.59-1.15-4.49-1.64-7.96-3.38-21.67-4.84-38.14,63.48-51.52,85.6-52.92,21.57-1.36,94.41,14.47,94.41,52.92,0,6.88-3.52,20.8-6.07,27.33,24.4,25.36,40.06,51.98,40.06,87.93,0,73.94-57.6,134.1-128.4,134.1Z"/>
            <path class="cls-13" d="M458.81,1066.5c-71.04,0-128.84-60.36-128.84-134.54,0-35.5,14.66-65.3,46.13-93.74-1.09-4.31-1.6-7.85-3.32-21.47-1.06-8.36,1.31-16.11,7.03-23.02,18.12-21.88,64.25-29.46,78.98-30.39,16.76-1.06,61.12,7.83,82.57,27.93,8.17,7.65,12.31,16.21,12.31,25.43,0,7.03-3.57,20.88-6,27.23,27.65,28.8,39.98,55.96,39.98,88.03,0,74.19-57.8,134.54-128.84,134.54ZM461.72,764.14c-1.03,0-1.99.03-2.88.08-14.63.93-60.43,8.44-78.35,30.08-5.57,6.72-7.87,14.24-6.84,22.35,1.76,13.85,2.24,17.23,3.37,21.62l.07.26-.2.18c-31.41,28.32-46.03,57.95-46.03,93.26,0,73.7,57.4,133.66,127.96,133.66s127.96-59.96,127.96-133.66c0-31.9-12.32-58.92-39.93-87.62l-.2-.2.1-.26c2.4-6.16,6.04-20.14,6.04-27.17,0-8.97-4.05-17.31-12.03-24.79-20.14-18.86-60.65-27.77-79.03-27.77Z"/>
          </g>
          <g>
            <path class="cls-12" d="M388.92,763.79l17.26,18.78c3.09,4.76,8.33,2.7,8.33,2.7l7.23-7.89c3.25-3.54,3.13-4.19-2.04-10.88l-20.53-5.2s-12.16-2.46-10.25,2.48Z"/>
            <path class="cls-14" d="M377.36,770.77l11.36,27.76c1.88,4.4,6.35,5.14,9.1.53l11-9.61c4.17-1.34,5.35-6.59,2.13-9.46l-16.54-14.73c-11.53-8.94-16.11,1.3-17.05,5.51Z"/>
            <g>
              <path class="cls-16" d="M388.72,799.78c-.31,0-.62-.11-.86-.34-3.92-3.66-9.96-17.72-10.01-28.14-.02-4.33,1.01-7.52,3.08-9.49,1.8-1.72,4.37-2.04,7.65-.96,9.78,3.25,24.73,19.24,25.62,24.58.11.68-.35,1.33-1.03,1.45-.68.11-1.33-.35-1.45-1.03-.6-3.58-14.44-19.46-23.93-22.61-2.32-.77-4.04-.64-5.11.39-1.54,1.47-2.32,4.05-2.3,7.66.05,9.47,5.78,23.1,9.21,26.32.51.47.53,1.27.06,1.78-.25.26-.58.4-.92.4Z"/>
              <path class="cls-16" d="M421.74,778.64c-.15,0-.31-.03-.46-.09-.65-.25-.97-.98-.71-1.63,1.48-3.76.34-6.88-3.5-9.51-9.52-6.54-31.09-6.8-34.42-3.76-.51.47-1.31.43-1.78-.08-.47-.51-.43-1.31.08-1.77,4.49-4.08,27.16-3.58,37.55,3.55,4.81,3.3,6.33,7.62,4.41,12.5-.19.49-.67.8-1.17.8Z"/>
            </g>
          </g>
          <g>
            <path class="cls-12" d="M532.42,763.1l-17.26,18.78c-3.09,4.76-8.33,2.7-8.33,2.7l-7.23-7.89c-3.25-3.54-3.13-4.19,2.04-10.88l20.53-5.2s12.16-2.46,10.25,2.48Z"/>
            <path class="cls-14" d="M543.98,770.09l-11.36,27.76c-1.88,4.4-6.35,5.14-9.1.53l-11-9.61c-4.17-1.34-5.35-6.59-2.13-9.46l16.54-14.73c11.53-8.94,16.11,1.3,17.05,5.51Z"/>
            <g>
              <path class="cls-16" d="M532.61,799.1c-.34,0-.67-.13-.92-.4-.48-.51-.45-1.3.06-1.78,3.44-3.22,9.17-16.85,9.21-26.32.02-3.61-.76-6.19-2.3-7.66-1.07-1.03-2.79-1.16-5.11-.39-9.49,3.15-23.34,19.03-23.93,22.61-.11.68-.76,1.15-1.45,1.03-.69-.11-1.15-.76-1.03-1.45.89-5.34,15.84-21.33,25.62-24.58,3.27-1.09,5.84-.76,7.65.96,2.06,1.97,3.1,5.16,3.08,9.49-.05,10.41-6.09,24.47-10.01,28.14-.24.23-.55.34-.86.34Z"/>
              <path class="cls-16" d="M499.6,777.96c-.53,0-1.02-.33-1.19-.86-1.7-5.08.11-9.52,5.22-12.84,10.56-6.86,32.37-7.14,36.76-3.15.51.47.55,1.26.08,1.77-.47.51-1.26.55-1.78.08-3.26-2.97-23.99-2.91-33.69,3.4-4.16,2.7-5.54,5.96-4.21,9.94.22.66-.14,1.37-.8,1.59-.13.04-.27.07-.4.07Z"/>
            </g>
          </g>
          <path class="cls-16" d="M474.65,847.39c-.32,0-.66,0-1-.02-8.77-.37-11.51-3.35-13.32-5.32-.77-.84-1.2-1.28-1.76-1.38-.51-.09-1.13.48-2.18,1.5-2.13,2.07-5.35,5.19-12.52,5.19-9.76-.35-11.07-5.27-11.07-10.05,0-.69.56-1.26,1.26-1.26s1.26.56,1.26,1.26c0,3.81.66,7.25,8.6,7.53,6.11,0,8.78-2.59,10.72-4.48,1.32-1.28,2.56-2.49,4.36-2.18,1.43.25,2.29,1.17,3.19,2.15,1.62,1.76,3.84,4.18,11.57,4.5,4.64.2,7.71-1.12,8.42-3.6.41-1.41-.13-2.49-.38-2.69-.66-.07-1.15-.65-1.11-1.32.04-.69.63-1.23,1.33-1.18,1.67.09,2.93,2.1,2.82,4.46-.16,3.37-2.95,6.86-10.18,6.86Z"/>
          <path class="cls-24" d="M460.72,833.22l2.34-2.56c1.3-1.41-.19-3.25-2.63-3.25h-4.69c-2.44,0-3.93,1.84-2.63,3.25l2.34,2.56c1.22,1.33,4.04,1.33,5.26,0Z"/>
          <g>
            <ellipse class="cls-16" cx="430.76" cy="819.13" rx="5.17" ry="5.16"/>
            <ellipse class="cls-16" cx="484.84" cy="819.13" rx="5.17" ry="5.16"/>
          </g>
          <path class="cls-15" d="M527.92,963.12c-12.49,0-19.02-8.94-24.63-32.14-.41-1.69.63-3.38,2.32-3.79,1.69-.41,3.39.63,3.8,2.32,6.61,27.39,13.29,28.46,22.71,26.97,11.15-1.77,14.56-28.07,14.06-35.81-.11-1.73,1.2-3.22,2.94-3.34,1.73-.11,3.23,1.2,3.34,2.93.33,5.11-1.57,39.6-19.36,42.42-1.84.29-3.57.44-5.19.44Z"/>
          <path class="cls-15" d="M387.29,963.12c-12.49,0-19.02-8.94-24.63-32.14-.41-1.69.63-3.38,2.32-3.79,1.69-.41,3.39.63,3.8,2.32,6.61,27.39,13.29,28.46,22.71,26.97,11.15-1.77,14.56-28.07,14.06-35.81-.11-1.73,1.2-3.22,2.94-3.34,1.73-.11,3.23,1.2,3.34,2.93.33,5.11-1.57,39.6-19.36,42.42-1.84.29-3.57.44-5.19.44Z"/>
        </g>
      </g>
      <g>
        <path class="cls-16" d="M168.52,1005.78c-1.81,0-3.61-.28-5.4-.82-1.79-.55-3.42-1.37-4.9-2.44s-2.66-2.43-3.54-4.06c-.89-1.63-1.33-3.52-1.33-5.68,0-2.94.74-5.52,2.21-7.72,1.48-2.2,3.5-3.92,6.08-5.15,2.58-1.24,5.48-1.86,8.71-1.86.83,0,1.65.02,2.48.06-.43-3.26-1.06-6.97-1.89-11.13-.83-4.16-1.93-8.46-3.31-12.9l9.68-1.35c.51,1.57.98,3.25,1.42,5.04.43,1.79.85,3.62,1.24,5.51,1.34-.27,2.84-.49,4.52-.65,1.67-.16,3.35-.23,5.05-.23,1.57,0,3.1.08,4.57.23,1.48.16,2.8.39,3.98.71l-.24,8.6c-1.46-.31-3.01-.55-4.66-.71-1.65-.16-3.29-.24-4.9-.24-2.48,0-4.78.18-6.91.53.24,1.49.44,2.94.62,4.36.18,1.41.34,2.79.5,4.12,3.82,1.26,7.4,3.07,10.74,5.45,3.34,2.38,6.43,5.21,9.27,8.51l-6.43,6.6c-4.25-5.22-8.56-8.91-12.93-11.07v.53c0,3.14-.48,5.74-1.45,7.8-.96,2.06-2.2,3.67-3.72,4.83-1.52,1.16-3.11,1.97-4.78,2.44-1.67.47-3.24.71-4.69.71ZM161.85,992.82c0,1.1.46,2.08,1.39,2.94.92.86,2.33,1.3,4.22,1.3.55,0,1.19-.09,1.92-.27.73-.18,1.44-.53,2.12-1.06.69-.53,1.26-1.31,1.71-2.36.45-1.04.68-2.41.68-4.09,0-.2-.01-.51-.03-.94-.02-.43-.05-.98-.09-1.65-1.18-.12-2.42-.18-3.72-.18-1.42,0-2.74.24-3.98.71-1.24.47-2.25,1.17-3.04,2.09-.79.92-1.18,2.09-1.18,3.5Z"/>
        <path class="cls-16" d="M212.43,989.29l-.53-8.13c1.18-.08,2.56-.2,4.13-.35,1.57-.16,3.28-.37,5.14-.65v-.12c0-1.41.05-2.86.15-4.33.1-1.47.25-2.95.44-4.45-2.24.2-4.32.4-6.23.62-1.91.22-3.51.42-4.81.62l-.35-7.66c1.57-.51,3.48-.95,5.72-1.32,2.24-.37,4.64-.7,7.2-.97.43-1.81.9-3.59,1.42-5.36.51-1.77,1.06-3.48,1.65-5.12l8.97,1.88c-.94,2.43-1.79,5.09-2.54,7.95,2.16-.08,4.27-.12,6.32-.12,2.28,0,4.39.06,6.32.18,1.93.12,3.56.29,4.9.53l-.35,8.07c-.98-.08-2.1-.15-3.33-.21-1.24-.06-2.57-.09-3.98-.09-1.77,0-3.64.03-5.61.09-1.97.06-3.95.15-5.96.26-.2,1.38-.35,2.74-.44,4.09-.1,1.35-.17,2.68-.21,3.98,3.27-.55,6.43-1.17,9.5-1.86,3.07-.69,5.67-1.36,7.79-2.03l2.07,8.01c-2.16.67-4.92,1.4-8.26,2.21-3.34.81-6.81,1.54-10.39,2.21.51,2.44,1.28,4.34,2.3,5.71,1.02,1.37,2.2,2.34,3.54,2.89,1.34.55,2.75.82,4.25.82,3.54,0,6.45-1.22,8.74-3.65,2.28-2.43,4.23-5.85,5.84-10.25l7.79,4.59c-.75,2.16-1.7,4.31-2.86,6.45-1.16,2.14-2.62,4.07-4.37,5.8-1.75,1.73-3.91,3.11-6.46,4.15-2.56,1.04-5.61,1.56-9.15,1.56-3.82,0-7-.72-9.56-2.15-2.56-1.43-4.58-3.41-6.08-5.92-1.5-2.51-2.56-5.36-3.19-8.54-1.57.16-3.06.3-4.46.41-1.4.12-2.69.18-3.87.18h-1.18Z"/>
        <path class="cls-16" d="M272.99,984.4l-1.59-7.89c1.49-.51,3.33-1.03,5.52-1.56,2.18-.53,4.59-1.03,7.23-1.5,2.64-.47,5.35-.9,8.14-1.3-.71-1.45-1.38-2.94-2.01-4.48-3.58.55-6.96,1.16-10.15,1.83-3.19.67-5.82,1.35-7.91,2.06l-2.12-7.24c2.01-.71,4.57-1.4,7.7-2.09,3.13-.69,6.46-1.32,10-1.91-.59-2.16-1.06-4.36-1.42-6.6l9.03-.77c.16,1.77.57,3.79,1.24,6.07,1.97-.27,3.89-.5,5.75-.68,1.87-.18,3.63-.32,5.28-.44.83,1.34,1.82,2.64,2.98,3.92,1.16,1.28,2.29,2.33,3.39,3.15l1.95-2.12.06,2.47h-1.53c-1.89,0-4.13.1-6.73.29-2.6.2-5.35.47-8.26.82.75,1.57,1.55,3.1,2.42,4.59,2.16-.2,4.26-.35,6.29-.47,2.03-.12,3.9-.18,5.64-.18s3.13.06,4.43.18l.41,7.95c-.43-.04-.92-.07-1.48-.09-.55-.02-1.14-.03-1.77-.03-2.24,0-4.92.12-8.03.35,1.06,1.22,2.16,2.35,3.31,3.39,1.14,1.04,2.32,1.95,3.54,2.74l-6.26,6.3c-1.85-1.3-3.73-2.91-5.64-4.83-1.91-1.92-3.75-4.14-5.52-6.66-3.07.39-6.11.82-9.12,1.3-3.01.47-5.79,1-8.35,1.59-2.56.59-4.7,1.2-6.43,1.83ZM301.85,1005.78c-4.92,0-9.22-.49-12.9-1.47-3.68-.98-6.87-2.38-9.56-4.18-2.7-1.81-5.05-3.97-7.05-6.48l6.26-6.6c1.53,2.32,3.54,4.2,6.02,5.65,2.48,1.45,5.16,2.51,8.06,3.18,2.89.67,5.7,1,8.41,1,1.26,0,2.44-.06,3.54-.18l-2.77,9.07ZM313.83,962.6c-.39-.31-.96-.88-1.71-1.71-.75-.82-1.47-1.7-2.15-2.62-.69-.92-1.17-1.7-1.45-2.33l3.84-2.36c.47.86,1.14,1.84,2.01,2.92.87,1.08,1.73,1.97,2.6,2.68l-3.13,3.42ZM320.97,960.25c-.43-.24-1.05-.68-1.86-1.33-.81-.65-1.59-1.35-2.36-2.12-.77-.77-1.35-1.42-1.74-1.97l3.13-3.12c.67.75,1.51,1.58,2.54,2.5,1.02.92,2.03,1.66,3.01,2.21l-2.71,3.83Z"/>
      </g>
    </g>
    <g>
      <g>
        <g>
          <polygon class="cls-8" points="1123.33 803.27 806.9 806.62 768.39 860.7 1144.86 858.56 1123.33 803.27"/>
          <polygon class="cls-7" points="1144.86 858.56 768.39 860.7 768.39 882.64 1144.86 881.68 1144.86 858.56"/>
        </g>
        <g>
          <path class="cls-13" d="M902.81,813.5c-1.36-1.7-5.15-5.85-10.81-7.62-5.38-1.68-10.84-.57-15.78,3.19-10.86,8.27-18.18,25.97-13.28,32.09,1.9,2.37,5.9,3.47,10.71,3.47,7.72,0,17.52-2.84,24.09-7.84,5.13-3.91,8-8.16,8.51-12.62.53-4.6-1.58-8.34-3.44-10.67Z"/>
          <path class="cls-13" d="M1054.76,809.06c-4.94-3.76-10.39-4.86-15.78-3.19-5.66,1.77-9.45,5.92-10.81,7.62-1.86,2.32-3.97,6.06-3.44,10.67.51,4.47,3.37,8.71,8.51,12.62,6.57,5.01,16.38,7.84,24.09,7.84,4.81,0,8.81-1.1,10.71-3.47,4.9-6.12-2.42-23.82-13.28-32.09Z"/>
          <g>
            <path class="cls-3" d="M1066.81,578.38c2.99-7.34,4.6-15.13,4.6-23.21,0-43.51-46.69-78.78-104.28-78.78s-104.28,35.27-104.28,78.78c0,5.44.73,10.75,2.12,15.88-31.86,27.91-52.05,69.32-52.05,115.55,0,84.06,66.74,152.2,149.07,152.2s149.07-68.14,149.07-152.2c0-42.33-16.93-80.62-44.26-108.21Z"/>
            <path class="cls-13" d="M962,839.5c-82.6,0-149.81-68.6-149.81-152.91,0-44.51,18.94-86.68,51.97-115.79-1.35-5.12-2.03-10.38-2.03-15.64,0-43.84,47.11-79.5,105.01-79.5s105.01,35.66,105.01,79.5c0,7.85-1.51,15.6-4.48,23.05,28.46,28.91,44.14,67.38,44.14,108.38,0,84.32-67.2,152.91-149.81,152.91ZM967.14,477.1c-57.09,0-103.54,35.02-103.54,78.07,0,5.28.7,10.56,2.09,15.7l.11.42-.33.29c-32.93,28.84-51.81,70.77-51.81,115.01,0,83.53,66.54,151.48,148.34,151.48s148.34-67.95,148.34-151.48c0-40.78-15.64-79.03-44.05-107.72l-.33-.33.17-.43c3.02-7.41,4.55-15.13,4.55-22.95,0-43.05-46.45-78.07-103.54-78.07Z"/>
          </g>
          <g>
            <g>
              <path class="cls-16" d="M883.28,480.76l20.14,21.42c3.61,5.42,9.72,3.08,9.72,3.08l8.43-8.99c3.79-4.04,3.65-4.77-2.38-12.41l-23.95-5.93s-14.19-2.81-11.96,2.83Z"/>
              <path class="cls-9" d="M869.79,488.73l13.26,31.65c2.2,5.02,7.41,5.86,10.62.61l12.83-10.95c4.86-1.52,6.25-7.52,2.49-10.79l-19.3-16.8c-13.45-10.2-18.79,1.48-19.89,6.28Z"/>
              <g>
                <path class="cls-16" d="M883.05,521.81c-.36,0-.72-.13-1-.39-4.57-4.18-11.62-20.21-11.68-32.08-.03-4.94,1.18-8.58,3.59-10.82,2.1-1.96,5.1-2.33,8.92-1.09,11.41,3.7,28.85,21.94,29.89,28.03.13.78-.41,1.52-1.21,1.65-.8.13-1.56-.4-1.69-1.18-.7-4.09-16.85-22.19-27.92-25.78-2.7-.88-4.71-.73-5.96.44-1.8,1.68-2.7,4.62-2.68,8.74.06,10.8,6.74,26.34,10.75,30.01.59.54.62,1.45.07,2.02-.29.3-.68.45-1.07.45Z"/>
                <path class="cls-16" d="M921.57,497.71c-.18,0-.36-.03-.54-.1-.75-.29-1.13-1.12-.83-1.86,1.73-4.29.39-7.84-4.08-10.84-11.1-7.45-36.27-7.75-40.16-4.29-.6.53-1.53.49-2.07-.09-.55-.58-.5-1.49.1-2.02,5.23-4.66,31.69-4.09,43.81,4.05,5.61,3.76,7.39,8.69,5.15,14.25-.23.56-.78.91-1.37.91Z"/>
              </g>
            </g>
            <g>
              <path class="cls-16" d="M1045.94,476.32l-20.14,21.42c-3.61,5.42-9.72,3.08-9.72,3.08l-8.43-8.99c-3.79-4.04-3.65-4.77,2.38-12.41l23.95-5.93s14.19-2.81,11.96,2.83Z"/>
              <path class="cls-9" d="M1059.43,484.29l-13.26,31.65c-2.2,5.02-7.41,5.86-10.62.61l-12.83-10.95c-4.86-1.52-6.25-7.52-2.49-10.79l19.3-16.8c13.45-10.2,18.79,1.48,19.89,6.28Z"/>
              <g>
                <path class="cls-16" d="M1046.17,517.37c-.39,0-.78-.15-1.07-.45-.55-.58-.52-1.48.07-2.02,4.01-3.67,10.69-19.21,10.75-30.01.02-4.12-.88-7.06-2.68-8.74-1.25-1.17-3.26-1.32-5.96-.44-11.07,3.59-27.23,21.7-27.92,25.78-.13.78-.89,1.31-1.69,1.18-.8-.13-1.34-.87-1.21-1.65,1.04-6.09,18.48-24.33,29.89-28.03,3.82-1.24,6.82-.87,8.92,1.09,2.41,2.25,3.61,5.89,3.59,10.82-.06,11.87-7.11,27.91-11.68,32.08-.28.26-.64.39-1,.39Z"/>
                <path class="cls-16" d="M1007.65,493.26c-.61,0-1.19-.38-1.39-.98-1.98-5.79.12-10.86,6.09-14.64,12.32-7.82,37.76-8.15,42.89-3.59.6.53.64,1.44.1,2.02-.55.58-1.48.63-2.07.09-3.8-3.38-27.98-3.31-39.31,3.87-4.86,3.08-6.47,6.79-4.91,11.33.26.75-.16,1.56-.93,1.81-.15.05-.31.07-.47.07Z"/>
              </g>
            </g>
          </g>
          <path class="cls-16" d="M985.04,586.33c-.38,0-.77,0-1.17-.02-10.23-.42-13.43-3.81-15.54-6.06-.9-.96-1.4-1.46-2.05-1.57-.59-.1-1.32.55-2.54,1.71-2.49,2.36-6.24,5.92-14.61,5.92-11.39-.39-12.92-6.01-12.92-11.45,0-.79.66-1.43,1.47-1.43s1.47.64,1.47,1.43c0,4.34.77,8.27,10.03,8.59,7.13,0,10.24-2.95,12.51-5.11,1.54-1.46,2.99-2.84,5.09-2.48,1.67.28,2.67,1.34,3.72,2.46,1.89,2.01,4.48,4.77,13.5,5.14,5.41.22,8.99-1.28,9.83-4.11.48-1.61-.15-2.84-.44-3.06-.77-.08-1.34-.74-1.3-1.5.05-.79.73-1.4,1.55-1.35,1.95.11,3.42,2.39,3.29,5.09-.19,3.85-3.44,7.82-11.88,7.82Z"/>
          <path class="cls-24" d="M968.79,570.17l2.73-2.91c1.51-1.61-.22-3.71-3.07-3.71h-5.47c-2.85,0-4.58,2.1-3.07,3.71l2.73,2.91c1.42,1.51,4.72,1.51,6.13,0Z"/>
          <ellipse class="cls-13" cx="931.07" cy="548.98" rx="15.38" ry="11.95"/>
          <ellipse class="cls-13" cx="996.92" cy="548.21" rx="15.38" ry="11.95"/>
          <path class="cls-13" d="M885.58,728.93c-13.32,0-18.89-32.18-19.13-39.62-.29-8.78,1.81-27.22,14.33-31.99,11.02-4.2,20.46-1.2,26.03,7.08,5.9,8.78,4.84,23.22,4.96,24.82.35,4.73-1.68,36.69-20.64,39.3-1.96.27-3.8.41-5.54.41Z"/>
          <path class="cls-13" d="M866.17,602.11c-15.87,0-22.51-23.59-22.8-29.05-.35-6.44,2.15-19.96,17.07-23.46,13.13-3.08,24.38-.88,31.02,5.19,7.04,6.44,5.77,17.03,5.91,18.2.42,3.47-2,26.9-24.6,28.82-2.34.2-4.53.3-6.6.3Z"/>
          <path class="cls-13" d="M1046.67,600.36c-15.87,0-22.51-23.59-22.8-29.05-.35-6.44,2.15-19.96,17.07-23.46,13.13-3.08,24.38-.88,31.02,5.19,7.04,6.44,5.77,17.03,5.91,18.2.42,3.47-2,26.9-24.6,28.82-2.34.2-4.53.3-6.6.3Z"/>
          <path class="cls-13" d="M1034.11,728.93c-13.32,0-18.89-32.18-19.13-39.62-.29-8.78,1.81-27.22,14.33-31.99,11.02-4.2,20.46-1.2,26.03,7.08,5.9,8.78,4.84,23.22,4.96,24.82.35,4.73-1.68,36.69-20.64,39.3-1.96.27-3.8.41-5.54.41Z"/>
        </g>
      </g>
      <g>
        <path class="cls-16" d="M916.53,458.37c-2.56,0-4.75-.54-6.58-1.62-1.83-1.08-3.22-2.45-4.16-4.12-.94-1.67-1.42-3.39-1.42-5.15,0-1.33.33-2.73,1-4.18.67-1.45,1.72-2.81,3.16-4.06,1.44-1.26,3.31-2.28,5.61-3.06,2.3-.79,5.09-1.18,8.35-1.18.67,0,1.34.02,2.01.06-.08-1.22-.16-2.39-.24-3.53-3.46.12-6.67.18-9.62.18-1.97,0-3.75-.03-5.34-.09s-2.88-.15-3.87-.27l-.24-7.72c1.89.12,4.35.18,7.38.18,3.38,0,7-.08,10.86-.24-.24-1.69-.51-3.36-.83-5.01-3.5.24-6.89.56-10.15.97-3.27.41-6.08.89-8.44,1.44l-1.48-8.19c2.6-.51,5.48-.96,8.65-1.36,3.17-.39,6.4-.71,9.71-.94-.35-1.45-.77-2.96-1.24-4.53l9.32-1.24c.35,1.53.71,3.3,1.06,5.3,2.36-.08,4.62-.12,6.79-.12,5,0,8.97.22,11.92.65l-.77,8.01c-1.38-.2-3.01-.33-4.9-.41-1.89-.08-3.92-.12-6.08-.12-1.85,0-3.76.04-5.72.12.2,1.61.39,3.26.59,4.95,2.79-.16,5.44-.37,7.94-.65,2.5-.27,4.69-.59,6.58-.94l1,8.13c-1.89.31-4.11.59-6.67.82-2.56.24-5.23.45-8.03.65.2,2.16.33,4.06.41,5.71,3.66,1.3,6.86,3.15,9.59,5.57s5.22,4.98,7.47,7.69l-7.32,5.54c-1.65-2.32-3.31-4.28-4.96-5.89-1.65-1.61-3.36-2.91-5.13-3.89-.59,3.22-1.62,5.74-3.1,7.57-1.48,1.83-3.33,3.11-5.55,3.86-2.22.75-4.75,1.12-7.58,1.12ZM913.1,447.59c0,.63.39,1.25,1.18,1.86.79.61,1.79.91,3.01.91,2.28,0,3.95-.61,5.02-1.83,1.06-1.22,1.75-2.92,2.07-5.12-.71-.04-1.46-.06-2.24-.06-2.79,0-5,.42-6.61,1.27-1.61.85-2.42,1.84-2.42,2.97Z"/>
        <path class="cls-16" d="M985.64,453.9c-1.14-.86-2.26-1.88-3.36-3.06-2.28,1.85-4.56,3.2-6.85,4.06-2.28.86-4.49,1.3-6.61,1.3-2.24,0-4.12-.61-5.64-1.83-1.51-1.22-2.66-2.83-3.42-4.83-.77-2-1.15-4.16-1.15-6.48,0-1.57.29-3.48.86-5.74.57-2.26,1.49-4.6,2.74-7.04,1.26-2.43,2.93-4.71,5.02-6.83-1.3-4.28-2.07-8.09-2.3-11.43l8.26-2.71c0,2.47.41,5.42,1.24,8.83,1.97-.94,4.13-1.7,6.49-2.27,2.36-.57,4.96-.85,7.79-.85h1.18c.2-1.33.35-2.75.47-4.24.12-1.49.22-3.02.29-4.59l9.74,1.88c-.35,2.94-.81,5.79-1.36,8.54,4.49,1.49,7.98,3.99,10.48,7.48,2.5,3.5,3.75,7.7,3.75,12.6s-.89,8.89-2.66,12.43c-1.77,3.53-4.47,6.93-8.09,10.19l-9.03-5.3c2.24-1.06,4.16-2.53,5.76-4.42s2.82-3.98,3.69-6.27c.86-2.3,1.3-4.53,1.3-6.69,0-2.94-.68-5.36-2.04-7.24s-3.08-3.34-5.16-4.36c-1.18,4.2-2.54,7.91-4.07,11.13-1.53,3.22-3.19,6.03-4.96,8.42.9.9,1.81,1.67,2.72,2.3l-5.08,7.01ZM966.46,442.82c0,1.45.32,2.48.97,3.09.65.61,1.43.91,2.33.91.83,0,1.84-.24,3.04-.74,1.2-.49,2.49-1.27,3.87-2.33-1.18-1.81-2.3-3.7-3.36-5.68-1.06-1.98-2.03-4-2.89-6.04-1.34,1.89-2.33,3.8-2.98,5.74-.65,1.94-.97,3.62-.97,5.04ZM988.18,423.15c-2.24,0-4.3.27-6.17.79-1.87.53-3.57,1.23-5.1,2.09.75,1.96,1.58,3.91,2.51,5.83.92,1.92,1.92,3.75,2.98,5.48,1.14-1.77,2.23-3.82,3.28-6.16,1.04-2.34,1.94-5.02,2.69-8.04h-.18Z"/>
      </g>
    </g>
    <g>
      <g>
        <polygon class="cls-21" points="967.84 1035.31 651.41 1038.66 612.9 1092.74 989.37 1090.6 967.84 1035.31"/>
        <polygon class="cls-9" points="989.37 1090.6 612.9 1092.74 612.9 1114.68 989.37 1113.72 989.37 1090.6"/>
      </g>
      <g>
        <path class="cls-3" d="M750.95,1059.66c-8.58,6.69-23.1,8.12-26.69,3.53-3.59-4.59,1.7-18.47,10.29-25.16,8.58-6.69,16.7-1.11,20.29,3.48s4.69,11.46-3.89,18.15Z"/>
        <path class="cls-13" d="M732.37,1066.13c-3.75,0-6.86-.88-8.34-2.77-3.82-4.88,1.88-18.97,10.34-25.56,3.84-2.99,8.09-3.87,12.28-2.54,4.41,1.41,7.35,4.71,8.41,6.07,1.45,1.85,3.09,4.83,2.68,8.49-.4,3.56-2.62,6.94-6.62,10.05-5.12,3.99-12.75,6.25-18.75,6.25ZM742.78,1035.22c-2.76,0-5.46,1.01-8.06,3.04-8.71,6.78-13.53,20.55-10.24,24.76,3.4,4.34,17.56,3.22,26.29-3.58,3.87-3.02,6.03-6.27,6.4-9.67.39-3.48-1.18-6.31-2.56-8.08-1.03-1.31-3.88-4.52-8.14-5.88-1.24-.4-2.48-.59-3.7-.59Z"/>
        <path class="cls-3" d="M856.76,1059.66c8.58,6.69,23.1,8.12,26.69,3.53,3.59-4.59-1.7-18.47-10.29-25.16-8.58-6.69-16.7-1.11-20.29,3.48-3.59,4.59-4.69,11.46,3.89,18.15Z"/>
        <path class="cls-13" d="M875.34,1066.13c-6.01,0-13.64-2.26-18.75-6.25h0c-4-3.11-6.22-6.5-6.62-10.05-.41-3.67,1.23-6.64,2.68-8.49,1.06-1.36,4.01-4.66,8.41-6.07,4.19-1.33,8.44-.46,12.28,2.54,8.45,6.59,14.15,20.68,10.34,25.56-1.48,1.89-4.59,2.77-8.34,2.77ZM856.94,1059.44c8.73,6.8,22.89,7.92,26.29,3.58,3.29-4.21-1.53-17.97-10.24-24.76-3.74-2.92-7.7-3.74-11.75-2.44-4.26,1.36-7.11,4.56-8.14,5.88-1.38,1.77-2.95,4.6-2.56,8.08.38,3.4,2.53,6.65,6.4,9.67Z"/>
        <path class="cls-14" d="M882.72,854.08c2.33-5.84,3.58-12.05,3.58-18.49,0-34.65-36.34-62.75-81.17-62.75s-81.17,28.09-81.17,62.75c0,4.33.57,8.56,1.65,12.65-24.8,22.23-40.52,55.21-40.52,92.03,0,66.95,51.95,121.21,116.04,121.21s116.04-54.27,116.04-121.21c0-33.72-13.18-64.21-34.45-86.18Z"/>
        <path class="cls-13" d="M801.14,1066.69c-3.5,0-6.57-9.05-9.99-9.36s-7.74,5.76-11.13,5.12-7.72.96-11.03,0-4.17-9.63-7.39-10.89-5.65-3.56-8.75-5.1c-3.11-1.55-9.49,2.9-12.44,1.08s-5.17-5.06-7.95-7.14-1.4-8.98-3.99-11.3-8.14-1.28-10.52-3.81-6.2-3.9-8.35-6.63-3.64-6.07-5.55-8.97.94-8.48-.72-11.54-7.68-3.79-9.08-6.98-3.72-6.1-4.85-9.4,4.35-8.38,3.5-11.76c-.84-3.34-1.85-6.29-2.42-9.74s-2.11-6.39-2.39-9.87-3.66-6.64-3.66-10.14,3.91-6.63,4.19-10.06-7.56-7.95-7-11.34,6.26-5.95,7.1-9.29,4.95-5.58,6.06-8.84-4.53-9.17-3.15-12.33,2.69-6.74,4.33-9.78,4.51-5.71,6.4-8.6,9.7-1.48,11.84-4.2,3.09-6.05,5.45-8.58,1.83-7.09,4.4-9.41c-1.05-4.08,1.72-8.04,1.72-12.23,0-3.51,2.45-6.02,3.17-9.38s-.87-6.86.52-10.05-.66-8.26,1.31-11.17,9.17-1.24,11.59-3.8.96-8.81,3.73-10.99,5.17-5.02,8.2-6.82,8.24,1.03,11.46-.4,4.7-6.91,8.06-7.97,7.55,1.68,11,.99,6.68-.48,10.18-.83,6.63-6,10.15-6,6.64,6.71,10.04,7.05,7.23-2.36,10.57-1.69,6.45,2.61,9.71,3.64,7.57-.25,10.69,1.13,7.82.81,10.75,2.55,2.17,9.35,4.84,11.46,7.86,1.6,10.2,4.07,5.52,4.88,7.43,7.7,6.32,5.21,7.69,8.35-4.01,8.86-3.28,12.25,2.98,6.38,2.98,9.89c0,3.14,1.01,6.49.42,9.57s1.36,4.89.21,7.84c2.46,2.55.88,6.07,3.09,8.8,2.22,2.75,5.11,5.07,7.08,7.99s.68,7.78,2.39,10.87,7.97,3.91,9.4,7.13-4.07,9.1-2.92,12.44,11.27,3.99,12.14,7.42-5.39,8.43-4.81,11.93.22,6.84.51,10.37.04,6.77.04,10.32.74,6.76.46,10.18,6.04,7.83,5.48,11.22-4.41,6.42-5.25,9.76-2.87,6.45-3.98,9.72-3.81,5.91-5.19,9.07.99,8.29-.65,11.32-6.99,4-8.89,6.88-.94,7.95-3.08,10.67-3.11,6.88-5.48,9.4-10.32-.55-12.9,1.77-4.36,5.26-7.13,7.34-4.35,5.77-7.3,7.59-4.68,6.12-7.78,7.67-6.04,4.28-9.28,5.55-9.3-5.97-12.65-5.01-5.49,5.86-8.92,6.5-6.99-.95-10.47-.62-6.67,7.42-10.17,7.42ZM805.14,778.05c-3.46,0-7.29-8.71-10.64-8.39s-5.94,7.4-9.24,8.06-5.7,3.91-8.91,4.91-9.2-5.24-12.28-3.88-7.11,2.16-10,3.87-1.94,9.51-4.58,11.58-6,3.18-8.31,5.6-9.54,1.49-11.43,4.27.21,8.48-1.15,11.57-.48,6.84-1.19,10.17-1.78,6.31-1.78,9.77c0,4.21-4.63,9.49-3.55,13.58.04.17,5.05-.66,5-.49s.36,1.35.23,1.46c-2.57,2.3-9.79,0-12.13,2.5s-4.55,5.67-6.68,8.37-3.37,6.44-5.25,9.31-.93,7.6-2.56,10.62-6.6,4.59-7.98,7.74,5.16,9.33,4.05,12.58-6.89,4.94-7.73,8.28-4.81,6.18-5.38,9.58,6.35,7.7,6.07,11.13-.03,6.55-.03,10-.97,6.66-.7,10.05-6.41,7.79-5.86,11.15,2.72,6.77,3.55,10.08,5.45,5.65,6.56,8.88-.71,7.73.66,10.86,1.07,7.46,2.7,10.47c1.64,3.03,5.78,4.88,7.66,7.74s7.35,3.16,9.47,5.85-.63,9.72,1.72,12.22,8.84.99,11.39,3.28,5.72,3.61,8.47,5.67,2.84,8.05,5.76,9.86,8.19-.53,11.27,1.01,4.69,6.31,7.9,7.56,6.4,3.06,9.72,4.01,7.86-3.63,11.26-2.99,5.86,7.6,9.31,7.92,7.14-2.75,10.61-2.75,7.02.93,10.41.62,6.47-3.49,9.82-4.12,5.88-3.96,9.16-4.9,8.66,4.34,11.85,3.1,4.84-6.21,7.91-7.74,5.48-3.97,8.4-5.78,3.98-5.8,6.72-7.86,9.69,1.18,12.25-1.12,3.72-6.15,6.07-8.66c2.34-2.5,3.54-5.94,5.67-8.64s1.64-6.99,3.53-9.87,6.97-3.61,8.62-6.64,2.27-6.46,3.66-9.62,6.03-5.07,7.15-8.34-2.93-8-2.09-11.36,8.68-5.27,9.24-8.68-8.46-7.92-8.18-11.37,7.56-6.43,7.56-9.9.62-7.29.33-10.76-.38-7.31-.95-10.76-2.21-6.98-3.07-10.36-8.38-4.74-9.53-8.04.57-7.53-.86-10.73-2.04-6.77-3.75-9.84-2.26-6.92-4.23-9.83-7.54-3.05-9.76-5.78c-2.2-2.71-1.43-7.99-3.88-10.53-.13-.13-3.58,1.24-3.61,1.06s-1.63-2.34-1.57-2.51c1.17-2.94,9.44-3.64,10.03-6.68s-.19-6.8-.19-9.93c0-3.46-2.53-6.84-3.23-10.15s-4.44-5.4-5.81-8.54-3.84-4.86-5.78-7.72,2.76-10.96.37-13.47-7.97-1.79-10.7-3.93-4.44-5.79-7.43-7.56-5.3-5.38-8.47-6.78-6.94-2.07-10.25-3.1-7.98,3.42-11.38,2.74-6.43-1.96-9.87-2.3-6.67,3.26-10.13,3.26Z"/>
        <path class="cls-3" d="M858.65,938.08c-1.48,10.77-10.87,21.9-16.66,21.11s-11.69-14.42-10.21-25.19c1.48-10.77,11.19-12.42,16.97-11.63,5.79.79,11.37,4.94,9.9,15.71Z"/>
        <path class="cls-3" d="M766.41,932.02c3.55,10.27.2,24.44-5.32,26.34s-16.95-7.61-20.5-17.88c-3.55-10.27,4.37-16.12,9.89-18.02,5.52-1.9,12.38-.71,15.94,9.57Z"/>
        <g>
          <path class="cls-14" d="M739.86,776.34l15.67,17.06c2.81,4.32,7.57,2.45,7.57,2.45l6.56-7.16c2.95-3.22,2.84-3.8-1.85-9.88l-18.64-4.72s-11.05-2.24-9.31,2.25Z"/>
          <path class="cls-3" d="M729.36,782.68l10.32,25.21c1.71,4,5.77,4.67,8.26.48l9.99-8.72c3.79-1.21,4.86-5.99,1.94-8.59l-15.02-13.38c-10.47-8.12-14.63,1.18-15.49,5Z"/>
          <path class="cls-16" d="M739.68,809.03c-.28,0-.56-.1-.78-.31-3.56-3.33-9.04-16.1-9.09-25.55-.02-3.93.92-6.83,2.79-8.62,1.64-1.56,3.97-1.85,6.94-.87,8.88,2.95,22.46,17.47,23.27,22.32.1.62-.32,1.21-.94,1.31-.62.1-1.21-.32-1.32-.94-.54-3.25-13.12-17.67-21.74-20.53-2.1-.7-3.66-.58-4.64.35-1.4,1.34-2.1,3.68-2.09,6.96.04,8.6,5.25,20.98,8.37,23.9.46.43.48,1.15.05,1.61-.22.24-.53.36-.83.36Z"/>
          <path class="cls-16" d="M769.67,789.83c-.14,0-.28-.03-.42-.08-.59-.23-.88-.89-.65-1.48,1.35-3.42.31-6.24-3.18-8.64-8.64-5.94-28.24-6.17-31.26-3.42-.47.42-1.19.39-1.61-.07-.43-.47-.39-1.19.07-1.61,4.07-3.71,24.66-3.26,34.1,3.22,4.36,3,5.75,6.92,4.01,11.35-.18.45-.61.72-1.06.72Z"/>
        </g>
        <g>
          <path class="cls-14" d="M866.48,772.8l-15.67,17.06c-2.81,4.32-7.57,2.45-7.57,2.45l-6.56-7.16c-2.95-3.22-2.84-3.8,1.85-9.88l18.64-4.72s11.05-2.24,9.31,2.25Z"/>
          <path class="cls-3" d="M876.97,779.14l-10.32,25.21c-1.71,4-5.77,4.67-8.26.48l-9.99-8.72c-3.79-1.21-4.86-5.99-1.94-8.59l15.02-13.38c10.47-8.12,14.63,1.18,15.49,5Z"/>
          <path class="cls-16" d="M866.65,805.49c-.31,0-.61-.12-.83-.36-.43-.46-.41-1.18.05-1.61,3.12-2.92,8.32-15.3,8.37-23.9.02-3.28-.69-5.62-2.09-6.96-.98-.93-2.54-1.05-4.64-.35-8.62,2.86-21.19,17.28-21.74,20.53-.1.62-.69,1.04-1.32.94-.62-.1-1.04-.69-.94-1.31.81-4.85,14.39-19.37,23.27-22.32,2.97-.99,5.31-.69,6.94.87,1.87,1.79,2.81,4.69,2.79,8.62-.05,9.45-5.53,22.23-9.09,25.55-.22.21-.5.31-.78.31Z"/>
          <path class="cls-16" d="M836.67,786.29c-.48,0-.92-.3-1.08-.78-1.54-4.61.1-8.65,4.74-11.66,9.59-6.23,29.39-6.49,33.38-2.86.47.42.5,1.15.07,1.61-.43.46-1.15.5-1.61.07-2.96-2.69-21.78-2.64-30.6,3.08-3.78,2.46-5.03,5.41-3.82,9.03.2.6-.12,1.24-.72,1.44-.12.04-.24.06-.36.06Z"/>
        </g>
        <g>
          <path class="cls-16" d="M819.07,860.41c-.3,0-.6,0-.91-.02-7.97-.33-10.45-3.04-12.1-4.83-.7-.76-1.09-1.16-1.6-1.25-.46-.08-1.02.44-1.98,1.36-1.94,1.88-4.86,4.71-11.37,4.71-8.87-.31-10.06-4.79-10.06-9.12,0-.63.51-1.14,1.14-1.14s1.14.51,1.14,1.14c0,3.46.6,6.59,7.81,6.84,5.55,0,7.97-2.35,9.74-4.07,1.2-1.16,2.33-2.26,3.96-1.98,1.3.22,2.08,1.07,2.89,1.96,1.47,1.6,3.49,3.8,10.51,4.09,4.21.18,7-1.02,7.65-3.27.37-1.28-.11-2.26-.34-2.44-.6-.07-1.04-.59-1.01-1.2.04-.63.57-1.11,1.2-1.08,1.52.08,2.66,1.9,2.56,4.05-.15,3.06-2.67,6.23-9.25,6.23Z"/>
          <path class="cls-24" d="M806.42,847.54l2.13-2.32c1.18-1.28-.17-2.95-2.39-2.95h-4.26c-2.22,0-3.57,1.67-2.39,2.95l2.13,2.32c1.1,1.2,3.67,1.2,4.78,0Z"/>
          <ellipse class="cls-16" cx="779.21" cy="834.74" rx="4.7" ry="4.69"/>
          <ellipse class="cls-16" cx="828.32" cy="834.74" rx="4.7" ry="4.69"/>
        </g>
      </g>
      <g>
        <path class="cls-16" d="M954.8,959.91l-1.18-8.13c1.57-.31,3.41-.6,5.52-.85,2.1-.26,4.36-.46,6.76-.62.79-2.91,1.73-5.44,2.83-7.6l8.5,2c-.94,1.34-1.77,3.02-2.48,5.07,3.5-.16,6.81-.24,9.91-.24.79,0,1.86,0,3.22.03,1.36.02,2.77.07,4.25.15,1.48.08,2.76.18,3.87.29l-.29,8.13c-1.14-.12-2.45-.21-3.93-.29-1.48-.08-2.87-.13-4.19-.15-1.32-.02-2.33-.03-3.04-.03-3.7,0-7.59.12-11.69.35-.2,1.41-.33,2.87-.41,4.36,2.09-.35,4.17-.53,6.26-.53h.77c.12-1.06.22-2.14.29-3.24l8.5.59c0,1.3-.06,2.65-.18,4.06,3.07.98,5.68,2.4,7.82,4.24,2.14,1.85,3.78,3.95,4.9,6.3,1.12,2.36,1.68,4.83,1.68,7.42,0,1.92-.32,3.9-.97,5.92-.65,2.02-1.64,3.95-2.98,5.77-1.34,1.83-3.05,3.43-5.13,4.8l-8.09-4.65c2.01-1.22,3.59-2.55,4.75-4.01,1.16-1.45,1.98-2.93,2.45-4.45.47-1.51.71-2.9.71-4.15,0-1.92-.57-3.66-1.71-5.21-1.14-1.55-2.74-2.76-4.78-3.62-.71,3.02-1.71,5.99-3.01,8.89-1.3,2.91-2.95,5.54-4.96,7.89-2.01,2.36-4.4,4.24-7.17,5.66-2.77,1.41-5.97,2.12-9.59,2.12-4.29,0-7.42-1.07-9.38-3.21-1.97-2.14-2.95-4.94-2.95-8.39,0-2.63.7-5.27,2.1-7.92,1.4-2.65,3.37-5.15,5.93-7.51,1.65-1.53,3.62-2.85,5.9-3.95.12-2.24.32-4.44.59-6.6-1.85.2-3.58.4-5.19.62-1.61.22-3.01.44-4.19.68ZM957.81,984.36c0,1.18.36,2.02,1.09,2.53.73.51,1.74.77,3.04.77,1.65,0,3.19-.24,4.6-.71-.71-1.77-1.29-3.7-1.74-5.8-.45-2.1-.8-4.31-1.03-6.63-1.93,1.38-3.4,2.94-4.43,4.68-1.02,1.75-1.54,3.47-1.54,5.15ZM972.51,970.81c.12,1.77.31,3.5.59,5.18.27,1.69.63,3.26,1.06,4.71.87-1.37,1.62-2.94,2.27-4.71.65-1.77,1.21-3.71,1.68-5.83-1.97.08-3.84.29-5.61.65Z"/>
        <path class="cls-16" d="M1031.47,947.43c-2.28,5.26-4.05,9.7-5.31,13.31-1.26,3.61-2.24,6.7-2.95,9.25,1.61-1.57,3.11-2.64,4.49-3.21,1.38-.57,2.68-.85,3.9-.85,1.85,0,3.43.35,4.75,1.06,1.32.71,2.51,1.9,3.57,3.59,1.06,1.69,2.09,3.99,3.07,6.89.43,1.26.85,2.44,1.24,3.56.39,1.12.83,2.03,1.3,2.74.47.71,1.06,1.1,1.77,1.18,1.02-.04,2.02-.95,2.98-2.74.96-1.79,1.86-4.49,2.69-8.1l7.85,5.01c-.55,1.61-1.19,3.32-1.92,5.12-.73,1.81-1.61,3.51-2.66,5.12-1.04,1.61-2.33,2.93-3.87,3.95-1.53,1.02-3.36,1.53-5.49,1.53-3.03,0-5.44-.98-7.23-2.94-1.79-1.96-3.12-4.46-3.98-7.48-.83-2.98-1.68-5.23-2.57-6.74s-1.96-2.31-3.22-2.39c-2.01.04-3.73.81-5.16,2.3-1.44,1.49-2.71,3.72-3.81,6.69-1.1,2.97-2.18,6.68-3.25,11.16l-9.38-2.53c.39-2.32.96-5.06,1.71-8.22s1.59-6.55,2.54-10.16c.94-3.61,1.95-7.22,3.01-10.84,1.06-3.61,2.15-7.05,3.28-10.31,1.12-3.26,2.19-6.11,3.22-8.54l9.44,2.59Z"/>
        <path class="cls-16" d="M1116.52,989.19c-3.82,1.69-7.77,2.98-11.86,3.89-4.09.9-8.01,1.35-11.75,1.35-4.01,0-7.66-.56-10.95-1.68-3.29-1.12-5.9-2.87-7.85-5.24-1.95-2.38-2.92-5.43-2.92-9.16v-.59l8.38-2.59v.71c0,2.16.55,3.89,1.65,5.18,1.1,1.3,2.58,2.22,4.43,2.77,1.85.55,3.92.82,6.2.82,2.44,0,4.98-.24,7.61-.74,2.64-.49,5.18-1.13,7.64-1.91,2.46-.79,4.61-1.61,6.46-2.47l2.95,9.66ZM1109.91,960.91c-1.77-.9-3.82-1.63-6.14-2.18-2.32-.55-4.77-.96-7.35-1.24-2.58-.27-5.15-.41-7.7-.41-2.16,0-4.28.1-6.35.29-2.07.2-3.94.47-5.64.83l-1-9.42c2.56-.59,5.07-1.02,7.53-1.3,2.46-.28,4.87-.41,7.23-.41,4.33,0,8.4.43,12.22,1.3,3.82.86,7.14,2.08,9.98,3.65l-2.77,8.89Z"/>
        <path class="cls-16" d="M1152.76,995.78c-2.2,0-4.62-.18-7.26-.53-2.64-.35-5.49-.92-8.56-1.71l-1.06-9.72c3.11,1.06,5.95,1.82,8.53,2.27,2.58.45,4.89.68,6.93.68,3.62,0,6.54-.47,8.76-1.41,2.22-.94,3.84-2.08,4.84-3.42,1-1.33,1.51-2.57,1.51-3.71,0-1.61-.49-2.93-1.48-3.98-.98-1.04-2.27-1.82-3.87-2.33-1.59-.51-3.32-.77-5.16-.77-.9,0-2.12.12-3.66.35-1.53.24-3.44.7-5.73,1.38-2.28.69-4.98,1.76-8.09,3.21l-3.01-9.25c3.62-1.18,6.82-2.47,9.59-3.89,2.77-1.41,5.1-2.8,6.96-4.15,1.87-1.35,3.25-2.48,4.16-3.39.55-.55.83-1.04.83-1.47,0-.51-.65-.77-1.95-.77-1.06,0-2.41.16-4.04.47-1.63.31-3.42.75-5.37,1.3-1.95.55-3.93,1.19-5.96,1.91-2.03.73-3.96,1.52-5.81,2.39l-2.66-9.31c4.88-2.08,9.26-3.53,13.13-4.36,3.88-.82,7.51-1.24,10.89-1.24,2.4,0,4.55.3,6.46.91,1.91.61,3.42,1.55,4.54,2.83,1.12,1.28,1.68,2.92,1.68,4.92,0,1.65-.44,3.15-1.33,4.51-.88,1.35-2.02,2.54-3.39,3.56-1.38,1.02-2.85,1.87-4.43,2.53h.41c2.2,0,4.33.31,6.37.94,2.05.63,3.89,1.56,5.52,2.8,1.63,1.24,2.93,2.74,3.9,4.51.96,1.77,1.45,3.79,1.45,6.07,0,3.22-.95,6.18-2.86,8.89-1.91,2.71-4.63,4.88-8.17,6.51-3.54,1.63-7.75,2.44-12.63,2.44Z"/>
      </g>
    </g>
    <g>
      <path class="cls-14" d="M916.73,346.71c-1.36-.76-2.99-1.52-4.89-2.28-1.9-.76-3.81-1.44-5.73-2.04s-3.6-1.04-5.04-1.32l2.82-9.24c1.72.36,3.56.85,5.52,1.47,1.96.62,3.9,1.31,5.82,2.07,1.92.76,3.68,1.54,5.28,2.34l-3.78,9ZM952.55,343.35c-1.72,2.64-3.77,5.19-6.15,7.65s-4.94,4.75-7.68,6.87c-2.74,2.12-5.54,3.97-8.4,5.55-2.86,1.58-5.65,2.81-8.37,3.69-2.72.88-5.24,1.32-7.56,1.32-3.16,0-5.91-.98-8.25-2.94s-3.99-5.24-4.95-9.84l8.46-3.9c.56,2.4,1.34,4.12,2.34,5.16,1,1.04,2.32,1.56,3.96,1.56,1.04,0,2.47-.33,4.29-.99,1.82-.66,3.85-1.63,6.09-2.91,2.24-1.28,4.54-2.86,6.9-4.74,2.36-1.88,4.64-4.04,6.84-6.48,2.2-2.44,4.16-5.12,5.88-8.04l6.6,8.04ZM923.15,333.99c-1.76-1.64-4.03-3.26-6.81-4.86-2.78-1.6-5.67-3.06-8.67-4.38l3.3-8.76c2.12.76,4.25,1.69,6.39,2.79,2.14,1.1,4.15,2.25,6.03,3.45,1.88,1.2,3.42,2.34,4.62,3.42l-4.86,8.34Z"/>
      <path class="cls-14" d="M965.81,344.49c-.76-3.2-1.33-6.68-1.71-10.44-.38-3.76-.57-7.58-.57-11.46,0-.84,0-1.68.03-2.52.02-.84.05-1.66.09-2.46l10.14-.6c0,5.44.18,10.33.54,14.67.36,4.34.94,8.17,1.74,11.49l-10.26,1.32ZM986.27,370.23l-10.02-5.28c4.56-4.32,8.2-8.8,10.92-13.44,2.72-4.64,4.68-9.35,5.88-14.13,1.2-4.78,1.8-9.51,1.8-14.19,0-1.2-.03-2.4-.09-3.6-.06-1.2-.17-2.38-.33-3.54l10.68.78c.04.76.07,1.53.09,2.31.02.78.03,1.57.03,2.37,0,4.12-.29,8.28-.87,12.48-.58,4.2-1.56,8.37-2.94,12.51-1.38,4.14-3.3,8.2-5.76,12.18-2.46,3.98-5.59,7.83-9.39,11.55Z"/>
      <path class="cls-14" d="M1020.47,349.83l-2.04-10.38c2.12-.56,4.61-1.05,7.47-1.47,2.86-.42,5.95-.79,9.27-1.11,3.32-.32,6.71-.56,10.17-.72,3.46-.16,6.83-.24,10.11-.24,3.08,0,5.98.08,8.7.24,2.72.16,5.12.4,7.2.72l-1.14,10.56c-1.8-.32-3.91-.55-6.33-.69-2.42-.14-5.03-.21-7.83-.21-3.12,0-6.35.08-9.69.24-3.34.16-6.62.39-9.84.69-3.22.3-6.21.65-8.97,1.05-2.76.4-5.12.84-7.08,1.32Z"/>
      <path class="cls-14" d="M1086.77,367.53l-6.6-8.88c3.4-2.08,6.63-4.26,9.69-6.54,3.06-2.28,5.88-4.57,8.46-6.87,2.58-2.3,4.82-4.48,6.72-6.54,1.9-2.06,3.37-3.9,4.41-5.52s1.56-2.91,1.56-3.87c0-.8-.35-1.37-1.05-1.71-.7-.34-1.67-.51-2.91-.51-1.72,0-3.85.26-6.39.78-2.54.52-5.22,1.17-8.04,1.95-2.82.78-5.53,1.57-8.13,2.37l-2.04-9.66c4.96-1.36,9.75-2.53,14.37-3.51,4.62-.98,9.11-1.47,13.47-1.47,2.28,0,4.32.25,6.12.75,1.8.5,3.22,1.37,4.26,2.61,1.04,1.24,1.56,2.98,1.56,5.22,0,2.6-.83,5.48-2.49,8.64-1.66,3.16-3.81,6.36-6.45,9.6,2.64,2,5.43,4.41,8.37,7.23,2.94,2.82,5.77,5.81,8.49,8.97l-8.28,6.48c-2.12-2.76-4.5-5.52-7.14-8.28-2.64-2.76-5.2-5.26-7.68-7.5-3.28,3.32-6.72,6.41-10.32,9.27-3.6,2.86-6.92,5.19-9.96,6.99ZM1123.97,322.23c-.32-.36-.75-.99-1.29-1.89-.54-.9-1.05-1.84-1.53-2.82-.48-.98-.8-1.79-.96-2.43l3.96-1.56c.32.88.78,1.9,1.38,3.06.6,1.16,1.26,2.16,1.98,3l-3.54,2.64ZM1131.05,321.27c-.36-.32-.86-.85-1.5-1.59-.64-.74-1.25-1.53-1.83-2.37-.58-.84-1.01-1.56-1.29-2.16l3.48-2.34c.44.8,1.07,1.72,1.89,2.76.82,1.04,1.65,1.9,2.49,2.58l-3.24,3.12Z"/>
    </g>
  </g>
  <g id="_レイヤー_4" data-name="レイヤー 4">
    <g>
      <g>
        <path class="cls-13" d="M432.04,1436.23c0,12.58-49.83,37.04-107.92,37.04s-116.81-19.23-116.81-31.81,60.66-3.69,118.75-3.69,105.99-14.12,105.99-1.54Z"/>
        <g>
          <g>
            <g>
              <path class="cls-3" d="M265.58,1334.77c-4.46-1.26-9.17-1.86-14.02-1.68-26.13.93-46.53,23.81-45.55,51.1.98,27.29,22.95,48.65,49.08,47.72,3.27-.12,6.44-.58,9.5-1.34,17.3,14.5,42.52,23.18,70.28,22.19,50.48-1.8,90.28-34.89,88.88-73.91-1.39-39.01-43.45-69.18-93.93-67.37-25.43.91-48.14,9.76-64.24,23.29Z"/>
              <path class="cls-13" d="M424.18,1378.83c1.4,39.14-38.66,72.46-89.3,74.27-26.73.96-52.38-7.11-70.42-22.14-3.05.75-6.2,1.18-9.36,1.3-26.33.94-48.55-20.62-49.53-48.05s19.64-50.53,45.97-51.47c4.71-.17,9.39.38,13.92,1.63,16.88-14.11,39.72-22.36,64.34-23.24,50.64-1.81,92.98,28.56,94.38,67.7ZM206.44,1384.17c.97,27.05,22.79,48.31,48.64,47.39,3.17-.11,6.33-.56,9.39-1.33l.25-.06.18.15c17.88,14.98,43.38,23.03,69.96,22.08,50.17-1.79,89.85-34.78,88.47-73.54-1.39-38.76-43.33-68.83-93.49-67.04-24.49.88-47.2,9.11-63.95,23.19l-.19.16-.26-.07c-4.5-1.27-9.17-1.83-13.86-1.66-25.85.92-46.1,23.69-45.13,50.74Z"/>
            </g>
            <g>
              <path class="cls-22" d="M272.07,1355.49l55.88,30.61c13.45,6.62,38.88-2.56,58.07-15.81,0,0,17.31-11.94,15.37-33.13-2.45-26.78-8.14-30.82-17.87-36.83-22.22-13.72-49.05-16.82-62-9.26l-50.6,32.5c-12.95,7.56-12.31,25.3,1.14,31.92Z"/>
              <path class="cls-19" d="M332.36,1287.21c39.34-6.59,74.74,20.33,74.13,52.02-.46,23.87-30.36,55.76-70.23,57.18-39.86,1.42-67.92-22.49-74.13-52.02-5.2-24.73,45.95-53.12,70.23-57.18Z"/>
            </g>
            <g>
              <path class="cls-18" d="M221.18,1326.58c-3.89,4.02-.29,18.74-.29,18.74-2.07,12.78,14.14-.06,14.14-.06l6.11-4.89c11.58-3.54-10.42-14.54-10.42-14.54,0,0-7.11-1.77-9.54.75Z"/>
              <path class="cls-16" d="M221.75,1350.97c-.19-.04-.37-.18-.48-.38-1.21-2.21-4.58-20.03-.27-24.86,2.29-2.57,7.98-.89,10.33-.05,6.38,2.29,13.2,7.18,13.88,12.1.06.45-.22.87-.62.94-.41.07-.78-.24-.85-.69-.59-4.22-7.07-8.71-12.88-10.79-4.2-1.51-7.66-1.65-8.81-.35-3.51,3.94-.66,20.76.49,22.85.21.39.1.89-.25,1.13-.17.11-.36.14-.53.1Z"/>
            </g>
            <path class="cls-5" d="M411.54,1355.45c-.31,1.38-.88,4.97.52,8.47,1.33,3.33,4.09,5.52,7.99,6.34,8.58,1.81,20.5-2.06,21.62-7.02.43-1.92-.63-4.33-2.58-6.68-3.12-3.76-8.52-7.34-13.72-8.44-4.06-.86-7.36-.47-9.83,1.16-2.54,1.68-3.58,4.28-4,6.16Z"/>
          </g>
          <g>
            <path class="cls-24" d="M209.1,1398.13l1.6-1.75c.89-.97-.13-2.23-1.8-2.23h-3.21c-1.67,0-2.68,1.26-1.8,2.23l1.6,1.75c.83.91,2.76.91,3.6,0Z"/>
            <circle class="cls-16" cx="218.87" cy="1382.11" r="3.54"/>
            <path class="cls-17" d="M211.03,1403c.77,3.12,3.62,7.07,8.35,5.48,3.73-1.26,7.17-4.96,6.65-5.48"/>
          </g>
        </g>
      </g>
      <g>
        <g>
          <g>
            <path class="cls-13" d="M520.33,1619.2c-2.56,22.19-48.31,40.44-107.9,40.44s-105.21-18.27-107.9-40.44c-4.39-36.32,48.31-40.44,107.9-40.44s111.8,6.61,107.9,40.44Z"/>
            <ellipse class="cls-23" cx="412.43" cy="1606.08" rx="107.9" ry="40.44"/>
          </g>
          <g>
            <path class="cls-11" d="M504.17,1555.16c-1.17,40-41.78,71.38-90.52,69.96-25.73-.75-44.58-11.41-60.94-27.89-2.98.57-12.83-2.68-20.82-7.05-31.57-17.25-27.18-28.31-27-40.84.14-9.48.16-34.32,30.46-49.09,14.71-7.17,19.63-.84,23.9.73,17.12-13.29,34.93-21.63,58.63-20.94,48.75,1.42,87.46,35.12,86.29,75.12Z"/>
            <g>
              <path class="cls-12" d="M311.28,1502.65c4.75-3.22,17.73,3.98,17.73,3.98,12.56.71-3.57,15.03-3.57,15.03l-6.12,5.39c-6.21,11.51-11.11-14.41-11.11-14.41,0,0,.1-7.97,3.08-9.98Z"/>
              <path class="cls-16" d="M334.13,1508.82c0-.22-.07-.44-.24-.6-1.78-1.79-17.74-9.45-23.36-5.97-2.99,1.85-2.82,8.29-2.61,10.97.57,7.31,3.49,15.68,7.96,17.54.41.17.87-.03,1.04-.45.17-.42-.03-.89-.44-1.06-3.83-1.59-6.46-9.52-6.98-16.17-.38-4.81.35-8.53,1.85-9.46,4.58-2.84,19.73,4.05,21.42,5.74.31.31.82.31,1.12,0,.15-.15.22-.35.23-.55Z"/>
            </g>
            <polygon class="cls-14" points="420.32 1490.76 367.17 1511.42 420.32 1528.78 473.47 1514.01 420.32 1490.76"/>
            <path class="cls-24" d="M306.42,1552.22l1.34-1.47c.74-.81-.11-1.87-1.51-1.87h-2.69c-1.4,0-2.25,1.05-1.51,1.87l1.34,1.47c.7.76,2.32.76,3.01,0Z"/>
            <circle class="cls-16" cx="311.59" cy="1538.8" r="2.96"/>
            <path class="cls-17" d="M305.03,1556.3c.65,2.62,3.03,5.93,6.99,4.59,3.12-1.05,6.01-4.15,5.57-4.59"/>
          </g>
        </g>
        <path class="cls-15" d="M498.93,1548.15c-4.49,4.79-10.27,4.08-21.2-2.13-.79-.45-1.07-1.46-.62-2.25.45-.79,1.46-1.07,2.25-.62,12.9,7.33,15.71,5.15,18.52,1,3.33-4.91-5.55-15.69-8.71-18.28-.7-.58-.81-1.62-.23-2.33.58-.7,1.62-.81,2.33-.23,2.08,1.71,14.65,14.86,9.34,22.69-.55.81-1.11,1.53-1.7,2.15Z"/>
      </g>
      <g>
        <g>
          <path class="cls-13" d="M650.7,1436.28c-2.03,17.54-38.19,31.97-85.3,31.97s-83.18-14.44-85.3-31.97c-3.47-28.72,38.19-31.97,85.3-31.97s88.39,5.22,85.3,31.97Z"/>
          <ellipse class="cls-6" cx="565.4" cy="1425.91" rx="85.3" ry="31.97"/>
        </g>
        <g>
          <g>
            <ellipse class="cls-24" cx="508.82" cy="1310.86" rx="5.02" ry="12.2"/>
            <path class="cls-25" d="M504.48,1310.86c0,5.78,3.21,10.47,0,10.47s-5.82-4.69-5.82-10.47,2.6-10.47,5.82-10.47,0,4.69,0,10.47Z"/>
            <path class="cls-25" d="M512.65,1308.62c0,7.02-3.21,12.72,0,12.72,3.21,0,5.82-5.69,5.82-12.72,0-7.02-2.6-12.72-5.82-12.72-3.21,0,0,5.69,0,12.72Z"/>
            <path class="cls-6" d="M517.24,1324.05h-.13l-5.03-8.89-3.28,5.8-3.28-5.8-5.03,8.89h-.13l.09.07-.09.15h.27l7.32,6.18c1.03,3.62,2.14,6.69,2.22,6.9l1.1-.4s-1.02-2.81-2-6.19l7.7-6.49h.27l-.09-.15.09-.07Z"/>
          </g>
          <g>
            <path class="cls-24" d="M528.23,1331.93c-3.3-1.31-6.81-2.02-10.45-2.02-19.58,0-35.45,20.49-35.45,45.76s15.87,45.76,35.45,45.76c2.45,0,4.84-.32,7.14-.93,12.56,13.98,31.19,22.84,51.99,22.84,37.82,0,68.48-29.29,68.48-65.42s-30.66-65.42-68.48-65.42c-19.05,0-36.28,7.43-48.69,19.42Z"/>
            <path class="cls-13" d="M643.01,1377.93c0,3.98.56,7.55-.16,11.34s1.41,8.55,0,12.17-6.43,5.49-8.49,8.8-3.79,6.53-6.41,9.44-6.12,4.33-9.21,6.76-5.8,4.52-9.26,6.4-5.97,5.1-9.71,6.37-6.98,4.45-10.89,5.1-7.97.51-11.95.51-8.27,1.15-12.09.52-8.2-1.4-11.87-2.64-6.93-4.54-10.36-6.39-4.32-7.39-7.4-9.8c-3.07-2.4-8.35-1.44-10.98-4.35-2.3.59-4.06-.38-6.43-.38-4.38,0-9.2.23-13.08-1.64s-5.58-6.68-8.63-9.92c-2.84-3.02-5.43-6.07-7.43-10.07-1.86-3.71-4.71-7.23-5.69-11.57-.91-4.07,1.16-8.47,1.16-12.91s-3.77-9.23-2.86-13.29c.98-4.34,3.77-8.36,5.63-12.07,2-3.99,5.5-6.96,8.34-9.98,3.05-3.25,7.35-3.92,11.12-5.73s7.07-3.94,11.45-3.94c3.53,0,6.99-.53,10.34.78,3.26-3.13,7.23-5.16,10.98-7.56s6.72-6.76,10.89-8.4,8.64-3.81,13.07-4.64,9.31,1.12,13.85,1.12c3.98,0,8.21-1.38,12.01-.76s7.75,2.51,11.41,3.76,7.06,3.75,10.47,5.6,7.42,3.21,10.48,5.62,6.9,4.55,9.51,7.45,3.19,7.64,5.25,10.96,3.63,6.88,5.06,10.54,2.41,7.34,3.14,11.23-1.24,7.62-1.24,11.6ZM479.94,1375.68c0,4.37,1.42,9,2.32,13,.96,4.28,5.55,7.21,7.38,10.87,1.96,3.94,1.45,9.59,4.23,12.57,2.99,3.21,7.27,5.75,10.97,7.54s8.64,4.37,12.95,4.37c2.38,0,5.43-.67,7.74-1.28.1-.03-.78-1.98-.68-1.95s1.46-1.67,1.53-1.59c2.61,2.9,4.96,5.73,8,8.12s6.86,3.1,10.28,4.94,6.67,2.92,10.35,4.18,6.67,3.78,10.53,4.42,7.47,5.11,11.39,5.11,7.58-4.68,11.35-5.29,7.87-.2,11.49-1.43,6.6-4.04,9.98-5.87,8.24-1.62,11.27-4,5.79-5.5,8.37-8.37,3.76-6.94,5.81-10.23,6.15-5.74,7.56-9.37-1.65-8.49-.93-12.34,2.32-7.21,2.32-11.15.83-7.86.12-11.61.13-8.39-1.28-11.97-4.45-6.8-6.49-10.09-5.38-5.75-7.98-8.64c-2.58-2.87-4.87-6.2-7.93-8.6s-7.59-2.36-11.02-4.21-6.94-2.47-10.64-3.73-6.58-4.44-10.46-5.08-7.59.8-11.54.8c-4.52,0-8.76-.47-13.1.34s-8.85,1.14-12.97,2.78-7.52,4.56-11.27,6.98-6.31,5.78-9.54,8.91c-.07.07-1.65-1.63-1.75-1.61s.04-.22-.05-.26c-3.33-1.33-6.93-2.1-10.44-2.1-4.31,0-8.85.57-12.68,2.42s-8.88,3.19-11.87,6.39c-2.78,2.98-5.15,7.47-7.12,11.41-1.82,3.66-1,8.77-1.95,13.04-.9,4-4.23,8.2-4.23,12.58Z"/>
          </g>
          <g>
            <path class="cls-25" d="M493.83,1331.12c-2.91,6.44,2.98,24.65,2.98,24.65.29,17.38,13.1-4.34,13.1-4.34l4.82-8.25c10.12-8.12-12.19-15.92-12.19-15.92,0,0-6.9-.18-8.72,3.86Z"/>
            <path class="cls-16" d="M498.59,1362.92c-.19,0-.38-.12-.51-.35-1.5-2.53-7.72-24.88-4.57-32.5,1.68-4.06,7.25-3.57,9.56-3.18,6.31,1.08,13.48,5.44,14.97,11.69.14.57-.05,1.2-.41,1.41-.36.21-.77-.08-.9-.64-1.28-5.36-8.07-9.3-13.81-10.28-4.16-.71-7.39.15-8.23,2.19-2.57,6.22,2.99,27.42,4.42,29.81.26.44.25,1.14-.04,1.55-.14.2-.31.29-.48.29Z"/>
          </g>
          <path class="cls-24" d="M483.81,1377.32l1.6-1.75c.89-.97-.13-2.23-1.8-2.23h-3.21c-1.67,0-2.68,1.26-1.8,2.23l1.6,1.75c.83.91,2.76.91,3.6,0Z"/>
          <circle class="cls-16" cx="488.97" cy="1367.16" r="3.54"/>
          <path class="cls-17" d="M483.61,1383.12c.58,3.55,2.73,8.04,6.3,6.23,2.81-1.43,5.42-5.64,5.03-6.23"/>
          <path class="cls-10" d="M670.78,1390.39c-.22-.42-.35-.89-.47-1.35-.16-.64-.96-2.08-1.36-3.1-.21-.54-.48-1.05-.8-1.53-4.65-6.99,1.14-2.11-2.85-7.91-.71-1.34.98.12-.27-1.9-.38-.61-.68-1.25-.89-1.93-.06-.2-.15-.44-.27-.7-.32-.73-.64-1.47-.75-2.25-.09-.64-1.67-3.03-1.67-3.57,1.57,1.16-5.11-7.4-1.44-3.79.04-.67-3.24-5.23-1.47-3.88,1.62,1.18,1.81.67-1.5-3.95-2.9-4.14-1.05-2.7-1.51-3.98-1.59-2.6.41-.99-1.51-3.98-3.96-5.39,0-1.46-1.5-3.95-1.1-2.02-3.57-5.64-1.47-3.88-.82-1.58.87-.26-.64-2.62-.56-.87-.91-1.86-1.09-2.88-27.8-30.33-105.75-39.57-110.08-4.24-.05.39-.07.78-.06,1.17.59,18.59,18.01,43.02,63.31,33.47,4.5-.95,8.96-1.3,13.25-1.78.09.08.17.15.26.24-.28-.86,3.63,3.19,2.71,1.56-.22-.77,0-1.03,2.27,1.12.56.53,1.21.99,1.91,1.33.43.21.83.39,1.4.77-.42-1.06,2.35,1.63,3.04,1.87-1.46-2.2,1.65.96,2.48,1.45.4.23.76.52,1.11.82,1.6,1.36.99.11,2.11.91,1.65,1.4.03-1.04,2.05.79.59.53,1.25.97,1.97,1.31.19.09.39.2.62.34.5.31,1.01.63,1.57.8,1.04.33,4.57,3.7,5.62,4.23.74.37,1.46.77,2.08,1.32,1.51,1.35,1.71,1.17.67-.46-.85-1.77,4.76,3.84,7.19,4.67,1.03.35,2,.85,2.95,1.37,1.81.98,3.09,1.28,5.27,2.8.26.18.5.38.73.59,3.06,2.74,2.56,1.41,3.65,2.07,1.87.91,3.38,1.95,3.38,1.95.7.45,1.37.3.83-.7.75.88.52.02-.85-2.64Z"/>
        </g>
      </g>
      <g>
        <g>
          <polygon class="cls-21" points="877.86 1603.18 663.93 1605.45 637.89 1642.01 892.42 1640.56 877.86 1603.18"/>
          <polygon class="cls-9" points="892.42 1640.56 637.89 1642.01 637.89 1656.84 892.42 1656.19 892.42 1640.56"/>
        </g>
        <g>
          <g>
            <path class="cls-14" d="M726.39,1510.22c-3.66-1.45-7.54-2.24-11.56-2.24-21.68,0-39.25,22.68-39.25,50.67s17.57,50.67,39.25,50.67c2.71,0,5.36-.35,7.91-1.03,13.91,15.48,34.53,25.29,57.56,25.29,41.88,0,75.82-32.43,75.82-72.43s-33.95-72.43-75.82-72.43c-21.09,0-40.17,8.23-53.91,21.5Z"/>
            <path class="cls-13" d="M856.81,1561.14c0,3.6,1.14,7.4.61,10.86s-.66,7.49-1.72,10.85-6.72,5-8.28,8.17-2.3,6.61-4.31,9.52-4.44,5.3-6.86,7.9-1.78,8.67-4.55,10.91-6.48,3.81-9.54,5.65-6.96,2.53-10.24,3.93-6.29,4.36-9.74,5.3-8.07-4.13-11.63-3.65-6.65,2.66-10.25,2.66-7.37,1.45-10.91.97-8.16,2.01-11.62,1.04-5.3-7.34-8.59-8.77-8.26.03-11.33-1.85-7.58-2.65-10.35-4.96-2.13-9.09-4.56-11.78c-2.55.65-5.49-2.98-8.11-2.98-3.46,0-6.31,2.65-9.51,1.56s-9.36,2.57-12.18.57-6.15-4.89-8.42-7.54c-2.15-2.51-2.59-7.24-4.28-10.31-1.6-2.91-4.3-6.03-5.41-9.34s-.85-7.23-1.39-10.67-.76-7.06-.76-10.54,3.14-6.8,3.66-10.08-.9-7.42.15-10.57c1.1-3.31.43-7.94,2.03-10.84,1.68-3.06,8.71-2.67,10.87-5.19,2.27-2.65,2.75-7.11,5.45-9.04s5.8-4.86,8.99-5.93,7.34-2.95,10.8-2.95c3.91,0,7.84,4.8,11.55,6.25,2.4-2.31,6.7-2.44,9.35-4.4s1.91-9.34,4.8-10.94,7.21-.91,10.29-2.12,6.64-1.13,9.86-1.94,6.52-.69,9.83-1.09,6.46,1.93,9.8,1.93c3.6,0,6.88-1.2,10.35-.74s8.47-5.04,11.86-4.11,5.68,6.28,8.91,7.67,8.07.37,11.08,2.19,5.86,4.72,8.6,6.94,1.38,8.85,3.79,11.44,5.33,4.33,7.34,7.24,6.65,4.24,8.22,7.43,5.28,5.91,6.35,9.31-3.88,8.26-3.34,11.8,3.35,6.66,3.35,10.26ZM676.26,1558.62c0,3.43,1.68,6.53,2.19,9.76s2,6.12,3.03,9.23c1.08,3.26-1.85,8.16-.29,11.03,1.65,3.02,4.64,5.44,6.75,7.92,2.23,2.62,4.65,5.4,7.3,7.3s7.69-.89,10.82.18,5.35,2.31,8.75,2.31c2.63,0,4.89.88,7.45.2.11-.03.47-1.9.58-1.9s-2.36,4.88-2.29,4.97c2.41,2.68,6.66,4.04,9.43,6.34s6.68,2.99,9.75,4.88,7.49.38,10.8,1.81,4.67,7.65,8.15,8.62,7.61-1.83,11.19-1.33,6.8-1.28,10.42-1.28,7.18,5.18,10.62,4.72,8.11,2.56,11.46,1.65,6.11-5.2,9.32-6.57,3.41-8.36,6.4-10.16,5.29-3.6,8.01-5.8,6.54-2.58,8.92-5.14,3.37-5.76,5.37-8.64,4.56-4.95,6.11-8.1,2.78-6.05,3.84-9.41,4.61-5.96,5.15-9.47-1.55-7.01-1.55-10.57-2.7-6.42-3.23-9.84,4.57-8.1,3.52-11.43-5.14-5.56-6.69-8.7-4.21-5.36-6.2-8.25-4.84-4.56-7.23-7.14-2.02-7.79-4.76-10.01-4.32-6.48-7.34-8.3-9.1,2.49-12.35,1.1-5.41-4.76-8.83-5.7-6.5-2.76-10.02-3.23-6.95-1.43-10.52-1.43c-3.32,0-7.02-2.3-10.26-1.9s-6.59,2.48-9.76,3.28-4.21,7.86-7.26,9.07-7.61-1.39-10.48.21-3.77,5.87-6.42,7.83-5.34,3.26-7.72,5.56c-.08.08-2.44-4.88-2.55-4.86s1.29,1.23,1.18,1.19c-3.69-1.47-8.15.32-11.99.96-2.47.41-4.64,3.53-8.4,5.1-2.84,1.18-8.52-2.59-11.55-.67-2.73,1.73-3.85,6.09-6.37,8.46-2.39,2.25-3.81,5.17-5.71,8.04-1.8,2.72-8.76,3.5-9.87,6.8-1.01,3.03,3.59,7.8,3.36,11.35-.2,3.14-.77,6.39-.22,9.96Z"/>
          </g>
          <g>
            <path class="cls-14" d="M680.47,1512.72c4.18-2.96,16.01,3.03,16.01,3.03,11.29.3-2.82,13.33-2.82,13.33l-5.36,4.9c-5.28,10.29-10.34-12.39-10.34-12.39,0,0-.12-7.02,2.5-8.87Z"/>
            <path class="cls-16" d="M701.13,1517.56c0-.19-.08-.38-.23-.52-1.64-1.53-16.16-7.85-21.11-4.64-2.63,1.71-2.32,7.37-2.06,9.73.7,6.42,3.54,13.71,7.6,15.23.37.14.78-.05.92-.42.14-.37-.05-.78-.42-.92-3.48-1.3-6.04-8.21-6.68-14.05-.46-4.23.1-7.51,1.42-8.37,4.04-2.62,17.81,3.05,19.36,4.49.29.27.74.25,1.01-.04.13-.14.19-.31.19-.49Z"/>
          </g>
          <path class="cls-5" d="M837.01,1558.19c-.64.98-2.13,3.6-2.07,6.72.06,2.97,1.56,5.48,4.35,7.26,6.13,3.91,16.51,4.39,18.82.86.9-1.36.78-3.55-.05-5.93-1.32-3.83-4.47-8.18-8.18-10.55-2.9-1.85-5.58-2.51-7.97-1.97-2.46.56-4.03,2.27-4.91,3.61Z"/>
          <path class="cls-24" d="M677.1,1568.64l1.6-1.64c.89-.91-.13-2.09-1.8-2.09h-3.21c-1.67,0-2.68,1.18-1.8,2.09l1.6,1.64c.83.85,2.76.85,3.6,0Z"/>
          <ellipse class="cls-16" cx="682.74" cy="1555.25" rx="3.54" ry="3.32"/>
          <path class="cls-17" d="M678.21,1574.04c.77,2.93,3.62,6.64,8.35,5.14,3.73-1.18,7.17-4.65,6.65-5.14"/>
        </g>
      </g>
      <g>
        <g>
          <polygon class="cls-8" points="983.02 1411.01 721.83 1413.77 690.04 1458.42 1000.8 1456.65 983.02 1411.01"/>
          <polygon class="cls-7" points="1000.8 1456.65 690.04 1458.42 690.04 1476.52 1000.8 1475.74 1000.8 1456.65"/>
        </g>
        <g>
          <path class="cls-13" d="M957.19,1325.16c-1.58,16.9-26.78,21.68-32.48,21.46-6.73-.26-20.54-4.23-22.7-20.46-1.9-14.28,1.51-26.05,8.48-32.52,7.39-6.87,18.28-4.49,19.52-4.52,3.65-.11,27.78,4.74,27.53,28.99-.03,2.51-.14,4.85-.34,7.05Z"/>
          <path class="cls-4" d="M801.26,1300.29c-4.64-2.37-9.67-3.88-14.98-4.38-28.6-2.67-49.88,44.97-51.73,59.53-5.14,40.44,10.65,71.5,39.25,74.17,3.58.33,7.11.19,10.56-.38,16.44,22.14,47.21,15.77,77.6,18.6,55.25,5.16,99.28-11.59,104.21-64.37,4.93-52.78-35.87-99.75-91.12-104.91-27.83-2.6-54.01,5.91-73.78,21.73Z"/>
          <path class="cls-13" d="M911.85,1415.81c-1.2.77-4.16,2.94-5.66,6.46-1.42,3.35-1.03,6.91,1.15,10.31,4.79,7.47,15.98,13.25,20.3,10.48,1.67-1.07,2.64-3.57,2.92-6.65.46-4.95-.82-11.41-3.71-15.93-2.26-3.53-4.88-5.63-7.79-6.23-2.99-.62-5.58.5-7.22,1.55Z"/>
          <path class="cls-13" d="M795.03,1389.17c-1.07,11.47-20.52,14.49-24.94,14.29-5.21-.23-15.93-3.06-17.75-14.1-1.6-9.72.94-17.68,6.27-22.02,5.66-4.6,14.11-2.88,15.06-2.9,2.82-.04,21.54,3.47,21.56,19.94,0,1.7-.06,3.3-.2,4.79Z"/>
          <path class="cls-13" d="M898.12,1352.18c-2.05,21.98-34.24,28.25-41.53,27.98-8.59-.32-26.23-5.46-28.95-26.56-2.39-18.57,1.98-33.88,10.9-42.32,9.46-8.95,23.36-5.88,24.94-5.93,4.66-.15,35.47,6.1,35.09,37.65-.04,3.26-.19,6.31-.45,9.18Z"/>
          <path class="cls-16" d="M780.03,1309.67c.03-5.54-5.88-11.12-11.73-13.76-2.15-.97-7.42-2.92-10-.06-4.85,5.37-4.11,25.45-3.25,27.94.08.23.23.38.41.43.17.05.35.02.53-.11.05-.03.09-.07.13-.11,3.46,1.72,13.02-6.06,13.02-6.06l6.61-5.43c1.54-.51,2.53-1.17,3.1-1.93.12.1.28.15.45.12.4-.07.73-.54.73-1.05Z"/>
          <path class="cls-24" d="M735.38,1378.85l1.6-1.75c.89-.97-.13-2.23-1.8-2.23h-3.21c-1.67,0-2.68,1.26-1.8,2.23l1.6,1.75c.83.91,2.76.91,3.6,0Z"/>
          <path class="cls-17" d="M735.89,1382.55c.77,3.12,3.62,7.07,8.35,5.48,3.73-1.26,7.17-4.96,6.65-5.48"/>
          <path class="cls-13" d="M941.57,1357.48c-1.31,1.64-4.41,6.07-4.82,11.66-.39,5.31,1.88,10.05,6.56,13.69,10.29,8.01,28.75,10.59,33.48,4.68,1.83-2.29,1.98-6.2.9-10.61-1.73-7.06-6.62-15.36-12.85-20.21-4.87-3.79-9.54-5.42-13.9-4.84-4.49.59-7.57,3.39-9.37,5.63Z"/>
          <ellipse class="cls-13" cx="751.87" cy="1350.3" rx="13.29" ry="11.9"/>
        </g>
      </g>
    </g>
  </g>
</svg>