<?xml version="1.0" encoding="UTF-8"?>
<svg id="_レイヤー_2" data-name="レイヤー 2" xmlns="http://www.w3.org/2000/svg" viewBox="0 0 1056.34 1068.06">
  <defs>
    <style>
      .cls-1 {
        fill: #cf9300;
      }

      .cls-2 {
        fill: #b0b0b0;
      }

      .cls-3 {
        fill: #fbd185;
      }

      .cls-4 {
        fill: #e6a5b5;
      }

      .cls-5, .cls-6, .cls-7 {
        stroke: #cf9300;
      }

      .cls-5, .cls-8 {
        fill: #fbf6c7;
      }

      .cls-5, .cls-7, .cls-9, .cls-10 {
        stroke-miterlimit: 10;
      }

      .cls-11 {
        fill: #8a6239;
      }

      .cls-6, .cls-7, .cls-10 {
        fill: none;
      }

      .cls-12 {
        fill: #c7b299;
      }

      .cls-13 {
        fill: #42210b;
      }

      .cls-7 {
        stroke-width: 3px;
      }

      .cls-7, .cls-10 {
        stroke-linecap: round;
      }

      .cls-9 {
        fill: #89c33f;
      }

      .cls-9, .cls-10 {
        stroke: #42210b;
      }

      .cls-10 {
        stroke-width: 4px;
      }
    </style>
  </defs>
  <g id="_レイヤー_3" data-name="レイヤー 3">
    <g>
      <g>
        <polygon class="cls-11" points="1053.34 518.6 553.16 1065.06 3 532.68 548.52 3 1053.34 518.6"/>
        <polygon class="cls-12" points="552.76 1065.24 1053.76 518.24 2.76 532.24 552.76 1065.24"/>
        <polygon class="cls-2" points="902.72 390.88 824.25 391.93 868.02 338.28 799.96 259.24 701.08 260.56 680.65 236.83 546.66 238.61 480.73 319.43 548.79 398.47 607.38 397.69 543.82 475.61 611.88 554.64 745.86 552.85 758.17 537.78 770.86 552.52 904.85 550.74 970.78 469.92 902.72 390.88"/>
        <polygon class="cls-2" points="754.72 302.88 676.25 303.93 720.02 250.28 651.96 171.24 553.08 172.56 532.65 148.83 398.66 150.61 332.73 231.43 400.79 310.47 459.38 309.69 395.82 387.61 463.88 466.64 597.86 464.85 610.17 449.78 622.86 464.52 756.85 462.74 822.78 381.92 754.72 302.88"/>
        <polygon class="cls-2" points="610.72 434.88 532.25 435.93 576.02 382.28 507.96 303.24 409.08 304.56 388.65 280.83 254.66 282.61 188.73 363.43 256.79 442.47 315.38 441.69 251.82 519.61 319.88 598.64 453.86 596.85 466.17 581.78 478.86 596.52 612.85 594.74 678.78 513.92 610.72 434.88"/>
        <polygon class="cls-2" points="636.12 118.23 606.25 118.63 622.91 98.21 597 68.12 559.37 68.62 551.59 59.59 500.58 60.27 475.49 91.03 501.39 121.12 523.7 120.82 499.5 150.48 525.41 180.57 576.41 179.89 581.09 174.15 585.93 179.76 636.93 179.08 662.02 148.32 636.12 118.23"/>
        <path class="cls-13" d="M553.16,1068.06c-.78,0-1.53-.3-2.09-.84L.91,534.84C.33,534.27,0,533.5,0,532.69c0-.81.33-1.59.91-2.16L546.43.85c1.18-1.15,3.08-1.13,4.23.05l504.83,515.6c1.11,1.14,1.15,2.95.07,4.12l-500.18,546.46c-.55.6-1.31.95-2.12.97-.03,0-.06,0-.09,0ZM7.31,532.68l545.72,528.08,496.18-542.09L548.47,7.23,7.31,532.68Z"/>
      </g>
      <g>
        <path class="cls-5" d="M831.04,713.72l-188.67-326.79c-14.15-24.5-49.52-24.5-63.66,0l-53.42,92.52c-34.07-37.09-84.62-60.6-141.06-60.6-102.58,0-185.74,77.64-185.74,173.41s83.16,173.41,185.74,173.41c6.9,0,13.71-.36,20.41-1.05,5.05,2.68,10.87,4.23,17.23,4.23h377.35c28.29,0,45.98-30.63,31.83-55.13Z"/>
        <g>
          <path class="cls-5" d="M762.94,462.99c-26.62,59.71-69.71,118.38-155.71,118.38s-132.75-57.16-155.71-118.38c-17.6-46.93-73.84-139.17,158.91-143.97,232.49-4.8,172.24,99.72,152.51,143.97Z"/>
          <polyline class="cls-7" points="569.43 471.73 605.7 525.07 641.02 471.73"/>
          <path class="cls-3" d="M603.91,319.02c-18.66,0-68.05,2.02-74.65,8s55.46,113.05,78.39,112.51c14.4-.33,81.56-106.24,73.12-117.85-16.97-2.54-69.92-2.67-76.85-2.67Z"/>
          <g>
            <g>
              <path class="cls-3" d="M654.02,335.94l19.62,21.18c1.5,1.62,4.2,1.55,5.57-.14l79.65-99.6c-16.11,6.56-24.14,19.67-27.13,20.74l-58.74,47.48c-1.56,1.19-18.95,2.46-18.96,10.35Z"/>
              <path class="cls-1" d="M676.16,358.69c-1.08-.05-2.09-.51-2.81-1.29l-19.72-21.3v-.16c.01-6.26,10.24-8.53,15.74-9.74,1.58-.35,3.07-.68,3.39-.92l58.79-47.52.06-.02c.84-.3,2.3-1.84,4.16-3.8,4.39-4.63,11.75-12.37,22.95-16.93l1.42-.58-80.6,100.8c-.72.89-1.82,1.42-3.01,1.46-.12,0-.23,0-.35,0ZM654.42,335.79l19.51,21.06c.64.69,1.57,1.07,2.55,1.04.96-.03,1.84-.46,2.42-1.16l78.66-98.37c-10.24,4.56-17.07,11.75-21.23,16.13-2.04,2.14-3.4,3.57-4.41,3.97l-58.69,47.44c-.44.34-1.57.6-3.7,1.07-5.23,1.16-14.92,3.3-15.11,8.81Z"/>
            </g>
            <g>
              <path class="cls-8" d="M752.58,261.6l-73.28,80.7c-6.9,7.63-22.39.06-5.52,15.04l85.67,40.99c8.51-5.22,14.46-26.05,14.34-37.19l.49-96.2c-.16-14.09-6.93-19.59-21.7-3.33Z"/>
              <path class="cls-1" d="M759.48,398.77l-.2-.09-85.73-41.01-.04-.04c-6.89-6.12-8.05-8.18-7.68-9.54.34-1.26,2.1-1.61,4.32-2.06,2.85-.58,6.4-1.29,8.85-4l73.28-80.7c7.26-7.99,13-11.26,17.06-9.72,3.41,1.29,5.25,5.9,5.33,13.31l-.49,96.2c.13,11.44-5.91,32.25-14.53,37.53l-.18.11ZM674,357l85.43,40.87c8.16-5.25,14.09-25.81,13.96-36.74l.49-96.2c-.08-6.95-1.79-11.42-4.82-12.57-3.67-1.39-9.27,1.89-16.19,9.51l-73.28,80.7c-2.63,2.9-6.47,3.68-9.28,4.25-1.88.38-3.5.71-3.71,1.49-.41,1.51,3.73,5.44,7.4,8.7Z"/>
            </g>
          </g>
          <g>
            <g>
              <path class="cls-3" d="M554.86,341.69l-7.16,14.32-108.98-79.55,111.72,51.79c5.03,2.36,6.8,8.66,4.42,13.44Z"/>
              <path class="cls-6" d="M554.86,341.69l-7.16,14.32-108.98-79.55,111.72,51.79c5.03,2.36,6.8,8.66,4.42,13.44Z"/>
            </g>
            <g>
              <path class="cls-8" d="M421.91,291.46l23.95,115.79c1.84,8.91,12.26,12.96,19.63,7.63l78.42-56.62c7.38-5.33,6.81-16.48-1.07-21.04l-102.37-59.17c-9.38-5.42-20.76,2.79-18.56,13.4Z"/>
              <path class="cls-1" d="M456.44,419.48c-1.27,0-2.55-.23-3.77-.71-3.29-1.28-5.69-4.11-6.4-7.57l-25.91-125.27c-.84-4.06.73-8.09,4.09-10.52,3.36-2.43,7.68-2.65,11.27-.57l110.76,64.01c3.06,1.77,4.99,4.93,5.17,8.46s-1.43,6.87-4.29,8.94l-84.85,61.26c-1.8,1.3-3.92,1.97-6.07,1.97ZM421.14,285.77l25.91,125.27c.66,3.2,2.87,5.81,5.91,6.99,3.04,1.18,6.44.75,9.08-1.16l84.85-61.26c2.65-1.91,4.13-4.99,3.96-8.25-.17-3.26-1.95-6.18-4.78-7.81l-110.76-64.01c-3.31-1.91-7.3-1.71-10.4.53-3.1,2.24-4.55,5.96-3.77,9.71Z"/>
            </g>
          </g>
          <g>
            <path class="cls-4" d="M613.56,525.59l7.37-8.75c4.66-5.53.73-13.99-6.51-13.99h-14.73c-7.23,0-11.17,8.45-6.51,13.99l7.37,8.75c3.4,4.04,9.62,4.04,13.01,0Z"/>
            <path class="cls-13" d="M636.23,559.9c-.2,0-.4-.05-.59-.16l-30.03-17.04-18.77,14.81c-.52.41-1.27.32-1.68-.2-.41-.52-.32-1.27.2-1.68l19.4-15.3c.38-.3.91-.34,1.33-.1l30.73,17.44c.57.33.77,1.05.45,1.63-.22.39-.62.6-1.04.6Z"/>
          </g>
          <path class="cls-1" d="M464.17,489.64c-2.35-3.49-.19.4,3.64-5.89,9.19-15.06,38.54-40.25,49.24-40.25.05,0,.1,0,.15,0,2.25.05,4.09,1.07,5.03,2.81l-6.61,3.12c.37.67,1.09.96,1.4.97-.02,0-.04,0-.05,0-5.46,0-32.83,20.63-42.68,36.69-2.81,4.58-4.98,13.05-4.56,13.68l-5.57-11.14Z"/>
          <path class="cls-9" d="M511.21,451.99c-3.21-14.16,40.08-9.24,46.05-2.6,5.97,6.64,13.1,15.31,12.17,22.34s-23.12,13.86-30.64,10.1c-7.52-3.76-24.93-18.13-27.58-29.84Z"/>
          <ellipse cx="537.58" cy="456.06" rx="4.53" ry="10.13"/>
          <path class="cls-1" d="M745.77,497.6l-6.36,8.75c.52.59-.69-8.04-6.1-17.1-10.91-18.29-34.15-38.74-38.93-38.9.43-.01,1.16-.37,1.45-1l-6.54-2.74c.81-1.79,2.47-2.91,4.54-3.08,4.24-.33,11.18,3.9,20.63,12.61,8.34,7.69,16.66,17.17,22.25,25.36,7.41,10.86,11.85,11.13,9.06,16.1Z"/>
          <path class="cls-9" d="M699.23,451.99c3.21-14.16-40.08-9.24-46.05-2.6-5.97,6.64-13.1,15.31-12.17,22.34.93,7.03,23.12,13.86,30.64,10.1s24.93-18.13,27.58-29.84Z"/>
          <ellipse cx="655.96" cy="458.73" rx="4.53" ry="10.13"/>
          <g>
            <line class="cls-10" x1="575.54" y1="322.2" x2="575.54" y2="364.76"/>
            <line class="cls-10" x1="633.61" y1="320.21" x2="633.61" y2="363.17"/>
            <line class="cls-10" x1="604.18" y1="320.61" x2="604.97" y2="380.67"/>
          </g>
        </g>
        <g>
          <g>
            <path class="cls-5" d="M468.55,743c0,14.5-57.81,19.86-128.47,26.25-87.9,7.95-119.72-80.16-119.72-94.66s48.77,42.16,119.72,42.16,128.47,11.75,128.47,26.25Z"/>
            <path class="cls-13" d="M308.26,715.56c1.81,5.75-16.32,4.02-15.11,20.68,1.2,16.66,10.34,14.32,15.11,30.23-29.9-4.03-46.1-22.37-43.75-40.57,3.18-24.66,43.75-10.34,43.75-10.34Z"/>
            <path class="cls-13" d="M368.6,716.53c1.65,5.9-14.94,4.13-13.84,21.25,1.1,17.12,9.47,14.71,13.84,31.06-27.39-4.14-43.16-23.16-40.07-41.69,2.19-13.08,40.07-10.63,40.07-10.63Z"/>
          </g>
          <g>
            <path class="cls-13" d="M753.22,697.79c7.78,7.72,14.98-9.15,39.74,9.89,24.76,19.04,16.23,24.06,37.91,45.24,10.06-29.11,4.38-66.47-29.12-66.8-17.34-.17-48.53,11.67-48.53,11.67Z"/>
            <path class="cls-5" d="M604.58,748.87c-6.32-92.66,50.84-37.23,113.65-46.83,94.51-14.45,115.57,14.44,116.3,37.82.73,23.37-52.81,52.4-113.65,46.83-63.13-5.78-113.69.45-116.3-37.82Z"/>
            <path class="cls-13" d="M763.7,696.41c3.51,8.74,22.38,12.02,26.72,39.39,4.64,29.26-27.72,48.93-7.37,45.37,17.07-11.72,20.35-50.36,8.82-77.4-3.91-9.16-28.16-7.36-28.16-7.36Z"/>
          </g>
          <g>
            <path class="cls-13" d="M487.16,696.46c-9.32,6.26-13.85-11.6-42.57,2.88-28.72,14.49-20.8,20.91-46.72,38.03-5.39-30.43,19.89-60.96,52.92-72.38,23.32-8.06,36.36,31.46,36.36,31.46Z"/>
            <path class="cls-5" d="M633.45,731.27c3.51,92.87-53.15,35.22-117.65,42.36-97.06,10.74-117.65-18.96-117.65-42.36s55.65-50.31,117.65-42.36c64.34,8.25,116.2,4,117.65,42.36Z"/>
            <path class="cls-13" d="M504.74,688.51c-6.1,9.2-23.9,4.71-35.8,34.2-12.72,31.53-7.95,57.27-29.1,51.22-15.45-14.63,6.81-50.63,26.43-79,6.65-9.61,38.46-6.43,38.46-6.43Z"/>
          </g>
        </g>
      </g>
      <g>
        <path d="M144.88,489.21l-13.99,14.44-3.79-3.67c-1.77-1.71-3.07-2.62-3.91-2.72-.84-.1-1.68.28-2.51,1.14-.91.94-1.27,1.96-1.08,3.07.19,1.11.94,2.31,2.27,3.6,1.71,1.65,3.25,2.63,4.64,2.92,1.36.32,3.82-.13,7.38-1.37,10.22-3.52,17.32-5.08,21.31-4.7s8.49,3,13.5,7.86c3.64,3.53,5.84,6.62,6.6,9.29.76,2.67.34,6-1.26,9.98-1.6,3.99-4.24,7.88-7.91,11.67-4.03,4.16-8.15,7.06-12.34,8.69-4.2,1.64-7.78,1.9-10.74.79-2.97-1.11-6.36-3.52-10.19-7.23l-3.35-3.24,13.99-14.44,6.22,6.02c1.92,1.86,3.34,2.84,4.28,2.97.94.12,1.91-.33,2.91-1.37,1-1.03,1.4-2.14,1.2-3.32-.21-1.18-.99-2.43-2.36-3.75-3.01-2.92-5.44-4.34-7.3-4.28-1.88.09-5.78,1.01-11.69,2.78-5.93,1.74-10,2.77-12.21,3.06s-4.58.01-7.12-.86c-2.55-.87-5.18-2.62-7.89-5.25-3.91-3.79-6.21-7.15-6.88-10.07-.68-2.92-.26-6.18,1.25-9.78,1.51-3.6,4.05-7.24,7.63-10.94,3.91-4.04,7.8-6.94,11.67-8.7,3.87-1.76,7.1-2.29,9.69-1.57,2.59.72,5.91,3.04,9.97,6.98l2.02,1.96Z"/>
        <path d="M169.63,432.73l34.14,33.09c3.87,3.75,6.45,6.53,7.73,8.35s2.04,4.25,2.29,7.3c.25,3.05-.36,6.18-1.81,9.38-1.45,3.2-3.74,6.41-6.86,9.64-3.46,3.57-7.02,6.23-10.67,7.98-3.66,1.75-6.95,2.52-9.88,2.31-2.93-.22-5.42-1.07-7.46-2.57-2.04-1.5-5.94-5.04-11.7-10.62l-30.23-29.3,15.06-15.54,38.31,37.13c2.23,2.16,3.79,3.4,4.69,3.72.9.32,1.76.05,2.59-.81.95-.98,1.23-1.95.82-2.9-.41-.95-1.89-2.65-4.43-5.12l-37.65-36.49,15.06-15.54Z"/>
        <path d="M209.1,392l51.09,49.51-13.2,13.62-31.06-14.42,23.23,22.51-12.6,13-51.09-49.51,12.6-13,31.45,13.58-23.01-22.29,12.6-13Z"/>
        <path d="M241.19,358.89l59.71,40.62-15.4,15.89-9.99-8.06-5.39,5.56,8.28,9.83-15.57,16.07-43.41-57.44,21.77-22.47ZM266.06,398.97c-6.55-4.82-14.47-10.96-23.75-18.43,8.25,11.06,14.44,18.99,18.57,23.78l5.19-5.35Z"/>
      </g>
      <g>
        <path d="M365.68,224.45l49.19,51.41-13.71,13.12-30.5-15.58,22.36,23.37-13.08,12.51-49.19-51.41,13.08-12.51,30.92,14.76-22.15-23.15,13.08-12.51Z"/>
        <path d="M371.96,218.44l26.08-24.95,9.84,10.29-10.44,9.99,9.33,9.75,9.77-9.35,9.36,9.78-9.77,9.35,10.82,11.3,11.48-10.98,9.84,10.29-27.12,25.95-49.19-51.41Z"/>
        <path d="M440.86,152.52l13.24,31.79,36.8,18.79-16.16,15.46-27.42-15.97,21.08,22.04-15.64,14.96-49.19-51.41,15.64-14.96,19.11,19.97-12.14-26.64,14.67-14.04Z"/>
        <path d="M508.94,145.03c4.94,5.17,8.3,8.96,10.07,11.38,1.77,2.42,2.76,5.24,2.96,8.45.2,3.21-.52,6.52-2.15,9.91-1.64,3.39-4.16,6.71-7.55,9.96-3.22,3.08-6.54,5.4-9.96,6.95-3.42,1.55-6.78,2.18-10.06,1.87-3.28-.31-6.08-1.38-8.41-3.21s-6.02-5.39-11.08-10.69l-8.42-8.79c-4.94-5.16-8.3-8.96-10.07-11.38-1.77-2.42-2.76-5.24-2.96-8.45-.2-3.21.52-6.51,2.16-9.91,1.64-3.39,4.16-6.71,7.55-9.96,3.22-3.08,6.54-5.4,9.97-6.95,3.42-1.55,6.78-2.18,10.06-1.87,3.28.31,6.08,1.38,8.41,3.21,2.32,1.83,6.02,5.39,11.08,10.69l8.42,8.79ZM477.14,143.11c-2.29-2.39-3.91-3.77-4.85-4.14-.95-.37-1.9-.09-2.87.83-.82.78-1.18,1.65-1.1,2.6.08.96,1.39,2.75,3.92,5.4l22.97,24c2.86,2.98,4.76,4.69,5.71,5.12.95.43,1.95.14,2.99-.85,1.06-1.02,1.36-2.07.89-3.16s-2.16-3.15-5.05-6.17l-22.6-23.62Z"/>
      </g>
    </g>
  </g>
</svg>