<?xml version="1.0" encoding="UTF-8"?>
<svg id="_レイヤー_2" data-name="レイヤー 2" xmlns="http://www.w3.org/2000/svg" viewBox="0 0 791 909">
  <defs>
    <style>
      .cls-1 {
        fill: #231815;
      }

      .cls-2 {
        fill: #fff;
      }

      .cls-3 {
        fill: #c46600;
      }

      .cls-4 {
        fill: #d97891;
      }

      .cls-5 {
        fill: #c29057;
      }

      .cls-6 {
        fill: #896239;
      }

      .cls-7 {
        fill: #c6b198;
      }

      .cls-8 {
        fill: #8a6239;
      }

      .cls-9 {
        fill: #42210b;
      }

      .cls-10 {
        fill: #89c33f;
      }

      .cls-11 {
        fill: #85a50d;
      }

      .cls-12 {
        fill: #007146;
      }
    </style>
  </defs>
  <g id="_レイヤー_2-2" data-name="レイヤー 2">
    <g>
      <g>
        <rect class="cls-12" x="10" y="10" width="771" height="889"/>
        <polygon class="cls-9" points="775 19 610 19 308.59 804.65 97.91 859.51 279.2 881.26 277 887 327.06 887 510.03 908.95 523.25 887 775 887 775 19"/>
        <path class="cls-10" d="M791,909H0V0h791v909ZM20,889h751V20H20v869Z"/>
        <path class="cls-10" d="M97.17,654.76c-16.88,10.89-18.33,27.51-10.91,44.89-29.04-18.37-60.72-22.11-72.27,3.71-27.11,50.16,76.77,80.94,126.41,64.8-1.28-4.89-3.07-9.73-5.26-14.47,13.85,9.36,28.56,16.23,41.64,18.72,15.02-59.89-38.08-149.08-79.6-117.66Z"/>
        <path class="cls-10" d="M235.17,697.76c-16.88,10.89-18.33,27.51-10.91,44.89-29.04-18.37-60.72-22.11-72.27,3.71-27.11,50.16,76.77,80.94,126.41,64.8-1.28-4.89-3.07-9.73-5.26-14.47,13.85,9.36,28.56,16.23,41.64,18.72,15.02-59.89-38.08-149.08-79.6-117.66Z"/>
        <path class="cls-10" d="M172.4,885.17c-49.64,16.13-153.52-14.65-126.41-64.8,21.27-47.53,110.74,5.08,126.41,64.8Z"/>
        <path class="cls-10" d="M208.77,889.41c-51.27-9.75-127.51-86.74-79.6-117.65,41.52-31.42,94.62,57.76,79.6,117.65Z"/>
        <path class="cls-10" d="M324.4,890.17c-49.64,16.13-153.52-14.65-126.41-64.8,21.27-47.53,110.74,5.08,126.41,64.8Z"/>
        <path class="cls-10" d="M360.77,894.41c-51.27-9.75-127.51-86.74-79.6-117.65,41.52-31.42,94.62,57.76,79.6,117.65Z"/>
        <g>
          <path class="cls-2" d="M107.19,76.62c-.12,0-.53-.11-1.23-.33-.7-.22-1.35-.33-1.95-.33-1.92,0-4.1.1-6.54.3-2.44.2-4.46.48-6.06.84.12,1.92.23,4.95.33,9.09.1,4.14.15,8.49.15,13.05,0,1.92-.03,4.06-.09,6.42-.06,2.36-.15,3.82-.27,4.38-.08.44-.35.8-.81,1.08-.46.28-.93.42-1.41.42-.28,0-.52-.12-.72-.36-.2-.24-.3-.52-.3-.84l.06-2.1c.24-3.12.36-6.96.36-11.52,0-3.28-.04-7.03-.12-11.25-.08-4.22-.16-6.83-.24-7.83-8,.88-13.34,1.7-16.02,2.46-.48.16-1.02.24-1.62.24-.72,0-1.42-.26-2.1-.78-.68-.52-1.02-1.08-1.02-1.68,0-.4.12-.69.36-.87.24-.18.54-.27.9-.27,2.28-.12,4.2-.24,5.76-.36,3.56-.32,8.04-.82,13.44-1.5,0-1.24.03-2.12.09-2.64.06-.52.19-.78.39-.78.76,0,1.44.3,2.04.9.12.12.22.43.3.93.08.5.12.83.12.99.88-.04,2.32-.24,4.32-.6,4.32-.68,7.28-1.02,8.88-1.02,1.92,0,3.2.24,3.84.72.44.32.66.9.66,1.74,0,.32-.14.65-.42.99-.28.34-.64.51-1.08.51Z"/>
          <path class="cls-2" d="M145.53,112.8c-.8,0-1.53-.84-2.19-2.52s-1.07-3.42-1.23-5.22c-.16-1.52-.32-5.06-.48-10.62-.08-2.32-.14-3.76-.18-4.32-2.76,6.72-5.91,12.62-9.45,17.7-3.54,5.08-6.87,7.62-9.99,7.62-1.56,0-2.91-.94-4.05-2.82-1.14-1.88-2.01-4.41-2.61-7.59s-.9-6.67-.9-10.47c0-3.08.18-6.57.54-10.47.36-3.9.8-6.71,1.32-8.43.16-.48.39-.87.69-1.17.3-.3.65-.45,1.05-.45,1,0,1.5.38,1.5,1.14,0,.12-.38,1.56-1.14,4.32-.76,2.76-1.14,7.92-1.14,15.48,0,5,.47,9.11,1.41,12.33.94,3.22,2.27,4.83,3.99,4.83s3.68-1.37,6-4.11c2.32-2.74,4.53-6.01,6.63-9.81,2.1-3.8,3.63-7.14,4.59-10.02.64-2.12,1.06-5.3,1.26-9.54.12-1.64.22-2.5.3-2.58.32-.4.8-.6,1.44-.6.72,0,1.08.98,1.08,2.94,0,2.36.07,6.84.21,13.44.14,6.6.31,10.78.51,12.54.16,1.48.45,2.64.87,3.48.42.84.87,1.54,1.35,2.1.48.56.72.92.72,1.08,0,.48-.2.89-.6,1.23-.4.34-.9.51-1.5.51Z"/>
          <path class="cls-2" d="M163.53,113.76c-2.6,0-4.66-.21-6.18-.63-1.52-.42-2.28-1.01-2.28-1.77,0-.4.29-1.07.87-2.01.58-.94,1.03-1.41,1.35-1.41.48,0,.72.1.72.3,0,.12-.07.26-.21.42-.14.16-.21.32-.21.48,0,.12.25.3.75.54.5.24,1.27.46,2.31.66,1.04.2,2.3.3,3.78.3,2.36,0,4.43-.46,6.21-1.38,1.78-.92,3.15-2.08,4.11-3.48.96-1.4,1.44-2.76,1.44-4.08,0-1.72-.83-3.2-2.49-4.44-1.66-1.24-4.33-2.42-8.01-3.54-3.56-1.16-6.31-2.13-8.25-2.91-1.94-.78-3.51-1.74-4.71-2.88s-1.8-2.53-1.8-4.17c0-2.2,1.24-4.37,3.72-6.51,2.48-2.14,5.54-3.88,9.18-5.22,3.64-1.34,7.02-2.01,10.14-2.01,1.6,0,2.46.32,2.58.96.12.64.18,1.36.18,2.16,0,.6-.22.9-.66.9-.2,0-.43-.07-.69-.21-.26-.14-.49-.25-.69-.33-.24-.08-.52-.16-.84-.24-.32-.08-.78-.12-1.38-.12-2.08,0-4.58.54-7.5,1.62-2.92,1.08-5.45,2.42-7.59,4.02-2.14,1.6-3.21,3.14-3.21,4.62,0,1.2.49,2.24,1.47,3.12.98.88,2.29,1.63,3.93,2.25,1.64.62,3.96,1.39,6.96,2.31,4.4,1.28,7.65,2.72,9.75,4.32,2.1,1.6,3.15,3.56,3.15,5.88,0,2-.67,3.97-2.01,5.91-1.34,1.94-3.22,3.52-5.64,4.74s-5.17,1.83-8.25,1.83Z"/>
          <path class="cls-2" d="M214.17,76.02c-1.64.32-3.72.63-6.24.93-2.52.3-4.56.49-6.12.57-.12,1.72-.28,6.68-.48,14.88-.2,8.2-.32,14.26-.36,18.18,2.16-.04,5-.18,8.52-.42,2.96-.16,4.62-.24,4.98-.24.72,0,1.37.16,1.95.48.58.32.87.82.87,1.5,0,.56-.09.96-.27,1.2-.18.24-.57.36-1.17.36-.24,0-.9-.06-1.98-.18-.8-.16-1.48-.24-2.04-.24-1.88,0-5.64.12-11.28.36-.2.28-.43.49-.69.63-.26.14-.49.21-.69.21-.24,0-.48-.06-.72-.18s-.38-.3-.42-.54l-2.7.3c-3.12.4-5.44.6-6.96.6-1.32,0-2.32-.28-3-.84-.36-.32-.54-.9-.54-1.74,0-.24.13-.54.39-.9.26-.36.53-.54.81-.54.08,0,.39.11.93.33.54.22,1.05.33,1.53.33,1.48,0,3.66-.08,6.54-.24l2.76-.18.36-8.82c.04-.92.08-1.75.12-2.49.04-.74.06-1.37.06-1.89l.6-19.62c-4.16.28-6.14.42-5.94.42-4.08.32-6.48.48-7.2.48-.68,0-1.32-.22-1.92-.66-.6-.44-.9-1-.9-1.68,0-.48.13-.86.39-1.14.26-.28.61-.42,1.05-.42.32,0,.64.02.96.06.32.04.64.08.96.12,1,.2,1.96.3,2.88.3s2.56-.07,5.04-.21c2.48-.14,4.14-.23,4.98-.27.04-.52.22-.95.54-1.29.32-.34.74-.51,1.26-.51.24,0,.44.16.6.48.16.32.24.68.24,1.08,2.32-.08,6.5-.6,12.54-1.56.48-.08,1.01-.3,1.59-.66.58-.36.91-.54.99-.54.4,0,.78.16,1.14.48.36.32.54.72.54,1.2,0,.76-.38,1.3-1.14,1.62-.76.32-1.88.62-3.36.9Z"/>
          <path class="cls-2" d="M265.89,110.04c-.48,0-.86-.03-1.14-.09-.28-.06-.48-.23-.6-.51-.36-.6-.78-2.38-1.26-5.34-.48-2.96-.94-6.36-1.38-10.2-.96-11.72-1.7-17.7-2.22-17.94-.44.96-1.12,2.77-2.04,5.43-.92,2.66-1.98,6.13-3.18,10.41-1.32,4.6-2.32,7.77-3,9.51-.68,1.74-1.28,2.81-1.8,3.21-.32.28-.71.55-1.17.81-.46.26-.85.39-1.17.39-.4,0-.66-.05-.78-.15-.12-.1-.26-.41-.42-.93-.16-.6-.54-2.47-1.14-5.61-.6-3.14-1.06-5.97-1.38-8.49l-.36-2.52c-.68-5.2-1.14-8.1-1.38-8.7-.76.68-1.48,2.19-2.16,4.53-.68,2.34-1.46,5.65-2.34,9.93-.84,3.32-1.86,8.72-3.06,16.2-.04.44-.34.84-.9,1.2-.56.36-1.06.54-1.5.54-.64,0-1-.62-1.08-1.86-.04-1.24-.31-3.92-.81-8.04-.5-4.12-.95-7.74-1.35-10.86-.56-4.44-1.32-8.56-2.28-12.36-.28-1.2-.42-1.88-.42-2.04,0-.6.29-1.09.87-1.47.58-.38,1.21-.57,1.89-.57.32,0,.66,1.24,1.02,3.72.36,2.48.74,5.6,1.14,9.36l.18,1.98c.16,1.32.34,2.7.54,4.14.76,6.12,1.18,9.96,1.26,11.52.8-4.64,1.7-9.3,2.7-13.98l.54-2.64c.88-4.24,1.84-7.45,2.88-9.63,1.04-2.18,2.38-3.27,4.02-3.27.52,0,1.1,1.35,1.74,4.05.64,2.7,1.14,5.85,1.5,9.45.28,2.56.64,5.06,1.08,7.5.44,2.44.84,4.14,1.2,5.1.24-.68.73-2.18,1.47-4.5.74-2.32,1.43-4.52,2.07-6.6,1.96-6.68,4.04-12.66,6.24-17.94.4-.84.79-1.45,1.17-1.83.38-.38,1.05-.57,2.01-.57.52,0,1.08,2.28,1.68,6.84.6,4.56,1.1,9.84,1.5,15.84,1.08,8.48,2.06,13.1,2.94,13.86.6.52.9,1.08.9,1.68,0,.28-.23.59-.69.93-.46.34-.97.51-1.53.51Z"/>
          <path class="cls-2" d="M304.41,94.68c-.28.24-.86.45-1.74.63-.88.18-1.48.29-1.8.33.32,1.52.48,2.26.48,2.22.28,1,.58,2.38.9,4.14.72,4.04,1.46,7.48,2.22,10.32.2.92.3,1.46.3,1.62,0,.4-.16.74-.48,1.02-.32.28-.7.42-1.14.42-.4,0-.76-.21-1.08-.63-.32-.42-.54-.79-.66-1.11-.36-1.36-.69-2.88-.99-4.56-.3-1.68-.65-3.7-1.05-6.06-.16-1.04-.42-2.33-.78-3.87-.36-1.54-.6-2.55-.72-3.03-2.36.32-6.42.96-12.18,1.92l-3.48.6-1.26,3.54-1.68,4.8c-1.4,4.36-2.4,7.72-3,10.08-.12.56-.36,1.03-.72,1.41-.36.38-.8.57-1.32.57-.44,0-.81-.12-1.11-.36-.3-.24-.45-.58-.45-1.02s.24-1.37.72-2.79c.48-1.42.76-2.27.84-2.55.16-.4.48-1.32.96-2.76.52-1.56,1.19-3.45,2.01-5.67.82-2.22,1.37-3.69,1.65-4.41-2.04.48-3.56.86-4.56,1.14-1.52.4-2.46.6-2.82.6-.44,0-.77-.17-.99-.51-.22-.34-.33-.71-.33-1.11,0-.48.12-.81.36-.99.24-.18.64-.35,1.2-.51,1.52-.36,3.13-.72,4.83-1.08,1.7-.36,2.87-.6,3.51-.72.4-1.16.7-2.14.9-2.94.16-.52.37-1.17.63-1.95.26-.78.55-1.75.87-2.91l.9-3.06c1.52-5.36,2.4-8.42,2.64-9.18.2-.56.39-1,.57-1.32.18-.32.43-.48.75-.48.8,0,1.52.12,2.16.36.08-.08.21-.25.39-.51.18-.26.38-.44.6-.54.22-.1.51-.15.87-.15.72,0,1.55.82,2.49,2.46.94,1.64,1.85,3.58,2.73,5.82.52,1.32,1.18,3.29,1.98,5.91.8,2.62,1.32,4.35,1.56,5.19.6-.08,1.11-.19,1.53-.33.42-.14.69-.23.81-.27.2-.08.42-.22.66-.42.24-.2.46-.35.66-.45.2-.1.42-.09.66.03.52.24.78.74.78,1.5,0,.28-.07.58-.21.9-.14.32-.33.56-.57.72ZM294.27,83.34c-.56-1.48-1.28-3-2.16-4.56-.88-1.56-1.62-2.54-2.22-2.94l-.66,1.56c-.76,1.52-1.34,2.9-1.74,4.14-.96,2.88-2.48,7.64-4.56,14.28l7.02-1.2,5.76-.9,1.62-.24c-.2-.72-.62-2.23-1.26-4.53-.64-2.3-1.24-4.17-1.8-5.61Z"/>
        </g>
        <g>
          <path class="cls-2" d="M126.42,193.59c-.44,1.04-1,2.54-1.68,4.5-1.76,5.16-3.1,10.86-4.02,17.1-.12,1.04-.24,2.16-.36,3.36s-.18,2.22-.18,3.06c0,.48.15.94.45,1.38.3.44.45.72.45.84,0,.24-.26.67-.78,1.29-.52.62-1.1,1.19-1.74,1.71-.64.52-1.16.78-1.56.78-.8,0-1.2-.34-1.2-1.02,0-.88.5-3.89,1.5-9.03,1-5.14,1.84-9.09,2.52-11.85-.96,1.08-1.82,1.92-2.58,2.52s-1.7.9-2.82.9c-1.6,0-3.22-1.27-4.86-3.81-1.64-2.54-3.28-5.59-4.92-9.15l-.6-1.2c-.56-1.16-1.12-2.16-1.68-3-.56-.84-.84-1.32-.84-1.44,0-.2.15-.35.45-.45.3-.1.63-.15.99-.15,1.32,0,2.5,1.26,3.54,3.78,1.44,3.44,2.87,6.41,4.29,8.91,1.42,2.5,2.89,3.75,4.41,3.75,1,0,1.88-.34,2.64-1.02.76-.68,1.38-1.48,1.86-2.4.44-.84.97-2.04,1.59-3.6.62-1.56,1.09-2.84,1.41-3.84,1.28-3.84,1.98-6.06,2.1-6.66.2-.84.38-1.43.54-1.77.16-.34.42-.51.78-.51.44,0,.86.15,1.26.45.4.3.6.65.6,1.05,0,.68-.12,1.4-.36,2.16-.24.76-.64,1.88-1.2,3.36Z"/>
          <path class="cls-2" d="M164.21,209.49c-.28.24-.86.45-1.74.63-.88.18-1.48.29-1.8.33.32,1.52.48,2.26.48,2.22.28,1,.58,2.38.9,4.14.72,4.04,1.46,7.48,2.22,10.32.2.92.3,1.46.3,1.62,0,.4-.16.74-.48,1.02-.32.28-.7.42-1.14.42-.4,0-.76-.21-1.08-.63-.32-.42-.54-.79-.66-1.11-.36-1.36-.69-2.88-.99-4.56-.3-1.68-.65-3.7-1.05-6.06-.16-1.04-.42-2.33-.78-3.87-.36-1.54-.6-2.55-.72-3.03-2.36.32-6.42.96-12.18,1.92l-3.48.6-1.26,3.54-1.68,4.8c-1.4,4.36-2.4,7.72-3,10.08-.12.56-.36,1.03-.72,1.41-.36.38-.8.57-1.32.57-.44,0-.81-.12-1.11-.36-.3-.24-.45-.58-.45-1.02s.24-1.37.72-2.79c.48-1.42.76-2.27.84-2.55.16-.4.48-1.32.96-2.76.52-1.56,1.19-3.45,2.01-5.67.82-2.22,1.37-3.69,1.65-4.41-2.04.48-3.56.86-4.56,1.14-1.52.4-2.46.6-2.82.6-.44,0-.77-.17-.99-.51-.22-.34-.33-.71-.33-1.11,0-.48.12-.81.36-.99.24-.18.64-.35,1.2-.51,1.52-.36,3.13-.72,4.83-1.08,1.7-.36,2.87-.6,3.51-.72.4-1.16.7-2.14.9-2.94.16-.52.37-1.17.63-1.95.26-.78.55-1.75.87-2.91l.9-3.06c1.52-5.36,2.4-8.42,2.64-9.18.2-.56.39-1,.57-1.32.18-.32.43-.48.75-.48.8,0,1.52.12,2.16.36.08-.08.21-.25.39-.51.18-.26.38-.44.6-.54.22-.1.51-.15.87-.15.72,0,1.55.82,2.49,2.46.94,1.64,1.85,3.58,2.73,5.82.52,1.32,1.18,3.29,1.98,5.91.8,2.62,1.32,4.35,1.56,5.19.6-.08,1.11-.19,1.53-.33.42-.14.69-.23.81-.27.2-.08.42-.22.66-.42.24-.2.46-.35.66-.45.2-.1.42-.09.66.03.52.24.78.74.78,1.5,0,.28-.07.58-.21.9-.14.32-.33.56-.57.72ZM154.08,198.15c-.56-1.48-1.28-3-2.16-4.56-.88-1.56-1.62-2.54-2.22-2.94l-.66,1.56c-.76,1.52-1.34,2.9-1.74,4.14-.96,2.88-2.48,7.64-4.56,14.28l7.02-1.2,5.76-.9,1.62-.24c-.2-.72-.62-2.23-1.26-4.53-.64-2.3-1.24-4.17-1.8-5.61Z"/>
          <path class="cls-2" d="M211.49,224.85c-.48,0-.86-.03-1.14-.09-.28-.06-.48-.23-.6-.51-.36-.6-.78-2.38-1.26-5.34-.48-2.96-.94-6.36-1.38-10.2-.96-11.72-1.7-17.7-2.22-17.94-.44.96-1.12,2.77-2.04,5.43-.92,2.66-1.98,6.13-3.18,10.41-1.32,4.6-2.32,7.77-3,9.51-.68,1.74-1.28,2.81-1.8,3.21-.32.28-.71.55-1.17.81-.46.26-.85.39-1.17.39-.4,0-.66-.05-.78-.15-.12-.1-.26-.41-.42-.93-.16-.6-.54-2.47-1.14-5.61-.6-3.14-1.06-5.97-1.38-8.49l-.36-2.52c-.68-5.2-1.14-8.1-1.38-8.7-.76.68-1.48,2.19-2.16,4.53-.68,2.34-1.46,5.65-2.34,9.93-.84,3.32-1.86,8.72-3.06,16.2-.04.44-.34.84-.9,1.2-.56.36-1.06.54-1.5.54-.64,0-1-.62-1.08-1.86-.04-1.24-.31-3.92-.81-8.04-.5-4.12-.95-7.74-1.35-10.86-.56-4.44-1.32-8.56-2.28-12.36-.28-1.2-.42-1.88-.42-2.04,0-.6.29-1.09.87-1.47.58-.38,1.21-.57,1.89-.57.32,0,.66,1.24,1.02,3.72.36,2.48.74,5.6,1.14,9.36l.18,1.98c.16,1.32.34,2.7.54,4.14.76,6.12,1.18,9.96,1.26,11.52.8-4.64,1.7-9.3,2.7-13.98l.54-2.64c.88-4.24,1.84-7.45,2.88-9.63,1.04-2.18,2.38-3.27,4.02-3.27.52,0,1.1,1.35,1.74,4.05.64,2.7,1.14,5.85,1.5,9.45.28,2.56.64,5.06,1.08,7.5.44,2.44.84,4.14,1.2,5.1.24-.68.73-2.18,1.47-4.5.74-2.32,1.43-4.52,2.07-6.6,1.96-6.68,4.04-12.66,6.24-17.94.4-.84.79-1.45,1.17-1.83.38-.38,1.05-.57,2.01-.57.52,0,1.08,2.28,1.68,6.84.6,4.56,1.1,9.84,1.5,15.84,1.08,8.48,2.06,13.1,2.94,13.86.6.52.9,1.08.9,1.68,0,.28-.23.59-.69.93-.46.34-.97.51-1.53.51Z"/>
          <path class="cls-2" d="M250.01,209.49c-.28.24-.86.45-1.74.63-.88.18-1.48.29-1.8.33.32,1.52.48,2.26.48,2.22.28,1,.58,2.38.9,4.14.72,4.04,1.46,7.48,2.22,10.32.2.92.3,1.46.3,1.62,0,.4-.16.74-.48,1.02-.32.28-.7.42-1.14.42-.4,0-.76-.21-1.08-.63-.32-.42-.54-.79-.66-1.11-.36-1.36-.69-2.88-.99-4.56-.3-1.68-.65-3.7-1.05-6.06-.16-1.04-.42-2.33-.78-3.87-.36-1.54-.6-2.55-.72-3.03-2.36.32-6.42.96-12.18,1.92l-3.48.6-1.26,3.54-1.68,4.8c-1.4,4.36-2.4,7.72-3,10.08-.12.56-.36,1.03-.72,1.41-.36.38-.8.57-1.32.57-.44,0-.81-.12-1.11-.36-.3-.24-.45-.58-.45-1.02s.24-1.37.72-2.79c.48-1.42.76-2.27.84-2.55.16-.4.48-1.32.96-2.76.52-1.56,1.19-3.45,2.01-5.67.82-2.22,1.37-3.69,1.65-4.41-2.04.48-3.56.86-4.56,1.14-1.52.4-2.46.6-2.82.6-.44,0-.77-.17-.99-.51-.22-.34-.33-.71-.33-1.11,0-.48.12-.81.36-.99.24-.18.64-.35,1.2-.51,1.52-.36,3.13-.72,4.83-1.08,1.7-.36,2.87-.6,3.51-.72.4-1.16.7-2.14.9-2.94.16-.52.37-1.17.63-1.95.26-.78.55-1.75.87-2.91l.9-3.06c1.52-5.36,2.4-8.42,2.64-9.18.2-.56.39-1,.57-1.32.18-.32.43-.48.75-.48.8,0,1.52.12,2.16.36.08-.08.21-.25.39-.51.18-.26.38-.44.6-.54.22-.1.51-.15.87-.15.72,0,1.55.82,2.49,2.46.94,1.64,1.85,3.58,2.73,5.82.52,1.32,1.18,3.29,1.98,5.91.8,2.62,1.32,4.35,1.56,5.19.6-.08,1.11-.19,1.53-.33.42-.14.69-.23.81-.27.2-.08.42-.22.66-.42.24-.2.46-.35.66-.45.2-.1.42-.09.66.03.52.24.78.74.78,1.5,0,.28-.07.58-.21.9-.14.32-.33.56-.57.72ZM239.87,198.15c-.56-1.48-1.28-3-2.16-4.56-.88-1.56-1.62-2.54-2.22-2.94l-.66,1.56c-.76,1.52-1.34,2.9-1.74,4.14-.96,2.88-2.48,7.64-4.56,14.28l7.02-1.2,5.76-.9,1.62-.24c-.2-.72-.62-2.23-1.26-4.53-.64-2.3-1.24-4.17-1.8-5.61Z"/>
          <path class="cls-2" d="M285.65,226.89c-.28,0-2.15-2.15-5.61-6.45-3.46-4.3-6.31-7.97-8.55-11.01-.32-.44-1.34-1.9-3.06-4.38-2.52-3.68-4.08-5.9-4.68-6.66l-.12,4.62-.06,4.5c0,2.84-.03,5.92-.09,9.24-.06,3.32-.13,5.96-.21,7.92-.04.48-.25.92-.63,1.32-.38.4-.77.6-1.17.6-.44,0-.75-.13-.93-.39-.18-.26-.27-.77-.27-1.53,0-.48.08-1.96.24-4.44.36-4.6.54-8.46.54-11.58,0-2.48.04-4.83.12-7.05.08-2.22.12-3.59.12-4.11l.06-1.74v-.18c0-.44.07-.79.21-1.05.14-.26.43-.39.87-.39h.3c.44,0,1.31.79,2.61,2.37,1.3,1.58,2.95,3.73,4.95,6.45.44.56.86,1.11,1.26,1.65.4.54.78,1.05,1.14,1.53,2.28,2.92,3.48,4.46,3.6,4.62,5.68,7.24,8.78,11.36,9.3,12.36-.08-.32-.22-1.06-.42-2.22-.2-1.16-.39-2.68-.57-4.56-.18-1.88-.27-3.82-.27-5.82,0-3.56-.34-8.26-1.02-14.1-.2-1.92-.3-3.1-.3-3.54,0-1.52.86-2.28,2.58-2.28.4,0,.7.41.9,1.23.2.82.34,2.55.42,5.19.08,2.64.12,6.86.12,12.66,0,1.84.07,3.64.21,5.4.14,1.76.27,3.32.39,4.68.2,1.88.3,3.3.3,4.26l.06,2.16c0,.48-.78.72-2.34.72Z"/>
          <path class="cls-2" d="M327.47,189.57c-1.08.6-2.77,1.24-5.07,1.92-2.3.68-4.19,1.16-5.67,1.44-2.32.44-4.65.79-6.99,1.05-2.34.26-3.85.41-4.53.45.04,2.32.1,4.71.18,7.17.08,2.46.14,4.15.18,5.07,1.56-.2,3.9-.58,7.02-1.14l2.28-.36c2.52-.44,4.46-1.24,5.82-2.4.72-.56,1.24-.84,1.56-.84.28,0,.51.15.69.45s.27.61.27.93c0,.72-.81,1.51-2.43,2.37-1.62.86-3.41,1.49-5.37,1.89-1.64.36-3.48.7-5.52,1.02-2.04.32-3.38.52-4.02.6.24,6.84.94,11.92,2.1,15.24,1.16.4,2.3.69,3.42.87,1.12.18,2.56.27,4.32.27s3.44-.23,5.04-.69c1.6-.46,2.89-1.03,3.87-1.71.98-.68,1.47-1.32,1.47-1.92,0-.32-.06-.63-.18-.93-.12-.3-.28-.61-.48-.93-.08-.12-.21-.31-.39-.57-.18-.26-.27-.47-.27-.63,0-.4.44-.6,1.32-.6.64,0,1.19.27,1.65.81s.69,1.13.69,1.77c0,1.28-.57,2.54-1.71,3.78-1.14,1.24-2.7,2.25-4.68,3.03-1.98.78-4.17,1.17-6.57,1.17s-4.44-.13-6-.39c-1.56-.26-2.74-.77-3.54-1.53-.96-1.08-1.63-2.96-2.01-5.64-.38-2.68-.71-6.26-.99-10.74-.76.2-1.61.37-2.55.51-.94.14-1.65.21-2.13.21s-.87-.15-1.17-.45c-.3-.3-.45-.67-.45-1.11,0-.28.05-.52.15-.72.1-.2.25-.32.45-.36,1.32-.16,2.28-.26,2.88-.3l2.58-.3c-.16-5.16-.32-9.36-.48-12.6-.6,0-1.08.02-1.44.06l-2.76.06c-.36,0-.64-.1-.84-.3-.2-.2-.3-.42-.3-.66,0-.96.64-1.6,1.92-1.92.48-.08,1.09-.17,1.83-.27.74-.1,1.23-.15,1.47-.15.76-.84,1.6-1.26,2.52-1.26.16,0,.29.13.39.39.1.26.15.45.15.57,2.64-.12,5.78-.42,9.42-.9,2.4-.32,6.1-1.08,11.1-2.28l2.22-.48c.4,0,.6.24.6.72s-.34.9-1.02,1.26Z"/>
          <path class="cls-2" d="M364.37,223.35c-1.96,0-6.14-1.34-12.54-4.02l-1.62-.72c-2.28-.96-4.05-1.68-5.31-2.16-1.26-.48-2.47-.88-3.63-1.2,0,4.96-.12,8.44-.36,10.44-.44,1.6-1.02,2.4-1.74,2.4-.36,0-.69-.1-.99-.3-.3-.2-.45-.46-.45-.78,0-.72.06-1.7.18-2.94.24-2.56.36-4.76.36-6.6v-2.52c-.4-.28-.69-.53-.87-.75-.18-.22-.27-.47-.27-.75,0-.36.11-.69.33-.99.22-.3.47-.58.75-.84.28-.26.48-.47.6-.63.04-.84.06-2.3.06-4.38,0-5.2-.74-10.7-2.22-16.5l-.24-1.2c0-.56.23-1,.69-1.32.46-.32.99-.48,1.59-.48.44,0,.89.86,1.35,2.58.46,1.72.83,3.91,1.11,6.57.28,2.66.42,5.33.42,8.01v4.02c.56-.6,1.82-1.98,3.78-4.14,1.96-2.16,3.88-4.32,5.76-6.48,3.16-3.72,5.6-7.04,7.32-9.96.44-.8.98-1.84,1.62-3.12.6-1.24.98-1.86,1.14-1.86.44,0,.66.48.66,1.44,0,1.16-.18,2.27-.54,3.33-.36,1.06-.88,2.19-1.56,3.39-1.12,1.96-2.41,3.89-3.87,5.79-1.46,1.9-3.31,4.05-5.55,6.45-.84.88-1.58,1.64-2.22,2.28-.64.64-1.2,1.22-1.68,1.74-2.08,2.08-3.74,3.82-4.98,5.22.52.2,1.73.64,3.63,1.32,1.9.68,4.37,1.54,7.41,2.58,2.16.76,3.96,1.37,5.4,1.83,1.44.46,2.68.87,3.72,1.23.24.08.52.17.84.27.32.1.66.21,1.02.33,1.36.44,2.04.92,2.04,1.44s-.12.98-.36,1.38c-.24.4-.5.6-.78.6Z"/>
          <path class="cls-2" d="M380.57,226.41c-2.16,0-4.2-.45-6.12-1.35-1.92-.9-3.48-2.23-4.68-3.99-1.2-1.76-1.8-3.88-1.8-6.36,0-4.24,1.1-8.63,3.3-13.17,2.2-4.54,5.26-8.81,9.18-12.81.4-.36.78-.6,1.14-.72.36-.12.78-.18,1.26-.18.4,0,.79.1,1.17.3.38.2.57.44.57.72,0,.16-.07.39-.21.69-.14.3-.23.49-.27.57.24,0,.53-.03.87-.09.34-.06,1.01-.09,2.01-.09,1.16,0,2.73.19,4.71.57,1.98.38,3.43.77,4.35,1.17,2.6,1.16,4.58,2.65,5.94,4.47,1.36,1.82,2.04,3.77,2.04,5.85,0,4.12-1.16,8.06-3.48,11.82-2.32,3.76-5.3,6.8-8.94,9.12-3.64,2.32-7.32,3.48-11.04,3.48ZM395.03,193.95c-1.16-.52-2.62-.78-4.38-.78-.56,0-1.32.04-2.28.12l-2.22.06c-1.92,0-2.88-.4-2.88-1.2,0-.28.02-.54.06-.78.04-.24.08-.4.12-.48-.84,0-1.52.24-2.04.72-3.28,3.4-5.81,7.02-7.59,10.86-1.78,3.84-2.67,7.58-2.67,11.22,0,3.4.85,5.87,2.55,7.41,1.7,1.54,4.03,2.31,6.99,2.31,3.36,0,6.65-.96,9.87-2.88,3.22-1.92,5.84-4.44,7.86-7.56,2.02-3.12,3.03-6.36,3.03-9.72,0-2.32-.54-4.21-1.62-5.67-1.08-1.46-2.68-2.67-4.8-3.63Z"/>
        </g>
      </g>
      <g>
        <g>
          <path class="cls-5" d="M601.71,108.47c28.01-.62,91-3,97,18,18,51,10.14,216,4.07,260.5-6.07,44.5-30.07,66.5-31.07,82.5s-6,136-12,169-23,75-43,94-51,55-91,64-133,12-169,6-126-33-131-148,60-168,68-185,41-162,92-202q43-24,43-24s23-22,29-43,6-89,35-107c30-9,64,16,109,15Z"/>
          <path class="cls-6" d="M411.22,806.59c-22,0-41.8-.99-54.67-3.13-16.79-2.8-49.19-10.85-77.58-33.33-33.83-26.79-52.08-65.69-54.25-115.62-4.05-93.21,37.96-146.18,58.15-171.64,4.72-5.96,8.45-10.66,9.95-13.83,1.68-3.57,4.52-13.01,8.45-26.07,14.12-46.95,43.5-144.65,83.84-176.29l.13-.09,42.89-23.94c1.57-1.53,22.97-22.63,28.64-42.47,1.52-5.32,2.67-13.83,4-23.67,4-29.66,9.48-70.27,31.44-83.9l.24-.11c16.19-4.86,33.12-.09,52.73,5.42,16.67,4.69,35.57,10,56.54,9.54l.02,1-.02-1,3.57-.08c30.91-.73,88.44-2.08,94.42,18.81,18.15,51.41,10.01,217.55,4.1,260.91-3.7,27.13-14.15,46.19-21.78,60.1-4.97,9.07-8.9,16.24-9.28,22.32-.18,2.85-.48,8.97-.9,17.44-1.85,37.26-6.17,124.51-11.11,151.67-5.83,32.09-22.58,74.87-43.3,94.55-2.88,2.74-6.01,5.85-9.33,9.15-20.1,19.98-47.63,47.34-82.14,55.1-25.49,5.74-73.88,9.14-114.72,9.14ZM386.27,268.31c-39.81,31.3-69.04,128.51-83.1,175.24-3.95,13.15-6.81,22.64-8.55,26.35-1.59,3.38-5.2,7.93-10.19,14.22-20.04,25.27-61.74,77.84-57.72,170.31,4.96,113.97,92.68,140.81,130.17,147.06,36.59,6.1,129.57,2.8,168.62-5.99,33.94-7.64,61.24-34.76,81.17-54.57,3.33-3.31,6.47-6.43,9.37-9.18,20.41-19.39,36.93-61.69,42.7-93.45,4.92-27.04,9.24-114.2,11.08-151.41.42-8.48.72-14.6.9-17.47.41-6.53,4.43-13.87,9.52-23.16,7.55-13.78,17.9-32.65,21.55-59.41,5.9-43.24,14.04-208.86-4.02-260.03-5.56-19.46-64.25-18.08-92.46-17.42l-3.57.08c-21.29.47-40.32-4.89-57.13-9.61-19.25-5.42-35.88-10.09-51.48-5.47-21.06,13.2-26.46,53.19-30.4,82.4-1.34,9.93-2.5,18.5-4.05,23.96-6.01,21.02-28.32,42.54-29.27,43.45l-.2.15-42.93,23.96Z"/>
        </g>
        <g>
          <path class="cls-5" d="M444.21,788.97c0,20.16-6.95,26-36.5,26s-53.5-16.34-53.5-36.5,23.95-36.5,53.5-36.5c36.5,0,36.5,26.84,36.5,47Z"/>
          <path class="cls-6" d="M407.71,815.97c-30.05,0-54.5-16.82-54.5-37.5s24.45-37.5,54.5-37.5c37.5,0,37.5,27.74,37.5,48s-8.06,27-37.5,27ZM407.71,742.97c-28.95,0-52.5,15.92-52.5,35.5s23.55,35.5,52.5,35.5c30.37,0,35.5-6.24,35.5-25,0-20.49,0-46-35.5-46Z"/>
        </g>
        <g>
          <g>
            <path class="cls-5" d="M654.58,522.29c-7.6,30.83-27.38,109.52-40.87,149.18-6,49-5,25,3,61s-22,41-29,48-64-73-50-119,66-124,66-124l42.29-21.93c4.57-2.37,9.81,1.74,8.58,6.74Z"/>
            <path class="cls-6" d="M586.61,781.9c-.77,0-1.76-.27-3.02-1.03-13.8-8.28-59.81-77.03-46.83-119.68,13.88-45.61,65.6-123.48,66.12-124.26l.14-.21.23-.12,42.29-21.93c2.47-1.28,5.36-1.01,7.55.71,2.18,1.72,3.12,4.46,2.46,7.16h0c-7.81,31.69-27.42,109.62-40.86,149.17-.85,6.95-1.56,12.43-2.13,16.82q-2.26,17.41-.04,24.38c1.14,3.59,2.87,9.02,5.17,19.35,6.41,28.84-10.82,38.22-22.21,44.43-3.02,1.64-5.62,3.06-7.05,4.5-.39.39-.96.72-1.81.72ZM604.4,538.24c-3.03,4.57-52.29,79.37-65.73,123.52-7.16,23.52,5.1,54.45,13.04,70.79,11.38,23.42,25.94,42.42,32.9,46.6,1.16.7,2.08.93,2.39.62,1.64-1.64,4.36-3.12,7.51-4.84,10.87-5.92,27.3-14.87,21.22-42.24-2.28-10.24-3.99-15.62-5.12-19.18-2.35-7.4-2.31-7.73-.04-25.25.57-4.41,1.29-9.91,2.14-16.91l.05-.2c13.41-39.45,33.03-117.41,40.84-149.1h0c.47-1.92-.2-3.88-1.75-5.11-1.56-1.23-3.63-1.43-5.39-.51l-42.06,21.81Z"/>
          </g>
          <g>
            <path class="cls-5" d="M629.21,769.81c0,14.08-5.56,18.16-29.2,18.16s-42.8-11.42-42.8-25.5,19.16-25.5,42.8-25.5c29.2,0,29.2,18.75,29.2,32.84Z"/>
            <path class="cls-6" d="M600.01,788.97c-24.15,0-43.8-11.89-43.8-26.5s19.65-26.5,43.8-26.5c30.2,0,30.2,19.56,30.2,33.84,0,15.04-6.49,19.16-30.2,19.16ZM600.01,737.97c-23.05,0-41.8,10.99-41.8,24.5s18.75,24.5,41.8,24.5,28.2-4.29,28.2-17.16c0-14.18,0-31.84-28.2-31.84Z"/>
          </g>
        </g>
        <g>
          <g>
            <path class="cls-5" d="M452.21,485.97c-6.81-3.78,6-99-55,3-24.75,41.38,11.17,76.31,23.5,104.5,14,32,49,87,51,117s-1,56.11,0,75.55,37,11.45,62,2.45,40.76-.4,40.38-18.7c-.38-18.3-24.38-70.3-28.38-116.3s-32.8-82.32-23.5-119.5c3-12-2-15,1-24l-71-24Z"/>
            <path class="cls-6" d="M490.42,799.04c-5.75,0-10.84-.93-14.42-3.32-3.28-2.18-5.06-5.43-5.28-9.64-.43-8.31-.12-18.02.2-28.29.44-14.09.95-30.05-.2-47.25-1.37-20.49-18.39-52.97-33.41-81.62-6.76-12.9-13.15-25.08-17.5-35.04-2.84-6.5-6.96-13.37-11.31-20.64-14.73-24.61-31.43-52.5-12.13-84.78,20.24-33.85,34.36-49.32,43.2-47.31,8.33,1.91,9.76,17.95,10.91,30.84.46,5.18,1.09,12.25,2.18,13.07l71.83,24.28-.32.95c-1.39,4.16-.97,6.94-.5,10.17.52,3.48,1.1,7.42-.48,13.76-5.29,21.17,2.06,42.44,9.85,64.96,5.89,17.03,11.97,34.63,13.68,54.21,2.32,26.69,11.4,55.39,18.69,78.45,5.32,16.83,9.53,30.13,9.69,37.91.26,12.55-6.99,13.42-17.97,14.74-6.27.75-14.08,1.69-23.07,4.92-9.5,3.42-28.79,9.63-43.64,9.63ZM437.87,442.96c-7.95,0-21.32,15.63-39.8,46.52-18.69,31.25-2.31,58.59,12.13,82.72,4.39,7.33,8.53,14.25,11.43,20.86,4.33,9.89,10.7,22.04,17.44,34.91,15.11,28.83,32.25,61.51,33.64,82.42,1.15,17.29.65,33.31.2,47.44-.32,10.23-.63,19.9-.2,28.13.18,3.6,1.62,6.24,4.38,8.08,12.43,8.27,46.22-2.9,56.28-6.52,9.2-3.31,17.13-4.26,23.5-5.03,10.94-1.31,16.43-1.97,16.21-12.71-.15-7.49-4.53-21.33-9.6-37.35-7.32-23.15-16.44-51.97-18.78-78.88-1.68-19.33-7.73-36.82-13.58-53.73-7.89-22.81-15.33-44.35-9.9-66.1,1.49-5.95.96-9.53.44-12.98-.46-3.1-.9-6.03.28-10.14l-70.16-23.72-.08-.04c-1.96-1.09-2.47-5.78-3.26-14.68-1.04-11.6-2.45-27.49-9.36-29.07-.4-.09-.81-.14-1.24-.14Z"/>
          </g>
          <g>
            <path class="cls-5" d="M574.21,769.97c1.98,13.94-9.39,23.92-41.25,28.44-31.85,4.53-53.75,13.56-61.26-17.05-3.36-13.68,22.23-28.92,54.09-33.44,39.35-5.59,46.44,8.11,48.43,22.05Z"/>
            <path class="cls-6" d="M497.2,804.24c-12.86,0-22.1-4.8-26.47-22.63-.86-3.49-.04-7.12,2.44-10.78,7.35-10.87,28.44-20.47,52.48-23.89,18.15-2.58,30.88-1.32,38.91,3.85,7.75,4.99,9.76,12.8,10.65,19.05,2.21,15.56-11.56,25.23-42.1,29.57-4.53.64-8.83,1.38-12.99,2.08-8.5,1.45-16.2,2.75-22.91,2.75ZM542.14,747.63c-4.8,0-10.19.43-16.21,1.28-23.51,3.34-44.05,12.6-51.1,23.03-2.15,3.17-2.87,6.27-2.15,9.19,6.22,25.33,22.49,22.57,47.11,18.39,4.17-.71,8.49-1.44,13.04-2.09,29.21-4.15,42.42-13.08,40.4-27.31-.83-5.83-2.68-13.1-9.75-17.65-5.01-3.23-12.06-4.83-21.34-4.83Z"/>
          </g>
        </g>
        <g>
          <g>
            <path class="cls-7" d="M458.21,104.97l10,46c.3,6.87,13.04,19.44,19,16l49-24c5.96-3.44-3.2-25.31-9-29l-39-35c-16-3-32,9-30,26Z"/>
            <path class="cls-1" d="M479.26,78.81c-8.27,3.42,34.95,18.16,44.95,32.16s14,25,15,30-1-33-12-43-37.9-23.32-47.95-19.16Z"/>
          </g>
          <g>
            <path class="cls-7" d="M728.21,128.97l-13,32c-6,12-20.69,29.27-26.01,24.91l-44.41-31.7c-5.31-4.37,7.3-24.44,13.63-27.14l44.2-28.14c16.28-.34,30.59,14.07,25.59,30.07Z"/>
            <path class="cls-1" d="M712.21,98.97c6,3-38.77,14-48.77,28-10,14-21.23,23-21.23,23-1,5,7.23-26,18.23-36s42.04-19.86,51.77-15Z"/>
          </g>
        </g>
        <g>
          <g>
            <path class="cls-5" d="M118.21,668.6c15-15.44,60.75-23.16,111,3.37,36,19,125,15.15,138,51.11,13,35.95,28.73,56.73,5.37,78.3-23.37,21.57-214.37-22.41-241.37-35.36-52.99-25.41-13-97.42-13-97.42Z"/>
            <path class="cls-6" d="M342.93,808.22c-26.86,0-64.41-5.92-89.85-10.59-55.62-10.21-109.09-24.37-122.3-30.71-12.91-6.19-21.48-15.66-25.45-28.15-9.81-30.8,11.79-70.26,12.01-70.65l.16-.21c14.51-14.94,60.2-24.26,112.18,3.18,13.45,7.1,34.21,10.95,56.19,15.02,36.38,6.74,73.99,13.71,82.28,36.63,2.39,6.61,4.83,12.61,7.2,18.41,10.15,24.91,17.48,42.91-2.09,60.97-4.79,4.43-16.05,6.1-30.33,6.1ZM119.03,669.2c-1.28,2.36-21.08,39.8-11.79,68.97,3.8,11.94,12.02,21.01,24.41,26.95,13.09,6.28,66.33,20.36,121.79,30.54,65.66,12.05,108.84,13.86,118.46,4.98,18.55-17.12,11.8-33.68,1.6-58.75-2.37-5.82-4.82-11.83-7.22-18.48-7.9-21.85-44.94-28.71-80.76-35.35-22.13-4.1-43.04-7.97-56.76-15.22-50.96-26.9-95.53-18.1-109.72-3.65Z"/>
          </g>
          <g>
            <path class="cls-9" d="M329.21,741.97c0,31.48,10,60-5.5,68-12.02,6.21-24.5-25.52-24.5-57s11.47-57,25-57,5,14.52,5,46Z"/>
            <path class="cls-9" d="M274.21,730.97c0,31.48,10,60-5.5,68-12.02,6.21-24.5-25.52-24.5-57s11.47-57,25-57,5,14.52,5,46Z"/>
            <path class="cls-9" d="M219.21,713.97c0,31.48,16.5,68,1,76-12.02,6.21-31-33.52-31-65s11.47-57,25-57,5,14.52,5,46Z"/>
            <path class="cls-9" d="M164.21,704.97c0,31.48,21.5,65,6,73-12.02,6.21-36-30.52-36-62s35.47-61,49-61-19,18.52-19,50Z"/>
          </g>
        </g>
        <g>
          <circle class="cls-6" cx="268.21" cy="584.97" r="17"/>
          <circle class="cls-6" cx="278.71" cy="529.47" r="19.5"/>
          <circle class="cls-6" cx="319.71" cy="505.47" r="16.5"/>
          <circle class="cls-6" cx="319.71" cy="456.47" r="16.5"/>
          <circle class="cls-6" cx="315.71" cy="568.47" r="16.5"/>
        </g>
        <g>
          <path class="cls-2" d="M427.21,282.97c-29.56,31.3,7.5,179.5,21.5,194.5s71.5,107.5,77.5,125.5,18,40,18,40c0,0,45-43,67-69s55-59,55-85c0-32.31,31.84-75.64,36-102,3-19,2-52,4-59-27,0-83.43,45.22-106,42-38.5-5.5-156-105-173-87Z"/>
          <g>
            <path class="cls-3" d="M445.53,396.76c37.72,31.71,129.49,80.68,139.56,82.95,10.06,2.28-4.76,24.29-50.87.26s-88.68-83.21-88.68-83.21Z"/>
            <path class="cls-3" d="M451.9,485.88c73.5,15.22,137.92,76.87,131.94,64.4-4.95-10.31-.57-25.88-48.63-61.23-48.06-35.35-83.3-3.17-83.3-3.17Z"/>
            <path class="cls-3" d="M671.19,498.07c-16.37,9.75-49.72,49.53-60.31,52.28-5.83,1.51-4.87-24.69,17.85-41.01,22.72-16.32,42.46-11.27,42.46-11.27Z"/>
            <path class="cls-3" d="M570.49,569.53c-1,.64-1.9,1.3-2.76,1.97-1.07-1.91-2.5-3.81-4.4-5.66-16.92-16.39-62.99-12.18-62.99-12.18,20.95,6.27,50.34,31.92,57.84,41.4,1.29,4.67,4.13,7.23,5.34,5.24,2.9-4.78,47.73-32.46,73.7-37.33,0,0-44.57-7.68-66.72,6.56Z"/>
            <path class="cls-3" d="M676.65,450.32c-20.33,15.68-68.96,28-74.2,26.52-5.24-1.49,1.72,23.97,26.13,18.31,24.42-5.67,48.06-44.82,48.06-44.82Z"/>
            <g>
              <path class="cls-3" d="M443.21,286.97c37.72,31.71,140.94,97.72,151,100s-60.89-3.97-107-28-44-72-44-72Z"/>
              <path class="cls-3" d="M612.21,390.97c32.22-2.57,82.15-54.61,88-58,5.85-3.39,4.86,37.42-28,47s-60,11-60,11Z"/>
            </g>
            <path class="cls-3" d="M679.93,392.38c-5.25,4.31-19.71,22.59-63.71,37.59-27.68-14.08-138.79-51.84-172-82,0,0,44.54,62.18,92.27,89.06,32.21,18.14,59.47,16.47,70.59,12.68,10.14,4.07,25.21,6.83,43.05-.2,33.29-13.12,35.46-61.78,29.81-57.13Z"/>
          </g>
        </g>
        <g>
          <g>
            <g>
              <path class="cls-2" d="M622.21,256.47c-1.54,0-2.84-.99-3.31-2.37-1.15-1.83-4.19-6.66-4.19-14.13,0-6.5,2.62-13.47,4.5-21,4-16,1-10,1-20,0-4,.84-3.14,2-10,1.33-7.91,1.9-21.72,1-25-3-11,1-13-2-24-.48-1.77-.19-4.13-.17-6.05.08-6.45.07-23.95,5.17-23.95s7-3,8.91,1.94c4.52,11.67-7.01,16.35-7.08,22.09-.02,2.06-.05,4.19-.37,6.46-.5,3.56.86,6,2.75,9.38,1.66,2.97,3.55,6.34,4.38,11.02.49,2.79,1.32,5.14,2.19,7.62,1.9,5.42,2.25,10.88,2.23,20.71-.02,10.79-.02,5.79-.02,12.79,0,2.64.02,7.56-1,11-.85,2.89-.95,7.01-2,10-2.39,6.76-11.5,13-12,18-.54,5.44-.32,7.93.62,9.41.49.78,1.51,2.4.48,4.27-.62,1.12-1.82,1.82-3.1,1.82Z"/>
              <path class="cls-2" d="M584.21,267.47c-1.93,0-3.5-1.57-3.5-3.5,0-1.63,3.95-2.52,2.86-5.85-2.36-7.15-1.8-4.88-3.36-9.15-2.69-7.4-.78-5.97-3-10-.96-1.75-3-6-8-11-3-3-8-11-12-17,0,0,2.6-31.39,6-37,1.55-2.55,6.14-10.2,7-13,.85-2.78,2.05-6.51,3-9,2.35-6.14,4-9,4-15,0-3.87-.16-10.28-4.89-14.89-4.53-4.42-16.98-14.11-18.11-19.11-.78-3.45,6,0,8.52.81,1.84.59,3.83-.02,4.63,1.74,1.58,3.47,5.78,7.57,9.85,11.55,5.46,5.33,11.1,10.84,12.41,16.62,1.69,7.46-.8,13.98-3.44,20.88-.91,2.38-1.85,4.84-2.63,7.39-1.11,3.64-.94,8.78-.35,12.01,1.23,6.66-1.26,3.26,1,11l1,8c3.81,13.09.28,12.75,5,22,1.49,2.93,3.02,10.21,4,12,2.31,4.2-.59,4.89,2.29,12.8,2.78,7.64-3.43,16.8-7.13,22.27-.66.97-1.46,2.15-1.74,2.67-.34,1.57-1.74,2.75-3.42,2.75ZM587.71,263.97h0s0,0,0,0Z"/>
              <path class="cls-9" d="M633.22,263.97c-.97,0-1.92-.47-2.5-1.34-3.83-5.74-12.8-19.2-5.81-27.58,10.2-12.24,10.22-12.55,10.36-14.28.08-1.09.21-2.74,1.07-5.65,2.66-9.01,2.88-21.29,2.88-34.15,0-4.44-.38-5.55-1.98-10.23-.71-2.07-1.59-4.65-2.74-8.38-.96-3.13-2.3-5.63-3.58-8.05-2.34-4.39-4.55-8.53-3.67-14.75.26-1.85.28-3.68.31-5.62.07-6.38.16-13.6,8.17-25.62.92-1.38,2.78-1.75,4.16-.83,1.38.92,1.75,2.78.83,4.16-7.02,10.54-7.09,16.55-7.16,22.36-.02,2.04-.05,4.16-.36,6.39-.61,4.29.91,7.14,3.02,11.09,1.36,2.54,2.89,5.42,4.02,9.1,1.12,3.64,1.99,6.18,2.68,8.21,1.68,4.9,2.3,6.74,2.3,12.17,0,13.31-.24,26.08-3.12,35.85-.68,2.31-.77,3.48-.84,4.41-.29,3.76-.84,4.59-11.73,17.66-4.12,4.95,3.37,16.18,6.19,20.42.92,1.38.55,3.24-.83,4.16-.51.34-1.09.5-1.66.5Z"/>
              <path class="cls-9" d="M617.71,212.97c-.25,0-.5-.06-.73-.19-.72-.4-.99-1.32-.58-2.04,3.96-7.12,6.26-51.73,6.81-68.32.03-.83.72-1.46,1.55-1.45.83.03,1.48.72,1.45,1.55-.08,2.46-2.07,60.47-7.19,69.68-.27.49-.79.77-1.31.77Z"/>
              <path class="cls-9" d="M581.21,266.97c-1.66,0-3-1.34-3-3,0-2.29-1.04-16.33-3.82-23.97-1.75-4.81-5.5-8.74-9.47-12.89-4.33-4.53-8.8-9.22-10.59-15.29-5.27-17.91-1.54-24.83,5.87-38.6l.36-.67q6.88-12.77,9.8-21.53c3.1-9.29,2.76-10.76.92-18.89-.89-3.91-5.83-8.74-10.61-13.41-4.5-4.39-9.14-8.93-11.23-13.51-.69-1.51-.02-3.29,1.49-3.97,1.51-.69,3.29-.02,3.97,1.49,1.62,3.55,5.86,7.69,9.96,11.7,5.4,5.28,10.99,10.73,12.27,16.38,2.06,9.09,2.41,11.64-1.08,22.12-3.05,9.16-3.15,9.37-10.2,22.47l-.36.67c-7.26,13.47-9.97,18.51-5.4,34.06,1.38,4.67,5.16,8.64,9.17,12.84,4.22,4.42,8.59,8.99,10.77,14.99,3.09,8.5,4.18,23.46,4.18,26.03,0,1.66-1.34,3-3,3Z"/>
              <path class="cls-9" d="M592.71,209.97c-.53,0-1.04-.28-1.31-.77-5.12-9.21-7.11-67.21-7.19-69.68-.03-.83.62-1.52,1.45-1.55.83-.03,1.52.62,1.55,1.45.55,16.59,2.86,61.2,6.81,68.32.4.72.14,1.64-.58,2.04-.23.13-.48.19-.73.19Z"/>
            </g>
            <g>
              <path class="cls-9" d="M470.92,266.06c-1.28,0-2.38-.98-2.49-2.29-1.51-17.64,12.87-28.57,36.46-44.94,1.13-.79,2.69-.51,3.48.63s.51,2.69-.63,3.48c-22.11,15.35-35.6,25.51-34.33,40.4.12,1.38-.9,2.59-2.28,2.7-.07,0-.14,0-.22,0Z"/>
              <path class="cls-9" d="M701.35,257.04c-.9,0-1.77-.49-2.21-1.34-9.26-17.61-14.44-25.41-25.11-26.24-1.38-.11-2.41-1.31-2.3-2.69.11-1.38,1.32-2.41,2.68-2.3,13.84,1.07,20.1,11.68,29.15,28.9.64,1.22.17,2.73-1.05,3.38-.37.2-.77.29-1.16.29Z"/>
            </g>
            <g>
              <g>
                <path class="cls-2" d="M670.21,286.97c6.07,24.67-13,62-67,69-56-11-89.28-42.35-80-66,20-51,56,10,86,18,18-12,46-82,61-21Z"/>
                <path class="cls-9" d="M516.71,221.47c2,8,7.5,25.5,7.5,28.5s-28.5,12.5-31.5,18.5,4,30,13,38,61.5,40.5,61.5,40.5c0,0-40-44-40-53s34-28,37-33-47.5-39.5-47.5-39.5Z"/>
                <path class="cls-9" d="M695.21,239.97c-2,8-19,17-19,20s13.8,11.5,16.8,17.5c3,6,7.2,33.5-1.8,41.5s-52,25-52,25c0,0,32.8-41.5,32.8-50.5,0-9-20.8-34.5-23.8-39.5s47-14,47-14Z"/>
                <g>
                  <path class="cls-4" d="M611.44,314.91l12.11-16.19c3.16-4.23.15-10.25-5.14-10.25h-24.22c-5.28,0-8.3,6.03-5.14,10.25l12.11,16.19c2.56,3.43,7.71,3.43,10.27,0Z"/>
                  <path class="cls-9" d="M606.3,317.98c-2.2,0-4.22-1.01-5.54-2.77l-12.11-16.19c-1.58-2.11-1.82-4.88-.65-7.24,1.18-2.35,3.55-3.82,6.18-3.82h24.21c2.63,0,5,1.46,6.18,3.82,1.18,2.35.93,5.13-.65,7.24l-12.11,16.19c-1.32,1.76-3.34,2.77-5.54,2.77ZM594.19,288.97c-2.29,0-4.26,1.22-5.29,3.27-1.02,2.04-.82,4.36.55,6.19l12.11,16.19c1.13,1.51,2.85,2.37,4.74,2.37s3.61-.86,4.74-2.37l12.11-16.19c1.37-1.83,1.58-4.15.55-6.19-1.02-2.04-3-3.27-5.29-3.27h-24.21Z"/>
                </g>
                <polygon class="cls-2" points="659.95 235.97 654.19 258.57 683.27 235.97 659.95 235.97"/>
                <polygon class="cls-2" points="540.09 226.35 517.28 221.51 541.03 249.65 540.09 226.35"/>
              </g>
              <path d="M629.17,340.33c-.17,0-.33-.04-.49-.13l-23.8-13.26-26.28,10.6c-.51.21-1.09-.04-1.3-.55-.21-.51.04-1.09.55-1.3l26.72-10.78c.28-.11.6-.09.86.05l24.21,13.49c.48.27.66.88.39,1.36-.18.33-.52.51-.88.51Z"/>
            </g>
          </g>
          <g>
            <g>
              <g>
                <path class="cls-11" d="M655.82,251.62c-16.77,8.3-24.86-.57-27.11-6.15,2.42-6.58,4.28-10.53,13.38-17.23,14.62-10.77,25.62,7.23,25.62,7.23,0,0,7,6.8-11.89,16.15Z"/>
                <path class="cls-9" d="M643.26,256.02c-2.22,0-4.31-.37-6.27-1.12-6.11-2.33-8.59-7.52-9.21-9.05-.09-.23-.1-.49-.01-.72,2.45-6.65,4.29-10.75,13.72-17.69,4.17-3.07,8.48-4.2,12.8-3.35,8.2,1.61,13.57,9.77,14.21,10.78.4.44,1.83,2.24,1.39,5.01-.67,4.24-5.25,8.5-13.64,12.65h0c-4.71,2.33-9.06,3.5-13,3.5ZM629.79,245.45c.73,1.65,2.97,5.69,7.92,7.58,4.87,1.86,10.81,1.08,17.67-2.31,9.62-4.76,12.13-8.67,12.54-11.12.36-2.12-.86-3.38-.91-3.43-.05-.05-.11-.12-.15-.19-.05-.08-5.26-8.45-12.96-9.96-3.74-.73-7.52.28-11.22,3-8.79,6.48-10.65,10.33-12.9,16.4ZM655.82,251.62h0,0Z"/>
              </g>
              <ellipse cx="643.21" cy="233.47" rx="4" ry="6.5"/>
              <path class="cls-2" d="M649.21,228.97l-2,2c-1.56,1.56-4,.21-4-2s1.79-4,4-4,3.56,2.44,2,4Z"/>
            </g>
            <g>
              <g>
                <path class="cls-11" d="M557.19,224.17c18.15,7.6,20.91,23.61,17.48,28.94-7.33,2.38-18.99,2.78-29.04-3.25s-20.4-28.84-20.4-28.84c0,0,11.5-5.42,31.96,3.15Z"/>
                <path class="cls-9" d="M563.81,255.75c-5.96,0-12.58-1.36-18.69-5.03-10.21-6.12-20.37-28.35-20.8-29.29-.23-.5,0-1.08.49-1.32.49-.23,12.14-5.51,32.77,3.13h0c12.63,5.29,16.96,13.93,18.41,18.6,1.43,4.6,1.25,9.13-.47,11.8-.12.19-.31.34-.53.41-3.14,1.02-7,1.69-11.17,1.69ZM526.6,221.58c2.09,4.39,11.03,22.33,19.54,27.43,9.67,5.79,20.96,5.4,27.87,3.27,1.22-2.22,1.25-6.02.07-9.83-1.35-4.34-5.39-12.37-17.27-17.35h0c-16.5-6.91-27.11-4.51-30.21-3.51Z"/>
              </g>
              <ellipse cx="552.71" cy="228.97" rx="4.5" ry="7"/>
              <path class="cls-2" d="M560.21,226.97c0,2.21-.79,2-3,2s-2,.21-2-2-.21-3,2-3,3,.79,3,3Z"/>
            </g>
          </g>
        </g>
        <path class="cls-8" d="M409.68,815.34l-3.93-.73c2.46-13.25,5.38-36.01,2.73-40.64l3.47-1.98c4.24,7.42-1.59,39.7-2.27,43.36Z"/>
        <rect class="cls-8" x="425.21" y="775.97" width="4" height="33.51"/>
        <rect class="cls-8" x="586.21" y="737.97" width="4" height="47.51"/>
        <rect class="cls-8" x="608.21" y="737.97" width="4" height="47.51"/>
        <rect class="cls-8" x="505.7" y="753.56" width="4" height="48.83" transform="translate(-146.36 118.27) rotate(-11.63)"/>
        <rect class="cls-8" x="535.82" y="747.92" width="4" height="48.99" transform="translate(-144.63 124.24) rotate(-11.63)"/>
      </g>
    </g>
  </g>
</svg>