<?xml version="1.0" encoding="UTF-8"?>
<svg id="_レイヤー_2" data-name="レイヤー 2" xmlns="http://www.w3.org/2000/svg" viewBox="0 0 1045 975.96">
  <defs>
    <style>
      .cls-1, .cls-2, .cls-3, .cls-4, .cls-5, .cls-6, .cls-7, .cls-8 {
        stroke: #000;
      }

      .cls-1, .cls-2, .cls-3, .cls-4, .cls-5, .cls-7, .cls-8 {
        stroke-miterlimit: 10;
      }

      .cls-1, .cls-9 {
        fill: gray;
      }

      .cls-10 {
        fill: #fff;
      }

      .cls-11 {
        fill: #abdaed;
      }

      .cls-3, .cls-4 {
        stroke-width: 2px;
      }

      .cls-3, .cls-6, .cls-7 {
        fill: none;
      }

      .cls-12 {
        fill: #b0b0b0;
      }

      .cls-4 {
        fill: #968375;
      }

      .cls-5 {
        fill: #231815;
      }

      .cls-6 {
        stroke-linecap: round;
        stroke-linejoin: round;
      }

      .cls-6, .cls-7 {
        stroke-width: 3px;
      }

      .cls-13 {
        fill: #89c33f;
      }

      .cls-8 {
        fill: #efefef;
      }

      .cls-14 {
        fill: #18313e;
      }
    </style>
  </defs>
  <g id="_レイヤー_1-2" data-name="レイヤー 1">
    <g>
      <g>
        <g>
          <g>
            <g>
              <ellipse class="cls-11" cx="522.5" cy="487.98" rx="513.5" ry="478.98"/>
              <path class="cls-14" d="M522.5,975.96c-70.46,0-138.82-12.88-203.18-38.27-62.2-24.54-118.07-59.68-166.06-104.44-48.03-44.8-85.75-96.99-112.11-155.11C13.85,617.91,0,553.93,0,487.98s13.85-129.93,41.16-190.16c26.36-58.12,64.07-110.31,112.11-155.11,47.99-44.76,103.86-79.9,166.06-104.44C383.68,12.88,452.04,0,522.5,0s138.82,12.88,203.18,38.27c62.2,24.54,118.07,59.68,166.06,104.44,48.03,44.8,85.75,96.99,112.11,155.11,27.31,60.23,41.16,124.2,41.16,190.16s-13.85,129.93-41.16,190.16c-26.36,58.12-64.07,110.31-112.11,155.11-47.99,44.76-103.86,79.9-166.06,104.44-64.36,25.39-132.72,38.27-203.18,38.27ZM522.5,18C244.32,18,18,228.83,18,487.98s226.32,469.98,504.5,469.98,504.5-210.83,504.5-469.98S800.68,18,522.5,18Z"/>
            </g>
            <path class="cls-10" d="M1020,575.52c-21.17,170.64-223.21,384.48-498.55,384.48S47.99,752.13,27,576c-6.05-50.76,292.81-156,494.95-156s511.19,49.53,498.04,155.52Z"/>
          </g>
          <path class="cls-12" d="M811.46,147.92c.06-.67.1-1.35.1-2.03,0-29.87-55.52-54.09-124.01-54.09-52.66,0-97.65,14.32-115.63,34.51-14.79-7.41-34.13-13.06-56.13-16.09.06-.67.1-1.35.1-2.03,0-29.87-55.52-54.09-124.01-54.09s-124.01,24.22-124.01,54.09c0,12.11,9.13,23.29,24.54,32.31-.46,0-.93,0-1.39,0-68.49,0-124.01,24.22-124.01,54.09,0,24.18,36.37,44.65,86.54,51.58-.06.67-.1,1.35-.1,2.03,0,29.87,55.52,54.09,124.01,54.09s124.01-24.22,124.01-54.09c0-12.11-9.13-23.29-24.54-32.31.46,0,.93,0,1.39,0,52.66,0,97.65-14.32,115.63-34.51,14.79,7.41,34.13,13.06,56.13,16.09-.06.67-.1,1.35-.1,2.03,0,29.87,55.52,54.09,124.01,54.09s124.01-24.22,124.01-54.09c0-24.18-36.37-44.65-86.54-51.58Z"/>
          <g>
            <ellipse class="cls-10" cx="233.5" cy="291.5" rx="28.5" ry="17.5"/>
            <ellipse class="cls-10" cx="217.35" cy="394.49" rx="27.65" ry="16.98"/>
            <ellipse class="cls-10" cx="180" cy="319.5" rx="25" ry="19.5"/>
            <path class="cls-10" d="M127,370.5c0,7.46-7.61,13.5-17,13.5s-17-6.04-17-13.5,7.61-13.5,17-13.5,17,6.04,17,13.5Z"/>
            <ellipse class="cls-10" cx="142.65" cy="442.02" rx="27.65" ry="16.98"/>
            <ellipse class="cls-10" cx="545.5" cy="181" rx="32.5" ry="23"/>
            <ellipse class="cls-10" cx="839.5" cy="258" rx="32.5" ry="23"/>
            <ellipse class="cls-10" cx="823.5" cy="317.5" rx="28.5" ry="17.5"/>
            <ellipse class="cls-10" cx="835.5" cy="365.5" rx="28.5" ry="17.5"/>
            <ellipse class="cls-10" cx="913.5" cy="342" rx="32.5" ry="23"/>
            <ellipse class="cls-10" cx="645.5" cy="198.5" rx="28.5" ry="17.5"/>
            <ellipse class="cls-10" cx="768.5" cy="398" rx="32.5" ry="23"/>
            <ellipse class="cls-10" cx="365.5" cy="210.5" rx="22.5" ry="17.5"/>
            <ellipse class="cls-10" cx="447.5" cy="169" rx="32.5" ry="23"/>
            <ellipse class="cls-10" cx="897.5" cy="401.5" rx="28.5" ry="17.5"/>
            <ellipse class="cls-10" cx="909.5" cy="449.5" rx="28.5" ry="17.5"/>
          </g>
        </g>
        <g>
          <path class="cls-1" d="M841.5,557.5c0,186.95-122.15,198-316,198s-347-11.05-347-198,154.15-347,348-347,315,160.05,315,347Z"/>
          <g>
            <ellipse class="cls-1" cx="526.5" cy="385.5" rx="192" ry="172.72" transform="translate(-9.12 12.78) rotate(-1.38)"/>
            <path class="cls-8" d="M356.43,473.42c-.55-.54,2.07,7.08-.29-2.05-3.3-12.73,59.03-98.08,69.37-85.87,11,13,65,34,100,33s77-34,91-41,79,72,71,103c-4.97,19.28-69,83.44-173.89,82.23s-157.17-89.3-157.18-89.31Z"/>
          </g>
          <g>
            <g>
              <path class="cls-7" d="M340.95,281.8l6.83,33.01c1.67,8.09,11.63,11.15,17.55,5.38l59.6-57.97c6.83-6.65,1.95-18.23-7.58-17.97l-47.67,1.28c-18.78.51-32.53,17.87-28.73,36.27Z"/>
              <path class="cls-9" d="M340.95,281.8l6.83,33.01c1.67,8.09,11.63,11.15,17.55,5.38l59.6-57.97c6.83-6.65,1.95-18.23-7.58-17.97l-47.67,1.28c-18.78.51-32.53,17.87-28.73,36.27Z"/>
            </g>
            <path class="cls-12" d="M343.57,296.79l4.69,16.48c2.14,7.51,11.45,10.12,17.19,4.82l43.48-40.28c6.82-6.32,2.64-17.73-6.65-18.14l-28.35-1.26c-20.57-.91-35.99,18.59-30.36,38.39Z"/>
          </g>
          <g>
            <g>
              <path class="cls-7" d="M704.49,280.8l-6.83,33.01c-1.67,8.09-11.63,11.15-17.55,5.38l-59.6-57.97c-6.83-6.65-1.95-18.23,7.58-17.97l47.67,1.28c18.78.51,32.53,17.87,28.73,36.27Z"/>
              <path class="cls-9" d="M704.49,280.8l-6.83,33.01c-1.67,8.09-11.63,11.15-17.55,5.38l-59.6-57.97c-6.83-6.65-1.95-18.23,7.58-17.97l47.67,1.28c18.78.51,32.53,17.87,28.73,36.27Z"/>
            </g>
            <path class="cls-12" d="M701.87,295.79l-4.69,16.48c-2.14,7.51-11.45,10.12-17.19,4.82l-43.48-40.28c-6.82-6.32-2.64-17.73,6.65-18.14l28.35-1.26c20.57-.91,35.99,18.59,30.36,38.39Z"/>
          </g>
          <g>
            <path d="M357.38,471.29c-.75,0-1.51-.14-2.24-.44-3.07-1.24-4.56-4.74-3.32-7.81,8.01-19.84,32.38-80.2,85.17-95.1,3.19-.9,6.5.96,7.4,4.14.9,3.19-.96,6.5-4.14,7.4-47.13,13.3-69.84,69.56-77.3,88.04-.94,2.34-3.19,3.76-5.57,3.76Z"/>
            <path d="M689.62,475.29c-2.37,0-4.62-1.42-5.57-3.76-7.46-18.49-30.17-74.74-77.3-88.04-3.19-.9-5.04-4.22-4.14-7.4.9-3.19,4.21-5.05,7.4-4.14,52.79,14.9,77.16,75.27,85.17,95.1,1.24,3.07-.24,6.57-3.32,7.81-.74.3-1.5.44-2.24.44Z"/>
            <path d="M662.62,511.29c-2.63,0-5.04-1.74-5.78-4.4-6.09-21.99-24.61-88.92-68.57-102.14-3.17-.96-4.97-4.3-4.02-7.47.95-3.17,4.3-4.97,7.47-4.02,50.29,15.14,70.15,86.86,76.67,110.43.88,3.19-.99,6.5-4.18,7.38-.54.15-1.07.22-1.6.22Z"/>
            <path d="M381.48,509.29c-.5,0-1.01-.08-1.52-.24-2.91-.95-4.59-4.4-3.75-7.7,5.74-22.59,23.21-91.33,66.73-106.09,2.9-.98,5.96.89,6.82,4.18.87,3.29-.78,6.75-3.68,7.74-37.79,12.81-54.01,76.64-59.34,97.62-.69,2.72-2.88,4.5-5.26,4.5Z"/>
          </g>
          <g>
            <path class="cls-1" d="M820.67,649.2c21.38,166.83-301.36,237.64-392.52,185.18-61.07-72.19,190.16-194.06,392.52-185.18Z"/>
            <path class="cls-2" d="M552.13,776.65c17.41,18.53,58.93,56.7,41.8,65.9-26.46,7.08-131.12,36.05-165.77-8.17-35.71-45.56,14.36-89.82,45.63-94.77s78.34,37.04,78.34,37.04Z"/>
            <path class="cls-2" d="M533.02,719.62c29.39,15.34,98.94,54.45,122.74,92.51,3.22,5.16,12.41,6.85,19.19,3.56,8.56-4.16,17.97-5.36,22.63-7.26,6.33-2.58,11.32-8.8,7.96-13.21-17.11-22.52-74.73-84.99-130.44-99.53-5.52-1.44-11.78-.95-16.88,1.31-8.81,3.89-16.19,8.18-23.25,10.62-6.84,2.36-7.9,8.89-1.95,12Z"/>
            <path class="cls-2" d="M616.26,681.47c24.17,13.01,98.38,56.28,117.89,88.6,2.64,4.38,12.18,10.78,17.77,7.98,7.06-3.54,12.84-9.52,16.68-11.14,5.22-2.2,9.34-7.48,6.59-11.23-14.04-19.12-53.45-74.95-99.3-87.27-4.54-1.22-9.36-2.21-13.57-.29-7.26,3.31-21.92,4.02-27.74,6.1-5.64,2.01-23.21,4.62-18.32,7.26Z"/>
          </g>
          <rect class="cls-1" x="379.5" y="689.5" width="106" height="87.5" rx="41.55" ry="41.55"/>
          <rect class="cls-1" x="481.5" y="693.5" width="106" height="87.5" rx="41.55" ry="41.55"/>
          <g>
            <line class="cls-3" x1="414.5" y1="751.5" x2="415.5" y2="775.5"/>
            <line class="cls-3" x1="428.5" y1="752.5" x2="429.5" y2="776.5"/>
            <line class="cls-3" x1="441.5" y1="752.5" x2="442.5" y2="776.5"/>
            <line class="cls-3" x1="454.5" y1="752.5" x2="455.5" y2="776.5"/>
          </g>
          <g>
            <line class="cls-3" x1="505.5" y1="752.5" x2="506.5" y2="776.5"/>
            <line class="cls-3" x1="519.5" y1="753.5" x2="520.5" y2="777.5"/>
            <line class="cls-3" x1="532.5" y1="753.5" x2="533.5" y2="777.5"/>
            <line class="cls-3" x1="545.5" y1="753.5" x2="546.5" y2="777.5"/>
          </g>
          <path class="cls-4" d="M512.48,435.18l-9-10.26c-6.81-7.76-1.3-19.92,9.02-19.92h18c10.32,0,15.83,12.16,9.02,19.92l-9,10.26c-4.78,5.45-13.26,5.45-18.04,0Z"/>
          <polyline class="cls-6" points="474 467 521 442 567 471"/>
          <path class="cls-13" d="M459.17,360.28c13.95,3.72,25.83,28.42,25.83,32.29-9.04,5.17-24.54,9.04-37.46,3.88-12.92-5.17-24.54-24.54-24.54-29.71,12.92-7.75,16.79-11.62,36.17-6.46Z"/>
          <path class="cls-13" d="M579.83,359.28c-13.95,3.72-25.83,28.42-25.83,32.29,9.04,5.17,24.54,9.04,37.46,3.88,12.92-5.17,24.54-24.54,24.54-29.71-12.92-7.75-16.79-11.63-36.17-6.46Z"/>
          <ellipse cx="459.96" cy="380.42" rx="16.96" ry="16.41"/>
          <ellipse cx="578.96" cy="380.42" rx="16.96" ry="16.41"/>
          <ellipse class="cls-5" cx="492.5" cy="227" rx="12" ry="8.5"/>
          <ellipse class="cls-5" cx="569.5" cy="228" rx="12" ry="8.5"/>
          <ellipse class="cls-5" cx="531" cy="223.84" rx="16.5" ry="9.34"/>
          <circle class="cls-5" cx="530" cy="281" r="9.5"/>
          <circle class="cls-5" cx="507" cy="253" r="11.5"/>
          <circle class="cls-5" cx="552" cy="253" r="11.5"/>
        </g>
      </g>
      <g>
        <g>
          <path class="cls-14" d="M262.71,158.08c-.16-5.28-.24-10.35-.24-15.2,0-8.75.27-16.67.8-23.76.53-7.09,1.31-13.12,2.32-18.08.48-2.29,1.16-4.51,2.04-6.64.88-2.13,2.13-3.88,3.76-5.24,1.63-1.36,3.77-2.04,6.44-2.04s4.83.68,6.64,2.04c1.81,1.36,3.29,3,4.44,4.92,1.15,1.92,1.99,3.76,2.52,5.52,1.39,4.16,2.56,8.32,3.52,12.48.96,4.16,1.81,8.13,2.56,11.92.53-2.77,1.15-5.69,1.84-8.76.69-3.07,1.39-5.97,2.08-8.72.69-2.75,1.33-5.03,1.92-6.84,2.72-8.37,6.91-12.56,12.56-12.56,3.15,0,5.81,1.13,8,3.4,2.19,2.27,3.79,5.53,4.8,9.8.48,1.92.97,4.72,1.48,8.4.51,3.68.99,8.04,1.44,13.08s.85,10.6,1.2,16.68c.35,6.08.63,12.53.84,19.36l-14.08-.32c0-2.83-.07-6.11-.2-9.84-.13-3.73-.32-7.61-.56-11.64-.24-4.03-.51-7.96-.8-11.8-.29-3.84-.59-7.31-.88-10.4-.29-3.09-.57-5.56-.84-7.4-.27-1.84-.51-2.76-.72-2.76-.05,0-.33.95-.84,2.84-.51,1.89-1.12,4.41-1.84,7.56-.72,3.15-1.51,6.61-2.36,10.4-.85,3.79-1.69,7.59-2.52,11.4-.83,3.81-1.56,7.33-2.2,10.56-.64,3.23-1.15,5.85-1.52,7.88l-12.56.32c-.64-2.99-1.4-6.28-2.28-9.88-.88-3.6-1.79-7.28-2.72-11.04-.93-3.76-1.85-7.39-2.76-10.88-.91-3.49-1.75-6.63-2.52-9.4-.77-2.77-1.4-4.97-1.88-6.6-.48-1.63-.77-2.44-.88-2.44-.21,0-.44,1.16-.68,3.48-.24,2.32-.47,5.45-.68,9.4-.21,3.95-.39,8.4-.52,13.36-.13,4.96-.2,10.08-.2,15.36,0,2.51.01,4.8.04,6.88.03,2.08.07,3.79.12,5.12l-14.08.08Z"/>
          <path class="cls-14" d="M368.71,116.9l-13.68-2.56c2.56-10.35,5.24-19.71,8.04-28.08,2.8-8.37,5.69-15.55,8.68-21.52,2.99-5.97,6.04-10.57,9.16-13.8,3.12-3.23,6.25-4.84,9.4-4.84,6.35,0,12.19,5.88,17.52,17.64,5.33,11.76,9.87,28.79,13.6,51.08l-14.16,1.92c-.64-3.52-1.33-7.13-2.08-10.84-.75-3.71-1.52-7.32-2.32-10.84-1.28-.05-2.67-.08-4.16-.08-2.61,0-5.37.05-8.28.16-2.91.11-5.76.28-8.56.52-2.8.24-5.4.49-7.8.76-1.01,3.41-1.99,6.87-2.92,10.36-.93,3.49-1.75,6.87-2.44,10.12ZM383.43,70.18c-1.17,2.51-2.75,6.56-4.72,12.16,2.29-.27,4.72-.47,7.28-.6,2.56-.13,5.07-.2,7.52-.2,2.08,0,4.08.05,6,.16-.75-2.72-1.45-5.15-2.12-7.28-.67-2.13-1.27-3.81-1.8-5.04-1.12-2.88-2.11-4.92-2.96-6.12-.85-1.2-1.73-1.8-2.64-1.8-.96,0-1.92.63-2.88,1.88-.96,1.25-2.19,3.53-3.68,6.84Z"/>
          <path class="cls-14" d="M448.84,103.24c0-8.32.12-15.83.36-22.52.24-6.69.56-12.8.96-18.32s.85-10.67,1.36-15.44c.51-4.77,1-9.35,1.48-13.72l13.76.56c-.21,1.65-.45,3.44-.72,5.36,1.81,2.45,3.8,5.25,5.96,8.4,2.16,3.15,4.37,6.47,6.64,9.96,2.27,3.49,4.49,6.99,6.68,10.48,2.19,3.49,4.27,6.83,6.24,10,1.97,3.17,3.71,6.01,5.2,8.52.37-3.68.56-8.85.56-15.52,0-3.41-.05-6.93-.16-10.56-.11-3.63-.24-7.11-.4-10.44-.16-3.33-.37-6.32-.64-8.96-.27-2.64-.56-4.71-.88-6.2l15.04-1.84c.11,2.61.17,6.04.2,10.28.03,4.24.04,8.73.04,13.48,0,4.21-.03,8.44-.08,12.68-.05,4.24-.16,8.15-.32,11.72-.16,3.57-.4,6.53-.72,8.88-.59,4.59-1.76,7.97-3.52,10.16-1.76,2.19-4.24,3.28-7.44,3.28-2.61,0-5-.91-7.16-2.72-2.16-1.81-4.49-4.8-7-8.96-1.71-2.88-3.69-6.2-5.96-9.96-2.27-3.76-4.61-7.61-7.04-11.56-2.43-3.95-4.76-7.71-7-11.28-.43,6.24-.75,12.47-.96,18.68-.21,6.21-.32,11.83-.32,16.84v4.52c0,1.41.03,2.73.08,3.96l-14.24.24Z"/>
          <path class="cls-14" d="M593.1,109.46c-5.12,0-9.36-.81-12.72-2.44-3.36-1.63-6.04-3.87-8.04-6.72-2-2.85-3.49-6.15-4.48-9.88-.99-3.73-1.63-7.73-1.92-12-.29-4.27-.44-8.59-.44-12.96,0-4.96.16-9.8.48-14.52.32-4.72.67-8.68,1.04-11.88l14.72.88c-.53,3.89-.95,7.37-1.24,10.44-.29,3.07-.49,5.96-.6,8.68-.11,2.72-.16,5.52-.16,8.4,0,2.24.04,4.65.12,7.24.08,2.59.32,5.15.72,7.68.4,2.53,1.04,4.83,1.92,6.88.88,2.05,2.13,3.71,3.76,4.96,1.63,1.25,3.72,1.88,6.28,1.88,2.77,0,5.03-.63,6.76-1.88,1.73-1.25,3.08-2.93,4.04-5.04.96-2.11,1.65-4.45,2.08-7.04.43-2.59.68-5.23.76-7.92.08-2.69.12-5.24.12-7.64,0-4.53-.13-8.93-.4-13.2-.27-4.27-.61-8.8-1.04-13.6l14.72-1.12c.43,5.12.75,9.8.96,14.04.21,4.24.32,8.15.32,11.72,0,4.85-.17,9.52-.52,14-.35,4.48-1.05,8.6-2.12,12.36-1.07,3.76-2.61,7.04-4.64,9.84-2.03,2.8-4.71,4.97-8.04,6.52-3.33,1.55-7.48,2.32-12.44,2.32Z"/>
          <path class="cls-14" d="M649.3,138.74c-.16-3.63-.24-7.63-.24-12s.08-8.69.24-13.44c.16-4.75.4-9.56.72-14.44.32-4.88.75-9.64,1.28-14.28-.85.21-1.67.41-2.44.6-.77.19-1.48.39-2.12.6l-4.08-12.72c12.91-3.04,23.65-4.56,32.24-4.56,17.44,0,26.16,6.64,26.16,19.92,0,6.24-2.08,11.19-6.24,14.84-4.16,3.65-10.27,5.96-18.32,6.92,4.85,4.11,9.75,7.48,14.68,10.12,4.93,2.64,9.93,4.87,15,6.68l-8.8,11.76c-2.83-1.01-5.79-2.43-8.88-4.24-3.09-1.81-6.16-3.81-9.2-6-3.04-2.19-5.93-4.4-8.68-6.64-2.75-2.24-5.19-4.32-7.32-6.24-.05,3.68-.09,7.4-.12,11.16-.03,3.76-.04,7.64-.04,11.64l-.48.48c-2.03,0-4.2.01-6.52.04-2.32.03-4.41.12-6.28.28l-.56-.48ZM674.18,81.22c-1.49,0-3.04.07-4.64.2-1.6.13-3.2.31-4.8.52-.21,2.99-.4,5.93-.56,8.84-.16,2.91-.29,5.8-.4,8.68,2.35-.05,4.89-.2,7.64-.44,2.75-.24,5.35-.72,7.8-1.44,2.45-.72,4.47-1.77,6.04-3.16,1.57-1.39,2.36-3.23,2.36-5.52,0-2.67-1.09-4.61-3.28-5.84-2.19-1.23-5.57-1.84-10.16-1.84Z"/>
          <path class="cls-14" d="M755.94,181.46c-5.12,0-9.36-.81-12.72-2.44-3.36-1.63-6.04-3.87-8.04-6.72-2-2.85-3.49-6.15-4.48-9.88-.99-3.73-1.63-7.73-1.92-12-.29-4.27-.44-8.59-.44-12.96,0-4.96.16-9.8.48-14.52.32-4.72.67-8.68,1.04-11.88l14.72.88c-.53,3.89-.95,7.37-1.24,10.44-.29,3.07-.49,5.96-.6,8.68-.11,2.72-.16,5.52-.16,8.4,0,2.24.04,4.65.12,7.24.08,2.59.32,5.15.72,7.68.4,2.53,1.04,4.83,1.92,6.88.88,2.05,2.13,3.71,3.76,4.96,1.63,1.25,3.72,1.88,6.28,1.88,2.77,0,5.03-.63,6.76-1.88,1.73-1.25,3.08-2.93,4.04-5.04.96-2.11,1.65-4.45,2.08-7.04.43-2.59.68-5.23.76-7.92.08-2.69.12-5.24.12-7.64,0-4.53-.13-8.93-.4-13.2-.27-4.27-.61-8.8-1.04-13.6l14.72-1.12c.43,5.12.75,9.8.96,14.04.21,4.24.32,8.15.32,11.72,0,4.85-.17,9.52-.52,14-.35,4.48-1.05,8.6-2.12,12.36-1.07,3.76-2.61,7.04-4.64,9.84-2.03,2.8-4.71,4.97-8.04,6.52-3.33,1.55-7.48,2.32-12.44,2.32Z"/>
        </g>
        <g>
          <path class="cls-14" d="M339.84,916.24c0-8.32.12-15.83.36-22.52s.56-12.8.96-18.32.85-10.67,1.36-15.44c.51-4.77,1-9.35,1.48-13.72l13.76.56c-.21,1.65-.45,3.44-.72,5.36,1.81,2.45,3.8,5.25,5.96,8.4,2.16,3.15,4.37,6.47,6.64,9.96s4.49,6.99,6.68,10.48c2.19,3.49,4.27,6.83,6.24,10,1.97,3.17,3.71,6.01,5.2,8.52.37-3.68.56-8.85.56-15.52,0-3.41-.05-6.93-.16-10.56-.11-3.63-.24-7.11-.4-10.44-.16-3.33-.37-6.32-.64-8.96-.27-2.64-.56-4.71-.88-6.2l15.04-1.84c.11,2.61.17,6.04.2,10.28.03,4.24.04,8.73.04,13.48,0,4.21-.03,8.44-.08,12.68-.05,4.24-.16,8.15-.32,11.72-.16,3.57-.4,6.53-.72,8.88-.59,4.59-1.76,7.97-3.52,10.16-1.76,2.19-4.24,3.28-7.44,3.28-2.61,0-5-.91-7.16-2.72s-4.49-4.8-7-8.96c-1.71-2.88-3.69-6.2-5.96-9.96-2.27-3.76-4.61-7.61-7.04-11.56-2.43-3.95-4.76-7.71-7-11.28-.43,6.24-.75,12.47-.96,18.68-.21,6.21-.32,11.83-.32,16.84v4.52c0,1.41.03,2.73.08,3.96l-14.24.24Z"/>
          <path class="cls-14" d="M463.93,947.27c-4.05,0-7.69-.28-10.92-.84-3.23-.56-5.96-1.63-8.2-3.2-2.24-1.57-3.95-3.88-5.12-6.92-1.17-3.04-1.76-7.01-1.76-11.92,0-3.57.19-7.28.56-11.12.37-3.84.84-7.56,1.4-11.16.56-3.6,1.11-6.81,1.64-9.64-1.07.16-1.97.32-2.72.48l-1.52-12.72c2.61-.48,5.64-.89,9.08-1.24,3.44-.35,7.09-.65,10.96-.92,3.87-.27,7.72-.47,11.56-.6,3.84-.13,7.44-.2,10.8-.2,2.67,0,5.11.04,7.32.12,2.21.08,4.04.2,5.48.36l-.64,13.36c-1.44-.27-3.39-.47-5.84-.6-2.45-.13-5.2-.2-8.24-.2-3.57,0-7.39.08-11.44.24-4.05.16-7.92.35-11.6.56-.43,2.24-.8,4.53-1.12,6.88-.32,2.35-.61,4.67-.88,6.96,3.09-.43,6.49-.76,10.2-1s7.4-.43,11.08-.56c3.68-.13,6.99-.2,9.92-.2,1.71,0,3.23.01,4.56.04,1.33.03,2.43.09,3.28.2l-.32,13.12c-.69-.05-1.64-.09-2.84-.12-1.2-.03-2.6-.04-4.2-.04-2.29,0-4.85.04-7.68.12-2.83.08-5.75.19-8.76.32-3.01.13-5.93.29-8.76.48-2.83.19-5.39.41-7.68.68-.21,2.99-.32,5.39-.32,7.2,0,2.61.35,4.53,1.04,5.76.69,1.23,1.85,2.01,3.48,2.36,1.63.35,3.77.52,6.44.52,4.75,0,9.85-.4,15.32-1.2,5.47-.8,10.87-2.05,16.2-3.76l.88,13.92c-6.4,1.76-12.2,2.95-17.4,3.56-5.2.61-9.61.92-13.24.92Z"/>
          <path class="cls-14" d="M537.72,946.92c-.16-4.64-.24-9.87-.24-15.68,0-5.44.08-11.2.24-17.28.16-6.08.43-12.27.8-18.56.37-6.29.83-12.43,1.36-18.4l13.92.24c-.48,3.73-.89,7.53-1.24,11.4-.35,3.87-.63,7.75-.84,11.64,2.24-1.55,4.95-3.35,8.12-5.4,3.17-2.05,6.57-4.13,10.2-6.24,3.63-2.11,7.27-4.12,10.92-6.04,3.65-1.92,7.08-3.54,10.28-4.88l3.92,13.6c-3.25,1.33-6.52,2.8-9.8,4.4-3.28,1.6-6.4,3.19-9.36,4.76-2.96,1.57-5.59,3.07-7.88,4.48s-4.11,2.64-5.44,3.68c-1.33,1.04-2,1.8-2,2.28,0,.69,1.04,1.87,3.12,3.52s4.91,3.6,8.48,5.84c3.57,2.24,7.64,4.59,12.2,7.04s9.29,4.85,14.2,7.2l-7.44,12.32c-6.08-3.15-11.67-6.31-16.76-9.48-5.09-3.17-9.63-6.17-13.6-9-3.97-2.83-7.27-5.25-9.88-7.28v5.92c0,3.57.04,7.03.12,10.36s.17,6.44.28,9.32l-13.68.24Z"/>
          <path class="cls-14" d="M655.73,929.71c-5.01,0-9.57-.92-13.68-2.76-4.11-1.84-7.65-4.39-10.64-7.64-2.99-3.25-5.28-6.96-6.88-11.12-1.6-4.16-2.4-8.56-2.4-13.2,0-4.27.64-8.47,1.92-12.6,1.28-4.13,3.23-7.89,5.84-11.28,2.61-3.39,5.93-6.09,9.96-8.12,4.03-2.03,8.79-3.04,14.28-3.04s10.67.97,14.88,2.92c4.21,1.95,7.68,4.55,10.4,7.8,2.72,3.25,4.75,6.93,6.08,11.04,1.33,4.11,2,8.32,2,12.64,0,5.17-.77,9.92-2.32,14.24-1.55,4.32-3.73,8.07-6.56,11.24-2.83,3.17-6.19,5.61-10.08,7.32-3.89,1.71-8.16,2.56-12.8,2.56ZM655.73,916.35c3.2,0,6.16-.79,8.88-2.36,2.72-1.57,4.91-4.04,6.56-7.4,1.65-3.36,2.48-7.73,2.48-13.12,0-4.64-.91-8.45-2.72-11.44-1.81-2.99-4.16-5.2-7.04-6.64s-5.89-2.16-9.04-2.16c-3.57,0-6.59.64-9.04,1.92s-4.43,3-5.92,5.16-2.56,4.57-3.2,7.24c-.64,2.67-.96,5.41-.96,8.24s.53,5.4,1.6,7.88c1.07,2.48,2.52,4.67,4.36,6.56,1.84,1.89,3.96,3.39,6.36,4.48,2.4,1.09,4.96,1.64,7.68,1.64Z"/>
        </g>
      </g>
    </g>
  </g>
</svg>